M48
; DRILL file {KiCad 9.0.3} date 2026-03-22T16:33:55+0530
; FORMAT={-:-/ absolute / metric / decimal}
; #@! TF.CreationDate,2026-03-22T16:33:55+05:30
; #@! TF.GenerationSoftware,Kicad,Pcbnew,9.0.3
; #@! TF.FileFunction,Plated,1,2,PTH
FMAT,2
METRIC
; #@! TA.AperFunction,Plated,PTH,ViaDrill
T1C0.400
; #@! TA.AperFunction,Plated,PTH,ComponentDrill
T2C1.000
; #@! TA.AperFunction,Plated,PTH,ComponentDrill
T3C1.016
; #@! TA.AperFunction,Plated,PTH,ComponentDrill
T4C1.020
%
G90
G05
T1
X145.5Y-73.5
T2
X146.735Y-64.5
X146.735Y-105.0
X149.275Y-64.5
X149.275Y-105.0
T3
X130.22Y-76.88
X130.22Y-92.12
X132.76Y-76.88
X132.76Y-92.12
X135.3Y-76.88
X135.3Y-92.12
X137.84Y-76.88
X137.84Y-92.12
X140.38Y-76.88
X140.38Y-92.12
X142.92Y-76.88
X142.92Y-92.12
X145.46Y-76.88
X145.46Y-92.12
X148.0Y-76.88
X148.0Y-92.12
X150.54Y-76.88
X150.54Y-92.12
X153.08Y-76.88
X153.08Y-92.12
X155.62Y-76.88
X155.62Y-92.12
X158.16Y-76.88
X158.16Y-92.12
X160.7Y-76.88
X160.7Y-92.12
X163.24Y-76.88
X163.24Y-92.12
X165.78Y-76.88
X165.78Y-92.12
T4
X112.125Y-80.5
X112.125Y-83.04
X112.125Y-85.58
X112.125Y-88.12
X144.19Y-48.625
X144.19Y-120.375
X146.73Y-48.625
X146.73Y-120.375
X149.27Y-120.375
X149.27Y-48.625
X151.81Y-48.625
X151.81Y-120.375
X183.875Y-80.69
X183.875Y-83.23
X183.875Y-85.77
X183.875Y-88.31
M30
