%TF.GenerationSoftware,KiCad,Pcbnew,9.0.3*%
%TF.CreationDate,2026-03-22T16:27:51+05:30*%
%TF.ProjectId,Power PCB,506f7765-7220-4504-9342-2e6b69636164,rev?*%
%TF.SameCoordinates,Original*%
%TF.FileFunction,Soldermask,Top*%
%TF.FilePolarity,Negative*%
%FSLAX46Y46*%
G04 Gerber Fmt 4.6, Leading zero omitted, Abs format (unit mm)*
G04 Created by KiCad (PCBNEW 9.0.3) date 2026-03-22 16:27:51*
%MOMM*%
%LPD*%
G01*
G04 APERTURE LIST*
G04 Aperture macros list*
%AMRoundRect*
0 Rectangle with rounded corners*
0 $1 Rounding radius*
0 $2 $3 $4 $5 $6 $7 $8 $9 X,Y pos of 4 corners*
0 Add a 4 corners polygon primitive as box body*
4,1,4,$2,$3,$4,$5,$6,$7,$8,$9,$2,$3,0*
0 Add four circle primitives for the rounded corners*
1,1,$1+$1,$2,$3*
1,1,$1+$1,$4,$5*
1,1,$1+$1,$6,$7*
1,1,$1+$1,$8,$9*
0 Add four rect primitives between the rounded corners*
20,1,$1+$1,$2,$3,$4,$5,0*
20,1,$1+$1,$4,$5,$6,$7,0*
20,1,$1+$1,$6,$7,$8,$9,0*
20,1,$1+$1,$8,$9,$2,$3,0*%
G04 Aperture macros list end*
%ADD10R,1.700000X1.700000*%
%ADD11RoundRect,0.250000X0.750000X0.750000X-0.750000X0.750000X-0.750000X-0.750000X0.750000X-0.750000X0*%
%ADD12C,2.000000*%
%ADD13C,2.780000*%
%ADD14C,1.700000*%
%ADD15RoundRect,0.250000X-0.750000X0.750000X-0.750000X-0.750000X0.750000X-0.750000X0.750000X0.750000X0*%
%ADD16O,1.924000X6.824000*%
%ADD17RoundRect,0.250001X-1.149999X-1.149999X1.149999X-1.149999X1.149999X1.149999X-1.149999X1.149999X0*%
%ADD18C,2.800000*%
%ADD19RoundRect,0.250001X1.149999X1.149999X-1.149999X1.149999X-1.149999X-1.149999X1.149999X-1.149999X0*%
%ADD20RoundRect,0.250001X1.149999X-1.149999X1.149999X1.149999X-1.149999X1.149999X-1.149999X-1.149999X0*%
%ADD21RoundRect,0.250000X0.550000X-0.550000X0.550000X0.550000X-0.550000X0.550000X-0.550000X-0.550000X0*%
%ADD22C,1.600000*%
G04 APERTURE END LIST*
D10*
%TO.C,Step_Up_OUT1*%
X219500000Y-73500000D03*
%TD*%
D11*
%TO.C,C1*%
X153000000Y-118000000D03*
D12*
X148000000Y-118000000D03*
%TD*%
D10*
%TO.C,Step_Down_OUT_3.3V1*%
X220000000Y-119500000D03*
%TD*%
%TO.C,Step_Down_OUT_5V1*%
X219500000Y-96000000D03*
%TD*%
D13*
%TO.C,F1*%
X155040000Y-85300000D03*
X155040000Y-88700000D03*
X164960000Y-85300000D03*
X164960000Y-88700000D03*
%TD*%
D10*
%TO.C,Battery_Capacity*%
X163500000Y-118275000D03*
D14*
X163500000Y-115735000D03*
%TD*%
D10*
%TO.C,3.3V_Out1*%
X244000000Y-119500000D03*
D14*
X244000000Y-122040000D03*
%TD*%
D10*
%TO.C,3.3V_Out2*%
X253000000Y-119500000D03*
D14*
X253000000Y-122040000D03*
%TD*%
D10*
%TO.C,5V_Out2*%
X253500000Y-110725000D03*
D14*
X253500000Y-113265000D03*
%TD*%
D10*
%TO.C,Step_Down_IN_3.3V_GND1*%
X181000000Y-135500000D03*
%TD*%
%TO.C,3.3V_Out3*%
X263500000Y-119500000D03*
D14*
X263500000Y-122040000D03*
%TD*%
D10*
%TO.C,Step_Down_OUT_3.3V_GND1*%
X220000000Y-135500000D03*
%TD*%
D15*
%TO.C,C4*%
X231500000Y-95999999D03*
D12*
X231500000Y-100999999D03*
%TD*%
D10*
%TO.C,Step_Up_IN_GND1*%
X180500000Y-89500000D03*
%TD*%
%TO.C,5V_Out4*%
X249000000Y-96225000D03*
D14*
X249000000Y-98765000D03*
%TD*%
D10*
%TO.C,Step_Up_IN1*%
X180500000Y-73500000D03*
%TD*%
D16*
%TO.C,SW1*%
X145900000Y-103000000D03*
X153000000Y-103000000D03*
%TD*%
D17*
%TO.C,12_Out1*%
X155750000Y-133467500D03*
D18*
X160750000Y-133467500D03*
%TD*%
D10*
%TO.C,Step_Down_IN_5V_GND1*%
X180500000Y-112000000D03*
%TD*%
%TO.C,Step_Down_IN_3.3V1*%
X181000000Y-119500000D03*
%TD*%
%TO.C,5V_Out3*%
X263500000Y-110725000D03*
D14*
X263500000Y-113265000D03*
%TD*%
D19*
%TO.C,12_IN1*%
X165000000Y-75500000D03*
D18*
X160000000Y-75500000D03*
%TD*%
D10*
%TO.C,5V_Out1*%
X244500000Y-110725000D03*
D14*
X244500000Y-113265000D03*
%TD*%
D10*
%TO.C,Step_Up_OUT_GND1*%
X219500000Y-89500000D03*
%TD*%
D20*
%TO.C,24V_Out1*%
X244500000Y-80000000D03*
D18*
X244500000Y-75000000D03*
%TD*%
D17*
%TO.C,12_Out4*%
X246000000Y-133000000D03*
D18*
X251000000Y-133000000D03*
%TD*%
D15*
%TO.C,C2*%
X230500000Y-80132323D03*
D12*
X230500000Y-85132323D03*
%TD*%
D17*
%TO.C,12_Out3*%
X230000000Y-133000000D03*
D18*
X235000000Y-133000000D03*
%TD*%
D10*
%TO.C,Step_Down_IN_5V1*%
X180500000Y-96000000D03*
%TD*%
%TO.C,5V_Out5*%
X258500000Y-96225000D03*
D14*
X258500000Y-98765000D03*
%TD*%
D10*
%TO.C,Step_Down_OUT_5V_GND1*%
X219500000Y-112000000D03*
%TD*%
D21*
%TO.C,C3*%
X232000000Y-119499999D03*
D22*
X232000000Y-114499999D03*
%TD*%
D17*
%TO.C,12_Out2*%
X169500000Y-133467500D03*
D18*
X174500000Y-133467500D03*
%TD*%
M02*
