%TF.GenerationSoftware,KiCad,Pcbnew,9.0.3*%
%TF.CreationDate,2026-03-22T16:27:51+05:30*%
%TF.ProjectId,Power PCB,506f7765-7220-4504-9342-2e6b69636164,rev?*%
%TF.SameCoordinates,Original*%
%TF.FileFunction,Copper,L2,Bot*%
%TF.FilePolarity,Positive*%
%FSLAX46Y46*%
G04 Gerber Fmt 4.6, Leading zero omitted, Abs format (unit mm)*
G04 Created by KiCad (PCBNEW 9.0.3) date 2026-03-22 16:27:51*
%MOMM*%
%LPD*%
G01*
G04 APERTURE LIST*
G04 Aperture macros list*
%AMRoundRect*
0 Rectangle with rounded corners*
0 $1 Rounding radius*
0 $2 $3 $4 $5 $6 $7 $8 $9 X,Y pos of 4 corners*
0 Add a 4 corners polygon primitive as box body*
4,1,4,$2,$3,$4,$5,$6,$7,$8,$9,$2,$3,0*
0 Add four circle primitives for the rounded corners*
1,1,$1+$1,$2,$3*
1,1,$1+$1,$4,$5*
1,1,$1+$1,$6,$7*
1,1,$1+$1,$8,$9*
0 Add four rect primitives between the rounded corners*
20,1,$1+$1,$2,$3,$4,$5,0*
20,1,$1+$1,$4,$5,$6,$7,0*
20,1,$1+$1,$6,$7,$8,$9,0*
20,1,$1+$1,$8,$9,$2,$3,0*%
G04 Aperture macros list end*
%TA.AperFunction,ComponentPad*%
%ADD10R,1.700000X1.700000*%
%TD*%
%TA.AperFunction,ComponentPad*%
%ADD11RoundRect,0.250000X0.750000X0.750000X-0.750000X0.750000X-0.750000X-0.750000X0.750000X-0.750000X0*%
%TD*%
%TA.AperFunction,ComponentPad*%
%ADD12C,2.000000*%
%TD*%
%TA.AperFunction,ComponentPad*%
%ADD13C,2.780000*%
%TD*%
%TA.AperFunction,ComponentPad*%
%ADD14C,1.700000*%
%TD*%
%TA.AperFunction,ComponentPad*%
%ADD15RoundRect,0.250000X-0.750000X0.750000X-0.750000X-0.750000X0.750000X-0.750000X0.750000X0.750000X0*%
%TD*%
%TA.AperFunction,ComponentPad*%
%ADD16O,1.720000X6.620000*%
%TD*%
%TA.AperFunction,ComponentPad*%
%ADD17RoundRect,0.250001X-1.149999X-1.149999X1.149999X-1.149999X1.149999X1.149999X-1.149999X1.149999X0*%
%TD*%
%TA.AperFunction,ComponentPad*%
%ADD18C,2.800000*%
%TD*%
%TA.AperFunction,ComponentPad*%
%ADD19RoundRect,0.250001X1.149999X1.149999X-1.149999X1.149999X-1.149999X-1.149999X1.149999X-1.149999X0*%
%TD*%
%TA.AperFunction,ComponentPad*%
%ADD20RoundRect,0.250001X1.149999X-1.149999X1.149999X1.149999X-1.149999X1.149999X-1.149999X-1.149999X0*%
%TD*%
%TA.AperFunction,ComponentPad*%
%ADD21RoundRect,0.250000X0.550000X-0.550000X0.550000X0.550000X-0.550000X0.550000X-0.550000X-0.550000X0*%
%TD*%
%TA.AperFunction,ComponentPad*%
%ADD22C,1.600000*%
%TD*%
G04 APERTURE END LIST*
D10*
%TO.P,Step_Up_OUT1,1,Pin_1*%
%TO.N,Net-(24V_Out1-Pin_1)*%
X219500000Y-73500000D03*
%TD*%
D11*
%TO.P,C1,1*%
%TO.N,Net-(12_Out1-Pin_1)*%
X153000000Y-118000000D03*
D12*
%TO.P,C1,2*%
%TO.N,GND*%
X148000000Y-118000000D03*
%TD*%
D10*
%TO.P,Step_Down_OUT_3.3V1,1,Pin_1*%
%TO.N,Net-(3.3V_Out1-Pin_1)*%
X220000000Y-119500000D03*
%TD*%
%TO.P,Step_Down_OUT_5V1,1,Pin_1*%
%TO.N,Net-(5V_Out1-Pin_1)*%
X219500000Y-96000000D03*
%TD*%
D13*
%TO.P,F1,1*%
%TO.N,Net-(F1-Pad1)*%
X155040000Y-85300000D03*
X155040000Y-88700000D03*
%TO.P,F1,2*%
%TO.N,Net-(12_IN1-Pin_1)*%
X164960000Y-85300000D03*
X164960000Y-88700000D03*
%TD*%
D10*
%TO.P,Battery_Capacity,1,Pin_1*%
%TO.N,GND*%
X163500000Y-118275000D03*
D14*
%TO.P,Battery_Capacity,2,Pin_2*%
%TO.N,Net-(12_Out1-Pin_1)*%
X163500000Y-115735000D03*
%TD*%
D10*
%TO.P,3.3V_Out1,1,Pin_1*%
%TO.N,Net-(3.3V_Out1-Pin_1)*%
X244000000Y-119500000D03*
D14*
%TO.P,3.3V_Out1,2,Pin_2*%
%TO.N,GND*%
X244000000Y-122040000D03*
%TD*%
D10*
%TO.P,3.3V_Out2,1,Pin_1*%
%TO.N,Net-(3.3V_Out1-Pin_1)*%
X253000000Y-119500000D03*
D14*
%TO.P,3.3V_Out2,2,Pin_2*%
%TO.N,GND*%
X253000000Y-122040000D03*
%TD*%
D10*
%TO.P,5V_Out2,1,Pin_1*%
%TO.N,Net-(5V_Out1-Pin_1)*%
X253500000Y-110725000D03*
D14*
%TO.P,5V_Out2,2,Pin_2*%
%TO.N,GND*%
X253500000Y-113265000D03*
%TD*%
D10*
%TO.P,Step_Down_IN_3.3V_GND1,1,Pin_1*%
%TO.N,GND*%
X181000000Y-135500000D03*
%TD*%
%TO.P,3.3V_Out3,1,Pin_1*%
%TO.N,Net-(3.3V_Out1-Pin_1)*%
X263500000Y-119500000D03*
D14*
%TO.P,3.3V_Out3,2,Pin_2*%
%TO.N,GND*%
X263500000Y-122040000D03*
%TD*%
D10*
%TO.P,Step_Down_OUT_3.3V_GND1,1,Pin_1*%
%TO.N,GND*%
X220000000Y-135500000D03*
%TD*%
D15*
%TO.P,C4,1*%
%TO.N,Net-(5V_Out1-Pin_1)*%
X231500000Y-95999999D03*
D12*
%TO.P,C4,2*%
%TO.N,GND*%
X231500000Y-100999999D03*
%TD*%
D10*
%TO.P,Step_Up_IN_GND1,1,Pin_1*%
%TO.N,GND*%
X180500000Y-89500000D03*
%TD*%
%TO.P,5V_Out4,1,Pin_1*%
%TO.N,Net-(5V_Out1-Pin_1)*%
X249000000Y-96225000D03*
D14*
%TO.P,5V_Out4,2,Pin_2*%
%TO.N,GND*%
X249000000Y-98765000D03*
%TD*%
D10*
%TO.P,Step_Up_IN1,1,Pin_1*%
%TO.N,Net-(12_Out1-Pin_1)*%
X180500000Y-73500000D03*
%TD*%
D16*
%TO.P,SW1,1*%
%TO.N,Net-(F1-Pad1)*%
X145900000Y-103000000D03*
%TO.P,SW1,2*%
%TO.N,Net-(12_Out1-Pin_1)*%
X153000000Y-103000000D03*
%TD*%
D17*
%TO.P,12_Out1,1,Pin_1*%
%TO.N,Net-(12_Out1-Pin_1)*%
X155750000Y-133467500D03*
D18*
%TO.P,12_Out1,2,Pin_2*%
%TO.N,GND*%
X160750000Y-133467500D03*
%TD*%
D10*
%TO.P,Step_Down_IN_5V_GND1,1,Pin_1*%
%TO.N,GND*%
X180500000Y-112000000D03*
%TD*%
%TO.P,Step_Down_IN_3.3V1,1,Pin_1*%
%TO.N,Net-(12_Out1-Pin_1)*%
X181000000Y-119500000D03*
%TD*%
%TO.P,5V_Out3,1,Pin_1*%
%TO.N,Net-(5V_Out1-Pin_1)*%
X263500000Y-110725000D03*
D14*
%TO.P,5V_Out3,2,Pin_2*%
%TO.N,GND*%
X263500000Y-113265000D03*
%TD*%
D19*
%TO.P,12_IN1,1,Pin_1*%
%TO.N,Net-(12_IN1-Pin_1)*%
X165000000Y-75500000D03*
D18*
%TO.P,12_IN1,2,Pin_2*%
%TO.N,GND*%
X160000000Y-75500000D03*
%TD*%
D10*
%TO.P,5V_Out1,1,Pin_1*%
%TO.N,Net-(5V_Out1-Pin_1)*%
X244500000Y-110725000D03*
D14*
%TO.P,5V_Out1,2,Pin_2*%
%TO.N,GND*%
X244500000Y-113265000D03*
%TD*%
D10*
%TO.P,Step_Up_OUT_GND1,1,Pin_1*%
%TO.N,GND*%
X219500000Y-89500000D03*
%TD*%
D20*
%TO.P,24V_Out1,1,Pin_1*%
%TO.N,Net-(24V_Out1-Pin_1)*%
X244500000Y-80000000D03*
D18*
%TO.P,24V_Out1,2,Pin_2*%
%TO.N,GND*%
X244500000Y-75000000D03*
%TD*%
D17*
%TO.P,12_Out4,1,Pin_1*%
%TO.N,Net-(12_Out1-Pin_1)*%
X246000000Y-133000000D03*
D18*
%TO.P,12_Out4,2,Pin_2*%
%TO.N,GND*%
X251000000Y-133000000D03*
%TD*%
D15*
%TO.P,C2,1*%
%TO.N,Net-(24V_Out1-Pin_1)*%
X230500000Y-80132323D03*
D12*
%TO.P,C2,2*%
%TO.N,GND*%
X230500000Y-85132323D03*
%TD*%
D17*
%TO.P,12_Out3,1,Pin_1*%
%TO.N,Net-(12_Out1-Pin_1)*%
X230000000Y-133000000D03*
D18*
%TO.P,12_Out3,2,Pin_2*%
%TO.N,GND*%
X235000000Y-133000000D03*
%TD*%
D10*
%TO.P,Step_Down_IN_5V1,1,Pin_1*%
%TO.N,Net-(12_Out1-Pin_1)*%
X180500000Y-96000000D03*
%TD*%
%TO.P,5V_Out5,1,Pin_1*%
%TO.N,Net-(5V_Out1-Pin_1)*%
X258500000Y-96225000D03*
D14*
%TO.P,5V_Out5,2,Pin_2*%
%TO.N,GND*%
X258500000Y-98765000D03*
%TD*%
D10*
%TO.P,Step_Down_OUT_5V_GND1,1,Pin_1*%
%TO.N,GND*%
X219500000Y-112000000D03*
%TD*%
D21*
%TO.P,C3,1*%
%TO.N,Net-(3.3V_Out1-Pin_1)*%
X232000000Y-119499999D03*
D22*
%TO.P,C3,2*%
%TO.N,GND*%
X232000000Y-114499999D03*
%TD*%
D17*
%TO.P,12_Out2,1,Pin_1*%
%TO.N,Net-(12_Out1-Pin_1)*%
X169500000Y-133467500D03*
D18*
%TO.P,12_Out2,2,Pin_2*%
%TO.N,GND*%
X174500000Y-133467500D03*
%TD*%
%TA.AperFunction,Conductor*%
%TO.N,GND*%
G36*
X265942539Y-70020185D02*
G01*
X265988294Y-70072989D01*
X265999500Y-70124500D01*
X265999500Y-138875500D01*
X265979815Y-138942539D01*
X265927011Y-138988294D01*
X265875500Y-138999500D01*
X141624500Y-138999500D01*
X141557461Y-138979815D01*
X141511706Y-138927011D01*
X141500500Y-138875500D01*
X141500500Y-132828031D01*
X144499500Y-132828031D01*
X144499500Y-132859852D01*
X144499500Y-133171969D01*
X144509751Y-133276054D01*
X144533210Y-133514249D01*
X144600308Y-133851572D01*
X144700150Y-134180706D01*
X144750722Y-134302797D01*
X144819703Y-134469333D01*
X144831770Y-134498464D01*
X144831772Y-134498469D01*
X144993893Y-134801775D01*
X144993904Y-134801793D01*
X145184975Y-135087751D01*
X145184985Y-135087765D01*
X145403176Y-135353632D01*
X145646367Y-135596823D01*
X145646372Y-135596827D01*
X145646373Y-135596828D01*
X145912240Y-135815019D01*
X146198213Y-136006100D01*
X146198222Y-136006105D01*
X146198224Y-136006106D01*
X146501530Y-136168227D01*
X146501532Y-136168227D01*
X146501538Y-136168231D01*
X146819295Y-136299850D01*
X147148422Y-136399690D01*
X147485750Y-136466789D01*
X147828031Y-136500500D01*
X147828034Y-136500500D01*
X148171966Y-136500500D01*
X148171969Y-136500500D01*
X148514250Y-136466789D01*
X148851578Y-136399690D01*
X149180705Y-136299850D01*
X149498462Y-136168231D01*
X149801787Y-136006100D01*
X150087760Y-135815019D01*
X150353627Y-135596828D01*
X150596828Y-135353627D01*
X150815019Y-135087760D01*
X151006100Y-134801787D01*
X151168231Y-134498462D01*
X151299850Y-134180705D01*
X151399690Y-133851578D01*
X151466789Y-133514250D01*
X151500500Y-133171969D01*
X151500500Y-132828031D01*
X151466789Y-132485750D01*
X151451650Y-132409640D01*
X151427559Y-132288526D01*
X151423373Y-132267484D01*
X153849500Y-132267484D01*
X153849500Y-134667515D01*
X153860000Y-134770295D01*
X153860001Y-134770297D01*
X153881379Y-134834812D01*
X153915186Y-134936835D01*
X153915187Y-134936837D01*
X154007286Y-135086151D01*
X154007289Y-135086155D01*
X154131344Y-135210210D01*
X154131348Y-135210213D01*
X154280662Y-135302312D01*
X154280664Y-135302313D01*
X154280666Y-135302314D01*
X154447203Y-135357499D01*
X154549992Y-135368000D01*
X154549997Y-135368000D01*
X156950003Y-135368000D01*
X156950008Y-135368000D01*
X157052797Y-135357499D01*
X157219334Y-135302314D01*
X157368655Y-135210211D01*
X157492711Y-135086155D01*
X157584814Y-134936834D01*
X157639999Y-134770297D01*
X157650500Y-134667508D01*
X157650500Y-133342966D01*
X158850000Y-133342966D01*
X158850000Y-133592033D01*
X158882508Y-133838963D01*
X158946973Y-134079549D01*
X159042283Y-134309648D01*
X159042288Y-134309659D01*
X159166813Y-134525341D01*
X159166819Y-134525349D01*
X159241400Y-134622545D01*
X160148958Y-133714987D01*
X160173978Y-133775390D01*
X160245112Y-133881851D01*
X160335649Y-133972388D01*
X160442110Y-134043522D01*
X160502511Y-134068541D01*
X159594953Y-134976098D01*
X159692150Y-135050680D01*
X159692158Y-135050686D01*
X159907840Y-135175211D01*
X159907851Y-135175216D01*
X160137950Y-135270526D01*
X160378536Y-135334991D01*
X160625466Y-135367500D01*
X160874534Y-135367500D01*
X161121463Y-135334991D01*
X161362049Y-135270526D01*
X161592148Y-135175216D01*
X161592159Y-135175211D01*
X161807855Y-135050678D01*
X161905045Y-134976100D01*
X161905045Y-134976097D01*
X160997488Y-134068541D01*
X161057890Y-134043522D01*
X161164351Y-133972388D01*
X161254888Y-133881851D01*
X161326022Y-133775390D01*
X161351041Y-133714989D01*
X162258597Y-134622545D01*
X162258600Y-134622545D01*
X162333178Y-134525355D01*
X162457711Y-134309659D01*
X162457716Y-134309648D01*
X162553026Y-134079549D01*
X162617491Y-133838963D01*
X162650000Y-133592033D01*
X162650000Y-133342966D01*
X162617491Y-133096036D01*
X162553026Y-132855450D01*
X162457716Y-132625351D01*
X162457711Y-132625340D01*
X162333186Y-132409658D01*
X162333174Y-132409640D01*
X162279600Y-132339822D01*
X162279599Y-132339821D01*
X162258598Y-132312453D01*
X161351041Y-133220010D01*
X161326022Y-133159610D01*
X161254888Y-133053149D01*
X161164351Y-132962612D01*
X161057890Y-132891478D01*
X160997487Y-132866457D01*
X161596461Y-132267484D01*
X167599500Y-132267484D01*
X167599500Y-134667515D01*
X167610000Y-134770295D01*
X167610001Y-134770297D01*
X167631379Y-134834812D01*
X167665186Y-134936835D01*
X167665187Y-134936837D01*
X167757286Y-135086151D01*
X167757289Y-135086155D01*
X167881344Y-135210210D01*
X167881348Y-135210213D01*
X168030662Y-135302312D01*
X168030664Y-135302313D01*
X168030666Y-135302314D01*
X168197203Y-135357499D01*
X168299992Y-135368000D01*
X168299997Y-135368000D01*
X170700003Y-135368000D01*
X170700008Y-135368000D01*
X170802797Y-135357499D01*
X170969334Y-135302314D01*
X171118655Y-135210211D01*
X171242711Y-135086155D01*
X171334814Y-134936834D01*
X171389999Y-134770297D01*
X171400500Y-134667508D01*
X171400500Y-133342966D01*
X172600000Y-133342966D01*
X172600000Y-133592033D01*
X172632508Y-133838963D01*
X172696973Y-134079549D01*
X172792283Y-134309648D01*
X172792288Y-134309659D01*
X172916813Y-134525341D01*
X172916819Y-134525349D01*
X172991400Y-134622545D01*
X173898958Y-133714987D01*
X173923978Y-133775390D01*
X173995112Y-133881851D01*
X174085649Y-133972388D01*
X174192110Y-134043522D01*
X174252511Y-134068541D01*
X173344953Y-134976098D01*
X173442150Y-135050680D01*
X173442158Y-135050686D01*
X173657840Y-135175211D01*
X173657851Y-135175216D01*
X173887950Y-135270526D01*
X174128536Y-135334991D01*
X174375466Y-135367500D01*
X174624534Y-135367500D01*
X174871463Y-135334991D01*
X175112049Y-135270526D01*
X175342148Y-135175216D01*
X175342159Y-135175211D01*
X175557855Y-135050678D01*
X175655045Y-134976100D01*
X175655045Y-134976097D01*
X174747488Y-134068541D01*
X174807890Y-134043522D01*
X174914351Y-133972388D01*
X175004888Y-133881851D01*
X175076022Y-133775390D01*
X175101041Y-133714989D01*
X176008597Y-134622545D01*
X176008600Y-134622545D01*
X176024246Y-134602155D01*
X179650000Y-134602155D01*
X179650000Y-135250000D01*
X180566988Y-135250000D01*
X180534075Y-135307007D01*
X180500000Y-135434174D01*
X180500000Y-135565826D01*
X180534075Y-135692993D01*
X180566988Y-135750000D01*
X179650000Y-135750000D01*
X179650000Y-136397844D01*
X179656401Y-136457372D01*
X179656403Y-136457379D01*
X179706645Y-136592086D01*
X179706649Y-136592093D01*
X179792809Y-136707187D01*
X179792812Y-136707190D01*
X179907906Y-136793350D01*
X179907913Y-136793354D01*
X180042620Y-136843596D01*
X180042627Y-136843598D01*
X180102155Y-136849999D01*
X180102172Y-136850000D01*
X180750000Y-136850000D01*
X180750000Y-135933012D01*
X180807007Y-135965925D01*
X180934174Y-136000000D01*
X181065826Y-136000000D01*
X181192993Y-135965925D01*
X181250000Y-135933012D01*
X181250000Y-136850000D01*
X181897828Y-136850000D01*
X181897844Y-136849999D01*
X181957372Y-136843598D01*
X181957379Y-136843596D01*
X182092086Y-136793354D01*
X182092093Y-136793350D01*
X182207187Y-136707190D01*
X182207190Y-136707187D01*
X182293350Y-136592093D01*
X182293354Y-136592086D01*
X182343596Y-136457379D01*
X182343598Y-136457372D01*
X182349999Y-136397844D01*
X182350000Y-136397827D01*
X182350000Y-135750000D01*
X181433012Y-135750000D01*
X181465925Y-135692993D01*
X181500000Y-135565826D01*
X181500000Y-135434174D01*
X181465925Y-135307007D01*
X181433012Y-135250000D01*
X182350000Y-135250000D01*
X182350000Y-134602172D01*
X182349999Y-134602155D01*
X218650000Y-134602155D01*
X218650000Y-135250000D01*
X219566988Y-135250000D01*
X219534075Y-135307007D01*
X219500000Y-135434174D01*
X219500000Y-135565826D01*
X219534075Y-135692993D01*
X219566988Y-135750000D01*
X218650000Y-135750000D01*
X218650000Y-136397844D01*
X218656401Y-136457372D01*
X218656403Y-136457379D01*
X218706645Y-136592086D01*
X218706649Y-136592093D01*
X218792809Y-136707187D01*
X218792812Y-136707190D01*
X218907906Y-136793350D01*
X218907913Y-136793354D01*
X219042620Y-136843596D01*
X219042627Y-136843598D01*
X219102155Y-136849999D01*
X219102172Y-136850000D01*
X219750000Y-136850000D01*
X219750000Y-135933012D01*
X219807007Y-135965925D01*
X219934174Y-136000000D01*
X220065826Y-136000000D01*
X220192993Y-135965925D01*
X220250000Y-135933012D01*
X220250000Y-136850000D01*
X220897828Y-136850000D01*
X220897844Y-136849999D01*
X220957372Y-136843598D01*
X220957379Y-136843596D01*
X221092086Y-136793354D01*
X221092093Y-136793350D01*
X221207187Y-136707190D01*
X221207190Y-136707187D01*
X221293350Y-136592093D01*
X221293354Y-136592086D01*
X221343596Y-136457379D01*
X221343598Y-136457372D01*
X221349999Y-136397844D01*
X221350000Y-136397827D01*
X221350000Y-135750000D01*
X220433012Y-135750000D01*
X220465925Y-135692993D01*
X220500000Y-135565826D01*
X220500000Y-135434174D01*
X220465925Y-135307007D01*
X220433012Y-135250000D01*
X221350000Y-135250000D01*
X221350000Y-134602172D01*
X221349999Y-134602155D01*
X221343598Y-134542627D01*
X221343596Y-134542620D01*
X221293354Y-134407913D01*
X221293350Y-134407906D01*
X221207190Y-134292812D01*
X221207187Y-134292809D01*
X221092093Y-134206649D01*
X221092086Y-134206645D01*
X220957379Y-134156403D01*
X220957372Y-134156401D01*
X220897844Y-134150000D01*
X220250000Y-134150000D01*
X220250000Y-135066988D01*
X220192993Y-135034075D01*
X220065826Y-135000000D01*
X219934174Y-135000000D01*
X219807007Y-135034075D01*
X219750000Y-135066988D01*
X219750000Y-134150000D01*
X219102155Y-134150000D01*
X219042627Y-134156401D01*
X219042620Y-134156403D01*
X218907913Y-134206645D01*
X218907906Y-134206649D01*
X218792812Y-134292809D01*
X218792809Y-134292812D01*
X218706649Y-134407906D01*
X218706645Y-134407913D01*
X218656403Y-134542620D01*
X218656401Y-134542627D01*
X218650000Y-134602155D01*
X182349999Y-134602155D01*
X182343598Y-134542627D01*
X182343596Y-134542620D01*
X182293354Y-134407913D01*
X182293350Y-134407906D01*
X182207190Y-134292812D01*
X182207187Y-134292809D01*
X182092093Y-134206649D01*
X182092086Y-134206645D01*
X181957379Y-134156403D01*
X181957372Y-134156401D01*
X181897844Y-134150000D01*
X181250000Y-134150000D01*
X181250000Y-135066988D01*
X181192993Y-135034075D01*
X181065826Y-135000000D01*
X180934174Y-135000000D01*
X180807007Y-135034075D01*
X180750000Y-135066988D01*
X180750000Y-134150000D01*
X180102155Y-134150000D01*
X180042627Y-134156401D01*
X180042620Y-134156403D01*
X179907913Y-134206645D01*
X179907906Y-134206649D01*
X179792812Y-134292809D01*
X179792809Y-134292812D01*
X179706649Y-134407906D01*
X179706645Y-134407913D01*
X179656403Y-134542620D01*
X179656401Y-134542627D01*
X179650000Y-134602155D01*
X176024246Y-134602155D01*
X176083179Y-134525353D01*
X176207711Y-134309659D01*
X176207716Y-134309648D01*
X176303026Y-134079549D01*
X176367491Y-133838963D01*
X176400000Y-133592033D01*
X176400000Y-133342966D01*
X176367491Y-133096036D01*
X176303026Y-132855450D01*
X176207716Y-132625351D01*
X176207711Y-132625340D01*
X176083186Y-132409658D01*
X176083180Y-132409650D01*
X176008598Y-132312453D01*
X175101041Y-133220010D01*
X175076022Y-133159610D01*
X175004888Y-133053149D01*
X174914351Y-132962612D01*
X174807890Y-132891478D01*
X174747487Y-132866457D01*
X175655045Y-131958900D01*
X175572044Y-131895211D01*
X175572042Y-131895208D01*
X175557859Y-131884325D01*
X175557841Y-131884313D01*
X175411780Y-131799984D01*
X228099500Y-131799984D01*
X228099500Y-134200015D01*
X228110000Y-134302795D01*
X228110001Y-134302797D01*
X228112275Y-134309659D01*
X228165186Y-134469335D01*
X228165187Y-134469337D01*
X228257286Y-134618651D01*
X228257289Y-134618655D01*
X228381344Y-134742710D01*
X228381348Y-134742713D01*
X228530662Y-134834812D01*
X228530664Y-134834813D01*
X228530666Y-134834814D01*
X228697203Y-134889999D01*
X228799992Y-134900500D01*
X228799997Y-134900500D01*
X231200003Y-134900500D01*
X231200008Y-134900500D01*
X231302797Y-134889999D01*
X231469334Y-134834814D01*
X231618655Y-134742711D01*
X231742711Y-134618655D01*
X231834814Y-134469334D01*
X231889999Y-134302797D01*
X231900500Y-134200008D01*
X231900500Y-132875466D01*
X233100000Y-132875466D01*
X233100000Y-133124533D01*
X233132508Y-133371463D01*
X233196973Y-133612049D01*
X233292283Y-133842148D01*
X233292288Y-133842159D01*
X233416813Y-134057841D01*
X233416819Y-134057849D01*
X233491400Y-134155045D01*
X234398958Y-133247487D01*
X234423978Y-133307890D01*
X234495112Y-133414351D01*
X234585649Y-133504888D01*
X234692110Y-133576022D01*
X234752511Y-133601041D01*
X233844953Y-134508598D01*
X233942150Y-134583180D01*
X233942158Y-134583186D01*
X234157840Y-134707711D01*
X234157851Y-134707716D01*
X234387950Y-134803026D01*
X234628536Y-134867491D01*
X234875466Y-134900000D01*
X235124534Y-134900000D01*
X235371463Y-134867491D01*
X235612049Y-134803026D01*
X235842148Y-134707716D01*
X235842159Y-134707711D01*
X236057855Y-134583178D01*
X236155045Y-134508600D01*
X236155045Y-134508597D01*
X235247488Y-133601041D01*
X235307890Y-133576022D01*
X235414351Y-133504888D01*
X235504888Y-133414351D01*
X235576022Y-133307890D01*
X235601041Y-133247488D01*
X236508597Y-134155045D01*
X236508600Y-134155045D01*
X236583178Y-134057855D01*
X236707711Y-133842159D01*
X236707716Y-133842148D01*
X236803026Y-133612049D01*
X236867491Y-133371463D01*
X236900000Y-133124533D01*
X236900000Y-132875466D01*
X236867491Y-132628536D01*
X236803026Y-132387950D01*
X236707716Y-132157851D01*
X236707711Y-132157840D01*
X236583186Y-131942158D01*
X236583174Y-131942140D01*
X236529600Y-131872322D01*
X236529599Y-131872321D01*
X236508598Y-131844953D01*
X235601041Y-132752510D01*
X235576022Y-132692110D01*
X235504888Y-132585649D01*
X235414351Y-132495112D01*
X235307890Y-132423978D01*
X235247487Y-132398957D01*
X235846461Y-131799984D01*
X244099500Y-131799984D01*
X244099500Y-134200015D01*
X244110000Y-134302795D01*
X244110001Y-134302797D01*
X244112275Y-134309659D01*
X244165186Y-134469335D01*
X244165187Y-134469337D01*
X244257286Y-134618651D01*
X244257289Y-134618655D01*
X244381344Y-134742710D01*
X244381348Y-134742713D01*
X244530662Y-134834812D01*
X244530664Y-134834813D01*
X244530666Y-134834814D01*
X244697203Y-134889999D01*
X244799992Y-134900500D01*
X244799997Y-134900500D01*
X247200003Y-134900500D01*
X247200008Y-134900500D01*
X247302797Y-134889999D01*
X247469334Y-134834814D01*
X247618655Y-134742711D01*
X247742711Y-134618655D01*
X247834814Y-134469334D01*
X247889999Y-134302797D01*
X247900500Y-134200008D01*
X247900500Y-132875466D01*
X249100000Y-132875466D01*
X249100000Y-133124533D01*
X249132508Y-133371463D01*
X249196973Y-133612049D01*
X249292283Y-133842148D01*
X249292288Y-133842159D01*
X249416813Y-134057841D01*
X249416819Y-134057849D01*
X249491400Y-134155045D01*
X250398958Y-133247487D01*
X250423978Y-133307890D01*
X250495112Y-133414351D01*
X250585649Y-133504888D01*
X250692110Y-133576022D01*
X250752511Y-133601041D01*
X249844953Y-134508598D01*
X249942150Y-134583180D01*
X249942158Y-134583186D01*
X250157840Y-134707711D01*
X250157851Y-134707716D01*
X250387950Y-134803026D01*
X250628536Y-134867491D01*
X250875466Y-134900000D01*
X251124534Y-134900000D01*
X251371463Y-134867491D01*
X251612049Y-134803026D01*
X251842148Y-134707716D01*
X251842159Y-134707711D01*
X252057855Y-134583178D01*
X252155045Y-134508600D01*
X252155045Y-134508597D01*
X251247488Y-133601041D01*
X251307890Y-133576022D01*
X251414351Y-133504888D01*
X251504888Y-133414351D01*
X251576022Y-133307890D01*
X251601041Y-133247489D01*
X252508597Y-134155045D01*
X252508600Y-134155045D01*
X252583178Y-134057855D01*
X252707711Y-133842159D01*
X252707716Y-133842148D01*
X252803026Y-133612049D01*
X252867491Y-133371463D01*
X252900000Y-133124533D01*
X252900000Y-132875466D01*
X252895485Y-132841172D01*
X252893755Y-132828031D01*
X255999500Y-132828031D01*
X255999500Y-132859852D01*
X255999500Y-133171969D01*
X256009751Y-133276054D01*
X256033210Y-133514249D01*
X256100308Y-133851572D01*
X256200150Y-134180706D01*
X256250722Y-134302797D01*
X256319703Y-134469333D01*
X256331770Y-134498464D01*
X256331772Y-134498469D01*
X256493893Y-134801775D01*
X256493904Y-134801793D01*
X256684975Y-135087751D01*
X256684985Y-135087765D01*
X256903176Y-135353632D01*
X257146367Y-135596823D01*
X257146372Y-135596827D01*
X257146373Y-135596828D01*
X257412240Y-135815019D01*
X257698213Y-136006100D01*
X257698222Y-136006105D01*
X257698224Y-136006106D01*
X258001530Y-136168227D01*
X258001532Y-136168227D01*
X258001538Y-136168231D01*
X258319295Y-136299850D01*
X258648422Y-136399690D01*
X258985750Y-136466789D01*
X259328031Y-136500500D01*
X259328034Y-136500500D01*
X259671966Y-136500500D01*
X259671969Y-136500500D01*
X260014250Y-136466789D01*
X260351578Y-136399690D01*
X260680705Y-136299850D01*
X260998462Y-136168231D01*
X261301787Y-136006100D01*
X261587760Y-135815019D01*
X261853627Y-135596828D01*
X262096828Y-135353627D01*
X262315019Y-135087760D01*
X262506100Y-134801787D01*
X262668231Y-134498462D01*
X262799850Y-134180705D01*
X262899690Y-133851578D01*
X262966789Y-133514250D01*
X263000500Y-133171969D01*
X263000500Y-132828031D01*
X262966789Y-132485750D01*
X262899690Y-132148422D01*
X262799850Y-131819295D01*
X262668231Y-131501538D01*
X262622944Y-131416813D01*
X262506106Y-131198224D01*
X262506105Y-131198222D01*
X262506100Y-131198213D01*
X262315019Y-130912240D01*
X262096828Y-130646373D01*
X262096827Y-130646372D01*
X262096823Y-130646367D01*
X261853632Y-130403176D01*
X261587765Y-130184985D01*
X261587764Y-130184984D01*
X261587760Y-130184981D01*
X261301787Y-129993900D01*
X261301782Y-129993897D01*
X261301775Y-129993893D01*
X260998469Y-129831772D01*
X260998464Y-129831770D01*
X260680706Y-129700150D01*
X260351572Y-129600308D01*
X260014248Y-129533210D01*
X260014249Y-129533210D01*
X259756456Y-129507821D01*
X259671969Y-129499500D01*
X259328031Y-129499500D01*
X259249966Y-129507188D01*
X258985750Y-129533210D01*
X258648427Y-129600308D01*
X258319293Y-129700150D01*
X258001535Y-129831770D01*
X258001530Y-129831772D01*
X257698224Y-129993893D01*
X257698206Y-129993904D01*
X257412248Y-130184975D01*
X257412234Y-130184985D01*
X257146367Y-130403176D01*
X256903176Y-130646367D01*
X256684985Y-130912234D01*
X256684975Y-130912248D01*
X256493904Y-131198206D01*
X256493893Y-131198224D01*
X256331772Y-131501530D01*
X256331770Y-131501535D01*
X256200150Y-131819293D01*
X256100308Y-132148427D01*
X256033210Y-132485750D01*
X256019148Y-132628536D01*
X255999500Y-132828031D01*
X252893755Y-132828031D01*
X252867491Y-132628536D01*
X252803026Y-132387950D01*
X252707716Y-132157851D01*
X252707711Y-132157840D01*
X252583186Y-131942158D01*
X252583180Y-131942150D01*
X252508598Y-131844953D01*
X251601041Y-132752510D01*
X251576022Y-132692110D01*
X251504888Y-132585649D01*
X251414351Y-132495112D01*
X251307890Y-132423978D01*
X251247487Y-132398957D01*
X252155045Y-131491400D01*
X252057849Y-131416819D01*
X252057841Y-131416813D01*
X251842159Y-131292288D01*
X251842148Y-131292283D01*
X251612049Y-131196973D01*
X251371463Y-131132508D01*
X251124534Y-131100000D01*
X250875466Y-131100000D01*
X250628536Y-131132508D01*
X250387950Y-131196973D01*
X250157851Y-131292283D01*
X250157847Y-131292285D01*
X249942143Y-131416823D01*
X249844953Y-131491399D01*
X249844953Y-131491400D01*
X250752511Y-132398958D01*
X250692110Y-132423978D01*
X250585649Y-132495112D01*
X250495112Y-132585649D01*
X250423978Y-132692110D01*
X250398958Y-132752511D01*
X249491400Y-131844953D01*
X249491399Y-131844953D01*
X249416823Y-131942143D01*
X249292285Y-132157847D01*
X249292283Y-132157851D01*
X249196973Y-132387950D01*
X249132508Y-132628536D01*
X249100000Y-132875466D01*
X247900500Y-132875466D01*
X247900500Y-131799992D01*
X247889999Y-131697203D01*
X247834814Y-131530666D01*
X247816847Y-131501538D01*
X247742713Y-131381348D01*
X247742710Y-131381344D01*
X247618655Y-131257289D01*
X247618651Y-131257286D01*
X247469337Y-131165187D01*
X247469335Y-131165186D01*
X247382062Y-131136267D01*
X247302797Y-131110001D01*
X247302795Y-131110000D01*
X247200015Y-131099500D01*
X247200008Y-131099500D01*
X244799992Y-131099500D01*
X244799984Y-131099500D01*
X244697204Y-131110000D01*
X244697203Y-131110001D01*
X244530664Y-131165186D01*
X244530662Y-131165187D01*
X244381348Y-131257286D01*
X244381344Y-131257289D01*
X244257289Y-131381344D01*
X244257286Y-131381348D01*
X244165187Y-131530662D01*
X244165186Y-131530664D01*
X244110001Y-131697203D01*
X244110000Y-131697204D01*
X244099500Y-131799984D01*
X235846461Y-131799984D01*
X236155045Y-131491400D01*
X236057849Y-131416819D01*
X236057841Y-131416813D01*
X235842159Y-131292288D01*
X235842148Y-131292283D01*
X235612049Y-131196973D01*
X235371463Y-131132508D01*
X235124534Y-131100000D01*
X234875466Y-131100000D01*
X234628536Y-131132508D01*
X234387950Y-131196973D01*
X234157851Y-131292283D01*
X234157847Y-131292285D01*
X233942143Y-131416823D01*
X233844953Y-131491399D01*
X233844953Y-131491400D01*
X234752511Y-132398958D01*
X234692110Y-132423978D01*
X234585649Y-132495112D01*
X234495112Y-132585649D01*
X234423978Y-132692110D01*
X234398958Y-132752511D01*
X233491400Y-131844953D01*
X233491399Y-131844953D01*
X233416823Y-131942143D01*
X233292285Y-132157847D01*
X233292283Y-132157851D01*
X233196973Y-132387950D01*
X233132508Y-132628536D01*
X233100000Y-132875466D01*
X231900500Y-132875466D01*
X231900500Y-131799992D01*
X231889999Y-131697203D01*
X231834814Y-131530666D01*
X231816847Y-131501538D01*
X231742713Y-131381348D01*
X231742710Y-131381344D01*
X231618655Y-131257289D01*
X231618651Y-131257286D01*
X231469337Y-131165187D01*
X231469335Y-131165186D01*
X231382062Y-131136267D01*
X231302797Y-131110001D01*
X231302795Y-131110000D01*
X231200015Y-131099500D01*
X231200008Y-131099500D01*
X228799992Y-131099500D01*
X228799984Y-131099500D01*
X228697204Y-131110000D01*
X228697203Y-131110001D01*
X228530664Y-131165186D01*
X228530662Y-131165187D01*
X228381348Y-131257286D01*
X228381344Y-131257289D01*
X228257289Y-131381344D01*
X228257286Y-131381348D01*
X228165187Y-131530662D01*
X228165186Y-131530664D01*
X228110001Y-131697203D01*
X228110000Y-131697204D01*
X228099500Y-131799984D01*
X175411780Y-131799984D01*
X175342159Y-131759788D01*
X175342148Y-131759783D01*
X175112049Y-131664473D01*
X174871463Y-131600008D01*
X174624534Y-131567500D01*
X174375466Y-131567500D01*
X174128536Y-131600008D01*
X173887950Y-131664473D01*
X173657851Y-131759783D01*
X173657847Y-131759785D01*
X173442143Y-131884323D01*
X173344953Y-131958899D01*
X173344953Y-131958900D01*
X174252511Y-132866458D01*
X174192110Y-132891478D01*
X174085649Y-132962612D01*
X173995112Y-133053149D01*
X173923978Y-133159610D01*
X173898958Y-133220011D01*
X172991400Y-132312453D01*
X172991399Y-132312453D01*
X172916823Y-132409643D01*
X172792285Y-132625347D01*
X172792283Y-132625351D01*
X172696973Y-132855450D01*
X172632508Y-133096036D01*
X172600000Y-133342966D01*
X171400500Y-133342966D01*
X171400500Y-132267492D01*
X171389999Y-132164703D01*
X171334814Y-131998166D01*
X171310594Y-131958900D01*
X171242713Y-131848848D01*
X171242710Y-131848844D01*
X171118655Y-131724789D01*
X171118651Y-131724786D01*
X170969337Y-131632687D01*
X170969335Y-131632686D01*
X170886065Y-131605093D01*
X170802797Y-131577501D01*
X170802795Y-131577500D01*
X170700015Y-131567000D01*
X170700008Y-131567000D01*
X168299992Y-131567000D01*
X168299984Y-131567000D01*
X168197204Y-131577500D01*
X168197203Y-131577501D01*
X168030664Y-131632686D01*
X168030662Y-131632687D01*
X167881348Y-131724786D01*
X167881344Y-131724789D01*
X167757289Y-131848844D01*
X167757286Y-131848848D01*
X167665187Y-131998162D01*
X167665186Y-131998164D01*
X167610001Y-132164703D01*
X167610000Y-132164704D01*
X167599500Y-132267484D01*
X161596461Y-132267484D01*
X161905045Y-131958900D01*
X161807849Y-131884319D01*
X161807841Y-131884313D01*
X161592159Y-131759788D01*
X161592148Y-131759783D01*
X161362049Y-131664473D01*
X161121463Y-131600008D01*
X160874534Y-131567500D01*
X160625466Y-131567500D01*
X160378536Y-131600008D01*
X160137950Y-131664473D01*
X159907851Y-131759783D01*
X159907847Y-131759785D01*
X159692143Y-131884323D01*
X159594953Y-131958899D01*
X159594953Y-131958900D01*
X160502511Y-132866458D01*
X160442110Y-132891478D01*
X160335649Y-132962612D01*
X160245112Y-133053149D01*
X160173978Y-133159610D01*
X160148958Y-133220011D01*
X159241400Y-132312453D01*
X159241399Y-132312453D01*
X159166823Y-132409643D01*
X159042285Y-132625347D01*
X159042283Y-132625351D01*
X158946973Y-132855450D01*
X158882508Y-133096036D01*
X158850000Y-133342966D01*
X157650500Y-133342966D01*
X157650500Y-132267492D01*
X157639999Y-132164703D01*
X157584814Y-131998166D01*
X157560594Y-131958900D01*
X157492713Y-131848848D01*
X157492710Y-131848844D01*
X157368655Y-131724789D01*
X157368651Y-131724786D01*
X157219337Y-131632687D01*
X157219335Y-131632686D01*
X157136065Y-131605093D01*
X157052797Y-131577501D01*
X157052795Y-131577500D01*
X156950015Y-131567000D01*
X156950008Y-131567000D01*
X154549992Y-131567000D01*
X154549984Y-131567000D01*
X154447204Y-131577500D01*
X154447203Y-131577501D01*
X154280664Y-131632686D01*
X154280662Y-131632687D01*
X154131348Y-131724786D01*
X154131344Y-131724789D01*
X154007289Y-131848844D01*
X154007286Y-131848848D01*
X153915187Y-131998162D01*
X153915186Y-131998164D01*
X153860001Y-132164703D01*
X153860000Y-132164704D01*
X153849500Y-132267484D01*
X151423373Y-132267484D01*
X151415402Y-132227414D01*
X151399690Y-132148422D01*
X151299850Y-131819295D01*
X151168231Y-131501538D01*
X151122944Y-131416813D01*
X151006106Y-131198224D01*
X151006105Y-131198222D01*
X151006100Y-131198213D01*
X150815019Y-130912240D01*
X150596828Y-130646373D01*
X150596827Y-130646372D01*
X150596823Y-130646367D01*
X150353632Y-130403176D01*
X150087765Y-130184985D01*
X150087764Y-130184984D01*
X150087760Y-130184981D01*
X149801787Y-129993900D01*
X149801782Y-129993897D01*
X149801775Y-129993893D01*
X149498469Y-129831772D01*
X149498464Y-129831770D01*
X149180706Y-129700150D01*
X148851572Y-129600308D01*
X148514248Y-129533210D01*
X148514249Y-129533210D01*
X148256456Y-129507821D01*
X148171969Y-129499500D01*
X147828031Y-129499500D01*
X147749966Y-129507188D01*
X147485750Y-129533210D01*
X147148427Y-129600308D01*
X146819293Y-129700150D01*
X146501535Y-129831770D01*
X146501530Y-129831772D01*
X146198224Y-129993893D01*
X146198206Y-129993904D01*
X145912248Y-130184975D01*
X145912234Y-130184985D01*
X145646367Y-130403176D01*
X145403176Y-130646367D01*
X145184985Y-130912234D01*
X145184975Y-130912248D01*
X144993904Y-131198206D01*
X144993893Y-131198224D01*
X144831772Y-131501530D01*
X144831770Y-131501535D01*
X144700150Y-131819293D01*
X144600308Y-132148427D01*
X144533210Y-132485750D01*
X144519148Y-132628536D01*
X144499500Y-132828031D01*
X141500500Y-132828031D01*
X141500500Y-117881947D01*
X146500000Y-117881947D01*
X146500000Y-118118052D01*
X146536934Y-118351247D01*
X146609897Y-118575802D01*
X146717087Y-118786174D01*
X146777338Y-118869104D01*
X146777340Y-118869105D01*
X147517037Y-118129408D01*
X147534075Y-118192993D01*
X147599901Y-118307007D01*
X147692993Y-118400099D01*
X147807007Y-118465925D01*
X147870590Y-118482962D01*
X147130893Y-119222658D01*
X147213828Y-119282914D01*
X147424197Y-119390102D01*
X147648752Y-119463065D01*
X147648751Y-119463065D01*
X147881948Y-119500000D01*
X148118052Y-119500000D01*
X148351247Y-119463065D01*
X148575802Y-119390102D01*
X148786163Y-119282918D01*
X148786169Y-119282914D01*
X148869104Y-119222658D01*
X148869105Y-119222658D01*
X148129408Y-118482962D01*
X148192993Y-118465925D01*
X148307007Y-118400099D01*
X148400099Y-118307007D01*
X148465925Y-118192993D01*
X148482962Y-118129409D01*
X149222658Y-118869105D01*
X149222658Y-118869104D01*
X149282914Y-118786169D01*
X149282918Y-118786163D01*
X149390102Y-118575802D01*
X149463065Y-118351247D01*
X149500000Y-118118052D01*
X149500000Y-117881947D01*
X149463065Y-117648752D01*
X149390102Y-117424197D01*
X149302939Y-117253129D01*
X149302938Y-117253127D01*
X149282916Y-117213830D01*
X149272855Y-117199983D01*
X151499500Y-117199983D01*
X151499500Y-118800001D01*
X151499501Y-118800018D01*
X151510000Y-118902796D01*
X151510001Y-118902799D01*
X151565185Y-119069331D01*
X151565186Y-119069334D01*
X151657288Y-119218656D01*
X151781344Y-119342712D01*
X151930666Y-119434814D01*
X152097203Y-119489999D01*
X152199991Y-119500500D01*
X153800008Y-119500499D01*
X153902797Y-119489999D01*
X154069334Y-119434814D01*
X154218656Y-119342712D01*
X154342712Y-119218656D01*
X154434814Y-119069334D01*
X154489999Y-118902797D01*
X154500500Y-118800009D01*
X154500499Y-118000000D01*
X154500499Y-117199998D01*
X154500498Y-117199981D01*
X154489999Y-117097203D01*
X154489998Y-117097200D01*
X154435447Y-116932577D01*
X154434814Y-116930666D01*
X154342712Y-116781344D01*
X154218656Y-116657288D01*
X154069334Y-116565186D01*
X153902797Y-116510001D01*
X153902795Y-116510000D01*
X153800010Y-116499500D01*
X152199998Y-116499500D01*
X152199981Y-116499501D01*
X152097203Y-116510000D01*
X152097200Y-116510001D01*
X151930668Y-116565185D01*
X151930663Y-116565187D01*
X151781342Y-116657289D01*
X151657289Y-116781342D01*
X151565187Y-116930663D01*
X151565185Y-116930668D01*
X151537349Y-117014670D01*
X151510001Y-117097203D01*
X151510001Y-117097204D01*
X151510000Y-117097204D01*
X151499500Y-117199983D01*
X149272855Y-117199983D01*
X149222658Y-117130894D01*
X149222658Y-117130893D01*
X148482962Y-117870590D01*
X148465925Y-117807007D01*
X148400099Y-117692993D01*
X148307007Y-117599901D01*
X148192993Y-117534075D01*
X148129409Y-117517037D01*
X148869105Y-116777340D01*
X148869104Y-116777338D01*
X148786174Y-116717087D01*
X148575802Y-116609897D01*
X148351247Y-116536934D01*
X148351248Y-116536934D01*
X148118052Y-116500000D01*
X147881948Y-116500000D01*
X147648752Y-116536934D01*
X147424197Y-116609897D01*
X147213830Y-116717084D01*
X147130894Y-116777340D01*
X147870591Y-117517037D01*
X147807007Y-117534075D01*
X147692993Y-117599901D01*
X147599901Y-117692993D01*
X147534075Y-117807007D01*
X147517037Y-117870591D01*
X146777340Y-117130894D01*
X146717084Y-117213830D01*
X146609897Y-117424197D01*
X146536934Y-117648752D01*
X146500000Y-117881947D01*
X141500500Y-117881947D01*
X141500500Y-115628713D01*
X162149500Y-115628713D01*
X162149500Y-115841286D01*
X162182753Y-116051239D01*
X162248444Y-116253414D01*
X162344951Y-116442820D01*
X162469890Y-116614786D01*
X162583818Y-116728714D01*
X162617303Y-116790037D01*
X162612319Y-116859729D01*
X162570447Y-116915662D01*
X162539471Y-116932577D01*
X162407912Y-116981646D01*
X162407906Y-116981649D01*
X162292812Y-117067809D01*
X162292809Y-117067812D01*
X162206649Y-117182906D01*
X162206645Y-117182913D01*
X162156403Y-117317620D01*
X162156401Y-117317627D01*
X162150000Y-117377155D01*
X162150000Y-118025000D01*
X163066988Y-118025000D01*
X163034075Y-118082007D01*
X163000000Y-118209174D01*
X163000000Y-118340826D01*
X163034075Y-118467993D01*
X163066988Y-118525000D01*
X162150000Y-118525000D01*
X162150000Y-119172844D01*
X162156401Y-119232372D01*
X162156403Y-119232379D01*
X162206645Y-119367086D01*
X162206649Y-119367093D01*
X162292809Y-119482187D01*
X162292812Y-119482190D01*
X162407906Y-119568350D01*
X162407913Y-119568354D01*
X162542620Y-119618596D01*
X162542627Y-119618598D01*
X162602155Y-119624999D01*
X162602172Y-119625000D01*
X163250000Y-119625000D01*
X163250000Y-118708012D01*
X163307007Y-118740925D01*
X163434174Y-118775000D01*
X163565826Y-118775000D01*
X163692993Y-118740925D01*
X163750000Y-118708012D01*
X163750000Y-119625000D01*
X164397828Y-119625000D01*
X164397844Y-119624999D01*
X164457372Y-119618598D01*
X164457379Y-119618596D01*
X164592086Y-119568354D01*
X164592093Y-119568350D01*
X164707187Y-119482190D01*
X164707190Y-119482187D01*
X164793350Y-119367093D01*
X164793354Y-119367086D01*
X164843596Y-119232379D01*
X164843598Y-119232372D01*
X164849999Y-119172844D01*
X164850000Y-119172827D01*
X164850000Y-118602135D01*
X179649500Y-118602135D01*
X179649500Y-120397870D01*
X179649501Y-120397876D01*
X179655908Y-120457483D01*
X179706202Y-120592328D01*
X179706206Y-120592335D01*
X179792452Y-120707544D01*
X179792455Y-120707547D01*
X179907664Y-120793793D01*
X179907671Y-120793797D01*
X180042517Y-120844091D01*
X180042516Y-120844091D01*
X180049444Y-120844835D01*
X180102127Y-120850500D01*
X181897872Y-120850499D01*
X181957483Y-120844091D01*
X182092331Y-120793796D01*
X182207546Y-120707546D01*
X182293796Y-120592331D01*
X182344091Y-120457483D01*
X182350500Y-120397873D01*
X182350499Y-118602135D01*
X218649500Y-118602135D01*
X218649500Y-120397870D01*
X218649501Y-120397876D01*
X218655908Y-120457483D01*
X218706202Y-120592328D01*
X218706206Y-120592335D01*
X218792452Y-120707544D01*
X218792455Y-120707547D01*
X218907664Y-120793793D01*
X218907671Y-120793797D01*
X219042517Y-120844091D01*
X219042516Y-120844091D01*
X219049444Y-120844835D01*
X219102127Y-120850500D01*
X220897872Y-120850499D01*
X220957483Y-120844091D01*
X221092331Y-120793796D01*
X221207546Y-120707546D01*
X221293796Y-120592331D01*
X221344091Y-120457483D01*
X221350500Y-120397873D01*
X221350499Y-118899982D01*
X230699500Y-118899982D01*
X230699500Y-120100000D01*
X230699501Y-120100017D01*
X230710000Y-120202795D01*
X230710001Y-120202798D01*
X230765185Y-120369330D01*
X230765187Y-120369335D01*
X230782791Y-120397876D01*
X230857288Y-120518655D01*
X230981344Y-120642711D01*
X231130666Y-120734813D01*
X231297203Y-120789998D01*
X231399991Y-120800499D01*
X232600008Y-120800498D01*
X232702797Y-120789998D01*
X232869334Y-120734813D01*
X233018656Y-120642711D01*
X233142712Y-120518655D01*
X233234814Y-120369333D01*
X233289999Y-120202796D01*
X233300500Y-120100008D01*
X233300499Y-118899991D01*
X233289999Y-118797202D01*
X233234814Y-118630665D01*
X233217217Y-118602135D01*
X242649500Y-118602135D01*
X242649500Y-120397870D01*
X242649501Y-120397876D01*
X242655908Y-120457483D01*
X242706202Y-120592328D01*
X242706206Y-120592335D01*
X242792452Y-120707544D01*
X242792455Y-120707547D01*
X242907664Y-120793793D01*
X242907671Y-120793797D01*
X242952618Y-120810561D01*
X243042517Y-120844091D01*
X243102127Y-120850500D01*
X243112685Y-120850499D01*
X243179723Y-120870179D01*
X243200372Y-120886818D01*
X243870591Y-121557037D01*
X243807007Y-121574075D01*
X243692993Y-121639901D01*
X243599901Y-121732993D01*
X243534075Y-121847007D01*
X243517037Y-121910591D01*
X242884728Y-121278282D01*
X242884727Y-121278282D01*
X242845380Y-121332439D01*
X242748904Y-121521782D01*
X242683242Y-121723869D01*
X242683242Y-121723872D01*
X242650000Y-121933753D01*
X242650000Y-122146246D01*
X242683242Y-122356127D01*
X242683242Y-122356130D01*
X242748904Y-122558217D01*
X242845375Y-122747550D01*
X242884728Y-122801716D01*
X243517037Y-122169408D01*
X243534075Y-122232993D01*
X243599901Y-122347007D01*
X243692993Y-122440099D01*
X243807007Y-122505925D01*
X243870590Y-122522962D01*
X243238282Y-123155269D01*
X243238282Y-123155270D01*
X243292449Y-123194624D01*
X243481782Y-123291095D01*
X243683870Y-123356757D01*
X243893754Y-123390000D01*
X244106246Y-123390000D01*
X244316127Y-123356757D01*
X244316130Y-123356757D01*
X244518217Y-123291095D01*
X244707554Y-123194622D01*
X244761716Y-123155270D01*
X244761717Y-123155270D01*
X244129408Y-122522962D01*
X244192993Y-122505925D01*
X244307007Y-122440099D01*
X244400099Y-122347007D01*
X244465925Y-122232993D01*
X244482962Y-122169408D01*
X245115270Y-122801717D01*
X245115270Y-122801716D01*
X245154622Y-122747554D01*
X245251095Y-122558217D01*
X245316757Y-122356130D01*
X245316757Y-122356127D01*
X245350000Y-122146246D01*
X245350000Y-121933753D01*
X245316757Y-121723872D01*
X245316757Y-121723869D01*
X245251095Y-121521782D01*
X245154624Y-121332449D01*
X245115270Y-121278282D01*
X245115269Y-121278282D01*
X244482962Y-121910590D01*
X244465925Y-121847007D01*
X244400099Y-121732993D01*
X244307007Y-121639901D01*
X244192993Y-121574075D01*
X244129409Y-121557037D01*
X244799627Y-120886818D01*
X244860950Y-120853333D01*
X244887307Y-120850499D01*
X244897872Y-120850499D01*
X244957483Y-120844091D01*
X245092331Y-120793796D01*
X245207546Y-120707546D01*
X245293796Y-120592331D01*
X245344091Y-120457483D01*
X245350500Y-120397873D01*
X245350499Y-118602135D01*
X251649500Y-118602135D01*
X251649500Y-120397870D01*
X251649501Y-120397876D01*
X251655908Y-120457483D01*
X251706202Y-120592328D01*
X251706206Y-120592335D01*
X251792452Y-120707544D01*
X251792455Y-120707547D01*
X251907664Y-120793793D01*
X251907671Y-120793797D01*
X251952618Y-120810561D01*
X252042517Y-120844091D01*
X252102127Y-120850500D01*
X252112685Y-120850499D01*
X252179723Y-120870179D01*
X252200372Y-120886818D01*
X252870591Y-121557037D01*
X252807007Y-121574075D01*
X252692993Y-121639901D01*
X252599901Y-121732993D01*
X252534075Y-121847007D01*
X252517037Y-121910591D01*
X251884728Y-121278282D01*
X251884727Y-121278282D01*
X251845380Y-121332439D01*
X251748904Y-121521782D01*
X251683242Y-121723869D01*
X251683242Y-121723872D01*
X251650000Y-121933753D01*
X251650000Y-122146246D01*
X251683242Y-122356127D01*
X251683242Y-122356130D01*
X251748904Y-122558217D01*
X251845375Y-122747550D01*
X251884728Y-122801716D01*
X252517037Y-122169408D01*
X252534075Y-122232993D01*
X252599901Y-122347007D01*
X252692993Y-122440099D01*
X252807007Y-122505925D01*
X252870590Y-122522962D01*
X252238282Y-123155269D01*
X252238282Y-123155270D01*
X252292449Y-123194624D01*
X252481782Y-123291095D01*
X252683870Y-123356757D01*
X252893754Y-123390000D01*
X253106246Y-123390000D01*
X253316127Y-123356757D01*
X253316130Y-123356757D01*
X253518217Y-123291095D01*
X253707554Y-123194622D01*
X253761716Y-123155270D01*
X253761717Y-123155270D01*
X253129408Y-122522962D01*
X253192993Y-122505925D01*
X253307007Y-122440099D01*
X253400099Y-122347007D01*
X253465925Y-122232993D01*
X253482962Y-122169408D01*
X254115270Y-122801717D01*
X254115270Y-122801716D01*
X254154622Y-122747554D01*
X254251095Y-122558217D01*
X254316757Y-122356130D01*
X254316757Y-122356127D01*
X254350000Y-122146246D01*
X254350000Y-121933753D01*
X254316757Y-121723872D01*
X254316757Y-121723869D01*
X254251095Y-121521782D01*
X254154624Y-121332449D01*
X254115270Y-121278282D01*
X254115269Y-121278282D01*
X253482962Y-121910590D01*
X253465925Y-121847007D01*
X253400099Y-121732993D01*
X253307007Y-121639901D01*
X253192993Y-121574075D01*
X253129409Y-121557037D01*
X253799627Y-120886818D01*
X253860950Y-120853333D01*
X253887307Y-120850499D01*
X253897872Y-120850499D01*
X253957483Y-120844091D01*
X254092331Y-120793796D01*
X254207546Y-120707546D01*
X254293796Y-120592331D01*
X254344091Y-120457483D01*
X254350500Y-120397873D01*
X254350499Y-118602135D01*
X262149500Y-118602135D01*
X262149500Y-120397870D01*
X262149501Y-120397876D01*
X262155908Y-120457483D01*
X262206202Y-120592328D01*
X262206206Y-120592335D01*
X262292452Y-120707544D01*
X262292455Y-120707547D01*
X262407664Y-120793793D01*
X262407671Y-120793797D01*
X262452618Y-120810561D01*
X262542517Y-120844091D01*
X262602127Y-120850500D01*
X262612685Y-120850499D01*
X262679723Y-120870179D01*
X262700372Y-120886818D01*
X263370591Y-121557037D01*
X263307007Y-121574075D01*
X263192993Y-121639901D01*
X263099901Y-121732993D01*
X263034075Y-121847007D01*
X263017037Y-121910591D01*
X262384728Y-121278282D01*
X262384727Y-121278282D01*
X262345380Y-121332439D01*
X262248904Y-121521782D01*
X262183242Y-121723869D01*
X262183242Y-121723872D01*
X262150000Y-121933753D01*
X262150000Y-122146246D01*
X262183242Y-122356127D01*
X262183242Y-122356130D01*
X262248904Y-122558217D01*
X262345375Y-122747550D01*
X262384728Y-122801716D01*
X263017037Y-122169408D01*
X263034075Y-122232993D01*
X263099901Y-122347007D01*
X263192993Y-122440099D01*
X263307007Y-122505925D01*
X263370590Y-122522962D01*
X262738282Y-123155269D01*
X262738282Y-123155270D01*
X262792449Y-123194624D01*
X262981782Y-123291095D01*
X263183870Y-123356757D01*
X263393754Y-123390000D01*
X263606246Y-123390000D01*
X263816127Y-123356757D01*
X263816130Y-123356757D01*
X264018217Y-123291095D01*
X264207554Y-123194622D01*
X264261716Y-123155270D01*
X264261717Y-123155270D01*
X263629408Y-122522962D01*
X263692993Y-122505925D01*
X263807007Y-122440099D01*
X263900099Y-122347007D01*
X263965925Y-122232993D01*
X263982962Y-122169409D01*
X264615270Y-122801717D01*
X264615270Y-122801716D01*
X264654622Y-122747554D01*
X264751095Y-122558217D01*
X264816757Y-122356130D01*
X264816757Y-122356127D01*
X264850000Y-122146246D01*
X264850000Y-121933753D01*
X264816757Y-121723872D01*
X264816757Y-121723869D01*
X264751095Y-121521782D01*
X264654624Y-121332449D01*
X264615270Y-121278282D01*
X264615269Y-121278282D01*
X263982962Y-121910590D01*
X263965925Y-121847007D01*
X263900099Y-121732993D01*
X263807007Y-121639901D01*
X263692993Y-121574075D01*
X263629409Y-121557037D01*
X264299627Y-120886818D01*
X264360950Y-120853333D01*
X264387307Y-120850499D01*
X264397872Y-120850499D01*
X264457483Y-120844091D01*
X264592331Y-120793796D01*
X264707546Y-120707546D01*
X264793796Y-120592331D01*
X264844091Y-120457483D01*
X264850500Y-120397873D01*
X264850499Y-118602128D01*
X264844091Y-118542517D01*
X264828233Y-118500000D01*
X264793797Y-118407671D01*
X264793793Y-118407664D01*
X264707547Y-118292455D01*
X264707544Y-118292452D01*
X264592335Y-118206206D01*
X264592328Y-118206202D01*
X264457482Y-118155908D01*
X264457483Y-118155908D01*
X264397883Y-118149501D01*
X264397881Y-118149500D01*
X264397873Y-118149500D01*
X264397864Y-118149500D01*
X262602129Y-118149500D01*
X262602123Y-118149501D01*
X262542516Y-118155908D01*
X262407671Y-118206202D01*
X262407664Y-118206206D01*
X262292455Y-118292452D01*
X262292452Y-118292455D01*
X262206206Y-118407664D01*
X262206202Y-118407671D01*
X262155908Y-118542517D01*
X262152330Y-118575802D01*
X262149501Y-118602123D01*
X262149500Y-118602135D01*
X254350499Y-118602135D01*
X254350499Y-118602128D01*
X254344091Y-118542517D01*
X254328233Y-118500000D01*
X254293797Y-118407671D01*
X254293793Y-118407664D01*
X254207547Y-118292455D01*
X254207544Y-118292452D01*
X254092335Y-118206206D01*
X254092328Y-118206202D01*
X253957482Y-118155908D01*
X253957483Y-118155908D01*
X253897883Y-118149501D01*
X253897881Y-118149500D01*
X253897873Y-118149500D01*
X253897864Y-118149500D01*
X252102129Y-118149500D01*
X252102123Y-118149501D01*
X252042516Y-118155908D01*
X251907671Y-118206202D01*
X251907664Y-118206206D01*
X251792455Y-118292452D01*
X251792452Y-118292455D01*
X251706206Y-118407664D01*
X251706202Y-118407671D01*
X251655908Y-118542517D01*
X251652330Y-118575802D01*
X251649501Y-118602123D01*
X251649500Y-118602135D01*
X245350499Y-118602135D01*
X245350499Y-118602128D01*
X245344091Y-118542517D01*
X245328233Y-118500000D01*
X245293797Y-118407671D01*
X245293793Y-118407664D01*
X245207547Y-118292455D01*
X245207544Y-118292452D01*
X245092335Y-118206206D01*
X245092328Y-118206202D01*
X244957482Y-118155908D01*
X244957483Y-118155908D01*
X244897883Y-118149501D01*
X244897881Y-118149500D01*
X244897873Y-118149500D01*
X244897864Y-118149500D01*
X243102129Y-118149500D01*
X243102123Y-118149501D01*
X243042516Y-118155908D01*
X242907671Y-118206202D01*
X242907664Y-118206206D01*
X242792455Y-118292452D01*
X242792452Y-118292455D01*
X242706206Y-118407664D01*
X242706202Y-118407671D01*
X242655908Y-118542517D01*
X242652330Y-118575802D01*
X242649501Y-118602123D01*
X242649500Y-118602135D01*
X233217217Y-118602135D01*
X233142712Y-118481343D01*
X233018656Y-118357287D01*
X232869334Y-118265185D01*
X232702797Y-118210000D01*
X232702795Y-118209999D01*
X232600010Y-118199499D01*
X231399998Y-118199499D01*
X231399981Y-118199500D01*
X231297203Y-118209999D01*
X231297200Y-118210000D01*
X231130668Y-118265184D01*
X231130663Y-118265186D01*
X230981342Y-118357288D01*
X230857289Y-118481341D01*
X230765187Y-118630662D01*
X230765185Y-118630667D01*
X230762819Y-118637808D01*
X230710001Y-118797202D01*
X230710001Y-118797203D01*
X230710000Y-118797203D01*
X230699500Y-118899982D01*
X221350499Y-118899982D01*
X221350499Y-118602128D01*
X221344091Y-118542517D01*
X221328233Y-118500000D01*
X221293797Y-118407671D01*
X221293793Y-118407664D01*
X221207547Y-118292455D01*
X221207544Y-118292452D01*
X221092335Y-118206206D01*
X221092328Y-118206202D01*
X220957482Y-118155908D01*
X220957483Y-118155908D01*
X220897883Y-118149501D01*
X220897881Y-118149500D01*
X220897873Y-118149500D01*
X220897864Y-118149500D01*
X219102129Y-118149500D01*
X219102123Y-118149501D01*
X219042516Y-118155908D01*
X218907671Y-118206202D01*
X218907664Y-118206206D01*
X218792455Y-118292452D01*
X218792452Y-118292455D01*
X218706206Y-118407664D01*
X218706202Y-118407671D01*
X218655908Y-118542517D01*
X218652330Y-118575802D01*
X218649501Y-118602123D01*
X218649500Y-118602135D01*
X182350499Y-118602135D01*
X182350499Y-118602128D01*
X182344091Y-118542517D01*
X182328233Y-118500000D01*
X182293797Y-118407671D01*
X182293793Y-118407664D01*
X182207547Y-118292455D01*
X182207544Y-118292452D01*
X182092335Y-118206206D01*
X182092328Y-118206202D01*
X181957482Y-118155908D01*
X181957483Y-118155908D01*
X181897883Y-118149501D01*
X181897881Y-118149500D01*
X181897873Y-118149500D01*
X181897864Y-118149500D01*
X180102129Y-118149500D01*
X180102123Y-118149501D01*
X180042516Y-118155908D01*
X179907671Y-118206202D01*
X179907664Y-118206206D01*
X179792455Y-118292452D01*
X179792452Y-118292455D01*
X179706206Y-118407664D01*
X179706202Y-118407671D01*
X179655908Y-118542517D01*
X179652330Y-118575802D01*
X179649501Y-118602123D01*
X179649500Y-118602135D01*
X164850000Y-118602135D01*
X164850000Y-118525000D01*
X163933012Y-118525000D01*
X163965925Y-118467993D01*
X164000000Y-118340826D01*
X164000000Y-118209174D01*
X163965925Y-118082007D01*
X163933012Y-118025000D01*
X164850000Y-118025000D01*
X164850000Y-117377172D01*
X164849999Y-117377155D01*
X164843598Y-117317627D01*
X164843596Y-117317620D01*
X164793354Y-117182913D01*
X164793350Y-117182906D01*
X164707190Y-117067812D01*
X164707187Y-117067809D01*
X164592093Y-116981649D01*
X164592088Y-116981646D01*
X164460528Y-116932577D01*
X164404595Y-116890705D01*
X164380178Y-116825241D01*
X164395030Y-116756968D01*
X164416175Y-116728720D01*
X164530104Y-116614792D01*
X164533661Y-116609897D01*
X164655048Y-116442820D01*
X164655047Y-116442820D01*
X164655051Y-116442816D01*
X164751557Y-116253412D01*
X164817246Y-116051243D01*
X164850500Y-115841287D01*
X164850500Y-115628713D01*
X164817246Y-115418757D01*
X164751557Y-115216588D01*
X164655051Y-115027184D01*
X164655049Y-115027181D01*
X164655048Y-115027179D01*
X164530109Y-114855213D01*
X164379786Y-114704890D01*
X164207819Y-114579951D01*
X164207818Y-114579950D01*
X164207816Y-114579949D01*
X164018412Y-114483443D01*
X163816243Y-114417754D01*
X163816241Y-114417753D01*
X163816240Y-114417753D01*
X163689512Y-114397681D01*
X230700000Y-114397681D01*
X230700000Y-114602316D01*
X230732009Y-114804416D01*
X230795244Y-114999030D01*
X230888141Y-115181349D01*
X230888147Y-115181358D01*
X230920523Y-115225920D01*
X230920524Y-115225921D01*
X231600000Y-114546445D01*
X231600000Y-114552660D01*
X231627259Y-114654393D01*
X231679920Y-114745605D01*
X231754394Y-114820079D01*
X231845606Y-114872740D01*
X231947339Y-114899999D01*
X231953553Y-114899999D01*
X231274076Y-115579473D01*
X231318650Y-115611858D01*
X231500968Y-115704754D01*
X231695582Y-115767989D01*
X231897683Y-115799999D01*
X232102317Y-115799999D01*
X232304417Y-115767989D01*
X232499031Y-115704754D01*
X232681349Y-115611858D01*
X232725921Y-115579473D01*
X232046447Y-114899999D01*
X232052661Y-114899999D01*
X232154394Y-114872740D01*
X232245606Y-114820079D01*
X232320080Y-114745605D01*
X232372741Y-114654393D01*
X232400000Y-114552660D01*
X232400000Y-114546446D01*
X233079474Y-115225920D01*
X233111859Y-115181348D01*
X233204755Y-114999030D01*
X233267990Y-114804416D01*
X233300000Y-114602316D01*
X233300000Y-114397682D01*
X233292829Y-114352410D01*
X233292829Y-114352409D01*
X233267990Y-114195581D01*
X233204755Y-114000967D01*
X233111859Y-113818649D01*
X233079474Y-113774076D01*
X233079474Y-113774075D01*
X232400000Y-114453550D01*
X232400000Y-114447338D01*
X232372741Y-114345605D01*
X232320080Y-114254393D01*
X232245606Y-114179919D01*
X232154394Y-114127258D01*
X232052661Y-114099999D01*
X232046446Y-114099999D01*
X232725922Y-113420523D01*
X232725921Y-113420522D01*
X232681359Y-113388146D01*
X232681350Y-113388140D01*
X232499031Y-113295243D01*
X232426916Y-113271812D01*
X232304417Y-113232008D01*
X232102317Y-113199999D01*
X231897683Y-113199999D01*
X231695582Y-113232008D01*
X231500968Y-113295243D01*
X231318644Y-113388142D01*
X231274077Y-113420522D01*
X231274077Y-113420523D01*
X231953554Y-114099999D01*
X231947339Y-114099999D01*
X231845606Y-114127258D01*
X231754394Y-114179919D01*
X231679920Y-114254393D01*
X231627259Y-114345605D01*
X231600000Y-114447338D01*
X231600000Y-114453552D01*
X230920524Y-113774076D01*
X230920523Y-113774076D01*
X230888143Y-113818643D01*
X230795244Y-114000967D01*
X230732009Y-114195581D01*
X230700000Y-114397681D01*
X163689512Y-114397681D01*
X163654957Y-114392208D01*
X163606287Y-114384500D01*
X163393713Y-114384500D01*
X163345042Y-114392208D01*
X163183760Y-114417753D01*
X162981585Y-114483444D01*
X162792179Y-114579951D01*
X162620213Y-114704890D01*
X162469890Y-114855213D01*
X162344951Y-115027179D01*
X162248444Y-115216585D01*
X162182753Y-115418760D01*
X162149500Y-115628713D01*
X141500500Y-115628713D01*
X141500500Y-111102155D01*
X179150000Y-111102155D01*
X179150000Y-111750000D01*
X180066988Y-111750000D01*
X180034075Y-111807007D01*
X180000000Y-111934174D01*
X180000000Y-112065826D01*
X180034075Y-112192993D01*
X180066988Y-112250000D01*
X179150000Y-112250000D01*
X179150000Y-112897844D01*
X179156401Y-112957372D01*
X179156403Y-112957379D01*
X179206645Y-113092086D01*
X179206649Y-113092093D01*
X179292809Y-113207187D01*
X179292812Y-113207190D01*
X179407906Y-113293350D01*
X179407913Y-113293354D01*
X179542620Y-113343596D01*
X179542627Y-113343598D01*
X179602155Y-113349999D01*
X179602172Y-113350000D01*
X180250000Y-113350000D01*
X180250000Y-112433012D01*
X180307007Y-112465925D01*
X180434174Y-112500000D01*
X180565826Y-112500000D01*
X180692993Y-112465925D01*
X180750000Y-112433012D01*
X180750000Y-113350000D01*
X181397828Y-113350000D01*
X181397844Y-113349999D01*
X181457372Y-113343598D01*
X181457379Y-113343596D01*
X181592086Y-113293354D01*
X181592093Y-113293350D01*
X181707187Y-113207190D01*
X181707190Y-113207187D01*
X181793350Y-113092093D01*
X181793354Y-113092086D01*
X181843596Y-112957379D01*
X181843598Y-112957372D01*
X181849999Y-112897844D01*
X181850000Y-112897827D01*
X181850000Y-112250000D01*
X180933012Y-112250000D01*
X180965925Y-112192993D01*
X181000000Y-112065826D01*
X181000000Y-111934174D01*
X180965925Y-111807007D01*
X180933012Y-111750000D01*
X181850000Y-111750000D01*
X181850000Y-111102172D01*
X181849999Y-111102155D01*
X218150000Y-111102155D01*
X218150000Y-111750000D01*
X219066988Y-111750000D01*
X219034075Y-111807007D01*
X219000000Y-111934174D01*
X219000000Y-112065826D01*
X219034075Y-112192993D01*
X219066988Y-112250000D01*
X218150000Y-112250000D01*
X218150000Y-112897844D01*
X218156401Y-112957372D01*
X218156403Y-112957379D01*
X218206645Y-113092086D01*
X218206649Y-113092093D01*
X218292809Y-113207187D01*
X218292812Y-113207190D01*
X218407906Y-113293350D01*
X218407913Y-113293354D01*
X218542620Y-113343596D01*
X218542627Y-113343598D01*
X218602155Y-113349999D01*
X218602172Y-113350000D01*
X219250000Y-113350000D01*
X219250000Y-112433012D01*
X219307007Y-112465925D01*
X219434174Y-112500000D01*
X219565826Y-112500000D01*
X219692993Y-112465925D01*
X219750000Y-112433012D01*
X219750000Y-113350000D01*
X220397828Y-113350000D01*
X220397844Y-113349999D01*
X220449053Y-113344493D01*
X220457372Y-113343598D01*
X220457379Y-113343596D01*
X220592086Y-113293354D01*
X220592093Y-113293350D01*
X220707187Y-113207190D01*
X220707190Y-113207187D01*
X220793350Y-113092093D01*
X220793354Y-113092086D01*
X220843596Y-112957379D01*
X220843598Y-112957372D01*
X220849999Y-112897844D01*
X220850000Y-112897827D01*
X220850000Y-112250000D01*
X219933012Y-112250000D01*
X219965925Y-112192993D01*
X220000000Y-112065826D01*
X220000000Y-111934174D01*
X219965925Y-111807007D01*
X219933012Y-111750000D01*
X220850000Y-111750000D01*
X220850000Y-111102172D01*
X220849999Y-111102155D01*
X220843598Y-111042627D01*
X220843596Y-111042620D01*
X220793354Y-110907913D01*
X220793350Y-110907906D01*
X220707190Y-110792812D01*
X220707187Y-110792809D01*
X220592093Y-110706649D01*
X220592086Y-110706645D01*
X220457379Y-110656403D01*
X220457372Y-110656401D01*
X220397844Y-110650000D01*
X219750000Y-110650000D01*
X219750000Y-111566988D01*
X219692993Y-111534075D01*
X219565826Y-111500000D01*
X219434174Y-111500000D01*
X219307007Y-111534075D01*
X219250000Y-111566988D01*
X219250000Y-110650000D01*
X218602155Y-110650000D01*
X218542627Y-110656401D01*
X218542620Y-110656403D01*
X218407913Y-110706645D01*
X218407906Y-110706649D01*
X218292812Y-110792809D01*
X218292809Y-110792812D01*
X218206649Y-110907906D01*
X218206645Y-110907913D01*
X218156403Y-111042620D01*
X218156401Y-111042627D01*
X218150000Y-111102155D01*
X181849999Y-111102155D01*
X181843598Y-111042627D01*
X181843596Y-111042620D01*
X181793354Y-110907913D01*
X181793350Y-110907906D01*
X181707190Y-110792812D01*
X181707187Y-110792809D01*
X181592093Y-110706649D01*
X181592086Y-110706645D01*
X181457379Y-110656403D01*
X181457372Y-110656401D01*
X181397844Y-110650000D01*
X180750000Y-110650000D01*
X180750000Y-111566988D01*
X180692993Y-111534075D01*
X180565826Y-111500000D01*
X180434174Y-111500000D01*
X180307007Y-111534075D01*
X180250000Y-111566988D01*
X180250000Y-110650000D01*
X179602155Y-110650000D01*
X179542627Y-110656401D01*
X179542620Y-110656403D01*
X179407913Y-110706645D01*
X179407906Y-110706649D01*
X179292812Y-110792809D01*
X179292809Y-110792812D01*
X179206649Y-110907906D01*
X179206645Y-110907913D01*
X179156403Y-111042620D01*
X179156401Y-111042627D01*
X179150000Y-111102155D01*
X141500500Y-111102155D01*
X141500500Y-109827135D01*
X243149500Y-109827135D01*
X243149500Y-111622870D01*
X243149501Y-111622876D01*
X243155908Y-111682483D01*
X243206202Y-111817328D01*
X243206206Y-111817335D01*
X243292452Y-111932544D01*
X243292455Y-111932547D01*
X243407664Y-112018793D01*
X243407671Y-112018797D01*
X243452618Y-112035561D01*
X243542517Y-112069091D01*
X243602127Y-112075500D01*
X243612685Y-112075499D01*
X243679723Y-112095179D01*
X243700372Y-112111818D01*
X244370591Y-112782037D01*
X244307007Y-112799075D01*
X244192993Y-112864901D01*
X244099901Y-112957993D01*
X244034075Y-113072007D01*
X244017037Y-113135591D01*
X243384728Y-112503282D01*
X243384727Y-112503282D01*
X243345380Y-112557439D01*
X243248904Y-112746782D01*
X243183242Y-112948869D01*
X243183242Y-112948872D01*
X243150000Y-113158753D01*
X243150000Y-113371246D01*
X243183242Y-113581127D01*
X243183242Y-113581130D01*
X243248904Y-113783217D01*
X243345375Y-113972550D01*
X243384728Y-114026716D01*
X244017037Y-113394408D01*
X244034075Y-113457993D01*
X244099901Y-113572007D01*
X244192993Y-113665099D01*
X244307007Y-113730925D01*
X244370590Y-113747962D01*
X243738282Y-114380269D01*
X243738282Y-114380270D01*
X243792449Y-114419624D01*
X243981782Y-114516095D01*
X244183870Y-114581757D01*
X244393754Y-114615000D01*
X244606246Y-114615000D01*
X244816127Y-114581757D01*
X244816130Y-114581757D01*
X245018217Y-114516095D01*
X245207554Y-114419622D01*
X245261716Y-114380270D01*
X245261717Y-114380270D01*
X244629408Y-113747962D01*
X244692993Y-113730925D01*
X244807007Y-113665099D01*
X244900099Y-113572007D01*
X244965925Y-113457993D01*
X244982962Y-113394408D01*
X245615270Y-114026717D01*
X245615270Y-114026716D01*
X245654622Y-113972554D01*
X245751095Y-113783217D01*
X245816757Y-113581130D01*
X245816757Y-113581127D01*
X245850000Y-113371246D01*
X245850000Y-113158753D01*
X245816757Y-112948872D01*
X245816757Y-112948869D01*
X245751095Y-112746782D01*
X245654624Y-112557449D01*
X245615270Y-112503282D01*
X245615269Y-112503282D01*
X244982962Y-113135590D01*
X244965925Y-113072007D01*
X244900099Y-112957993D01*
X244807007Y-112864901D01*
X244692993Y-112799075D01*
X244629409Y-112782037D01*
X245299627Y-112111818D01*
X245360950Y-112078333D01*
X245387307Y-112075499D01*
X245397872Y-112075499D01*
X245457483Y-112069091D01*
X245592331Y-112018796D01*
X245707546Y-111932546D01*
X245793796Y-111817331D01*
X245844091Y-111682483D01*
X245850500Y-111622873D01*
X245850499Y-109827135D01*
X252149500Y-109827135D01*
X252149500Y-111622870D01*
X252149501Y-111622876D01*
X252155908Y-111682483D01*
X252206202Y-111817328D01*
X252206206Y-111817335D01*
X252292452Y-111932544D01*
X252292455Y-111932547D01*
X252407664Y-112018793D01*
X252407671Y-112018797D01*
X252452618Y-112035561D01*
X252542517Y-112069091D01*
X252602127Y-112075500D01*
X252612685Y-112075499D01*
X252679723Y-112095179D01*
X252700372Y-112111818D01*
X253370591Y-112782037D01*
X253307007Y-112799075D01*
X253192993Y-112864901D01*
X253099901Y-112957993D01*
X253034075Y-113072007D01*
X253017037Y-113135591D01*
X252384728Y-112503282D01*
X252384727Y-112503282D01*
X252345380Y-112557439D01*
X252248904Y-112746782D01*
X252183242Y-112948869D01*
X252183242Y-112948872D01*
X252150000Y-113158753D01*
X252150000Y-113371246D01*
X252183242Y-113581127D01*
X252183242Y-113581130D01*
X252248904Y-113783217D01*
X252345375Y-113972550D01*
X252384728Y-114026716D01*
X253017037Y-113394408D01*
X253034075Y-113457993D01*
X253099901Y-113572007D01*
X253192993Y-113665099D01*
X253307007Y-113730925D01*
X253370590Y-113747962D01*
X252738282Y-114380269D01*
X252738282Y-114380270D01*
X252792449Y-114419624D01*
X252981782Y-114516095D01*
X253183870Y-114581757D01*
X253393754Y-114615000D01*
X253606246Y-114615000D01*
X253816127Y-114581757D01*
X253816130Y-114581757D01*
X254018217Y-114516095D01*
X254207554Y-114419622D01*
X254261716Y-114380270D01*
X254261717Y-114380270D01*
X253629408Y-113747962D01*
X253692993Y-113730925D01*
X253807007Y-113665099D01*
X253900099Y-113572007D01*
X253965925Y-113457993D01*
X253982962Y-113394408D01*
X254615270Y-114026717D01*
X254615270Y-114026716D01*
X254654622Y-113972554D01*
X254751095Y-113783217D01*
X254816757Y-113581130D01*
X254816757Y-113581127D01*
X254850000Y-113371246D01*
X254850000Y-113158753D01*
X254816757Y-112948872D01*
X254816757Y-112948869D01*
X254751095Y-112746782D01*
X254654624Y-112557449D01*
X254615270Y-112503282D01*
X254615269Y-112503282D01*
X253982962Y-113135590D01*
X253965925Y-113072007D01*
X253900099Y-112957993D01*
X253807007Y-112864901D01*
X253692993Y-112799075D01*
X253629409Y-112782037D01*
X254299627Y-112111818D01*
X254360950Y-112078333D01*
X254387307Y-112075499D01*
X254397872Y-112075499D01*
X254457483Y-112069091D01*
X254592331Y-112018796D01*
X254707546Y-111932546D01*
X254793796Y-111817331D01*
X254844091Y-111682483D01*
X254850500Y-111622873D01*
X254850499Y-109827135D01*
X262149500Y-109827135D01*
X262149500Y-111622870D01*
X262149501Y-111622876D01*
X262155908Y-111682483D01*
X262206202Y-111817328D01*
X262206206Y-111817335D01*
X262292452Y-111932544D01*
X262292455Y-111932547D01*
X262407664Y-112018793D01*
X262407671Y-112018797D01*
X262452618Y-112035561D01*
X262542517Y-112069091D01*
X262602127Y-112075500D01*
X262612685Y-112075499D01*
X262679723Y-112095179D01*
X262700372Y-112111818D01*
X263370591Y-112782037D01*
X263307007Y-112799075D01*
X263192993Y-112864901D01*
X263099901Y-112957993D01*
X263034075Y-113072007D01*
X263017037Y-113135591D01*
X262384728Y-112503282D01*
X262384727Y-112503282D01*
X262345380Y-112557439D01*
X262248904Y-112746782D01*
X262183242Y-112948869D01*
X262183242Y-112948872D01*
X262150000Y-113158753D01*
X262150000Y-113371246D01*
X262183242Y-113581127D01*
X262183242Y-113581130D01*
X262248904Y-113783217D01*
X262345375Y-113972550D01*
X262384728Y-114026716D01*
X263017037Y-113394408D01*
X263034075Y-113457993D01*
X263099901Y-113572007D01*
X263192993Y-113665099D01*
X263307007Y-113730925D01*
X263370590Y-113747962D01*
X262738282Y-114380269D01*
X262738282Y-114380270D01*
X262792449Y-114419624D01*
X262981782Y-114516095D01*
X263183870Y-114581757D01*
X263393754Y-114615000D01*
X263606246Y-114615000D01*
X263816127Y-114581757D01*
X263816130Y-114581757D01*
X264018217Y-114516095D01*
X264207554Y-114419622D01*
X264261716Y-114380270D01*
X264261717Y-114380270D01*
X263629408Y-113747962D01*
X263692993Y-113730925D01*
X263807007Y-113665099D01*
X263900099Y-113572007D01*
X263965925Y-113457993D01*
X263982962Y-113394409D01*
X264615270Y-114026717D01*
X264615270Y-114026716D01*
X264654622Y-113972554D01*
X264751095Y-113783217D01*
X264816757Y-113581130D01*
X264816757Y-113581127D01*
X264850000Y-113371246D01*
X264850000Y-113158753D01*
X264816757Y-112948872D01*
X264816757Y-112948869D01*
X264751095Y-112746782D01*
X264654624Y-112557449D01*
X264615270Y-112503282D01*
X264615269Y-112503282D01*
X263982962Y-113135590D01*
X263965925Y-113072007D01*
X263900099Y-112957993D01*
X263807007Y-112864901D01*
X263692993Y-112799075D01*
X263629409Y-112782037D01*
X264299627Y-112111818D01*
X264360950Y-112078333D01*
X264387307Y-112075499D01*
X264397872Y-112075499D01*
X264457483Y-112069091D01*
X264592331Y-112018796D01*
X264707546Y-111932546D01*
X264793796Y-111817331D01*
X264844091Y-111682483D01*
X264850500Y-111622873D01*
X264850499Y-109827128D01*
X264844091Y-109767517D01*
X264793796Y-109632669D01*
X264793795Y-109632668D01*
X264793793Y-109632664D01*
X264707547Y-109517455D01*
X264707544Y-109517452D01*
X264592335Y-109431206D01*
X264592328Y-109431202D01*
X264457482Y-109380908D01*
X264457483Y-109380908D01*
X264397883Y-109374501D01*
X264397881Y-109374500D01*
X264397873Y-109374500D01*
X264397864Y-109374500D01*
X262602129Y-109374500D01*
X262602123Y-109374501D01*
X262542516Y-109380908D01*
X262407671Y-109431202D01*
X262407664Y-109431206D01*
X262292455Y-109517452D01*
X262292452Y-109517455D01*
X262206206Y-109632664D01*
X262206202Y-109632671D01*
X262155908Y-109767517D01*
X262149501Y-109827116D01*
X262149501Y-109827123D01*
X262149500Y-109827135D01*
X254850499Y-109827135D01*
X254850499Y-109827128D01*
X254844091Y-109767517D01*
X254793796Y-109632669D01*
X254793795Y-109632668D01*
X254793793Y-109632664D01*
X254707547Y-109517455D01*
X254707544Y-109517452D01*
X254592335Y-109431206D01*
X254592328Y-109431202D01*
X254457482Y-109380908D01*
X254457483Y-109380908D01*
X254397883Y-109374501D01*
X254397881Y-109374500D01*
X254397873Y-109374500D01*
X254397864Y-109374500D01*
X252602129Y-109374500D01*
X252602123Y-109374501D01*
X252542516Y-109380908D01*
X252407671Y-109431202D01*
X252407664Y-109431206D01*
X252292455Y-109517452D01*
X252292452Y-109517455D01*
X252206206Y-109632664D01*
X252206202Y-109632671D01*
X252155908Y-109767517D01*
X252149501Y-109827116D01*
X252149501Y-109827123D01*
X252149500Y-109827135D01*
X245850499Y-109827135D01*
X245850499Y-109827128D01*
X245844091Y-109767517D01*
X245793796Y-109632669D01*
X245793795Y-109632668D01*
X245793793Y-109632664D01*
X245707547Y-109517455D01*
X245707544Y-109517452D01*
X245592335Y-109431206D01*
X245592328Y-109431202D01*
X245457482Y-109380908D01*
X245457483Y-109380908D01*
X245397883Y-109374501D01*
X245397881Y-109374500D01*
X245397873Y-109374500D01*
X245397864Y-109374500D01*
X243602129Y-109374500D01*
X243602123Y-109374501D01*
X243542516Y-109380908D01*
X243407671Y-109431202D01*
X243407664Y-109431206D01*
X243292455Y-109517452D01*
X243292452Y-109517455D01*
X243206206Y-109632664D01*
X243206202Y-109632671D01*
X243155908Y-109767517D01*
X243149501Y-109827116D01*
X243149501Y-109827123D01*
X243149500Y-109827135D01*
X141500500Y-109827135D01*
X141500500Y-100442920D01*
X144539500Y-100442920D01*
X144539500Y-105557079D01*
X144572999Y-105768585D01*
X144639176Y-105972255D01*
X144736396Y-106163057D01*
X144862269Y-106336306D01*
X145013694Y-106487731D01*
X145186943Y-106613604D01*
X145277089Y-106659536D01*
X145377744Y-106710823D01*
X145377746Y-106710823D01*
X145377749Y-106710825D01*
X145486920Y-106746296D01*
X145581414Y-106777000D01*
X145792921Y-106810500D01*
X145792926Y-106810500D01*
X146007079Y-106810500D01*
X146218585Y-106777000D01*
X146422251Y-106710825D01*
X146613057Y-106613604D01*
X146786306Y-106487731D01*
X146937731Y-106336306D01*
X147063604Y-106163057D01*
X147160825Y-105972251D01*
X147227000Y-105768585D01*
X147260500Y-105557079D01*
X147260500Y-100442920D01*
X151639500Y-100442920D01*
X151639500Y-105557079D01*
X151672999Y-105768585D01*
X151739176Y-105972255D01*
X151836396Y-106163057D01*
X151962269Y-106336306D01*
X152113694Y-106487731D01*
X152286943Y-106613604D01*
X152377089Y-106659536D01*
X152477744Y-106710823D01*
X152477746Y-106710823D01*
X152477749Y-106710825D01*
X152586920Y-106746296D01*
X152681414Y-106777000D01*
X152892921Y-106810500D01*
X152892926Y-106810500D01*
X153107079Y-106810500D01*
X153318585Y-106777000D01*
X153522251Y-106710825D01*
X153713057Y-106613604D01*
X153886306Y-106487731D01*
X154037731Y-106336306D01*
X154163604Y-106163057D01*
X154260825Y-105972251D01*
X154327000Y-105768585D01*
X154360500Y-105557079D01*
X154360500Y-100881946D01*
X230000000Y-100881946D01*
X230000000Y-101118051D01*
X230036934Y-101351246D01*
X230109897Y-101575801D01*
X230217087Y-101786173D01*
X230277338Y-101869103D01*
X230277340Y-101869104D01*
X231017037Y-101129407D01*
X231034075Y-101192992D01*
X231099901Y-101307006D01*
X231192993Y-101400098D01*
X231307007Y-101465924D01*
X231370590Y-101482961D01*
X230630893Y-102222657D01*
X230713828Y-102282913D01*
X230924197Y-102390101D01*
X231148752Y-102463064D01*
X231148751Y-102463064D01*
X231381948Y-102499999D01*
X231618052Y-102499999D01*
X231851247Y-102463064D01*
X232075802Y-102390101D01*
X232286163Y-102282917D01*
X232286169Y-102282913D01*
X232369104Y-102222657D01*
X232369105Y-102222657D01*
X231629408Y-101482961D01*
X231692993Y-101465924D01*
X231807007Y-101400098D01*
X231900099Y-101307006D01*
X231965925Y-101192992D01*
X231982962Y-101129407D01*
X232722658Y-101869104D01*
X232722658Y-101869103D01*
X232782914Y-101786168D01*
X232782918Y-101786162D01*
X232890102Y-101575801D01*
X232963065Y-101351246D01*
X233000000Y-101118051D01*
X233000000Y-100881946D01*
X232963065Y-100648751D01*
X232890102Y-100424196D01*
X232782914Y-100213827D01*
X232722658Y-100130893D01*
X232722658Y-100130892D01*
X231982962Y-100870589D01*
X231965925Y-100807006D01*
X231900099Y-100692992D01*
X231807007Y-100599900D01*
X231692993Y-100534074D01*
X231629409Y-100517036D01*
X232369105Y-99777339D01*
X232369104Y-99777337D01*
X232286174Y-99717086D01*
X232075802Y-99609896D01*
X231851247Y-99536933D01*
X231851248Y-99536933D01*
X231618052Y-99499999D01*
X231381948Y-99499999D01*
X231148752Y-99536933D01*
X230924197Y-99609896D01*
X230713830Y-99717083D01*
X230630894Y-99777339D01*
X231370591Y-100517036D01*
X231307007Y-100534074D01*
X231192993Y-100599900D01*
X231099901Y-100692992D01*
X231034075Y-100807006D01*
X231017037Y-100870590D01*
X230277340Y-100130893D01*
X230217084Y-100213829D01*
X230109897Y-100424196D01*
X230036934Y-100648751D01*
X230000000Y-100881946D01*
X154360500Y-100881946D01*
X154360500Y-100442920D01*
X154327000Y-100231414D01*
X154294338Y-100130892D01*
X154260825Y-100027749D01*
X154260823Y-100027746D01*
X154260823Y-100027744D01*
X154185998Y-99880893D01*
X154185997Y-99880891D01*
X154163605Y-99836945D01*
X154163603Y-99836942D01*
X154037731Y-99663694D01*
X153886306Y-99512269D01*
X153713057Y-99386396D01*
X153522255Y-99289176D01*
X153318585Y-99222999D01*
X153107079Y-99189500D01*
X153107074Y-99189500D01*
X152892926Y-99189500D01*
X152892921Y-99189500D01*
X152681414Y-99222999D01*
X152477744Y-99289176D01*
X152286942Y-99386396D01*
X152188097Y-99458211D01*
X152113694Y-99512269D01*
X152113692Y-99512271D01*
X152113691Y-99512271D01*
X151962271Y-99663691D01*
X151962271Y-99663692D01*
X151962269Y-99663694D01*
X151908211Y-99738097D01*
X151836396Y-99836942D01*
X151739176Y-100027744D01*
X151672999Y-100231414D01*
X151639500Y-100442920D01*
X147260500Y-100442920D01*
X147227000Y-100231414D01*
X147194338Y-100130892D01*
X147160825Y-100027749D01*
X147160823Y-100027746D01*
X147160823Y-100027744D01*
X147085998Y-99880893D01*
X147063604Y-99836943D01*
X146937731Y-99663694D01*
X146786306Y-99512269D01*
X146613057Y-99386396D01*
X146422255Y-99289176D01*
X146218585Y-99222999D01*
X146007079Y-99189500D01*
X146007074Y-99189500D01*
X145792926Y-99189500D01*
X145792921Y-99189500D01*
X145581414Y-99222999D01*
X145377744Y-99289176D01*
X145186942Y-99386396D01*
X145088097Y-99458211D01*
X145013694Y-99512269D01*
X145013692Y-99512271D01*
X145013691Y-99512271D01*
X144862271Y-99663691D01*
X144862271Y-99663692D01*
X144862269Y-99663694D01*
X144808211Y-99738097D01*
X144736396Y-99836942D01*
X144639176Y-100027744D01*
X144572999Y-100231414D01*
X144539500Y-100442920D01*
X141500500Y-100442920D01*
X141500500Y-95102135D01*
X179149500Y-95102135D01*
X179149500Y-96897870D01*
X179149501Y-96897876D01*
X179155908Y-96957483D01*
X179206202Y-97092328D01*
X179206206Y-97092335D01*
X179292452Y-97207544D01*
X179292455Y-97207547D01*
X179407664Y-97293793D01*
X179407671Y-97293797D01*
X179542517Y-97344091D01*
X179542516Y-97344091D01*
X179549444Y-97344835D01*
X179602127Y-97350500D01*
X181397872Y-97350499D01*
X181457483Y-97344091D01*
X181592331Y-97293796D01*
X181707546Y-97207546D01*
X181793796Y-97092331D01*
X181844091Y-96957483D01*
X181850500Y-96897873D01*
X181850499Y-95102135D01*
X218149500Y-95102135D01*
X218149500Y-96897870D01*
X218149501Y-96897876D01*
X218155908Y-96957483D01*
X218206202Y-97092328D01*
X218206206Y-97092335D01*
X218292452Y-97207544D01*
X218292455Y-97207547D01*
X218407664Y-97293793D01*
X218407671Y-97293797D01*
X218542517Y-97344091D01*
X218542516Y-97344091D01*
X218549444Y-97344835D01*
X218602127Y-97350500D01*
X220397872Y-97350499D01*
X220457483Y-97344091D01*
X220592331Y-97293796D01*
X220707546Y-97207546D01*
X220793796Y-97092331D01*
X220844091Y-96957483D01*
X220850500Y-96897873D01*
X220850499Y-95199982D01*
X229999500Y-95199982D01*
X229999500Y-96800000D01*
X229999501Y-96800017D01*
X230010000Y-96902795D01*
X230010001Y-96902798D01*
X230065185Y-97069330D01*
X230065186Y-97069333D01*
X230157288Y-97218655D01*
X230281344Y-97342711D01*
X230430666Y-97434813D01*
X230597203Y-97489998D01*
X230699991Y-97500499D01*
X232300008Y-97500498D01*
X232402797Y-97489998D01*
X232569334Y-97434813D01*
X232718656Y-97342711D01*
X232842712Y-97218655D01*
X232934814Y-97069333D01*
X232989999Y-96902796D01*
X233000500Y-96800008D01*
X233000499Y-95327135D01*
X247649500Y-95327135D01*
X247649500Y-97122870D01*
X247649501Y-97122876D01*
X247655908Y-97182483D01*
X247706202Y-97317328D01*
X247706206Y-97317335D01*
X247792452Y-97432544D01*
X247792455Y-97432547D01*
X247907664Y-97518793D01*
X247907671Y-97518797D01*
X247952618Y-97535561D01*
X248042517Y-97569091D01*
X248102127Y-97575500D01*
X248112685Y-97575499D01*
X248179723Y-97595179D01*
X248200372Y-97611818D01*
X248870591Y-98282037D01*
X248807007Y-98299075D01*
X248692993Y-98364901D01*
X248599901Y-98457993D01*
X248534075Y-98572007D01*
X248517037Y-98635590D01*
X247884728Y-98003282D01*
X247884727Y-98003282D01*
X247845380Y-98057439D01*
X247748904Y-98246782D01*
X247683242Y-98448869D01*
X247683242Y-98448872D01*
X247650000Y-98658753D01*
X247650000Y-98871246D01*
X247683242Y-99081127D01*
X247683242Y-99081130D01*
X247748903Y-99283214D01*
X247748902Y-99283214D01*
X247845375Y-99472550D01*
X247884728Y-99526716D01*
X248517037Y-98894408D01*
X248534075Y-98957993D01*
X248599901Y-99072007D01*
X248692993Y-99165099D01*
X248807007Y-99230925D01*
X248870590Y-99247962D01*
X248238282Y-99880269D01*
X248238282Y-99880270D01*
X248292449Y-99919624D01*
X248481782Y-100016095D01*
X248683870Y-100081757D01*
X248893754Y-100115000D01*
X249106246Y-100115000D01*
X249316127Y-100081757D01*
X249316130Y-100081757D01*
X249518217Y-100016095D01*
X249707554Y-99919622D01*
X249761716Y-99880270D01*
X249761717Y-99880270D01*
X249129408Y-99247962D01*
X249192993Y-99230925D01*
X249307007Y-99165099D01*
X249400099Y-99072007D01*
X249465925Y-98957993D01*
X249482962Y-98894408D01*
X250115270Y-99526717D01*
X250115270Y-99526716D01*
X250154622Y-99472554D01*
X250251097Y-99283214D01*
X250316757Y-99081130D01*
X250316757Y-99081127D01*
X250350000Y-98871246D01*
X250350000Y-98658753D01*
X250316757Y-98448872D01*
X250316757Y-98448869D01*
X250251095Y-98246782D01*
X250154624Y-98057449D01*
X250115270Y-98003282D01*
X250115269Y-98003282D01*
X249482962Y-98635590D01*
X249465925Y-98572007D01*
X249400099Y-98457993D01*
X249307007Y-98364901D01*
X249192993Y-98299075D01*
X249129409Y-98282037D01*
X249799627Y-97611818D01*
X249860950Y-97578333D01*
X249887307Y-97575499D01*
X249897872Y-97575499D01*
X249957483Y-97569091D01*
X250092331Y-97518796D01*
X250207546Y-97432546D01*
X250293796Y-97317331D01*
X250344091Y-97182483D01*
X250350500Y-97122873D01*
X250350499Y-95327135D01*
X257149500Y-95327135D01*
X257149500Y-97122870D01*
X257149501Y-97122876D01*
X257155908Y-97182483D01*
X257206202Y-97317328D01*
X257206206Y-97317335D01*
X257292452Y-97432544D01*
X257292455Y-97432547D01*
X257407664Y-97518793D01*
X257407671Y-97518797D01*
X257452618Y-97535561D01*
X257542517Y-97569091D01*
X257602127Y-97575500D01*
X257612685Y-97575499D01*
X257679723Y-97595179D01*
X257700372Y-97611818D01*
X258370591Y-98282037D01*
X258307007Y-98299075D01*
X258192993Y-98364901D01*
X258099901Y-98457993D01*
X258034075Y-98572007D01*
X258017037Y-98635590D01*
X257384728Y-98003282D01*
X257384727Y-98003282D01*
X257345380Y-98057439D01*
X257248904Y-98246782D01*
X257183242Y-98448869D01*
X257183242Y-98448872D01*
X257150000Y-98658753D01*
X257150000Y-98871246D01*
X257183242Y-99081127D01*
X257183242Y-99081130D01*
X257248903Y-99283214D01*
X257248902Y-99283214D01*
X257345375Y-99472550D01*
X257384728Y-99526716D01*
X258017037Y-98894408D01*
X258034075Y-98957993D01*
X258099901Y-99072007D01*
X258192993Y-99165099D01*
X258307007Y-99230925D01*
X258370590Y-99247962D01*
X257738282Y-99880269D01*
X257738282Y-99880270D01*
X257792449Y-99919624D01*
X257981782Y-100016095D01*
X258183870Y-100081757D01*
X258393754Y-100115000D01*
X258606246Y-100115000D01*
X258816127Y-100081757D01*
X258816130Y-100081757D01*
X259018217Y-100016095D01*
X259207554Y-99919622D01*
X259261716Y-99880270D01*
X259261717Y-99880270D01*
X258629408Y-99247962D01*
X258692993Y-99230925D01*
X258807007Y-99165099D01*
X258900099Y-99072007D01*
X258965925Y-98957993D01*
X258982962Y-98894408D01*
X259615270Y-99526717D01*
X259615270Y-99526716D01*
X259654622Y-99472554D01*
X259751097Y-99283214D01*
X259816757Y-99081130D01*
X259816757Y-99081127D01*
X259850000Y-98871246D01*
X259850000Y-98658753D01*
X259816757Y-98448872D01*
X259816757Y-98448869D01*
X259751095Y-98246782D01*
X259654624Y-98057449D01*
X259615270Y-98003282D01*
X259615269Y-98003282D01*
X258982962Y-98635590D01*
X258965925Y-98572007D01*
X258900099Y-98457993D01*
X258807007Y-98364901D01*
X258692993Y-98299075D01*
X258629409Y-98282037D01*
X259299627Y-97611818D01*
X259360950Y-97578333D01*
X259387307Y-97575499D01*
X259397872Y-97575499D01*
X259457483Y-97569091D01*
X259592331Y-97518796D01*
X259707546Y-97432546D01*
X259793796Y-97317331D01*
X259844091Y-97182483D01*
X259850500Y-97122873D01*
X259850499Y-95327128D01*
X259844091Y-95267517D01*
X259818905Y-95199991D01*
X259793797Y-95132671D01*
X259793793Y-95132664D01*
X259707547Y-95017455D01*
X259707544Y-95017452D01*
X259592335Y-94931206D01*
X259592328Y-94931202D01*
X259457482Y-94880908D01*
X259457483Y-94880908D01*
X259397883Y-94874501D01*
X259397881Y-94874500D01*
X259397873Y-94874500D01*
X259397864Y-94874500D01*
X257602129Y-94874500D01*
X257602123Y-94874501D01*
X257542516Y-94880908D01*
X257407671Y-94931202D01*
X257407664Y-94931206D01*
X257292455Y-95017452D01*
X257292452Y-95017455D01*
X257206206Y-95132664D01*
X257206202Y-95132671D01*
X257155908Y-95267517D01*
X257149501Y-95327116D01*
X257149501Y-95327123D01*
X257149500Y-95327135D01*
X250350499Y-95327135D01*
X250350499Y-95327128D01*
X250344091Y-95267517D01*
X250318905Y-95199991D01*
X250293797Y-95132671D01*
X250293793Y-95132664D01*
X250207547Y-95017455D01*
X250207544Y-95017452D01*
X250092335Y-94931206D01*
X250092328Y-94931202D01*
X249957482Y-94880908D01*
X249957483Y-94880908D01*
X249897883Y-94874501D01*
X249897881Y-94874500D01*
X249897873Y-94874500D01*
X249897864Y-94874500D01*
X248102129Y-94874500D01*
X248102123Y-94874501D01*
X248042516Y-94880908D01*
X247907671Y-94931202D01*
X247907664Y-94931206D01*
X247792455Y-95017452D01*
X247792452Y-95017455D01*
X247706206Y-95132664D01*
X247706202Y-95132671D01*
X247655908Y-95267517D01*
X247649501Y-95327116D01*
X247649501Y-95327123D01*
X247649500Y-95327135D01*
X233000499Y-95327135D01*
X233000499Y-95199991D01*
X232993621Y-95132664D01*
X232989999Y-95097202D01*
X232989998Y-95097199D01*
X232934993Y-94931206D01*
X232934814Y-94930665D01*
X232842712Y-94781343D01*
X232718656Y-94657287D01*
X232569334Y-94565185D01*
X232402797Y-94510000D01*
X232402795Y-94509999D01*
X232300010Y-94499499D01*
X230699998Y-94499499D01*
X230699981Y-94499500D01*
X230597203Y-94509999D01*
X230597200Y-94510000D01*
X230430668Y-94565184D01*
X230430663Y-94565186D01*
X230281342Y-94657288D01*
X230157289Y-94781341D01*
X230065187Y-94930662D01*
X230065185Y-94930667D01*
X230037349Y-95014669D01*
X230010001Y-95097202D01*
X230010001Y-95097203D01*
X230010000Y-95097203D01*
X229999500Y-95199982D01*
X220850499Y-95199982D01*
X220850499Y-95102128D01*
X220844091Y-95042517D01*
X220834743Y-95017455D01*
X220793797Y-94907671D01*
X220793793Y-94907664D01*
X220707547Y-94792455D01*
X220707544Y-94792452D01*
X220592335Y-94706206D01*
X220592328Y-94706202D01*
X220457482Y-94655908D01*
X220457483Y-94655908D01*
X220397883Y-94649501D01*
X220397881Y-94649500D01*
X220397873Y-94649500D01*
X220397864Y-94649500D01*
X218602129Y-94649500D01*
X218602123Y-94649501D01*
X218542516Y-94655908D01*
X218407671Y-94706202D01*
X218407664Y-94706206D01*
X218292455Y-94792452D01*
X218292452Y-94792455D01*
X218206206Y-94907664D01*
X218206202Y-94907671D01*
X218155908Y-95042517D01*
X218150029Y-95097203D01*
X218149501Y-95102123D01*
X218149500Y-95102135D01*
X181850499Y-95102135D01*
X181850499Y-95102128D01*
X181844091Y-95042517D01*
X181834743Y-95017455D01*
X181793797Y-94907671D01*
X181793793Y-94907664D01*
X181707547Y-94792455D01*
X181707544Y-94792452D01*
X181592335Y-94706206D01*
X181592328Y-94706202D01*
X181457482Y-94655908D01*
X181457483Y-94655908D01*
X181397883Y-94649501D01*
X181397881Y-94649500D01*
X181397873Y-94649500D01*
X181397864Y-94649500D01*
X179602129Y-94649500D01*
X179602123Y-94649501D01*
X179542516Y-94655908D01*
X179407671Y-94706202D01*
X179407664Y-94706206D01*
X179292455Y-94792452D01*
X179292452Y-94792455D01*
X179206206Y-94907664D01*
X179206202Y-94907671D01*
X179155908Y-95042517D01*
X179150029Y-95097203D01*
X179149501Y-95102123D01*
X179149500Y-95102135D01*
X141500500Y-95102135D01*
X141500500Y-85176096D01*
X153149500Y-85176096D01*
X153149500Y-85423903D01*
X153149501Y-85423919D01*
X153181846Y-85669606D01*
X153245990Y-85908992D01*
X153340819Y-86137931D01*
X153340827Y-86137948D01*
X153464729Y-86352551D01*
X153464740Y-86352567D01*
X153615595Y-86549166D01*
X153615601Y-86549173D01*
X153790826Y-86724398D01*
X153790832Y-86724403D01*
X153987441Y-86875266D01*
X153987452Y-86875272D01*
X153987453Y-86875273D01*
X154017487Y-86892614D01*
X154065702Y-86943181D01*
X154078924Y-87011788D01*
X154052956Y-87076653D01*
X154017487Y-87107386D01*
X153987453Y-87124726D01*
X153987432Y-87124740D01*
X153790833Y-87275595D01*
X153790826Y-87275601D01*
X153615601Y-87450826D01*
X153615595Y-87450833D01*
X153464740Y-87647432D01*
X153464729Y-87647448D01*
X153340827Y-87862051D01*
X153340819Y-87862068D01*
X153245990Y-88091007D01*
X153181846Y-88330393D01*
X153149501Y-88576080D01*
X153149500Y-88576096D01*
X153149500Y-88823903D01*
X153149501Y-88823919D01*
X153181846Y-89069606D01*
X153245990Y-89308992D01*
X153340819Y-89537931D01*
X153340827Y-89537948D01*
X153464729Y-89752551D01*
X153464740Y-89752567D01*
X153615595Y-89949166D01*
X153615601Y-89949173D01*
X153790826Y-90124398D01*
X153790832Y-90124403D01*
X153987441Y-90275266D01*
X153987448Y-90275270D01*
X154202051Y-90399172D01*
X154202056Y-90399174D01*
X154202059Y-90399176D01*
X154202063Y-90399177D01*
X154202068Y-90399180D01*
X154431007Y-90494009D01*
X154431009Y-90494009D01*
X154431015Y-90494012D01*
X154670390Y-90558153D01*
X154916090Y-90590500D01*
X154916097Y-90590500D01*
X155163903Y-90590500D01*
X155163910Y-90590500D01*
X155409610Y-90558153D01*
X155648985Y-90494012D01*
X155877941Y-90399176D01*
X156092559Y-90275266D01*
X156289168Y-90124403D01*
X156464403Y-89949168D01*
X156615266Y-89752559D01*
X156739176Y-89537941D01*
X156834012Y-89308985D01*
X156898153Y-89069610D01*
X156930500Y-88823910D01*
X156930500Y-88576090D01*
X156898153Y-88330390D01*
X156834012Y-88091015D01*
X156739176Y-87862059D01*
X156739174Y-87862056D01*
X156739172Y-87862051D01*
X156615270Y-87647448D01*
X156615266Y-87647441D01*
X156464403Y-87450832D01*
X156464398Y-87450826D01*
X156289173Y-87275601D01*
X156289166Y-87275595D01*
X156092567Y-87124740D01*
X156092565Y-87124739D01*
X156092559Y-87124734D01*
X156062512Y-87107386D01*
X156014297Y-87056820D01*
X156001074Y-86988213D01*
X156027042Y-86923348D01*
X156062513Y-86892613D01*
X156092559Y-86875266D01*
X156289168Y-86724403D01*
X156464403Y-86549168D01*
X156615266Y-86352559D01*
X156739176Y-86137941D01*
X156834012Y-85908985D01*
X156898153Y-85669610D01*
X156930500Y-85423910D01*
X156930500Y-85176096D01*
X163069500Y-85176096D01*
X163069500Y-85423903D01*
X163069501Y-85423919D01*
X163101846Y-85669606D01*
X163165990Y-85908992D01*
X163260819Y-86137931D01*
X163260827Y-86137948D01*
X163384729Y-86352551D01*
X163384740Y-86352567D01*
X163535595Y-86549166D01*
X163535601Y-86549173D01*
X163710826Y-86724398D01*
X163710832Y-86724403D01*
X163907441Y-86875266D01*
X163907452Y-86875272D01*
X163907453Y-86875273D01*
X163937487Y-86892614D01*
X163985702Y-86943181D01*
X163998924Y-87011788D01*
X163972956Y-87076653D01*
X163937487Y-87107386D01*
X163907453Y-87124726D01*
X163907432Y-87124740D01*
X163710833Y-87275595D01*
X163710826Y-87275601D01*
X163535601Y-87450826D01*
X163535595Y-87450833D01*
X163384740Y-87647432D01*
X163384729Y-87647448D01*
X163260827Y-87862051D01*
X163260819Y-87862068D01*
X163165990Y-88091007D01*
X163101846Y-88330393D01*
X163069501Y-88576080D01*
X163069500Y-88576096D01*
X163069500Y-88823903D01*
X163069501Y-88823919D01*
X163101846Y-89069606D01*
X163165990Y-89308992D01*
X163260819Y-89537931D01*
X163260827Y-89537948D01*
X163384729Y-89752551D01*
X163384740Y-89752567D01*
X163535595Y-89949166D01*
X163535601Y-89949173D01*
X163710826Y-90124398D01*
X163710832Y-90124403D01*
X163907441Y-90275266D01*
X163907448Y-90275270D01*
X164122051Y-90399172D01*
X164122056Y-90399174D01*
X164122059Y-90399176D01*
X164122063Y-90399177D01*
X164122068Y-90399180D01*
X164351007Y-90494009D01*
X164351009Y-90494009D01*
X164351015Y-90494012D01*
X164590390Y-90558153D01*
X164836090Y-90590500D01*
X164836097Y-90590500D01*
X165083903Y-90590500D01*
X165083910Y-90590500D01*
X165329610Y-90558153D01*
X165568985Y-90494012D01*
X165797941Y-90399176D01*
X166012559Y-90275266D01*
X166209168Y-90124403D01*
X166384403Y-89949168D01*
X166535266Y-89752559D01*
X166659176Y-89537941D01*
X166754012Y-89308985D01*
X166818153Y-89069610D01*
X166850500Y-88823910D01*
X166850500Y-88602155D01*
X179150000Y-88602155D01*
X179150000Y-89250000D01*
X180066988Y-89250000D01*
X180034075Y-89307007D01*
X180000000Y-89434174D01*
X180000000Y-89565826D01*
X180034075Y-89692993D01*
X180066988Y-89750000D01*
X179150000Y-89750000D01*
X179150000Y-90397844D01*
X179156401Y-90457372D01*
X179156403Y-90457379D01*
X179206645Y-90592086D01*
X179206649Y-90592093D01*
X179292809Y-90707187D01*
X179292812Y-90707190D01*
X179407906Y-90793350D01*
X179407913Y-90793354D01*
X179542620Y-90843596D01*
X179542627Y-90843598D01*
X179602155Y-90849999D01*
X179602172Y-90850000D01*
X180250000Y-90850000D01*
X180250000Y-89933012D01*
X180307007Y-89965925D01*
X180434174Y-90000000D01*
X180565826Y-90000000D01*
X180692993Y-89965925D01*
X180750000Y-89933012D01*
X180750000Y-90850000D01*
X181397828Y-90850000D01*
X181397844Y-90849999D01*
X181457372Y-90843598D01*
X181457379Y-90843596D01*
X181592086Y-90793354D01*
X181592093Y-90793350D01*
X181707187Y-90707190D01*
X181707190Y-90707187D01*
X181793350Y-90592093D01*
X181793354Y-90592086D01*
X181843596Y-90457379D01*
X181843598Y-90457372D01*
X181849999Y-90397844D01*
X181850000Y-90397827D01*
X181850000Y-89750000D01*
X180933012Y-89750000D01*
X180965925Y-89692993D01*
X181000000Y-89565826D01*
X181000000Y-89434174D01*
X180965925Y-89307007D01*
X180933012Y-89250000D01*
X181850000Y-89250000D01*
X181850000Y-88602172D01*
X181849999Y-88602155D01*
X218150000Y-88602155D01*
X218150000Y-89250000D01*
X219066988Y-89250000D01*
X219034075Y-89307007D01*
X219000000Y-89434174D01*
X219000000Y-89565826D01*
X219034075Y-89692993D01*
X219066988Y-89750000D01*
X218150000Y-89750000D01*
X218150000Y-90397844D01*
X218156401Y-90457372D01*
X218156403Y-90457379D01*
X218206645Y-90592086D01*
X218206649Y-90592093D01*
X218292809Y-90707187D01*
X218292812Y-90707190D01*
X218407906Y-90793350D01*
X218407913Y-90793354D01*
X218542620Y-90843596D01*
X218542627Y-90843598D01*
X218602155Y-90849999D01*
X218602172Y-90850000D01*
X219250000Y-90850000D01*
X219250000Y-89933012D01*
X219307007Y-89965925D01*
X219434174Y-90000000D01*
X219565826Y-90000000D01*
X219692993Y-89965925D01*
X219750000Y-89933012D01*
X219750000Y-90850000D01*
X220397828Y-90850000D01*
X220397844Y-90849999D01*
X220457372Y-90843598D01*
X220457379Y-90843596D01*
X220592086Y-90793354D01*
X220592093Y-90793350D01*
X220707187Y-90707190D01*
X220707190Y-90707187D01*
X220793350Y-90592093D01*
X220793354Y-90592086D01*
X220843596Y-90457379D01*
X220843598Y-90457372D01*
X220849999Y-90397844D01*
X220850000Y-90397827D01*
X220850000Y-89750000D01*
X219933012Y-89750000D01*
X219965925Y-89692993D01*
X220000000Y-89565826D01*
X220000000Y-89434174D01*
X219965925Y-89307007D01*
X219933012Y-89250000D01*
X220850000Y-89250000D01*
X220850000Y-88602172D01*
X220849999Y-88602155D01*
X220843598Y-88542627D01*
X220843596Y-88542620D01*
X220793354Y-88407913D01*
X220793350Y-88407906D01*
X220707190Y-88292812D01*
X220707187Y-88292809D01*
X220592093Y-88206649D01*
X220592086Y-88206645D01*
X220457379Y-88156403D01*
X220457372Y-88156401D01*
X220397844Y-88150000D01*
X219750000Y-88150000D01*
X219750000Y-89066988D01*
X219692993Y-89034075D01*
X219565826Y-89000000D01*
X219434174Y-89000000D01*
X219307007Y-89034075D01*
X219250000Y-89066988D01*
X219250000Y-88150000D01*
X218602155Y-88150000D01*
X218542627Y-88156401D01*
X218542620Y-88156403D01*
X218407913Y-88206645D01*
X218407906Y-88206649D01*
X218292812Y-88292809D01*
X218292809Y-88292812D01*
X218206649Y-88407906D01*
X218206645Y-88407913D01*
X218156403Y-88542620D01*
X218156401Y-88542627D01*
X218150000Y-88602155D01*
X181849999Y-88602155D01*
X181843598Y-88542627D01*
X181843596Y-88542620D01*
X181793354Y-88407913D01*
X181793350Y-88407906D01*
X181707190Y-88292812D01*
X181707187Y-88292809D01*
X181592093Y-88206649D01*
X181592086Y-88206645D01*
X181457379Y-88156403D01*
X181457372Y-88156401D01*
X181397844Y-88150000D01*
X180750000Y-88150000D01*
X180750000Y-89066988D01*
X180692993Y-89034075D01*
X180565826Y-89000000D01*
X180434174Y-89000000D01*
X180307007Y-89034075D01*
X180250000Y-89066988D01*
X180250000Y-88150000D01*
X179602155Y-88150000D01*
X179542627Y-88156401D01*
X179542620Y-88156403D01*
X179407913Y-88206645D01*
X179407906Y-88206649D01*
X179292812Y-88292809D01*
X179292809Y-88292812D01*
X179206649Y-88407906D01*
X179206645Y-88407913D01*
X179156403Y-88542620D01*
X179156401Y-88542627D01*
X179150000Y-88602155D01*
X166850500Y-88602155D01*
X166850500Y-88576090D01*
X166818153Y-88330390D01*
X166754012Y-88091015D01*
X166659176Y-87862059D01*
X166659174Y-87862056D01*
X166659172Y-87862051D01*
X166535270Y-87647448D01*
X166535266Y-87647441D01*
X166384403Y-87450832D01*
X166384398Y-87450826D01*
X166209173Y-87275601D01*
X166209166Y-87275595D01*
X166012567Y-87124740D01*
X166012565Y-87124739D01*
X166012559Y-87124734D01*
X165982512Y-87107386D01*
X165934297Y-87056820D01*
X165921074Y-86988213D01*
X165947042Y-86923348D01*
X165982513Y-86892613D01*
X166012559Y-86875266D01*
X166209168Y-86724403D01*
X166384403Y-86549168D01*
X166535266Y-86352559D01*
X166569086Y-86293980D01*
X166596949Y-86245722D01*
X166659172Y-86137948D01*
X166659172Y-86137947D01*
X166659176Y-86137941D01*
X166754012Y-85908985D01*
X166818153Y-85669610D01*
X166850500Y-85423910D01*
X166850500Y-85176090D01*
X166829196Y-85014270D01*
X229000000Y-85014270D01*
X229000000Y-85250375D01*
X229036934Y-85483570D01*
X229109897Y-85708125D01*
X229217087Y-85918497D01*
X229277338Y-86001427D01*
X229277340Y-86001428D01*
X230017037Y-85261731D01*
X230034075Y-85325316D01*
X230099901Y-85439330D01*
X230192993Y-85532422D01*
X230307007Y-85598248D01*
X230370590Y-85615285D01*
X229630893Y-86354981D01*
X229713828Y-86415237D01*
X229924197Y-86522425D01*
X230148752Y-86595388D01*
X230148751Y-86595388D01*
X230381948Y-86632323D01*
X230618052Y-86632323D01*
X230851247Y-86595388D01*
X231075802Y-86522425D01*
X231286163Y-86415241D01*
X231286169Y-86415237D01*
X231369104Y-86354981D01*
X231369105Y-86354981D01*
X230629408Y-85615285D01*
X230692993Y-85598248D01*
X230807007Y-85532422D01*
X230900099Y-85439330D01*
X230965925Y-85325316D01*
X230982962Y-85261732D01*
X231722658Y-86001428D01*
X231722658Y-86001427D01*
X231782914Y-85918492D01*
X231782918Y-85918486D01*
X231890102Y-85708125D01*
X231963065Y-85483570D01*
X232000000Y-85250375D01*
X232000000Y-85014270D01*
X231963065Y-84781075D01*
X231890102Y-84556520D01*
X231782914Y-84346151D01*
X231722658Y-84263217D01*
X231722658Y-84263216D01*
X230982962Y-85002913D01*
X230965925Y-84939330D01*
X230900099Y-84825316D01*
X230807007Y-84732224D01*
X230692993Y-84666398D01*
X230629409Y-84649360D01*
X231369105Y-83909663D01*
X231369104Y-83909661D01*
X231286174Y-83849410D01*
X231075802Y-83742220D01*
X230851247Y-83669257D01*
X230851248Y-83669257D01*
X230618052Y-83632323D01*
X230381948Y-83632323D01*
X230148752Y-83669257D01*
X229924197Y-83742220D01*
X229713830Y-83849407D01*
X229630894Y-83909663D01*
X230370591Y-84649360D01*
X230307007Y-84666398D01*
X230192993Y-84732224D01*
X230099901Y-84825316D01*
X230034075Y-84939330D01*
X230017037Y-85002913D01*
X229277340Y-84263217D01*
X229217084Y-84346153D01*
X229109897Y-84556520D01*
X229036934Y-84781075D01*
X229000000Y-85014270D01*
X166829196Y-85014270D01*
X166818153Y-84930390D01*
X166754012Y-84691015D01*
X166743815Y-84666398D01*
X166659180Y-84462068D01*
X166659172Y-84462051D01*
X166535270Y-84247448D01*
X166535266Y-84247441D01*
X166384403Y-84050832D01*
X166384398Y-84050826D01*
X166209173Y-83875601D01*
X166209166Y-83875595D01*
X166012567Y-83724740D01*
X166012565Y-83724738D01*
X166012559Y-83724734D01*
X166012554Y-83724731D01*
X166012551Y-83724729D01*
X165797948Y-83600827D01*
X165797931Y-83600819D01*
X165568992Y-83505990D01*
X165329606Y-83441846D01*
X165083919Y-83409501D01*
X165083916Y-83409500D01*
X165083910Y-83409500D01*
X164836090Y-83409500D01*
X164836084Y-83409500D01*
X164836080Y-83409501D01*
X164590393Y-83441846D01*
X164351007Y-83505990D01*
X164122068Y-83600819D01*
X164122051Y-83600827D01*
X163907448Y-83724729D01*
X163907432Y-83724740D01*
X163710833Y-83875595D01*
X163710826Y-83875601D01*
X163535601Y-84050826D01*
X163535595Y-84050833D01*
X163384740Y-84247432D01*
X163384729Y-84247448D01*
X163260827Y-84462051D01*
X163260819Y-84462068D01*
X163165990Y-84691007D01*
X163101846Y-84930393D01*
X163069501Y-85176080D01*
X163069500Y-85176096D01*
X156930500Y-85176096D01*
X156930500Y-85176090D01*
X156898153Y-84930390D01*
X156834012Y-84691015D01*
X156823815Y-84666398D01*
X156739180Y-84462068D01*
X156739172Y-84462051D01*
X156615270Y-84247448D01*
X156615266Y-84247441D01*
X156464403Y-84050832D01*
X156464398Y-84050826D01*
X156289173Y-83875601D01*
X156289166Y-83875595D01*
X156092567Y-83724740D01*
X156092565Y-83724738D01*
X156092559Y-83724734D01*
X156092554Y-83724731D01*
X156092551Y-83724729D01*
X155877948Y-83600827D01*
X155877931Y-83600819D01*
X155648992Y-83505990D01*
X155409606Y-83441846D01*
X155163919Y-83409501D01*
X155163916Y-83409500D01*
X155163910Y-83409500D01*
X154916090Y-83409500D01*
X154916084Y-83409500D01*
X154916080Y-83409501D01*
X154670393Y-83441846D01*
X154431007Y-83505990D01*
X154202068Y-83600819D01*
X154202051Y-83600827D01*
X153987448Y-83724729D01*
X153987432Y-83724740D01*
X153790833Y-83875595D01*
X153790826Y-83875601D01*
X153615601Y-84050826D01*
X153615595Y-84050833D01*
X153464740Y-84247432D01*
X153464729Y-84247448D01*
X153340827Y-84462051D01*
X153340819Y-84462068D01*
X153245990Y-84691007D01*
X153181846Y-84930393D01*
X153149501Y-85176080D01*
X153149500Y-85176096D01*
X141500500Y-85176096D01*
X141500500Y-75828034D01*
X144499500Y-75828034D01*
X144499500Y-76171965D01*
X144533210Y-76514249D01*
X144600308Y-76851572D01*
X144700150Y-77180706D01*
X144831770Y-77498464D01*
X144831772Y-77498469D01*
X144993893Y-77801775D01*
X144993904Y-77801793D01*
X145184975Y-78087751D01*
X145184985Y-78087765D01*
X145403176Y-78353632D01*
X145646367Y-78596823D01*
X145646372Y-78596827D01*
X145646373Y-78596828D01*
X145912240Y-78815019D01*
X146198213Y-79006100D01*
X146198222Y-79006105D01*
X146198224Y-79006106D01*
X146501530Y-79168227D01*
X146501532Y-79168227D01*
X146501538Y-79168231D01*
X146819295Y-79299850D01*
X147148422Y-79399690D01*
X147485750Y-79466789D01*
X147828031Y-79500500D01*
X147828034Y-79500500D01*
X148171966Y-79500500D01*
X148171969Y-79500500D01*
X148514250Y-79466789D01*
X148851578Y-79399690D01*
X149073712Y-79332306D01*
X228999500Y-79332306D01*
X228999500Y-80932324D01*
X228999501Y-80932341D01*
X229010000Y-81035119D01*
X229010001Y-81035122D01*
X229064638Y-81200002D01*
X229065186Y-81201657D01*
X229157288Y-81350979D01*
X229281344Y-81475035D01*
X229430666Y-81567137D01*
X229597203Y-81622322D01*
X229699991Y-81632823D01*
X231300008Y-81632822D01*
X231402797Y-81622322D01*
X231569334Y-81567137D01*
X231718656Y-81475035D01*
X231842712Y-81350979D01*
X231934814Y-81201657D01*
X231989999Y-81035120D01*
X232000500Y-80932332D01*
X232000499Y-79332315D01*
X231989999Y-79229526D01*
X231934814Y-79062989D01*
X231842712Y-78913667D01*
X231729029Y-78799984D01*
X242599500Y-78799984D01*
X242599500Y-81200015D01*
X242610000Y-81302795D01*
X242610001Y-81302796D01*
X242665186Y-81469335D01*
X242665187Y-81469337D01*
X242757286Y-81618651D01*
X242757289Y-81618655D01*
X242881344Y-81742710D01*
X242881348Y-81742713D01*
X243030662Y-81834812D01*
X243030664Y-81834813D01*
X243030666Y-81834814D01*
X243197203Y-81889999D01*
X243299992Y-81900500D01*
X243299997Y-81900500D01*
X245700003Y-81900500D01*
X245700008Y-81900500D01*
X245802797Y-81889999D01*
X245969334Y-81834814D01*
X246118655Y-81742711D01*
X246242711Y-81618655D01*
X246334814Y-81469334D01*
X246389999Y-81302797D01*
X246400500Y-81200008D01*
X246400500Y-78799992D01*
X246389999Y-78697203D01*
X246334814Y-78530666D01*
X246313165Y-78495568D01*
X246242713Y-78381348D01*
X246242710Y-78381344D01*
X246118655Y-78257289D01*
X246118651Y-78257286D01*
X245969337Y-78165187D01*
X245969335Y-78165186D01*
X245886065Y-78137593D01*
X245802797Y-78110001D01*
X245802795Y-78110000D01*
X245700015Y-78099500D01*
X245700008Y-78099500D01*
X243299992Y-78099500D01*
X243299984Y-78099500D01*
X243197204Y-78110000D01*
X243197203Y-78110001D01*
X243030664Y-78165186D01*
X243030662Y-78165187D01*
X242881348Y-78257286D01*
X242881344Y-78257289D01*
X242757289Y-78381344D01*
X242757286Y-78381348D01*
X242665187Y-78530662D01*
X242665186Y-78530664D01*
X242610001Y-78697203D01*
X242610000Y-78697204D01*
X242599500Y-78799984D01*
X231729029Y-78799984D01*
X231718656Y-78789611D01*
X231569334Y-78697509D01*
X231402797Y-78642324D01*
X231402795Y-78642323D01*
X231300010Y-78631823D01*
X229699998Y-78631823D01*
X229699981Y-78631824D01*
X229597203Y-78642323D01*
X229597200Y-78642324D01*
X229430668Y-78697508D01*
X229430663Y-78697510D01*
X229281342Y-78789612D01*
X229157289Y-78913665D01*
X229065187Y-79062986D01*
X229065185Y-79062991D01*
X229053973Y-79096828D01*
X229010001Y-79229526D01*
X229010001Y-79229527D01*
X229010000Y-79229527D01*
X228999500Y-79332306D01*
X149073712Y-79332306D01*
X149180705Y-79299850D01*
X149498462Y-79168231D01*
X149801787Y-79006100D01*
X150087760Y-78815019D01*
X150353627Y-78596828D01*
X150596828Y-78353627D01*
X150815019Y-78087760D01*
X151006100Y-77801787D01*
X151168231Y-77498462D01*
X151299850Y-77180705D01*
X151399690Y-76851578D01*
X151466789Y-76514250D01*
X151500500Y-76171969D01*
X151500500Y-75828031D01*
X151466789Y-75485750D01*
X151444852Y-75375466D01*
X158100000Y-75375466D01*
X158100000Y-75624533D01*
X158132508Y-75871463D01*
X158196973Y-76112049D01*
X158292283Y-76342148D01*
X158292288Y-76342159D01*
X158416813Y-76557841D01*
X158416819Y-76557849D01*
X158491400Y-76655045D01*
X159398958Y-75747487D01*
X159423978Y-75807890D01*
X159495112Y-75914351D01*
X159585649Y-76004888D01*
X159692110Y-76076022D01*
X159752511Y-76101041D01*
X158844953Y-77008598D01*
X158942150Y-77083180D01*
X158942158Y-77083186D01*
X159157840Y-77207711D01*
X159157851Y-77207716D01*
X159387950Y-77303026D01*
X159628536Y-77367491D01*
X159875466Y-77400000D01*
X160124534Y-77400000D01*
X160371463Y-77367491D01*
X160612049Y-77303026D01*
X160842148Y-77207716D01*
X160842159Y-77207711D01*
X161057855Y-77083178D01*
X161155045Y-77008600D01*
X161155045Y-77008597D01*
X160247488Y-76101041D01*
X160307890Y-76076022D01*
X160414351Y-76004888D01*
X160504888Y-75914351D01*
X160576022Y-75807890D01*
X160601041Y-75747489D01*
X161508597Y-76655045D01*
X161508600Y-76655045D01*
X161583178Y-76557855D01*
X161707711Y-76342159D01*
X161707716Y-76342148D01*
X161803026Y-76112049D01*
X161867491Y-75871463D01*
X161900000Y-75624533D01*
X161900000Y-75375466D01*
X161867491Y-75128536D01*
X161803026Y-74887950D01*
X161707716Y-74657851D01*
X161707711Y-74657840D01*
X161583186Y-74442158D01*
X161583174Y-74442140D01*
X161529600Y-74372322D01*
X161529599Y-74372321D01*
X161508598Y-74344953D01*
X160601041Y-75252510D01*
X160576022Y-75192110D01*
X160504888Y-75085649D01*
X160414351Y-74995112D01*
X160307890Y-74923978D01*
X160247487Y-74898957D01*
X160846461Y-74299984D01*
X163099500Y-74299984D01*
X163099500Y-76700015D01*
X163110000Y-76802795D01*
X163110001Y-76802797D01*
X163131439Y-76867491D01*
X163165186Y-76969335D01*
X163165187Y-76969337D01*
X163257286Y-77118651D01*
X163257289Y-77118655D01*
X163381344Y-77242710D01*
X163381348Y-77242713D01*
X163530662Y-77334812D01*
X163530664Y-77334813D01*
X163530666Y-77334814D01*
X163697203Y-77389999D01*
X163799992Y-77400500D01*
X163799997Y-77400500D01*
X166200003Y-77400500D01*
X166200008Y-77400500D01*
X166302797Y-77389999D01*
X166469334Y-77334814D01*
X166618655Y-77242711D01*
X166742711Y-77118655D01*
X166834814Y-76969334D01*
X166889999Y-76802797D01*
X166900500Y-76700008D01*
X166900500Y-74875466D01*
X242600000Y-74875466D01*
X242600000Y-75124533D01*
X242632508Y-75371463D01*
X242696973Y-75612049D01*
X242792283Y-75842148D01*
X242792288Y-75842159D01*
X242916813Y-76057841D01*
X242916819Y-76057849D01*
X242991400Y-76155045D01*
X243898958Y-75247487D01*
X243923978Y-75307890D01*
X243995112Y-75414351D01*
X244085649Y-75504888D01*
X244192110Y-75576022D01*
X244252511Y-75601041D01*
X243344953Y-76508598D01*
X243442150Y-76583180D01*
X243442158Y-76583186D01*
X243657840Y-76707711D01*
X243657851Y-76707716D01*
X243887950Y-76803026D01*
X244128536Y-76867491D01*
X244375466Y-76900000D01*
X244624534Y-76900000D01*
X244871463Y-76867491D01*
X245112049Y-76803026D01*
X245342148Y-76707716D01*
X245342159Y-76707711D01*
X245557855Y-76583178D01*
X245655045Y-76508600D01*
X245655045Y-76508597D01*
X245559116Y-76412668D01*
X245474479Y-76328031D01*
X255999500Y-76328031D01*
X255999500Y-76359852D01*
X255999500Y-76671969D01*
X256003020Y-76707711D01*
X256033210Y-77014249D01*
X256100308Y-77351572D01*
X256200150Y-77680706D01*
X256331770Y-77998464D01*
X256331772Y-77998469D01*
X256493893Y-78301775D01*
X256493904Y-78301793D01*
X256684975Y-78587751D01*
X256684985Y-78587765D01*
X256903176Y-78853632D01*
X257146367Y-79096823D01*
X257146372Y-79096827D01*
X257146373Y-79096828D01*
X257412240Y-79315019D01*
X257698213Y-79506100D01*
X257698222Y-79506105D01*
X257698224Y-79506106D01*
X258001530Y-79668227D01*
X258001532Y-79668227D01*
X258001538Y-79668231D01*
X258319295Y-79799850D01*
X258648422Y-79899690D01*
X258985750Y-79966789D01*
X259328031Y-80000500D01*
X259328034Y-80000500D01*
X259671966Y-80000500D01*
X259671969Y-80000500D01*
X260014250Y-79966789D01*
X260351578Y-79899690D01*
X260680705Y-79799850D01*
X260998462Y-79668231D01*
X261301787Y-79506100D01*
X261587760Y-79315019D01*
X261853627Y-79096828D01*
X262096828Y-78853627D01*
X262315019Y-78587760D01*
X262506100Y-78301787D01*
X262668231Y-77998462D01*
X262799850Y-77680705D01*
X262899690Y-77351578D01*
X262966789Y-77014250D01*
X263000500Y-76671969D01*
X263000500Y-76328031D01*
X262966789Y-75985750D01*
X262899690Y-75648422D01*
X262799850Y-75319295D01*
X262668231Y-75001538D01*
X262667409Y-75000001D01*
X262506106Y-74698224D01*
X262506105Y-74698222D01*
X262506100Y-74698213D01*
X262315019Y-74412240D01*
X262096828Y-74146373D01*
X262096827Y-74146372D01*
X262096823Y-74146367D01*
X261853632Y-73903176D01*
X261587765Y-73684985D01*
X261587764Y-73684984D01*
X261587760Y-73684981D01*
X261301787Y-73493900D01*
X261301782Y-73493897D01*
X261301775Y-73493893D01*
X260998469Y-73331772D01*
X260998464Y-73331770D01*
X260680706Y-73200150D01*
X260351572Y-73100308D01*
X260014248Y-73033210D01*
X260014249Y-73033210D01*
X259756456Y-73007821D01*
X259671969Y-72999500D01*
X259328031Y-72999500D01*
X259249966Y-73007188D01*
X258985750Y-73033210D01*
X258648427Y-73100308D01*
X258319293Y-73200150D01*
X258001535Y-73331770D01*
X258001530Y-73331772D01*
X257698224Y-73493893D01*
X257698206Y-73493904D01*
X257412248Y-73684975D01*
X257412234Y-73684985D01*
X257146367Y-73903176D01*
X256903176Y-74146367D01*
X256684985Y-74412234D01*
X256684975Y-74412248D01*
X256493904Y-74698206D01*
X256493893Y-74698224D01*
X256331772Y-75001530D01*
X256331770Y-75001535D01*
X256200150Y-75319293D01*
X256100308Y-75648427D01*
X256033210Y-75985750D01*
X256019494Y-76125021D01*
X255999500Y-76328031D01*
X245474479Y-76328031D01*
X244747488Y-75601041D01*
X244807890Y-75576022D01*
X244914351Y-75504888D01*
X245004888Y-75414351D01*
X245076022Y-75307890D01*
X245101041Y-75247489D01*
X246008597Y-76155045D01*
X246008600Y-76155045D01*
X246083178Y-76057855D01*
X246207711Y-75842159D01*
X246207716Y-75842148D01*
X246303026Y-75612049D01*
X246367491Y-75371463D01*
X246400000Y-75124533D01*
X246400000Y-74875466D01*
X246367491Y-74628536D01*
X246303026Y-74387950D01*
X246207716Y-74157851D01*
X246207711Y-74157840D01*
X246083186Y-73942158D01*
X246083180Y-73942150D01*
X246008598Y-73844953D01*
X245101041Y-74752510D01*
X245076022Y-74692110D01*
X245004888Y-74585649D01*
X244914351Y-74495112D01*
X244807890Y-74423978D01*
X244747487Y-74398957D01*
X245655045Y-73491400D01*
X245557849Y-73416819D01*
X245557841Y-73416813D01*
X245342159Y-73292288D01*
X245342148Y-73292283D01*
X245112049Y-73196973D01*
X244871463Y-73132508D01*
X244624534Y-73100000D01*
X244375466Y-73100000D01*
X244128536Y-73132508D01*
X243887950Y-73196973D01*
X243657851Y-73292283D01*
X243657847Y-73292285D01*
X243442143Y-73416823D01*
X243344953Y-73491399D01*
X243344953Y-73491400D01*
X244252511Y-74398958D01*
X244192110Y-74423978D01*
X244085649Y-74495112D01*
X243995112Y-74585649D01*
X243923978Y-74692110D01*
X243898958Y-74752511D01*
X242991400Y-73844953D01*
X242991399Y-73844953D01*
X242916823Y-73942143D01*
X242792285Y-74157847D01*
X242792283Y-74157851D01*
X242696973Y-74387950D01*
X242632508Y-74628536D01*
X242600000Y-74875466D01*
X166900500Y-74875466D01*
X166900500Y-74299992D01*
X166889999Y-74197203D01*
X166834814Y-74030666D01*
X166810594Y-73991400D01*
X166742713Y-73881348D01*
X166742710Y-73881344D01*
X166618655Y-73757289D01*
X166618651Y-73757286D01*
X166469337Y-73665187D01*
X166469335Y-73665186D01*
X166386065Y-73637593D01*
X166302797Y-73610001D01*
X166302795Y-73610000D01*
X166200015Y-73599500D01*
X166200008Y-73599500D01*
X163799992Y-73599500D01*
X163799984Y-73599500D01*
X163697204Y-73610000D01*
X163697203Y-73610001D01*
X163530664Y-73665186D01*
X163530662Y-73665187D01*
X163381348Y-73757286D01*
X163381344Y-73757289D01*
X163257289Y-73881344D01*
X163257286Y-73881348D01*
X163165187Y-74030662D01*
X163165186Y-74030664D01*
X163110001Y-74197203D01*
X163110000Y-74197204D01*
X163099500Y-74299984D01*
X160846461Y-74299984D01*
X161155045Y-73991400D01*
X161057849Y-73916819D01*
X161057841Y-73916813D01*
X160842159Y-73792288D01*
X160842148Y-73792283D01*
X160612049Y-73696973D01*
X160371463Y-73632508D01*
X160124534Y-73600000D01*
X159875466Y-73600000D01*
X159628536Y-73632508D01*
X159387950Y-73696973D01*
X159157851Y-73792283D01*
X159157847Y-73792285D01*
X158942143Y-73916823D01*
X158844953Y-73991399D01*
X158844953Y-73991400D01*
X159752511Y-74898958D01*
X159692110Y-74923978D01*
X159585649Y-74995112D01*
X159495112Y-75085649D01*
X159423978Y-75192110D01*
X159398958Y-75252511D01*
X158491400Y-74344953D01*
X158491399Y-74344953D01*
X158416823Y-74442143D01*
X158292285Y-74657847D01*
X158292283Y-74657851D01*
X158196973Y-74887950D01*
X158132508Y-75128536D01*
X158100000Y-75375466D01*
X151444852Y-75375466D01*
X151399690Y-75148422D01*
X151299850Y-74819295D01*
X151168231Y-74501538D01*
X151146833Y-74461506D01*
X151006106Y-74198224D01*
X151006105Y-74198222D01*
X151006100Y-74198213D01*
X150815019Y-73912240D01*
X150596828Y-73646373D01*
X150596827Y-73646372D01*
X150596823Y-73646367D01*
X150353632Y-73403176D01*
X150087765Y-73184985D01*
X150087764Y-73184984D01*
X150087760Y-73184981D01*
X149801787Y-72993900D01*
X149801782Y-72993897D01*
X149801775Y-72993893D01*
X149498469Y-72831772D01*
X149498464Y-72831770D01*
X149498462Y-72831769D01*
X149199219Y-72707819D01*
X149180706Y-72700150D01*
X148857595Y-72602135D01*
X179149500Y-72602135D01*
X179149500Y-74397870D01*
X179149501Y-74397876D01*
X179155908Y-74457483D01*
X179206202Y-74592328D01*
X179206206Y-74592335D01*
X179292452Y-74707544D01*
X179292455Y-74707547D01*
X179407664Y-74793793D01*
X179407671Y-74793797D01*
X179542517Y-74844091D01*
X179542516Y-74844091D01*
X179549444Y-74844835D01*
X179602127Y-74850500D01*
X181397872Y-74850499D01*
X181457483Y-74844091D01*
X181592331Y-74793796D01*
X181707546Y-74707546D01*
X181793796Y-74592331D01*
X181844091Y-74457483D01*
X181850500Y-74397873D01*
X181850499Y-72602135D01*
X218149500Y-72602135D01*
X218149500Y-74397870D01*
X218149501Y-74397876D01*
X218155908Y-74457483D01*
X218206202Y-74592328D01*
X218206206Y-74592335D01*
X218292452Y-74707544D01*
X218292455Y-74707547D01*
X218407664Y-74793793D01*
X218407671Y-74793797D01*
X218542517Y-74844091D01*
X218542516Y-74844091D01*
X218549444Y-74844835D01*
X218602127Y-74850500D01*
X220397872Y-74850499D01*
X220457483Y-74844091D01*
X220592331Y-74793796D01*
X220592545Y-74793635D01*
X220621258Y-74772142D01*
X220673554Y-74732991D01*
X220707546Y-74707546D01*
X220793796Y-74592331D01*
X220844091Y-74457483D01*
X220850500Y-74397873D01*
X220850499Y-73493904D01*
X220850499Y-72602129D01*
X220850498Y-72602123D01*
X220850497Y-72602116D01*
X220844091Y-72542517D01*
X220793796Y-72407669D01*
X220793795Y-72407668D01*
X220793793Y-72407664D01*
X220707547Y-72292455D01*
X220707544Y-72292452D01*
X220592335Y-72206206D01*
X220592328Y-72206202D01*
X220457482Y-72155908D01*
X220457483Y-72155908D01*
X220397883Y-72149501D01*
X220397881Y-72149500D01*
X220397873Y-72149500D01*
X220397864Y-72149500D01*
X218602129Y-72149500D01*
X218602123Y-72149501D01*
X218542516Y-72155908D01*
X218407671Y-72206202D01*
X218407664Y-72206206D01*
X218292455Y-72292452D01*
X218292452Y-72292455D01*
X218206206Y-72407664D01*
X218206202Y-72407671D01*
X218155908Y-72542517D01*
X218149695Y-72600310D01*
X218149501Y-72602123D01*
X218149500Y-72602135D01*
X181850499Y-72602135D01*
X181850499Y-72602128D01*
X181844091Y-72542517D01*
X181793796Y-72407669D01*
X181793795Y-72407668D01*
X181793793Y-72407664D01*
X181707547Y-72292455D01*
X181707544Y-72292452D01*
X181592335Y-72206206D01*
X181592328Y-72206202D01*
X181457482Y-72155908D01*
X181457483Y-72155908D01*
X181397883Y-72149501D01*
X181397881Y-72149500D01*
X181397873Y-72149500D01*
X181397864Y-72149500D01*
X179602129Y-72149500D01*
X179602123Y-72149501D01*
X179542516Y-72155908D01*
X179407671Y-72206202D01*
X179407664Y-72206206D01*
X179292455Y-72292452D01*
X179292452Y-72292455D01*
X179206206Y-72407664D01*
X179206202Y-72407671D01*
X179155908Y-72542517D01*
X179149695Y-72600310D01*
X179149501Y-72602123D01*
X179149500Y-72602135D01*
X148857595Y-72602135D01*
X148851572Y-72600308D01*
X148514248Y-72533210D01*
X148514249Y-72533210D01*
X148256456Y-72507821D01*
X148171969Y-72499500D01*
X147828031Y-72499500D01*
X147749966Y-72507188D01*
X147485750Y-72533210D01*
X147148427Y-72600308D01*
X146819293Y-72700150D01*
X146501535Y-72831770D01*
X146501530Y-72831772D01*
X146198224Y-72993893D01*
X146198206Y-72993904D01*
X145912248Y-73184975D01*
X145912234Y-73184985D01*
X145646367Y-73403176D01*
X145403176Y-73646367D01*
X145184985Y-73912234D01*
X145184975Y-73912248D01*
X144993904Y-74198206D01*
X144993893Y-74198224D01*
X144831772Y-74501530D01*
X144831770Y-74501535D01*
X144700150Y-74819293D01*
X144600308Y-75148427D01*
X144533210Y-75485750D01*
X144499500Y-75828034D01*
X141500500Y-75828034D01*
X141500500Y-70124500D01*
X141520185Y-70057461D01*
X141572989Y-70011706D01*
X141624500Y-70000500D01*
X265875500Y-70000500D01*
X265942539Y-70020185D01*
G37*
%TD.AperFunction*%
%TD*%
M02*
