%TF.GenerationSoftware,KiCad,Pcbnew,9.0.3*%
%TF.CreationDate,2026-03-22T16:27:51+05:30*%
%TF.ProjectId,Power PCB,506f7765-7220-4504-9342-2e6b69636164,rev?*%
%TF.SameCoordinates,Original*%
%TF.FileFunction,Copper,L1,Top*%
%TF.FilePolarity,Positive*%
%FSLAX46Y46*%
G04 Gerber Fmt 4.6, Leading zero omitted, Abs format (unit mm)*
G04 Created by KiCad (PCBNEW 9.0.3) date 2026-03-22 16:27:51*
%MOMM*%
%LPD*%
G01*
G04 APERTURE LIST*
G04 Aperture macros list*
%AMRoundRect*
0 Rectangle with rounded corners*
0 $1 Rounding radius*
0 $2 $3 $4 $5 $6 $7 $8 $9 X,Y pos of 4 corners*
0 Add a 4 corners polygon primitive as box body*
4,1,4,$2,$3,$4,$5,$6,$7,$8,$9,$2,$3,0*
0 Add four circle primitives for the rounded corners*
1,1,$1+$1,$2,$3*
1,1,$1+$1,$4,$5*
1,1,$1+$1,$6,$7*
1,1,$1+$1,$8,$9*
0 Add four rect primitives between the rounded corners*
20,1,$1+$1,$2,$3,$4,$5,0*
20,1,$1+$1,$4,$5,$6,$7,0*
20,1,$1+$1,$6,$7,$8,$9,0*
20,1,$1+$1,$8,$9,$2,$3,0*%
G04 Aperture macros list end*
%TA.AperFunction,ComponentPad*%
%ADD10R,1.700000X1.700000*%
%TD*%
%TA.AperFunction,ComponentPad*%
%ADD11RoundRect,0.250000X0.750000X0.750000X-0.750000X0.750000X-0.750000X-0.750000X0.750000X-0.750000X0*%
%TD*%
%TA.AperFunction,ComponentPad*%
%ADD12C,2.000000*%
%TD*%
%TA.AperFunction,ComponentPad*%
%ADD13C,2.780000*%
%TD*%
%TA.AperFunction,ComponentPad*%
%ADD14C,1.700000*%
%TD*%
%TA.AperFunction,ComponentPad*%
%ADD15RoundRect,0.250000X-0.750000X0.750000X-0.750000X-0.750000X0.750000X-0.750000X0.750000X0.750000X0*%
%TD*%
%TA.AperFunction,ComponentPad*%
%ADD16O,1.720000X6.620000*%
%TD*%
%TA.AperFunction,ComponentPad*%
%ADD17RoundRect,0.250001X-1.149999X-1.149999X1.149999X-1.149999X1.149999X1.149999X-1.149999X1.149999X0*%
%TD*%
%TA.AperFunction,ComponentPad*%
%ADD18C,2.800000*%
%TD*%
%TA.AperFunction,ComponentPad*%
%ADD19RoundRect,0.250001X1.149999X1.149999X-1.149999X1.149999X-1.149999X-1.149999X1.149999X-1.149999X0*%
%TD*%
%TA.AperFunction,ComponentPad*%
%ADD20RoundRect,0.250001X1.149999X-1.149999X1.149999X1.149999X-1.149999X1.149999X-1.149999X-1.149999X0*%
%TD*%
%TA.AperFunction,ComponentPad*%
%ADD21RoundRect,0.250000X0.550000X-0.550000X0.550000X0.550000X-0.550000X0.550000X-0.550000X-0.550000X0*%
%TD*%
%TA.AperFunction,ComponentPad*%
%ADD22C,1.600000*%
%TD*%
%TA.AperFunction,Conductor*%
%ADD23C,2.000000*%
%TD*%
%TA.AperFunction,Conductor*%
%ADD24C,1.000000*%
%TD*%
%TA.AperFunction,Conductor*%
%ADD25C,0.200000*%
%TD*%
%TA.AperFunction,Conductor*%
%ADD26C,5.000000*%
%TD*%
G04 APERTURE END LIST*
D10*
%TO.P,Step_Up_OUT1,1,Pin_1*%
%TO.N,Net-(24V_Out1-Pin_1)*%
X219500000Y-73500000D03*
%TD*%
D11*
%TO.P,C1,1*%
%TO.N,Net-(12_Out1-Pin_1)*%
X153000000Y-118000000D03*
D12*
%TO.P,C1,2*%
%TO.N,GND*%
X148000000Y-118000000D03*
%TD*%
D10*
%TO.P,Step_Down_OUT_3.3V1,1,Pin_1*%
%TO.N,Net-(3.3V_Out1-Pin_1)*%
X220000000Y-119500000D03*
%TD*%
%TO.P,Step_Down_OUT_5V1,1,Pin_1*%
%TO.N,Net-(5V_Out1-Pin_1)*%
X219500000Y-96000000D03*
%TD*%
D13*
%TO.P,F1,1*%
%TO.N,Net-(F1-Pad1)*%
X155040000Y-85300000D03*
X155040000Y-88700000D03*
%TO.P,F1,2*%
%TO.N,Net-(12_IN1-Pin_1)*%
X164960000Y-85300000D03*
X164960000Y-88700000D03*
%TD*%
D10*
%TO.P,Battery_Capacity,1,Pin_1*%
%TO.N,GND*%
X163500000Y-118275000D03*
D14*
%TO.P,Battery_Capacity,2,Pin_2*%
%TO.N,Net-(12_Out1-Pin_1)*%
X163500000Y-115735000D03*
%TD*%
D10*
%TO.P,3.3V_Out1,1,Pin_1*%
%TO.N,Net-(3.3V_Out1-Pin_1)*%
X244000000Y-119500000D03*
D14*
%TO.P,3.3V_Out1,2,Pin_2*%
%TO.N,GND*%
X244000000Y-122040000D03*
%TD*%
D10*
%TO.P,3.3V_Out2,1,Pin_1*%
%TO.N,Net-(3.3V_Out1-Pin_1)*%
X253000000Y-119500000D03*
D14*
%TO.P,3.3V_Out2,2,Pin_2*%
%TO.N,GND*%
X253000000Y-122040000D03*
%TD*%
D10*
%TO.P,5V_Out2,1,Pin_1*%
%TO.N,Net-(5V_Out1-Pin_1)*%
X253500000Y-110725000D03*
D14*
%TO.P,5V_Out2,2,Pin_2*%
%TO.N,GND*%
X253500000Y-113265000D03*
%TD*%
D10*
%TO.P,Step_Down_IN_3.3V_GND1,1,Pin_1*%
%TO.N,GND*%
X181000000Y-135500000D03*
%TD*%
%TO.P,3.3V_Out3,1,Pin_1*%
%TO.N,Net-(3.3V_Out1-Pin_1)*%
X263500000Y-119500000D03*
D14*
%TO.P,3.3V_Out3,2,Pin_2*%
%TO.N,GND*%
X263500000Y-122040000D03*
%TD*%
D10*
%TO.P,Step_Down_OUT_3.3V_GND1,1,Pin_1*%
%TO.N,GND*%
X220000000Y-135500000D03*
%TD*%
D15*
%TO.P,C4,1*%
%TO.N,Net-(5V_Out1-Pin_1)*%
X231500000Y-95999999D03*
D12*
%TO.P,C4,2*%
%TO.N,GND*%
X231500000Y-100999999D03*
%TD*%
D10*
%TO.P,Step_Up_IN_GND1,1,Pin_1*%
%TO.N,GND*%
X180500000Y-89500000D03*
%TD*%
%TO.P,5V_Out4,1,Pin_1*%
%TO.N,Net-(5V_Out1-Pin_1)*%
X249000000Y-96225000D03*
D14*
%TO.P,5V_Out4,2,Pin_2*%
%TO.N,GND*%
X249000000Y-98765000D03*
%TD*%
D10*
%TO.P,Step_Up_IN1,1,Pin_1*%
%TO.N,Net-(12_Out1-Pin_1)*%
X180500000Y-73500000D03*
%TD*%
D16*
%TO.P,SW1,1*%
%TO.N,Net-(F1-Pad1)*%
X145900000Y-103000000D03*
%TO.P,SW1,2*%
%TO.N,Net-(12_Out1-Pin_1)*%
X153000000Y-103000000D03*
%TD*%
D17*
%TO.P,12_Out1,1,Pin_1*%
%TO.N,Net-(12_Out1-Pin_1)*%
X155750000Y-133467500D03*
D18*
%TO.P,12_Out1,2,Pin_2*%
%TO.N,GND*%
X160750000Y-133467500D03*
%TD*%
D10*
%TO.P,Step_Down_IN_5V_GND1,1,Pin_1*%
%TO.N,GND*%
X180500000Y-112000000D03*
%TD*%
%TO.P,Step_Down_IN_3.3V1,1,Pin_1*%
%TO.N,Net-(12_Out1-Pin_1)*%
X181000000Y-119500000D03*
%TD*%
%TO.P,5V_Out3,1,Pin_1*%
%TO.N,Net-(5V_Out1-Pin_1)*%
X263500000Y-110725000D03*
D14*
%TO.P,5V_Out3,2,Pin_2*%
%TO.N,GND*%
X263500000Y-113265000D03*
%TD*%
D19*
%TO.P,12_IN1,1,Pin_1*%
%TO.N,Net-(12_IN1-Pin_1)*%
X165000000Y-75500000D03*
D18*
%TO.P,12_IN1,2,Pin_2*%
%TO.N,GND*%
X160000000Y-75500000D03*
%TD*%
D10*
%TO.P,5V_Out1,1,Pin_1*%
%TO.N,Net-(5V_Out1-Pin_1)*%
X244500000Y-110725000D03*
D14*
%TO.P,5V_Out1,2,Pin_2*%
%TO.N,GND*%
X244500000Y-113265000D03*
%TD*%
D10*
%TO.P,Step_Up_OUT_GND1,1,Pin_1*%
%TO.N,GND*%
X219500000Y-89500000D03*
%TD*%
D20*
%TO.P,24V_Out1,1,Pin_1*%
%TO.N,Net-(24V_Out1-Pin_1)*%
X244500000Y-80000000D03*
D18*
%TO.P,24V_Out1,2,Pin_2*%
%TO.N,GND*%
X244500000Y-75000000D03*
%TD*%
D17*
%TO.P,12_Out4,1,Pin_1*%
%TO.N,Net-(12_Out1-Pin_1)*%
X246000000Y-133000000D03*
D18*
%TO.P,12_Out4,2,Pin_2*%
%TO.N,GND*%
X251000000Y-133000000D03*
%TD*%
D15*
%TO.P,C2,1*%
%TO.N,Net-(24V_Out1-Pin_1)*%
X230500000Y-80132323D03*
D12*
%TO.P,C2,2*%
%TO.N,GND*%
X230500000Y-85132323D03*
%TD*%
D17*
%TO.P,12_Out3,1,Pin_1*%
%TO.N,Net-(12_Out1-Pin_1)*%
X230000000Y-133000000D03*
D18*
%TO.P,12_Out3,2,Pin_2*%
%TO.N,GND*%
X235000000Y-133000000D03*
%TD*%
D10*
%TO.P,Step_Down_IN_5V1,1,Pin_1*%
%TO.N,Net-(12_Out1-Pin_1)*%
X180500000Y-96000000D03*
%TD*%
%TO.P,5V_Out5,1,Pin_1*%
%TO.N,Net-(5V_Out1-Pin_1)*%
X258500000Y-96225000D03*
D14*
%TO.P,5V_Out5,2,Pin_2*%
%TO.N,GND*%
X258500000Y-98765000D03*
%TD*%
D10*
%TO.P,Step_Down_OUT_5V_GND1,1,Pin_1*%
%TO.N,GND*%
X219500000Y-112000000D03*
%TD*%
D21*
%TO.P,C3,1*%
%TO.N,Net-(3.3V_Out1-Pin_1)*%
X232000000Y-119499999D03*
D22*
%TO.P,C3,2*%
%TO.N,GND*%
X232000000Y-114499999D03*
%TD*%
D17*
%TO.P,12_Out2,1,Pin_1*%
%TO.N,Net-(12_Out1-Pin_1)*%
X169500000Y-133467500D03*
D18*
%TO.P,12_Out2,2,Pin_2*%
%TO.N,GND*%
X174500000Y-133467500D03*
%TD*%
D23*
%TO.N,Net-(5V_Out1-Pin_1)*%
X244775000Y-92000000D02*
X249000000Y-96225000D01*
X244000000Y-92000000D02*
X244775000Y-92000000D01*
X244000000Y-92000000D02*
X254275000Y-92000000D01*
X254275000Y-92000000D02*
X258500000Y-96225000D01*
X236500001Y-95999999D02*
X240500000Y-92000000D01*
X240500000Y-92000000D02*
X244000000Y-92000000D01*
X230000000Y-95999999D02*
X236500001Y-95999999D01*
X231500000Y-95999999D02*
X237500000Y-102000000D01*
X230000000Y-95999999D02*
X219500000Y-96000000D01*
X240225000Y-110725000D02*
X237500000Y-108000000D01*
X244500000Y-110725000D02*
X240225000Y-110725000D01*
X237500000Y-102000000D02*
X237500000Y-108000000D01*
X237500000Y-102000000D02*
X240500000Y-105000000D01*
X240500000Y-105000000D02*
X244500000Y-105000000D01*
X259725000Y-110725000D02*
X263500000Y-110725000D01*
X254000000Y-105000000D02*
X259725000Y-110725000D01*
X244500000Y-105000000D02*
X254000000Y-105000000D01*
X250225000Y-110725000D02*
X244500000Y-105000000D01*
X253500000Y-110725000D02*
X250225000Y-110725000D01*
D24*
%TO.N,Net-(3.3V_Out1-Pin_1)*%
X237000001Y-119499999D02*
X244000000Y-119500000D01*
X256000000Y-116000000D02*
X259500000Y-119500000D01*
X259500000Y-119500000D02*
X263500000Y-119500000D01*
X250500000Y-119500000D02*
X253000000Y-119500000D01*
X247000000Y-116000000D02*
X250500000Y-119500000D01*
X247000000Y-116000000D02*
X256000000Y-116000000D01*
X240500000Y-116000000D02*
X247000000Y-116000000D01*
X237000001Y-119499999D02*
X240500000Y-116000000D01*
X232000000Y-119499999D02*
X237000001Y-119499999D01*
X232000000Y-119499999D02*
X220000000Y-119500000D01*
%TO.N,Net-(5V_Out1-Pin_1)*%
X231500000Y-95999999D02*
X231500001Y-95999999D01*
D23*
X231725001Y-96225000D02*
X231500000Y-95999999D01*
X231500000Y-95999999D02*
X230000000Y-95999999D01*
D25*
%TO.N,Net-(24V_Out1-Pin_1)*%
X230500000Y-80000000D02*
X230500000Y-80132323D01*
D26*
X219500000Y-73500000D02*
X224000000Y-73500000D01*
X230500000Y-80000000D02*
X244500000Y-80000000D01*
X224000000Y-73500000D02*
X230500000Y-80000000D01*
%TO.N,Net-(F1-Pad1)*%
X145900000Y-97840000D02*
X145900000Y-103000000D01*
X145900000Y-97840000D02*
X145900000Y-106900000D01*
X155040000Y-88700000D02*
X145900000Y-97840000D01*
X155040000Y-85300000D02*
X155040000Y-88700000D01*
%TO.N,Net-(12_Out1-Pin_1)*%
X155750000Y-132250000D02*
X155750000Y-133467500D01*
X172750000Y-81250000D02*
X180500000Y-73500000D01*
X153000000Y-118000000D02*
X153000000Y-106500000D01*
X225000000Y-128000000D02*
X241000000Y-128000000D01*
X164032500Y-128000000D02*
X169500000Y-133467500D01*
X153000000Y-118000000D02*
X153000000Y-121000000D01*
D23*
X169467500Y-133467500D02*
X169500000Y-133467500D01*
D26*
X181000000Y-119500000D02*
X172750000Y-111250000D01*
X153000000Y-106500000D02*
X153000000Y-103000000D01*
X157500000Y-98500000D02*
X171250000Y-98500000D01*
X153000000Y-103000000D02*
X157500000Y-98500000D01*
X172750000Y-111250000D02*
X172750000Y-108000000D01*
X225000000Y-128000000D02*
X230000000Y-133000000D01*
X164032500Y-128000000D02*
X225000000Y-128000000D01*
D23*
X163500000Y-115735000D02*
X171235000Y-108000000D01*
D26*
X171250000Y-98500000D02*
X172750000Y-97000000D01*
X160000000Y-128000000D02*
X155750000Y-132250000D01*
D23*
X172750000Y-105000000D02*
X172750000Y-103750000D01*
D26*
X160000000Y-128000000D02*
X164032500Y-128000000D01*
D23*
X172750000Y-103000000D02*
X172750000Y-105000000D01*
D26*
X155750000Y-123750000D02*
X160000000Y-128000000D01*
D23*
X171235000Y-108000000D02*
X172750000Y-108000000D01*
D26*
X153000000Y-121000000D02*
X155750000Y-123750000D01*
X172750000Y-108000000D02*
X172750000Y-105000000D01*
X172750000Y-103750000D02*
X180500000Y-96000000D01*
X172750000Y-103000000D02*
X172750000Y-97000000D01*
X172750000Y-97000000D02*
X172750000Y-84000000D01*
X172750000Y-84000000D02*
X172750000Y-81250000D01*
X241000000Y-128000000D02*
X246000000Y-133000000D01*
%TO.N,Net-(12_IN1-Pin_1)*%
X165000000Y-75500000D02*
X165000000Y-85260000D01*
X164960000Y-85300000D02*
X164960000Y-88700000D01*
D23*
X164960000Y-75540000D02*
X165000000Y-75500000D01*
X165000000Y-85260000D02*
X164960000Y-85300000D01*
%TD*%
%TA.AperFunction,Conductor*%
%TO.N,GND*%
G36*
X234305928Y-131020185D02*
G01*
X234351683Y-131072989D01*
X234361627Y-131142147D01*
X234332602Y-131205703D01*
X234286342Y-131239061D01*
X234157851Y-131292283D01*
X234157847Y-131292285D01*
X233942143Y-131416823D01*
X233844953Y-131491399D01*
X233844953Y-131491400D01*
X234752511Y-132398958D01*
X234692110Y-132423978D01*
X234585649Y-132495112D01*
X234495112Y-132585649D01*
X234423978Y-132692110D01*
X234398958Y-132752511D01*
X233491400Y-131844953D01*
X233491399Y-131844953D01*
X233416823Y-131942143D01*
X233292285Y-132157847D01*
X233292283Y-132157851D01*
X233196972Y-132387954D01*
X233186513Y-132426985D01*
X233150147Y-132486645D01*
X233087300Y-132517173D01*
X233017924Y-132508876D01*
X232964047Y-132464390D01*
X232945849Y-132422483D01*
X232887776Y-132168047D01*
X232884204Y-132157840D01*
X232808729Y-131942143D01*
X232776469Y-131849949D01*
X232630246Y-131546314D01*
X232450946Y-131260961D01*
X232403777Y-131201813D01*
X232377368Y-131137126D01*
X232390125Y-131068431D01*
X232437995Y-131017537D01*
X232500724Y-131000500D01*
X234238889Y-131000500D01*
X234305928Y-131020185D01*
G37*
%TD.AperFunction*%
%TA.AperFunction,Conductor*%
G36*
X265942539Y-70020185D02*
G01*
X265988294Y-70072989D01*
X265999500Y-70124500D01*
X265999500Y-138875500D01*
X265979815Y-138942539D01*
X265927011Y-138988294D01*
X265875500Y-138999500D01*
X141624500Y-138999500D01*
X141557461Y-138979815D01*
X141511706Y-138927011D01*
X141500500Y-138875500D01*
X141500500Y-132828031D01*
X144499500Y-132828031D01*
X144499500Y-132859852D01*
X144499500Y-133171969D01*
X144509751Y-133276054D01*
X144533210Y-133514249D01*
X144600308Y-133851572D01*
X144700150Y-134180706D01*
X144831770Y-134498464D01*
X144831772Y-134498469D01*
X144993893Y-134801775D01*
X144993904Y-134801793D01*
X145184975Y-135087751D01*
X145184985Y-135087765D01*
X145403176Y-135353632D01*
X145646367Y-135596823D01*
X145646372Y-135596827D01*
X145646373Y-135596828D01*
X145912240Y-135815019D01*
X146198213Y-136006100D01*
X146198222Y-136006105D01*
X146198224Y-136006106D01*
X146501530Y-136168227D01*
X146501532Y-136168227D01*
X146501538Y-136168231D01*
X146819295Y-136299850D01*
X147148422Y-136399690D01*
X147485750Y-136466789D01*
X147828031Y-136500500D01*
X147828034Y-136500500D01*
X148171966Y-136500500D01*
X148171969Y-136500500D01*
X148514250Y-136466789D01*
X148851578Y-136399690D01*
X149180705Y-136299850D01*
X149498462Y-136168231D01*
X149801787Y-136006100D01*
X150087760Y-135815019D01*
X150353627Y-135596828D01*
X150596828Y-135353627D01*
X150815019Y-135087760D01*
X151006100Y-134801787D01*
X151168231Y-134498462D01*
X151299850Y-134180705D01*
X151399690Y-133851578D01*
X151466789Y-133514250D01*
X151500500Y-133171969D01*
X151500500Y-132828031D01*
X151466789Y-132485750D01*
X151399690Y-132148422D01*
X151299850Y-131819295D01*
X151168231Y-131501538D01*
X151125048Y-131420749D01*
X151006106Y-131198224D01*
X151006105Y-131198222D01*
X151006100Y-131198213D01*
X150815019Y-130912240D01*
X150596828Y-130646373D01*
X150596827Y-130646372D01*
X150596823Y-130646367D01*
X150353632Y-130403176D01*
X150087765Y-130184985D01*
X150087764Y-130184984D01*
X150087760Y-130184981D01*
X149801787Y-129993900D01*
X149801782Y-129993897D01*
X149801775Y-129993893D01*
X149498469Y-129831772D01*
X149498464Y-129831770D01*
X149180706Y-129700150D01*
X148851572Y-129600308D01*
X148514248Y-129533210D01*
X148514249Y-129533210D01*
X148256456Y-129507821D01*
X148171969Y-129499500D01*
X147828031Y-129499500D01*
X147749966Y-129507188D01*
X147485750Y-129533210D01*
X147148427Y-129600308D01*
X146819293Y-129700150D01*
X146501535Y-129831770D01*
X146501530Y-129831772D01*
X146198224Y-129993893D01*
X146198206Y-129993904D01*
X145912248Y-130184975D01*
X145912234Y-130184985D01*
X145646367Y-130403176D01*
X145403176Y-130646367D01*
X145184985Y-130912234D01*
X145184975Y-130912248D01*
X144993904Y-131198206D01*
X144993893Y-131198224D01*
X144831772Y-131501530D01*
X144831770Y-131501535D01*
X144700150Y-131819293D01*
X144600308Y-132148427D01*
X144533210Y-132485750D01*
X144517384Y-132646446D01*
X144499500Y-132828031D01*
X141500500Y-132828031D01*
X141500500Y-117881947D01*
X146500000Y-117881947D01*
X146500000Y-118118052D01*
X146536934Y-118351247D01*
X146609897Y-118575802D01*
X146717087Y-118786174D01*
X146777338Y-118869104D01*
X146777340Y-118869105D01*
X147517037Y-118129408D01*
X147534075Y-118192993D01*
X147599901Y-118307007D01*
X147692993Y-118400099D01*
X147807007Y-118465925D01*
X147870590Y-118482962D01*
X147130893Y-119222658D01*
X147213828Y-119282914D01*
X147424197Y-119390102D01*
X147648752Y-119463065D01*
X147648751Y-119463065D01*
X147881948Y-119500000D01*
X148118052Y-119500000D01*
X148351247Y-119463065D01*
X148575802Y-119390102D01*
X148786163Y-119282918D01*
X148786169Y-119282914D01*
X148869104Y-119222658D01*
X148869105Y-119222658D01*
X148129408Y-118482962D01*
X148192993Y-118465925D01*
X148307007Y-118400099D01*
X148400099Y-118307007D01*
X148465925Y-118192993D01*
X148482962Y-118129409D01*
X149222658Y-118869105D01*
X149222658Y-118869104D01*
X149282914Y-118786169D01*
X149282918Y-118786163D01*
X149390102Y-118575802D01*
X149463065Y-118351247D01*
X149500000Y-118118052D01*
X149500000Y-117881947D01*
X149463065Y-117648752D01*
X149390102Y-117424197D01*
X149282914Y-117213828D01*
X149222658Y-117130894D01*
X149222658Y-117130893D01*
X148482962Y-117870590D01*
X148465925Y-117807007D01*
X148400099Y-117692993D01*
X148307007Y-117599901D01*
X148192993Y-117534075D01*
X148129409Y-117517037D01*
X148869105Y-116777340D01*
X148869104Y-116777338D01*
X148786174Y-116717087D01*
X148575802Y-116609897D01*
X148351247Y-116536934D01*
X148351248Y-116536934D01*
X148118052Y-116500000D01*
X147881948Y-116500000D01*
X147648752Y-116536934D01*
X147424197Y-116609897D01*
X147213830Y-116717084D01*
X147130894Y-116777340D01*
X147870591Y-117517037D01*
X147807007Y-117534075D01*
X147692993Y-117599901D01*
X147599901Y-117692993D01*
X147534075Y-117807007D01*
X147517037Y-117870591D01*
X146777340Y-117130894D01*
X146717084Y-117213830D01*
X146609897Y-117424197D01*
X146536934Y-117648752D01*
X146500000Y-117881947D01*
X141500500Y-117881947D01*
X141500500Y-97671496D01*
X142899500Y-97671496D01*
X142899500Y-97674615D01*
X142899500Y-107068508D01*
X142937231Y-107403381D01*
X142937233Y-107403397D01*
X143012223Y-107731953D01*
X143012227Y-107731965D01*
X143123532Y-108050054D01*
X143269752Y-108353683D01*
X143269754Y-108353686D01*
X143449054Y-108639039D01*
X143659175Y-108902523D01*
X143897477Y-109140825D01*
X144160961Y-109350946D01*
X144446314Y-109530246D01*
X144749949Y-109676469D01*
X144988848Y-109760063D01*
X145068034Y-109787772D01*
X145068046Y-109787776D01*
X145396606Y-109862767D01*
X145731492Y-109900499D01*
X145731493Y-109900500D01*
X145731496Y-109900500D01*
X146068507Y-109900500D01*
X146068507Y-109900499D01*
X146403394Y-109862767D01*
X146731954Y-109787776D01*
X147050051Y-109676469D01*
X147353686Y-109530246D01*
X147639039Y-109350946D01*
X147902523Y-109140825D01*
X148140825Y-108902523D01*
X148350946Y-108639039D01*
X148530246Y-108353686D01*
X148676469Y-108050051D01*
X148787776Y-107731954D01*
X148862767Y-107403394D01*
X148900500Y-107068504D01*
X148900500Y-102831496D01*
X149999500Y-102831496D01*
X149999500Y-102834880D01*
X149999500Y-121168509D01*
X150037231Y-121503381D01*
X150037233Y-121503397D01*
X150112223Y-121831953D01*
X150112227Y-121831965D01*
X150223532Y-122150054D01*
X150369752Y-122453683D01*
X150369754Y-122453686D01*
X150549054Y-122739039D01*
X150599038Y-122801717D01*
X150759175Y-123002523D01*
X155668970Y-127912318D01*
X155702455Y-127973641D01*
X155697471Y-128043333D01*
X155668970Y-128087680D01*
X153730036Y-130026615D01*
X153509174Y-130247477D01*
X153299053Y-130510962D01*
X153119752Y-130796316D01*
X152973532Y-131099945D01*
X152862227Y-131418034D01*
X152862223Y-131418046D01*
X152787233Y-131746602D01*
X152787231Y-131746618D01*
X152749500Y-132081491D01*
X152749500Y-133636008D01*
X152787231Y-133970881D01*
X152787233Y-133970897D01*
X152862223Y-134299453D01*
X152862227Y-134299465D01*
X152973532Y-134617554D01*
X153119752Y-134921183D01*
X153119754Y-134921186D01*
X153299054Y-135206539D01*
X153427416Y-135367500D01*
X153493961Y-135450946D01*
X153509175Y-135470023D01*
X153747477Y-135708325D01*
X154010961Y-135918446D01*
X154296314Y-136097746D01*
X154599949Y-136243969D01*
X154759645Y-136299849D01*
X154918034Y-136355272D01*
X154918046Y-136355276D01*
X155246606Y-136430267D01*
X155581492Y-136467999D01*
X155581493Y-136468000D01*
X155581496Y-136468000D01*
X155918507Y-136468000D01*
X155918507Y-136467999D01*
X156253394Y-136430267D01*
X156581954Y-136355276D01*
X156900051Y-136243969D01*
X157203686Y-136097746D01*
X157489039Y-135918446D01*
X157752523Y-135708325D01*
X157990825Y-135470023D01*
X158200946Y-135206539D01*
X158380246Y-134921186D01*
X158390449Y-134900000D01*
X158402804Y-134874345D01*
X158402804Y-134874344D01*
X158437743Y-134801793D01*
X158526469Y-134617551D01*
X158637776Y-134299454D01*
X158695849Y-134045015D01*
X158729956Y-133984039D01*
X158791617Y-133951181D01*
X158861255Y-133956876D01*
X158916758Y-133999315D01*
X158936513Y-134040515D01*
X158946971Y-134079544D01*
X159042283Y-134309648D01*
X159042288Y-134309659D01*
X159166813Y-134525341D01*
X159166819Y-134525349D01*
X159241400Y-134622545D01*
X160148958Y-133714987D01*
X160173978Y-133775390D01*
X160245112Y-133881851D01*
X160335649Y-133972388D01*
X160442110Y-134043522D01*
X160502511Y-134068541D01*
X159594953Y-134976098D01*
X159692150Y-135050680D01*
X159692158Y-135050686D01*
X159907840Y-135175211D01*
X159907851Y-135175216D01*
X160137950Y-135270526D01*
X160378536Y-135334991D01*
X160625466Y-135367500D01*
X160874534Y-135367500D01*
X161121463Y-135334991D01*
X161362049Y-135270526D01*
X161592148Y-135175216D01*
X161592159Y-135175211D01*
X161807855Y-135050678D01*
X161905045Y-134976100D01*
X161905045Y-134976097D01*
X160997488Y-134068541D01*
X161057890Y-134043522D01*
X161164351Y-133972388D01*
X161254888Y-133881851D01*
X161326022Y-133775390D01*
X161351041Y-133714989D01*
X162258597Y-134622545D01*
X162258600Y-134622545D01*
X162333178Y-134525355D01*
X162457711Y-134309659D01*
X162457716Y-134309648D01*
X162553026Y-134079549D01*
X162617491Y-133838963D01*
X162650000Y-133592033D01*
X162650000Y-133342966D01*
X162617491Y-133096036D01*
X162553026Y-132855450D01*
X162457716Y-132625351D01*
X162457711Y-132625340D01*
X162333186Y-132409658D01*
X162333180Y-132409650D01*
X162258598Y-132312453D01*
X161351041Y-133220010D01*
X161326022Y-133159610D01*
X161254888Y-133053149D01*
X161164351Y-132962612D01*
X161057890Y-132891478D01*
X160997487Y-132866458D01*
X161905045Y-131958900D01*
X161807849Y-131884319D01*
X161807841Y-131884313D01*
X161592159Y-131759788D01*
X161592148Y-131759783D01*
X161362049Y-131664473D01*
X161121463Y-131600008D01*
X160948256Y-131577205D01*
X160884360Y-131548938D01*
X160845889Y-131490614D01*
X160845058Y-131420749D01*
X160876759Y-131366587D01*
X161206528Y-131036819D01*
X161267851Y-131003334D01*
X161294209Y-131000500D01*
X162738290Y-131000500D01*
X162805329Y-131020185D01*
X162825971Y-131036819D01*
X165192634Y-133403481D01*
X167497477Y-135708324D01*
X167760961Y-135918446D01*
X168046315Y-136097747D01*
X168046320Y-136097750D01*
X168349937Y-136243964D01*
X168349944Y-136243966D01*
X168349949Y-136243969D01*
X168588854Y-136327565D01*
X168668035Y-136355272D01*
X168668047Y-136355276D01*
X168996606Y-136430267D01*
X169331491Y-136467999D01*
X169331492Y-136468000D01*
X169331495Y-136468000D01*
X169668508Y-136468000D01*
X169668508Y-136467999D01*
X170003395Y-136430267D01*
X170331954Y-136355276D01*
X170650051Y-136243969D01*
X170650059Y-136243965D01*
X170650062Y-136243964D01*
X170953680Y-136097750D01*
X170953680Y-136097749D01*
X170953686Y-136097747D01*
X171239040Y-135918446D01*
X171502524Y-135708324D01*
X171740824Y-135470024D01*
X171950946Y-135206540D01*
X172130247Y-134921186D01*
X172140450Y-134900000D01*
X172152805Y-134874345D01*
X172276464Y-134617562D01*
X172276465Y-134617559D01*
X172276469Y-134617551D01*
X172387776Y-134299454D01*
X172445849Y-134045016D01*
X172479956Y-133984040D01*
X172541618Y-133951182D01*
X172611255Y-133956877D01*
X172666759Y-133999316D01*
X172686513Y-134040515D01*
X172696972Y-134079545D01*
X172792283Y-134309648D01*
X172792288Y-134309659D01*
X172916813Y-134525341D01*
X172916819Y-134525349D01*
X172991400Y-134622545D01*
X173898958Y-133714987D01*
X173923978Y-133775390D01*
X173995112Y-133881851D01*
X174085649Y-133972388D01*
X174192110Y-134043522D01*
X174252511Y-134068541D01*
X173344953Y-134976098D01*
X173442150Y-135050680D01*
X173442158Y-135050686D01*
X173657840Y-135175211D01*
X173657851Y-135175216D01*
X173887950Y-135270526D01*
X174128536Y-135334991D01*
X174375466Y-135367500D01*
X174624534Y-135367500D01*
X174871463Y-135334991D01*
X175112049Y-135270526D01*
X175342148Y-135175216D01*
X175342159Y-135175211D01*
X175557855Y-135050678D01*
X175655045Y-134976100D01*
X175655045Y-134976097D01*
X174747488Y-134068541D01*
X174807890Y-134043522D01*
X174914351Y-133972388D01*
X175004888Y-133881851D01*
X175076022Y-133775390D01*
X175101041Y-133714989D01*
X176008597Y-134622545D01*
X176008600Y-134622545D01*
X176024246Y-134602155D01*
X179650000Y-134602155D01*
X179650000Y-135250000D01*
X180566988Y-135250000D01*
X180534075Y-135307007D01*
X180500000Y-135434174D01*
X180500000Y-135565826D01*
X180534075Y-135692993D01*
X180566988Y-135750000D01*
X179650000Y-135750000D01*
X179650000Y-136397844D01*
X179656401Y-136457372D01*
X179656403Y-136457379D01*
X179706645Y-136592086D01*
X179706649Y-136592093D01*
X179792809Y-136707187D01*
X179792812Y-136707190D01*
X179907906Y-136793350D01*
X179907913Y-136793354D01*
X180042620Y-136843596D01*
X180042627Y-136843598D01*
X180102155Y-136849999D01*
X180102172Y-136850000D01*
X180750000Y-136850000D01*
X180750000Y-135933012D01*
X180807007Y-135965925D01*
X180934174Y-136000000D01*
X181065826Y-136000000D01*
X181192993Y-135965925D01*
X181250000Y-135933012D01*
X181250000Y-136850000D01*
X181897828Y-136850000D01*
X181897844Y-136849999D01*
X181957372Y-136843598D01*
X181957379Y-136843596D01*
X182092086Y-136793354D01*
X182092093Y-136793350D01*
X182207187Y-136707190D01*
X182207190Y-136707187D01*
X182293350Y-136592093D01*
X182293354Y-136592086D01*
X182343596Y-136457379D01*
X182343598Y-136457372D01*
X182349999Y-136397844D01*
X182350000Y-136397827D01*
X182350000Y-135750000D01*
X181433012Y-135750000D01*
X181465925Y-135692993D01*
X181500000Y-135565826D01*
X181500000Y-135434174D01*
X181465925Y-135307007D01*
X181433012Y-135250000D01*
X182350000Y-135250000D01*
X182350000Y-134602172D01*
X182349999Y-134602155D01*
X218650000Y-134602155D01*
X218650000Y-135250000D01*
X219566988Y-135250000D01*
X219534075Y-135307007D01*
X219500000Y-135434174D01*
X219500000Y-135565826D01*
X219534075Y-135692993D01*
X219566988Y-135750000D01*
X218650000Y-135750000D01*
X218650000Y-136397844D01*
X218656401Y-136457372D01*
X218656403Y-136457379D01*
X218706645Y-136592086D01*
X218706649Y-136592093D01*
X218792809Y-136707187D01*
X218792812Y-136707190D01*
X218907906Y-136793350D01*
X218907913Y-136793354D01*
X219042620Y-136843596D01*
X219042627Y-136843598D01*
X219102155Y-136849999D01*
X219102172Y-136850000D01*
X219750000Y-136850000D01*
X219750000Y-135933012D01*
X219807007Y-135965925D01*
X219934174Y-136000000D01*
X220065826Y-136000000D01*
X220192993Y-135965925D01*
X220250000Y-135933012D01*
X220250000Y-136850000D01*
X220897828Y-136850000D01*
X220897844Y-136849999D01*
X220957372Y-136843598D01*
X220957379Y-136843596D01*
X221092086Y-136793354D01*
X221092093Y-136793350D01*
X221207187Y-136707190D01*
X221207190Y-136707187D01*
X221293350Y-136592093D01*
X221293354Y-136592086D01*
X221343596Y-136457379D01*
X221343598Y-136457372D01*
X221349999Y-136397844D01*
X221350000Y-136397827D01*
X221350000Y-135750000D01*
X220433012Y-135750000D01*
X220465925Y-135692993D01*
X220500000Y-135565826D01*
X220500000Y-135434174D01*
X220465925Y-135307007D01*
X220433012Y-135250000D01*
X221350000Y-135250000D01*
X221350000Y-134602172D01*
X221349999Y-134602155D01*
X221343598Y-134542627D01*
X221343596Y-134542620D01*
X221293354Y-134407913D01*
X221293350Y-134407906D01*
X221207190Y-134292812D01*
X221207187Y-134292809D01*
X221092093Y-134206649D01*
X221092086Y-134206645D01*
X220957379Y-134156403D01*
X220957372Y-134156401D01*
X220897844Y-134150000D01*
X220250000Y-134150000D01*
X220250000Y-135066988D01*
X220192993Y-135034075D01*
X220065826Y-135000000D01*
X219934174Y-135000000D01*
X219807007Y-135034075D01*
X219750000Y-135066988D01*
X219750000Y-134150000D01*
X219102155Y-134150000D01*
X219042627Y-134156401D01*
X219042620Y-134156403D01*
X218907913Y-134206645D01*
X218907906Y-134206649D01*
X218792812Y-134292809D01*
X218792809Y-134292812D01*
X218706649Y-134407906D01*
X218706645Y-134407913D01*
X218656403Y-134542620D01*
X218656401Y-134542627D01*
X218650000Y-134602155D01*
X182349999Y-134602155D01*
X182343598Y-134542627D01*
X182343596Y-134542620D01*
X182293354Y-134407913D01*
X182293350Y-134407906D01*
X182207190Y-134292812D01*
X182207187Y-134292809D01*
X182092093Y-134206649D01*
X182092086Y-134206645D01*
X181957379Y-134156403D01*
X181957372Y-134156401D01*
X181897844Y-134150000D01*
X181250000Y-134150000D01*
X181250000Y-135066988D01*
X181192993Y-135034075D01*
X181065826Y-135000000D01*
X180934174Y-135000000D01*
X180807007Y-135034075D01*
X180750000Y-135066988D01*
X180750000Y-134150000D01*
X180102155Y-134150000D01*
X180042627Y-134156401D01*
X180042620Y-134156403D01*
X179907913Y-134206645D01*
X179907906Y-134206649D01*
X179792812Y-134292809D01*
X179792809Y-134292812D01*
X179706649Y-134407906D01*
X179706645Y-134407913D01*
X179656403Y-134542620D01*
X179656401Y-134542627D01*
X179650000Y-134602155D01*
X176024246Y-134602155D01*
X176083179Y-134525353D01*
X176207711Y-134309659D01*
X176207716Y-134309648D01*
X176303026Y-134079549D01*
X176367491Y-133838963D01*
X176400000Y-133592033D01*
X176400000Y-133342966D01*
X176367491Y-133096036D01*
X176303026Y-132855450D01*
X176207716Y-132625351D01*
X176207711Y-132625340D01*
X176083186Y-132409658D01*
X176083180Y-132409650D01*
X176008598Y-132312453D01*
X175101041Y-133220010D01*
X175076022Y-133159610D01*
X175004888Y-133053149D01*
X174914351Y-132962612D01*
X174807890Y-132891478D01*
X174747487Y-132866457D01*
X175655045Y-131958900D01*
X175557849Y-131884319D01*
X175557841Y-131884313D01*
X175342159Y-131759788D01*
X175342148Y-131759783D01*
X175112049Y-131664473D01*
X174871463Y-131600008D01*
X174624534Y-131567500D01*
X174375466Y-131567500D01*
X174128536Y-131600008D01*
X173887950Y-131664473D01*
X173657851Y-131759783D01*
X173657847Y-131759785D01*
X173442143Y-131884323D01*
X173344953Y-131958899D01*
X173344953Y-131958900D01*
X174252511Y-132866458D01*
X174192110Y-132891478D01*
X174085649Y-132962612D01*
X173995112Y-133053149D01*
X173923978Y-133159610D01*
X173898958Y-133220011D01*
X172991400Y-132312453D01*
X172991399Y-132312453D01*
X172916823Y-132409643D01*
X172792285Y-132625347D01*
X172792283Y-132625351D01*
X172696972Y-132855454D01*
X172686513Y-132894485D01*
X172650147Y-132954145D01*
X172587300Y-132984673D01*
X172517924Y-132976376D01*
X172464047Y-132931890D01*
X172445849Y-132889983D01*
X172387776Y-132635547D01*
X172384204Y-132625340D01*
X172343452Y-132508876D01*
X172276469Y-132317449D01*
X172152803Y-132060653D01*
X172130250Y-132013820D01*
X172095741Y-131958899D01*
X171950946Y-131728461D01*
X171740824Y-131464977D01*
X171488028Y-131212181D01*
X171454543Y-131150858D01*
X171459527Y-131081166D01*
X171501399Y-131025233D01*
X171566863Y-131000816D01*
X171575709Y-131000500D01*
X223705790Y-131000500D01*
X223772829Y-131020185D01*
X223793471Y-131036819D01*
X225896801Y-133140148D01*
X227997477Y-135240824D01*
X228260961Y-135450946D01*
X228546314Y-135630246D01*
X228849949Y-135776469D01*
X229088854Y-135860065D01*
X229168035Y-135887772D01*
X229168047Y-135887776D01*
X229496606Y-135962767D01*
X229831491Y-136000499D01*
X229831492Y-136000500D01*
X229831495Y-136000500D01*
X230168508Y-136000500D01*
X230168508Y-136000499D01*
X230503394Y-135962767D01*
X230831954Y-135887776D01*
X231150051Y-135776469D01*
X231453686Y-135630246D01*
X231739039Y-135450946D01*
X232002524Y-135240824D01*
X232240824Y-135002524D01*
X232450946Y-134739039D01*
X232630246Y-134453686D01*
X232633760Y-134446389D01*
X232652804Y-134406845D01*
X232652804Y-134406844D01*
X232748054Y-134209055D01*
X232776469Y-134150051D01*
X232887776Y-133831954D01*
X232945849Y-133577515D01*
X232979956Y-133516539D01*
X233041617Y-133483681D01*
X233111255Y-133489376D01*
X233166758Y-133531815D01*
X233186513Y-133573015D01*
X233196971Y-133612044D01*
X233292283Y-133842148D01*
X233292288Y-133842159D01*
X233416813Y-134057841D01*
X233416819Y-134057849D01*
X233491400Y-134155045D01*
X234398958Y-133247487D01*
X234423978Y-133307890D01*
X234495112Y-133414351D01*
X234585649Y-133504888D01*
X234692110Y-133576022D01*
X234752511Y-133601041D01*
X233844953Y-134508598D01*
X233942150Y-134583180D01*
X233942158Y-134583186D01*
X234157840Y-134707711D01*
X234157851Y-134707716D01*
X234387950Y-134803026D01*
X234628536Y-134867491D01*
X234875466Y-134900000D01*
X235124534Y-134900000D01*
X235371463Y-134867491D01*
X235612049Y-134803026D01*
X235842148Y-134707716D01*
X235842159Y-134707711D01*
X236057855Y-134583178D01*
X236155045Y-134508600D01*
X236155045Y-134508597D01*
X235247488Y-133601041D01*
X235307890Y-133576022D01*
X235414351Y-133504888D01*
X235504888Y-133414351D01*
X235576022Y-133307890D01*
X235601041Y-133247488D01*
X236508597Y-134155045D01*
X236508600Y-134155045D01*
X236583178Y-134057855D01*
X236707711Y-133842159D01*
X236707716Y-133842148D01*
X236803026Y-133612049D01*
X236867491Y-133371463D01*
X236900000Y-133124533D01*
X236900000Y-132875466D01*
X236867491Y-132628536D01*
X236803026Y-132387950D01*
X236707716Y-132157851D01*
X236707711Y-132157840D01*
X236583186Y-131942158D01*
X236583180Y-131942150D01*
X236508598Y-131844953D01*
X235601041Y-132752510D01*
X235576022Y-132692110D01*
X235504888Y-132585649D01*
X235414351Y-132495112D01*
X235307890Y-132423978D01*
X235247487Y-132398957D01*
X236155045Y-131491400D01*
X236057849Y-131416819D01*
X236057841Y-131416813D01*
X235842159Y-131292288D01*
X235842148Y-131292283D01*
X235713658Y-131239061D01*
X235659255Y-131195220D01*
X235637190Y-131128926D01*
X235654469Y-131061227D01*
X235705606Y-131013616D01*
X235761111Y-131000500D01*
X239705790Y-131000500D01*
X239772829Y-131020185D01*
X239793471Y-131036819D01*
X241896801Y-133140148D01*
X243997477Y-135240824D01*
X244260961Y-135450946D01*
X244546314Y-135630246D01*
X244849949Y-135776469D01*
X245088854Y-135860065D01*
X245168035Y-135887772D01*
X245168047Y-135887776D01*
X245496606Y-135962767D01*
X245831491Y-136000499D01*
X245831492Y-136000500D01*
X245831495Y-136000500D01*
X246168508Y-136000500D01*
X246168508Y-136000499D01*
X246503394Y-135962767D01*
X246831954Y-135887776D01*
X247150051Y-135776469D01*
X247453686Y-135630246D01*
X247739039Y-135450946D01*
X248002524Y-135240824D01*
X248240824Y-135002524D01*
X248450946Y-134739039D01*
X248630246Y-134453686D01*
X248633760Y-134446389D01*
X248652804Y-134406845D01*
X248652804Y-134406844D01*
X248748054Y-134209055D01*
X248776469Y-134150051D01*
X248887776Y-133831954D01*
X248945849Y-133577515D01*
X248979956Y-133516539D01*
X249041617Y-133483681D01*
X249111255Y-133489376D01*
X249166758Y-133531815D01*
X249186513Y-133573015D01*
X249196971Y-133612044D01*
X249292283Y-133842148D01*
X249292288Y-133842159D01*
X249416813Y-134057841D01*
X249416819Y-134057849D01*
X249491400Y-134155045D01*
X250398958Y-133247487D01*
X250423978Y-133307890D01*
X250495112Y-133414351D01*
X250585649Y-133504888D01*
X250692110Y-133576022D01*
X250752511Y-133601041D01*
X249844953Y-134508598D01*
X249942150Y-134583180D01*
X249942158Y-134583186D01*
X250157840Y-134707711D01*
X250157851Y-134707716D01*
X250387950Y-134803026D01*
X250628536Y-134867491D01*
X250875466Y-134900000D01*
X251124534Y-134900000D01*
X251371463Y-134867491D01*
X251612049Y-134803026D01*
X251842148Y-134707716D01*
X251842159Y-134707711D01*
X252057855Y-134583178D01*
X252155045Y-134508600D01*
X252155045Y-134508597D01*
X251247488Y-133601041D01*
X251307890Y-133576022D01*
X251414351Y-133504888D01*
X251504888Y-133414351D01*
X251576022Y-133307890D01*
X251601041Y-133247489D01*
X252508597Y-134155045D01*
X252508600Y-134155045D01*
X252583178Y-134057855D01*
X252707711Y-133842159D01*
X252707716Y-133842148D01*
X252803026Y-133612049D01*
X252867491Y-133371463D01*
X252900000Y-133124533D01*
X252900000Y-132875466D01*
X252895485Y-132841172D01*
X252893755Y-132828031D01*
X255999500Y-132828031D01*
X255999500Y-132859852D01*
X255999500Y-133171969D01*
X256009751Y-133276054D01*
X256033210Y-133514249D01*
X256100308Y-133851572D01*
X256200150Y-134180706D01*
X256331770Y-134498464D01*
X256331772Y-134498469D01*
X256493893Y-134801775D01*
X256493904Y-134801793D01*
X256684975Y-135087751D01*
X256684985Y-135087765D01*
X256903176Y-135353632D01*
X257146367Y-135596823D01*
X257146372Y-135596827D01*
X257146373Y-135596828D01*
X257412240Y-135815019D01*
X257698213Y-136006100D01*
X257698222Y-136006105D01*
X257698224Y-136006106D01*
X258001530Y-136168227D01*
X258001532Y-136168227D01*
X258001538Y-136168231D01*
X258319295Y-136299850D01*
X258648422Y-136399690D01*
X258985750Y-136466789D01*
X259328031Y-136500500D01*
X259328034Y-136500500D01*
X259671966Y-136500500D01*
X259671969Y-136500500D01*
X260014250Y-136466789D01*
X260351578Y-136399690D01*
X260680705Y-136299850D01*
X260998462Y-136168231D01*
X261301787Y-136006100D01*
X261587760Y-135815019D01*
X261853627Y-135596828D01*
X262096828Y-135353627D01*
X262315019Y-135087760D01*
X262506100Y-134801787D01*
X262668231Y-134498462D01*
X262799850Y-134180705D01*
X262899690Y-133851578D01*
X262966789Y-133514250D01*
X263000500Y-133171969D01*
X263000500Y-132828031D01*
X262966789Y-132485750D01*
X262899690Y-132148422D01*
X262799850Y-131819295D01*
X262668231Y-131501538D01*
X262625048Y-131420749D01*
X262506106Y-131198224D01*
X262506105Y-131198222D01*
X262506100Y-131198213D01*
X262315019Y-130912240D01*
X262096828Y-130646373D01*
X262096827Y-130646372D01*
X262096823Y-130646367D01*
X261853632Y-130403176D01*
X261587765Y-130184985D01*
X261587764Y-130184984D01*
X261587760Y-130184981D01*
X261301787Y-129993900D01*
X261301782Y-129993897D01*
X261301775Y-129993893D01*
X260998469Y-129831772D01*
X260998464Y-129831770D01*
X260680706Y-129700150D01*
X260351572Y-129600308D01*
X260014248Y-129533210D01*
X260014249Y-129533210D01*
X259756456Y-129507821D01*
X259671969Y-129499500D01*
X259328031Y-129499500D01*
X259249966Y-129507188D01*
X258985750Y-129533210D01*
X258648427Y-129600308D01*
X258319293Y-129700150D01*
X258001535Y-129831770D01*
X258001530Y-129831772D01*
X257698224Y-129993893D01*
X257698206Y-129993904D01*
X257412248Y-130184975D01*
X257412234Y-130184985D01*
X257146367Y-130403176D01*
X256903176Y-130646367D01*
X256684985Y-130912234D01*
X256684975Y-130912248D01*
X256493904Y-131198206D01*
X256493893Y-131198224D01*
X256331772Y-131501530D01*
X256331770Y-131501535D01*
X256200150Y-131819293D01*
X256100308Y-132148427D01*
X256033210Y-132485750D01*
X256017384Y-132646446D01*
X255999500Y-132828031D01*
X252893755Y-132828031D01*
X252867491Y-132628536D01*
X252803026Y-132387950D01*
X252707716Y-132157851D01*
X252707711Y-132157840D01*
X252583186Y-131942158D01*
X252583180Y-131942150D01*
X252508598Y-131844953D01*
X251601041Y-132752510D01*
X251576022Y-132692110D01*
X251504888Y-132585649D01*
X251414351Y-132495112D01*
X251307890Y-132423978D01*
X251247487Y-132398957D01*
X252155045Y-131491400D01*
X252057849Y-131416819D01*
X252057841Y-131416813D01*
X251842159Y-131292288D01*
X251842148Y-131292283D01*
X251612049Y-131196973D01*
X251371463Y-131132508D01*
X251124534Y-131100000D01*
X250875466Y-131100000D01*
X250628536Y-131132508D01*
X250387950Y-131196973D01*
X250157851Y-131292283D01*
X250157847Y-131292285D01*
X249942143Y-131416823D01*
X249844953Y-131491399D01*
X249844953Y-131491400D01*
X250752511Y-132398958D01*
X250692110Y-132423978D01*
X250585649Y-132495112D01*
X250495112Y-132585649D01*
X250423978Y-132692110D01*
X250398958Y-132752511D01*
X249491400Y-131844953D01*
X249491399Y-131844953D01*
X249416823Y-131942143D01*
X249292285Y-132157847D01*
X249292283Y-132157851D01*
X249196972Y-132387954D01*
X249186513Y-132426985D01*
X249150147Y-132486645D01*
X249087300Y-132517173D01*
X249017924Y-132508876D01*
X248964047Y-132464390D01*
X248945849Y-132422483D01*
X248887776Y-132168047D01*
X248884204Y-132157840D01*
X248808729Y-131942143D01*
X248776469Y-131849949D01*
X248733047Y-131759783D01*
X248652804Y-131593155D01*
X248630247Y-131546316D01*
X248579138Y-131464977D01*
X248450946Y-131260961D01*
X248240824Y-130997477D01*
X246943497Y-129700150D01*
X243002529Y-125759180D01*
X243002527Y-125759178D01*
X242994180Y-125752522D01*
X242994178Y-125752521D01*
X242739039Y-125549054D01*
X242453686Y-125369754D01*
X242453683Y-125369752D01*
X242150054Y-125223532D01*
X241831965Y-125112227D01*
X241831953Y-125112223D01*
X241503397Y-125037233D01*
X241503381Y-125037231D01*
X241168509Y-124999500D01*
X241168505Y-124999500D01*
X241168504Y-124999500D01*
X225168505Y-124999500D01*
X225168504Y-124999500D01*
X164201005Y-124999500D01*
X164201004Y-124999500D01*
X161294209Y-124999500D01*
X161227170Y-124979815D01*
X161206528Y-124963181D01*
X159439040Y-123195692D01*
X156036819Y-119793471D01*
X156003334Y-119732148D01*
X156000500Y-119705790D01*
X156000500Y-104294210D01*
X156020185Y-104227171D01*
X156036819Y-104206529D01*
X158706529Y-101536819D01*
X158767852Y-101503334D01*
X158794210Y-101500500D01*
X169625500Y-101500500D01*
X169692539Y-101520185D01*
X169738294Y-101572989D01*
X169749500Y-101624500D01*
X169749500Y-103168510D01*
X169771201Y-103361116D01*
X169771201Y-103388882D01*
X169749500Y-103581488D01*
X169749500Y-103918509D01*
X169787231Y-104253388D01*
X169787232Y-104253391D01*
X169808690Y-104347409D01*
X169808690Y-104402591D01*
X169787232Y-104496608D01*
X169787231Y-104496611D01*
X169749500Y-104831491D01*
X169749500Y-107312111D01*
X169729815Y-107379150D01*
X169713181Y-107399792D01*
X162355485Y-114757487D01*
X162355484Y-114757488D01*
X162216657Y-114948565D01*
X162109433Y-115159003D01*
X162036446Y-115383631D01*
X161999500Y-115616902D01*
X161999500Y-115853097D01*
X162036446Y-116086368D01*
X162109433Y-116310996D01*
X162216657Y-116521434D01*
X162355484Y-116712511D01*
X162430952Y-116787979D01*
X162464437Y-116849302D01*
X162459453Y-116918994D01*
X162417581Y-116974927D01*
X162412660Y-116978090D01*
X162292812Y-117067809D01*
X162292809Y-117067812D01*
X162206649Y-117182906D01*
X162206645Y-117182913D01*
X162156403Y-117317620D01*
X162156401Y-117317627D01*
X162150000Y-117377155D01*
X162150000Y-118025000D01*
X163066988Y-118025000D01*
X163034075Y-118082007D01*
X163000000Y-118209174D01*
X163000000Y-118340826D01*
X163034075Y-118467993D01*
X163066988Y-118525000D01*
X162150000Y-118525000D01*
X162150000Y-119172844D01*
X162156401Y-119232372D01*
X162156403Y-119232379D01*
X162206645Y-119367086D01*
X162206649Y-119367093D01*
X162292809Y-119482187D01*
X162292812Y-119482190D01*
X162407906Y-119568350D01*
X162407913Y-119568354D01*
X162542620Y-119618596D01*
X162542627Y-119618598D01*
X162602155Y-119624999D01*
X162602172Y-119625000D01*
X163250000Y-119625000D01*
X163250000Y-118708012D01*
X163307007Y-118740925D01*
X163434174Y-118775000D01*
X163565826Y-118775000D01*
X163692993Y-118740925D01*
X163750000Y-118708012D01*
X163750000Y-119625000D01*
X164397828Y-119625000D01*
X164397844Y-119624999D01*
X164457372Y-119618598D01*
X164457379Y-119618596D01*
X164592086Y-119568354D01*
X164592093Y-119568350D01*
X164707187Y-119482190D01*
X164707190Y-119482187D01*
X164793350Y-119367093D01*
X164793354Y-119367086D01*
X164843596Y-119232379D01*
X164843598Y-119232372D01*
X164849999Y-119172844D01*
X164850000Y-119172827D01*
X164850000Y-118525000D01*
X163933012Y-118525000D01*
X163965925Y-118467993D01*
X164000000Y-118340826D01*
X164000000Y-118209174D01*
X163965925Y-118082007D01*
X163933012Y-118025000D01*
X164850000Y-118025000D01*
X164850000Y-117377172D01*
X164849999Y-117377155D01*
X164843598Y-117317627D01*
X164843596Y-117317620D01*
X164793354Y-117182913D01*
X164793350Y-117182906D01*
X164707190Y-117067812D01*
X164707187Y-117067809D01*
X164584989Y-116976331D01*
X164586763Y-116973960D01*
X164547885Y-116935068D01*
X164533045Y-116866792D01*
X164557474Y-116801332D01*
X164569040Y-116787986D01*
X169594469Y-111762556D01*
X169655790Y-111729073D01*
X169725482Y-111734057D01*
X169781415Y-111775929D01*
X169803039Y-111822647D01*
X169862223Y-112081953D01*
X169862227Y-112081965D01*
X169973532Y-112400054D01*
X170119752Y-112703683D01*
X170119754Y-112703686D01*
X170299054Y-112989039D01*
X170509176Y-113252524D01*
X178997477Y-121740824D01*
X179260961Y-121950946D01*
X179546314Y-122130246D01*
X179849949Y-122276469D01*
X180051536Y-122347007D01*
X180168035Y-122387772D01*
X180168047Y-122387776D01*
X180496606Y-122462767D01*
X180831491Y-122500499D01*
X180831492Y-122500500D01*
X180831495Y-122500500D01*
X181168508Y-122500500D01*
X181168508Y-122500499D01*
X181503394Y-122462767D01*
X181831954Y-122387776D01*
X182150051Y-122276469D01*
X182453686Y-122130246D01*
X182739039Y-121950946D01*
X182739043Y-121950943D01*
X182888271Y-121831938D01*
X182888276Y-121831934D01*
X182925138Y-121802536D01*
X183002524Y-121740824D01*
X183240824Y-121502524D01*
X183450946Y-121239039D01*
X183630246Y-120953686D01*
X183776469Y-120650051D01*
X183887776Y-120331954D01*
X183962767Y-120003394D01*
X184000500Y-119668505D01*
X184000500Y-119331495D01*
X183962767Y-118996606D01*
X183887776Y-118668047D01*
X183887772Y-118668035D01*
X183877879Y-118639761D01*
X183864713Y-118602135D01*
X218649500Y-118602135D01*
X218649500Y-120397870D01*
X218649501Y-120397876D01*
X218655908Y-120457483D01*
X218706202Y-120592328D01*
X218706206Y-120592335D01*
X218792452Y-120707544D01*
X218792455Y-120707547D01*
X218907664Y-120793793D01*
X218907671Y-120793797D01*
X219042517Y-120844091D01*
X219042516Y-120844091D01*
X219049444Y-120844835D01*
X219102127Y-120850500D01*
X220897872Y-120850499D01*
X220957483Y-120844091D01*
X221092331Y-120793796D01*
X221207546Y-120707546D01*
X221293796Y-120592331D01*
X221297959Y-120581166D01*
X221339830Y-120525233D01*
X221405294Y-120500815D01*
X221414142Y-120500499D01*
X230787769Y-120500499D01*
X230854808Y-120520184D01*
X230875450Y-120536817D01*
X230981344Y-120642711D01*
X231130666Y-120734813D01*
X231297203Y-120789998D01*
X231399991Y-120800499D01*
X232600008Y-120800498D01*
X232702797Y-120789998D01*
X232869334Y-120734813D01*
X233018656Y-120642711D01*
X233124550Y-120536817D01*
X233185873Y-120503333D01*
X233212231Y-120500499D01*
X236901460Y-120500499D01*
X242585857Y-120500499D01*
X242652896Y-120520184D01*
X242698651Y-120572988D01*
X242702038Y-120581164D01*
X242706201Y-120592326D01*
X242706206Y-120592335D01*
X242792452Y-120707544D01*
X242792455Y-120707547D01*
X242907664Y-120793793D01*
X242907671Y-120793797D01*
X242952618Y-120810561D01*
X243042517Y-120844091D01*
X243102127Y-120850500D01*
X243112685Y-120850499D01*
X243179723Y-120870179D01*
X243200372Y-120886818D01*
X243870591Y-121557037D01*
X243807007Y-121574075D01*
X243692993Y-121639901D01*
X243599901Y-121732993D01*
X243534075Y-121847007D01*
X243517037Y-121910591D01*
X242884728Y-121278282D01*
X242884727Y-121278282D01*
X242845380Y-121332439D01*
X242748904Y-121521782D01*
X242683242Y-121723869D01*
X242683242Y-121723872D01*
X242650000Y-121933753D01*
X242650000Y-122146246D01*
X242683242Y-122356127D01*
X242683242Y-122356130D01*
X242748904Y-122558217D01*
X242845375Y-122747550D01*
X242884728Y-122801716D01*
X243517037Y-122169408D01*
X243534075Y-122232993D01*
X243599901Y-122347007D01*
X243692993Y-122440099D01*
X243807007Y-122505925D01*
X243870590Y-122522962D01*
X243238282Y-123155269D01*
X243238282Y-123155270D01*
X243292449Y-123194624D01*
X243481782Y-123291095D01*
X243683870Y-123356757D01*
X243893754Y-123390000D01*
X244106246Y-123390000D01*
X244316127Y-123356757D01*
X244316130Y-123356757D01*
X244518217Y-123291095D01*
X244707554Y-123194622D01*
X244761716Y-123155270D01*
X244761717Y-123155270D01*
X244129408Y-122522962D01*
X244192993Y-122505925D01*
X244307007Y-122440099D01*
X244400099Y-122347007D01*
X244465925Y-122232993D01*
X244482962Y-122169408D01*
X245115270Y-122801717D01*
X245115270Y-122801716D01*
X245154622Y-122747554D01*
X245251095Y-122558217D01*
X245316757Y-122356130D01*
X245316757Y-122356127D01*
X245350000Y-122146246D01*
X245350000Y-121933753D01*
X245316757Y-121723872D01*
X245316757Y-121723869D01*
X245251095Y-121521782D01*
X245154624Y-121332449D01*
X245115270Y-121278282D01*
X245115269Y-121278282D01*
X244482962Y-121910590D01*
X244465925Y-121847007D01*
X244400099Y-121732993D01*
X244307007Y-121639901D01*
X244192993Y-121574075D01*
X244129409Y-121557037D01*
X244799627Y-120886818D01*
X244860950Y-120853333D01*
X244887307Y-120850499D01*
X244897872Y-120850499D01*
X244957483Y-120844091D01*
X245092331Y-120793796D01*
X245207546Y-120707546D01*
X245293796Y-120592331D01*
X245344091Y-120457483D01*
X245350500Y-120397873D01*
X245350499Y-118602128D01*
X245344091Y-118542517D01*
X245328233Y-118500000D01*
X245293797Y-118407671D01*
X245293793Y-118407664D01*
X245207547Y-118292455D01*
X245207544Y-118292452D01*
X245092335Y-118206206D01*
X245092328Y-118206202D01*
X244957482Y-118155908D01*
X244957483Y-118155908D01*
X244897883Y-118149501D01*
X244897881Y-118149500D01*
X244897873Y-118149500D01*
X244897864Y-118149500D01*
X243102129Y-118149500D01*
X243102123Y-118149501D01*
X243042516Y-118155908D01*
X242907671Y-118206202D01*
X242907664Y-118206206D01*
X242792455Y-118292452D01*
X242792452Y-118292455D01*
X242706205Y-118407665D01*
X242706204Y-118407669D01*
X242702039Y-118418833D01*
X242660170Y-118474766D01*
X242594705Y-118499183D01*
X242585859Y-118499499D01*
X239714782Y-118499499D01*
X239647743Y-118479814D01*
X239601988Y-118427010D01*
X239592044Y-118357852D01*
X239621069Y-118294296D01*
X239627101Y-118287818D01*
X240221927Y-117692993D01*
X240878101Y-117036819D01*
X240939424Y-117003334D01*
X240965782Y-117000500D01*
X246534218Y-117000500D01*
X246601257Y-117020185D01*
X246621898Y-117036818D01*
X249722860Y-120137781D01*
X249722861Y-120137782D01*
X249862218Y-120277139D01*
X249862219Y-120277140D01*
X249944271Y-120331965D01*
X250026086Y-120386632D01*
X250132745Y-120430811D01*
X250208164Y-120462051D01*
X250401454Y-120500499D01*
X250401457Y-120500500D01*
X250401459Y-120500500D01*
X250598540Y-120500500D01*
X251585859Y-120500500D01*
X251652898Y-120520185D01*
X251698653Y-120572989D01*
X251702030Y-120581140D01*
X251706204Y-120592331D01*
X251706205Y-120592332D01*
X251706206Y-120592335D01*
X251792452Y-120707544D01*
X251792455Y-120707547D01*
X251907664Y-120793793D01*
X251907671Y-120793797D01*
X251952618Y-120810561D01*
X252042517Y-120844091D01*
X252102127Y-120850500D01*
X252112685Y-120850499D01*
X252179723Y-120870179D01*
X252200372Y-120886818D01*
X252870591Y-121557037D01*
X252807007Y-121574075D01*
X252692993Y-121639901D01*
X252599901Y-121732993D01*
X252534075Y-121847007D01*
X252517037Y-121910591D01*
X251884728Y-121278282D01*
X251884727Y-121278282D01*
X251845380Y-121332439D01*
X251748904Y-121521782D01*
X251683242Y-121723869D01*
X251683242Y-121723872D01*
X251650000Y-121933753D01*
X251650000Y-122146246D01*
X251683242Y-122356127D01*
X251683242Y-122356130D01*
X251748904Y-122558217D01*
X251845375Y-122747550D01*
X251884728Y-122801716D01*
X252517037Y-122169408D01*
X252534075Y-122232993D01*
X252599901Y-122347007D01*
X252692993Y-122440099D01*
X252807007Y-122505925D01*
X252870590Y-122522962D01*
X252238282Y-123155269D01*
X252238282Y-123155270D01*
X252292449Y-123194624D01*
X252481782Y-123291095D01*
X252683870Y-123356757D01*
X252893754Y-123390000D01*
X253106246Y-123390000D01*
X253316127Y-123356757D01*
X253316130Y-123356757D01*
X253518217Y-123291095D01*
X253707554Y-123194622D01*
X253761716Y-123155270D01*
X253761717Y-123155270D01*
X253129408Y-122522962D01*
X253192993Y-122505925D01*
X253307007Y-122440099D01*
X253400099Y-122347007D01*
X253465925Y-122232993D01*
X253482962Y-122169408D01*
X254115270Y-122801717D01*
X254115270Y-122801716D01*
X254154622Y-122747554D01*
X254251095Y-122558217D01*
X254316757Y-122356130D01*
X254316757Y-122356127D01*
X254350000Y-122146246D01*
X254350000Y-121933753D01*
X254316757Y-121723872D01*
X254316757Y-121723869D01*
X254251095Y-121521782D01*
X254154624Y-121332449D01*
X254115270Y-121278282D01*
X254115269Y-121278282D01*
X253482962Y-121910590D01*
X253465925Y-121847007D01*
X253400099Y-121732993D01*
X253307007Y-121639901D01*
X253192993Y-121574075D01*
X253129409Y-121557037D01*
X253799627Y-120886818D01*
X253860950Y-120853333D01*
X253887307Y-120850499D01*
X253897872Y-120850499D01*
X253957483Y-120844091D01*
X254092331Y-120793796D01*
X254207546Y-120707546D01*
X254293796Y-120592331D01*
X254344091Y-120457483D01*
X254350500Y-120397873D01*
X254350499Y-118602128D01*
X254344091Y-118542517D01*
X254328233Y-118500000D01*
X254293797Y-118407671D01*
X254293793Y-118407664D01*
X254207547Y-118292455D01*
X254207544Y-118292452D01*
X254092335Y-118206206D01*
X254092328Y-118206202D01*
X253957482Y-118155908D01*
X253957483Y-118155908D01*
X253897883Y-118149501D01*
X253897881Y-118149500D01*
X253897873Y-118149500D01*
X253897864Y-118149500D01*
X252102129Y-118149500D01*
X252102123Y-118149501D01*
X252042516Y-118155908D01*
X251907671Y-118206202D01*
X251907664Y-118206206D01*
X251792455Y-118292452D01*
X251792452Y-118292455D01*
X251706206Y-118407664D01*
X251706204Y-118407668D01*
X251706204Y-118407669D01*
X251702039Y-118418834D01*
X251660171Y-118474766D01*
X251594707Y-118499184D01*
X251585859Y-118499500D01*
X250965783Y-118499500D01*
X250898744Y-118479815D01*
X250878102Y-118463181D01*
X250289822Y-117874901D01*
X249627100Y-117212180D01*
X249593616Y-117150858D01*
X249598600Y-117081166D01*
X249640472Y-117025233D01*
X249705936Y-117000816D01*
X249714782Y-117000500D01*
X255534218Y-117000500D01*
X255601257Y-117020185D01*
X255621898Y-117036818D01*
X258722860Y-120137781D01*
X258722861Y-120137782D01*
X258862218Y-120277139D01*
X258862219Y-120277140D01*
X258944271Y-120331965D01*
X259026086Y-120386632D01*
X259132745Y-120430811D01*
X259208164Y-120462051D01*
X259401454Y-120500499D01*
X259401457Y-120500500D01*
X259401459Y-120500500D01*
X262085859Y-120500500D01*
X262152898Y-120520185D01*
X262198653Y-120572989D01*
X262202030Y-120581140D01*
X262206204Y-120592331D01*
X262206205Y-120592332D01*
X262206206Y-120592335D01*
X262292452Y-120707544D01*
X262292455Y-120707547D01*
X262407664Y-120793793D01*
X262407671Y-120793797D01*
X262452618Y-120810561D01*
X262542517Y-120844091D01*
X262602127Y-120850500D01*
X262612685Y-120850499D01*
X262679723Y-120870179D01*
X262700372Y-120886818D01*
X263370591Y-121557037D01*
X263307007Y-121574075D01*
X263192993Y-121639901D01*
X263099901Y-121732993D01*
X263034075Y-121847007D01*
X263017037Y-121910591D01*
X262384728Y-121278282D01*
X262384727Y-121278282D01*
X262345380Y-121332439D01*
X262248904Y-121521782D01*
X262183242Y-121723869D01*
X262183242Y-121723872D01*
X262150000Y-121933753D01*
X262150000Y-122146246D01*
X262183242Y-122356127D01*
X262183242Y-122356130D01*
X262248904Y-122558217D01*
X262345375Y-122747550D01*
X262384728Y-122801716D01*
X263017037Y-122169408D01*
X263034075Y-122232993D01*
X263099901Y-122347007D01*
X263192993Y-122440099D01*
X263307007Y-122505925D01*
X263370590Y-122522962D01*
X262738282Y-123155269D01*
X262738282Y-123155270D01*
X262792449Y-123194624D01*
X262981782Y-123291095D01*
X263183870Y-123356757D01*
X263393754Y-123390000D01*
X263606246Y-123390000D01*
X263816127Y-123356757D01*
X263816130Y-123356757D01*
X264018217Y-123291095D01*
X264207554Y-123194622D01*
X264261716Y-123155270D01*
X264261717Y-123155270D01*
X263629408Y-122522962D01*
X263692993Y-122505925D01*
X263807007Y-122440099D01*
X263900099Y-122347007D01*
X263965925Y-122232993D01*
X263982962Y-122169409D01*
X264615270Y-122801717D01*
X264615270Y-122801716D01*
X264654622Y-122747554D01*
X264751095Y-122558217D01*
X264816757Y-122356130D01*
X264816757Y-122356127D01*
X264850000Y-122146246D01*
X264850000Y-121933753D01*
X264816757Y-121723872D01*
X264816757Y-121723869D01*
X264751095Y-121521782D01*
X264654624Y-121332449D01*
X264615270Y-121278282D01*
X264615269Y-121278282D01*
X263982962Y-121910590D01*
X263965925Y-121847007D01*
X263900099Y-121732993D01*
X263807007Y-121639901D01*
X263692993Y-121574075D01*
X263629409Y-121557037D01*
X264299627Y-120886818D01*
X264360950Y-120853333D01*
X264387307Y-120850499D01*
X264397872Y-120850499D01*
X264457483Y-120844091D01*
X264592331Y-120793796D01*
X264707546Y-120707546D01*
X264793796Y-120592331D01*
X264844091Y-120457483D01*
X264850500Y-120397873D01*
X264850499Y-118602128D01*
X264844091Y-118542517D01*
X264828233Y-118500000D01*
X264793797Y-118407671D01*
X264793793Y-118407664D01*
X264707547Y-118292455D01*
X264707544Y-118292452D01*
X264592335Y-118206206D01*
X264592328Y-118206202D01*
X264457482Y-118155908D01*
X264457483Y-118155908D01*
X264397883Y-118149501D01*
X264397881Y-118149500D01*
X264397873Y-118149500D01*
X264397864Y-118149500D01*
X262602129Y-118149500D01*
X262602123Y-118149501D01*
X262542516Y-118155908D01*
X262407671Y-118206202D01*
X262407664Y-118206206D01*
X262292455Y-118292452D01*
X262292452Y-118292455D01*
X262206206Y-118407664D01*
X262206204Y-118407668D01*
X262206204Y-118407669D01*
X262202039Y-118418834D01*
X262160171Y-118474766D01*
X262094707Y-118499184D01*
X262085859Y-118499500D01*
X259965783Y-118499500D01*
X259898744Y-118479815D01*
X259878102Y-118463181D01*
X256784209Y-115369289D01*
X256784206Y-115369285D01*
X256784206Y-115369286D01*
X256777139Y-115362219D01*
X256777139Y-115362218D01*
X256637782Y-115222861D01*
X256637781Y-115222860D01*
X256637780Y-115222859D01*
X256473920Y-115113371D01*
X256473911Y-115113366D01*
X256401315Y-115083296D01*
X256345165Y-115060038D01*
X256291836Y-115037949D01*
X256291832Y-115037948D01*
X256291828Y-115037946D01*
X256195188Y-115018724D01*
X256098544Y-114999500D01*
X256098541Y-114999500D01*
X247098541Y-114999500D01*
X240401459Y-114999500D01*
X240401455Y-114999500D01*
X240304812Y-115018724D01*
X240208167Y-115037947D01*
X240208161Y-115037949D01*
X240154834Y-115060037D01*
X240154834Y-115060038D01*
X240109315Y-115078892D01*
X240026089Y-115113366D01*
X240026079Y-115113371D01*
X239862219Y-115222859D01*
X239792540Y-115292538D01*
X239722861Y-115362218D01*
X239722858Y-115362221D01*
X238166086Y-116918994D01*
X236621900Y-118463180D01*
X236560577Y-118496665D01*
X236534219Y-118499499D01*
X233212231Y-118499499D01*
X233145192Y-118479814D01*
X233124550Y-118463181D01*
X233080200Y-118418831D01*
X233018656Y-118357287D01*
X232913546Y-118292455D01*
X232869336Y-118265186D01*
X232869331Y-118265184D01*
X232867862Y-118264697D01*
X232702797Y-118210000D01*
X232702795Y-118209999D01*
X232600010Y-118199499D01*
X231399998Y-118199499D01*
X231399981Y-118199500D01*
X231297203Y-118209999D01*
X231297200Y-118210000D01*
X231130668Y-118265184D01*
X231130663Y-118265186D01*
X230981345Y-118357286D01*
X230875450Y-118463181D01*
X230814127Y-118496665D01*
X230787769Y-118499499D01*
X221414142Y-118499499D01*
X221347103Y-118479814D01*
X221301348Y-118427010D01*
X221297960Y-118418832D01*
X221293797Y-118407671D01*
X221293793Y-118407664D01*
X221207547Y-118292455D01*
X221207544Y-118292452D01*
X221092335Y-118206206D01*
X221092328Y-118206202D01*
X220957482Y-118155908D01*
X220957483Y-118155908D01*
X220897883Y-118149501D01*
X220897881Y-118149500D01*
X220897873Y-118149500D01*
X220897864Y-118149500D01*
X219102129Y-118149500D01*
X219102123Y-118149501D01*
X219042516Y-118155908D01*
X218907671Y-118206202D01*
X218907664Y-118206206D01*
X218792455Y-118292452D01*
X218792452Y-118292455D01*
X218706206Y-118407664D01*
X218706202Y-118407671D01*
X218655908Y-118542517D01*
X218652330Y-118575802D01*
X218649501Y-118602123D01*
X218649500Y-118602135D01*
X183864713Y-118602135D01*
X183816090Y-118463180D01*
X183776469Y-118349949D01*
X183647435Y-118082007D01*
X183630247Y-118046316D01*
X183559783Y-117934174D01*
X183450946Y-117760961D01*
X183240824Y-117497477D01*
X180141028Y-114397681D01*
X230700000Y-114397681D01*
X230700000Y-114602316D01*
X230732009Y-114804416D01*
X230795244Y-114999030D01*
X230888141Y-115181349D01*
X230888147Y-115181358D01*
X230920523Y-115225920D01*
X230920524Y-115225921D01*
X231600000Y-114546445D01*
X231600000Y-114552660D01*
X231627259Y-114654393D01*
X231679920Y-114745605D01*
X231754394Y-114820079D01*
X231845606Y-114872740D01*
X231947339Y-114899999D01*
X231953553Y-114899999D01*
X231274076Y-115579473D01*
X231318650Y-115611858D01*
X231500968Y-115704754D01*
X231695582Y-115767989D01*
X231897683Y-115799999D01*
X232102317Y-115799999D01*
X232304417Y-115767989D01*
X232499031Y-115704754D01*
X232681349Y-115611858D01*
X232725921Y-115579473D01*
X232046447Y-114899999D01*
X232052661Y-114899999D01*
X232154394Y-114872740D01*
X232245606Y-114820079D01*
X232320080Y-114745605D01*
X232372741Y-114654393D01*
X232400000Y-114552660D01*
X232400000Y-114546446D01*
X233079474Y-115225920D01*
X233111859Y-115181348D01*
X233204755Y-114999030D01*
X233267990Y-114804416D01*
X233300000Y-114602316D01*
X233300000Y-114397682D01*
X233292829Y-114352410D01*
X233292829Y-114352409D01*
X233267990Y-114195581D01*
X233204755Y-114000967D01*
X233111859Y-113818649D01*
X233079474Y-113774076D01*
X233079474Y-113774075D01*
X232400000Y-114453550D01*
X232400000Y-114447338D01*
X232372741Y-114345605D01*
X232320080Y-114254393D01*
X232245606Y-114179919D01*
X232154394Y-114127258D01*
X232052661Y-114099999D01*
X232046446Y-114099999D01*
X232725922Y-113420523D01*
X232725921Y-113420522D01*
X232681359Y-113388146D01*
X232681350Y-113388140D01*
X232499031Y-113295243D01*
X232304417Y-113232008D01*
X232102317Y-113199999D01*
X231897683Y-113199999D01*
X231695582Y-113232008D01*
X231500968Y-113295243D01*
X231318644Y-113388142D01*
X231274077Y-113420522D01*
X231274077Y-113420523D01*
X231953554Y-114099999D01*
X231947339Y-114099999D01*
X231845606Y-114127258D01*
X231754394Y-114179919D01*
X231679920Y-114254393D01*
X231627259Y-114345605D01*
X231600000Y-114447338D01*
X231600000Y-114453552D01*
X230920524Y-113774076D01*
X230920523Y-113774076D01*
X230888143Y-113818643D01*
X230795244Y-114000967D01*
X230732009Y-114195581D01*
X230700000Y-114397681D01*
X180141028Y-114397681D01*
X176845503Y-111102155D01*
X179150000Y-111102155D01*
X179150000Y-111750000D01*
X180066988Y-111750000D01*
X180034075Y-111807007D01*
X180000000Y-111934174D01*
X180000000Y-112065826D01*
X180034075Y-112192993D01*
X180066988Y-112250000D01*
X179150000Y-112250000D01*
X179150000Y-112897844D01*
X179156401Y-112957372D01*
X179156403Y-112957379D01*
X179206645Y-113092086D01*
X179206647Y-113092088D01*
X179267651Y-113173580D01*
X179326418Y-113232347D01*
X179407911Y-113293353D01*
X179407913Y-113293354D01*
X179542620Y-113343596D01*
X179542627Y-113343598D01*
X179602155Y-113349999D01*
X179602172Y-113350000D01*
X180250000Y-113350000D01*
X180250000Y-112433012D01*
X180307007Y-112465925D01*
X180434174Y-112500000D01*
X180565826Y-112500000D01*
X180692993Y-112465925D01*
X180750000Y-112433012D01*
X180750000Y-113350000D01*
X181397828Y-113350000D01*
X181397844Y-113349999D01*
X181457372Y-113343598D01*
X181457379Y-113343596D01*
X181592086Y-113293354D01*
X181592093Y-113293350D01*
X181707187Y-113207190D01*
X181707190Y-113207187D01*
X181793350Y-113092093D01*
X181793354Y-113092086D01*
X181843596Y-112957379D01*
X181843598Y-112957372D01*
X181849999Y-112897844D01*
X181850000Y-112897827D01*
X181850000Y-112250000D01*
X180933012Y-112250000D01*
X180965925Y-112192993D01*
X181000000Y-112065826D01*
X181000000Y-111934174D01*
X180965925Y-111807007D01*
X180933012Y-111750000D01*
X181850000Y-111750000D01*
X181850000Y-111102172D01*
X181849999Y-111102155D01*
X218150000Y-111102155D01*
X218150000Y-111750000D01*
X219066988Y-111750000D01*
X219034075Y-111807007D01*
X219000000Y-111934174D01*
X219000000Y-112065826D01*
X219034075Y-112192993D01*
X219066988Y-112250000D01*
X218150000Y-112250000D01*
X218150000Y-112897844D01*
X218156401Y-112957372D01*
X218156403Y-112957379D01*
X218206645Y-113092086D01*
X218206649Y-113092093D01*
X218292809Y-113207187D01*
X218292812Y-113207190D01*
X218407906Y-113293350D01*
X218407913Y-113293354D01*
X218542620Y-113343596D01*
X218542627Y-113343598D01*
X218602155Y-113349999D01*
X218602172Y-113350000D01*
X219250000Y-113350000D01*
X219250000Y-112433012D01*
X219307007Y-112465925D01*
X219434174Y-112500000D01*
X219565826Y-112500000D01*
X219692993Y-112465925D01*
X219750000Y-112433012D01*
X219750000Y-113350000D01*
X220397828Y-113350000D01*
X220397844Y-113349999D01*
X220449053Y-113344493D01*
X220457372Y-113343598D01*
X220457379Y-113343596D01*
X220592086Y-113293354D01*
X220592093Y-113293350D01*
X220707187Y-113207190D01*
X220707190Y-113207187D01*
X220793350Y-113092093D01*
X220793354Y-113092086D01*
X220843596Y-112957379D01*
X220843598Y-112957372D01*
X220849999Y-112897844D01*
X220850000Y-112897827D01*
X220850000Y-112250000D01*
X219933012Y-112250000D01*
X219965925Y-112192993D01*
X220000000Y-112065826D01*
X220000000Y-111934174D01*
X219965925Y-111807007D01*
X219933012Y-111750000D01*
X220850000Y-111750000D01*
X220850000Y-111102172D01*
X220849999Y-111102155D01*
X220843598Y-111042627D01*
X220843596Y-111042620D01*
X220793354Y-110907913D01*
X220793350Y-110907906D01*
X220707190Y-110792812D01*
X220707187Y-110792809D01*
X220592093Y-110706649D01*
X220592086Y-110706645D01*
X220457379Y-110656403D01*
X220457372Y-110656401D01*
X220397844Y-110650000D01*
X219750000Y-110650000D01*
X219750000Y-111566988D01*
X219692993Y-111534075D01*
X219565826Y-111500000D01*
X219434174Y-111500000D01*
X219307007Y-111534075D01*
X219250000Y-111566988D01*
X219250000Y-110650000D01*
X218602155Y-110650000D01*
X218542627Y-110656401D01*
X218542620Y-110656403D01*
X218407913Y-110706645D01*
X218407906Y-110706649D01*
X218292812Y-110792809D01*
X218292809Y-110792812D01*
X218206649Y-110907906D01*
X218206645Y-110907913D01*
X218156403Y-111042620D01*
X218156401Y-111042627D01*
X218150000Y-111102155D01*
X181849999Y-111102155D01*
X181843598Y-111042627D01*
X181843596Y-111042620D01*
X181793354Y-110907913D01*
X181793350Y-110907906D01*
X181707190Y-110792812D01*
X181707187Y-110792809D01*
X181592093Y-110706649D01*
X181592086Y-110706645D01*
X181457379Y-110656403D01*
X181457372Y-110656401D01*
X181397844Y-110650000D01*
X180750000Y-110650000D01*
X180750000Y-111566988D01*
X180692993Y-111534075D01*
X180565826Y-111500000D01*
X180434174Y-111500000D01*
X180307007Y-111534075D01*
X180250000Y-111566988D01*
X180250000Y-110650000D01*
X179602155Y-110650000D01*
X179542627Y-110656401D01*
X179542620Y-110656403D01*
X179407913Y-110706645D01*
X179407906Y-110706649D01*
X179292812Y-110792809D01*
X179292809Y-110792812D01*
X179206649Y-110907906D01*
X179206645Y-110907913D01*
X179156403Y-111042620D01*
X179156401Y-111042627D01*
X179150000Y-111102155D01*
X176845503Y-111102155D01*
X175786819Y-110043471D01*
X175753334Y-109982148D01*
X175750500Y-109955790D01*
X175750500Y-105044210D01*
X175770185Y-104977171D01*
X175786819Y-104956529D01*
X179861402Y-100881946D01*
X230000000Y-100881946D01*
X230000000Y-101118051D01*
X230036934Y-101351246D01*
X230109897Y-101575801D01*
X230217087Y-101786173D01*
X230277338Y-101869103D01*
X230277340Y-101869104D01*
X231017037Y-101129407D01*
X231034075Y-101192992D01*
X231099901Y-101307006D01*
X231192993Y-101400098D01*
X231307007Y-101465924D01*
X231370590Y-101482961D01*
X230630893Y-102222657D01*
X230713828Y-102282913D01*
X230924197Y-102390101D01*
X231148752Y-102463064D01*
X231148751Y-102463064D01*
X231381948Y-102499999D01*
X231618052Y-102499999D01*
X231851247Y-102463064D01*
X232075802Y-102390101D01*
X232286163Y-102282917D01*
X232286169Y-102282913D01*
X232369104Y-102222657D01*
X232369105Y-102222657D01*
X231629408Y-101482961D01*
X231692993Y-101465924D01*
X231807007Y-101400098D01*
X231900099Y-101307006D01*
X231965925Y-101192992D01*
X231982962Y-101129407D01*
X232722658Y-101869104D01*
X232722658Y-101869103D01*
X232782914Y-101786168D01*
X232782918Y-101786162D01*
X232890102Y-101575801D01*
X232963065Y-101351246D01*
X233000000Y-101118051D01*
X233000000Y-100881946D01*
X232963065Y-100648751D01*
X232890102Y-100424196D01*
X232782914Y-100213827D01*
X232722658Y-100130893D01*
X232722658Y-100130892D01*
X231982962Y-100870589D01*
X231965925Y-100807006D01*
X231900099Y-100692992D01*
X231807007Y-100599900D01*
X231692993Y-100534074D01*
X231629409Y-100517036D01*
X232369105Y-99777339D01*
X232369104Y-99777337D01*
X232286174Y-99717086D01*
X232075802Y-99609896D01*
X231851247Y-99536933D01*
X231851248Y-99536933D01*
X231618052Y-99499999D01*
X231381948Y-99499999D01*
X231148752Y-99536933D01*
X230924197Y-99609896D01*
X230713830Y-99717083D01*
X230630894Y-99777339D01*
X231370591Y-100517036D01*
X231307007Y-100534074D01*
X231192993Y-100599900D01*
X231099901Y-100692992D01*
X231034075Y-100807006D01*
X231017037Y-100870590D01*
X230277340Y-100130893D01*
X230217084Y-100213829D01*
X230109897Y-100424196D01*
X230036934Y-100648751D01*
X230000000Y-100881946D01*
X179861402Y-100881946D01*
X181006431Y-99736917D01*
X181872102Y-98871246D01*
X182740824Y-98002524D01*
X182950946Y-97739039D01*
X183130246Y-97453686D01*
X183276469Y-97150051D01*
X183387776Y-96831954D01*
X183462767Y-96503394D01*
X183500500Y-96168505D01*
X183500500Y-95881902D01*
X217999500Y-95881902D01*
X217999500Y-96118097D01*
X218036447Y-96351369D01*
X218036447Y-96351372D01*
X218109430Y-96575988D01*
X218109430Y-96575989D01*
X218135985Y-96628106D01*
X218149500Y-96684399D01*
X218149500Y-96897869D01*
X218149501Y-96897876D01*
X218155908Y-96957483D01*
X218206202Y-97092328D01*
X218206206Y-97092335D01*
X218292452Y-97207544D01*
X218292455Y-97207547D01*
X218407664Y-97293793D01*
X218407671Y-97293797D01*
X218452618Y-97310561D01*
X218542517Y-97344091D01*
X218602127Y-97350500D01*
X218815598Y-97350499D01*
X218871893Y-97364014D01*
X218924008Y-97390568D01*
X219105059Y-97449395D01*
X219148631Y-97463553D01*
X219381902Y-97500499D01*
X219381908Y-97500500D01*
X230118092Y-97500499D01*
X230699991Y-97500499D01*
X230827111Y-97500499D01*
X230894150Y-97520184D01*
X230914792Y-97536818D01*
X235963181Y-102585207D01*
X235996666Y-102646530D01*
X235999500Y-102672888D01*
X235999500Y-108118097D01*
X236036446Y-108351368D01*
X236109433Y-108575996D01*
X236216657Y-108786434D01*
X236355483Y-108977510D01*
X239247490Y-111869517D01*
X239438566Y-112008343D01*
X239537992Y-112059003D01*
X239649003Y-112115566D01*
X239649005Y-112115566D01*
X239649008Y-112115568D01*
X239769412Y-112154689D01*
X239873631Y-112188553D01*
X240106903Y-112225500D01*
X243343185Y-112225500D01*
X243410224Y-112245185D01*
X243455979Y-112297989D01*
X243465923Y-112367147D01*
X243443503Y-112422385D01*
X243345379Y-112557442D01*
X243248904Y-112746782D01*
X243183242Y-112948869D01*
X243183242Y-112948872D01*
X243150000Y-113158753D01*
X243150000Y-113371246D01*
X243183242Y-113581127D01*
X243183242Y-113581130D01*
X243248904Y-113783217D01*
X243345375Y-113972550D01*
X243384728Y-114026716D01*
X244017037Y-113394408D01*
X244034075Y-113457993D01*
X244099901Y-113572007D01*
X244192993Y-113665099D01*
X244307007Y-113730925D01*
X244370590Y-113747962D01*
X243738282Y-114380269D01*
X243738282Y-114380270D01*
X243792449Y-114419624D01*
X243981782Y-114516095D01*
X244183870Y-114581757D01*
X244393754Y-114615000D01*
X244606246Y-114615000D01*
X244816127Y-114581757D01*
X244816130Y-114581757D01*
X245018217Y-114516095D01*
X245207554Y-114419622D01*
X245261716Y-114380270D01*
X245261717Y-114380270D01*
X244629408Y-113747962D01*
X244692993Y-113730925D01*
X244807007Y-113665099D01*
X244900099Y-113572007D01*
X244965925Y-113457993D01*
X244982962Y-113394408D01*
X245615270Y-114026717D01*
X245615270Y-114026716D01*
X245654622Y-113972554D01*
X245751095Y-113783217D01*
X245816757Y-113581130D01*
X245816757Y-113581127D01*
X245850000Y-113371246D01*
X245850000Y-113158753D01*
X245816757Y-112948872D01*
X245816757Y-112948869D01*
X245751095Y-112746782D01*
X245654624Y-112557449D01*
X245615270Y-112503282D01*
X245615269Y-112503282D01*
X244982962Y-113135590D01*
X244965925Y-113072007D01*
X244900099Y-112957993D01*
X244807007Y-112864901D01*
X244692993Y-112799075D01*
X244629408Y-112782037D01*
X245299627Y-112111818D01*
X245360950Y-112078333D01*
X245387308Y-112075499D01*
X245397871Y-112075499D01*
X245397872Y-112075499D01*
X245457483Y-112069091D01*
X245592331Y-112018796D01*
X245707546Y-111932546D01*
X245793796Y-111817331D01*
X245844091Y-111682483D01*
X245850500Y-111622873D01*
X245850499Y-111409399D01*
X245864014Y-111353105D01*
X245890568Y-111300992D01*
X245963553Y-111076368D01*
X245968898Y-111042620D01*
X246000500Y-110843097D01*
X246000500Y-110606902D01*
X245963553Y-110373631D01*
X245890565Y-110149000D01*
X245864014Y-110096891D01*
X245850499Y-110040597D01*
X245850499Y-109827129D01*
X245850498Y-109827123D01*
X245844091Y-109767516D01*
X245793797Y-109632671D01*
X245793793Y-109632664D01*
X245707547Y-109517455D01*
X245707544Y-109517452D01*
X245592335Y-109431206D01*
X245592328Y-109431202D01*
X245457482Y-109380908D01*
X245457483Y-109380908D01*
X245397883Y-109374501D01*
X245397881Y-109374500D01*
X245397873Y-109374500D01*
X245397865Y-109374500D01*
X245184400Y-109374500D01*
X245128105Y-109360985D01*
X245075996Y-109334433D01*
X244851368Y-109261446D01*
X244618097Y-109224500D01*
X244618092Y-109224500D01*
X240897889Y-109224500D01*
X240830850Y-109204815D01*
X240810208Y-109188181D01*
X239036819Y-107414792D01*
X239003334Y-107353469D01*
X239000500Y-107327111D01*
X239000500Y-105921889D01*
X239020185Y-105854850D01*
X239072989Y-105809095D01*
X239142147Y-105799151D01*
X239205703Y-105828176D01*
X239212175Y-105834202D01*
X239522490Y-106144518D01*
X239682761Y-106260961D01*
X239713567Y-106283343D01*
X239808073Y-106331496D01*
X239924003Y-106390566D01*
X239924005Y-106390566D01*
X239924008Y-106390568D01*
X240044412Y-106429689D01*
X240148631Y-106463553D01*
X240381903Y-106500500D01*
X240381908Y-106500500D01*
X243827111Y-106500500D01*
X243894150Y-106520185D01*
X243914791Y-106536818D01*
X246582787Y-109204815D01*
X249247491Y-111869519D01*
X249247496Y-111869523D01*
X249414155Y-111990606D01*
X249438567Y-112008343D01*
X249551384Y-112065826D01*
X249649003Y-112115566D01*
X249649005Y-112115566D01*
X249649008Y-112115568D01*
X249769412Y-112154689D01*
X249873631Y-112188553D01*
X250106903Y-112225500D01*
X252343185Y-112225500D01*
X252410224Y-112245185D01*
X252455979Y-112297989D01*
X252465923Y-112367147D01*
X252443503Y-112422385D01*
X252345379Y-112557442D01*
X252248904Y-112746782D01*
X252183242Y-112948869D01*
X252183242Y-112948872D01*
X252150000Y-113158753D01*
X252150000Y-113371246D01*
X252183242Y-113581127D01*
X252183242Y-113581130D01*
X252248904Y-113783217D01*
X252345375Y-113972550D01*
X252384728Y-114026716D01*
X253017037Y-113394408D01*
X253034075Y-113457993D01*
X253099901Y-113572007D01*
X253192993Y-113665099D01*
X253307007Y-113730925D01*
X253370590Y-113747962D01*
X252738282Y-114380269D01*
X252738282Y-114380270D01*
X252792449Y-114419624D01*
X252981782Y-114516095D01*
X253183870Y-114581757D01*
X253393754Y-114615000D01*
X253606246Y-114615000D01*
X253816127Y-114581757D01*
X253816130Y-114581757D01*
X254018217Y-114516095D01*
X254207554Y-114419622D01*
X254261716Y-114380270D01*
X254261717Y-114380270D01*
X253629408Y-113747962D01*
X253692993Y-113730925D01*
X253807007Y-113665099D01*
X253900099Y-113572007D01*
X253965925Y-113457993D01*
X253982962Y-113394408D01*
X254615270Y-114026717D01*
X254615270Y-114026716D01*
X254654622Y-113972554D01*
X254751095Y-113783217D01*
X254816757Y-113581130D01*
X254816757Y-113581127D01*
X254850000Y-113371246D01*
X254850000Y-113158753D01*
X254816757Y-112948872D01*
X254816757Y-112948869D01*
X254751095Y-112746782D01*
X254654624Y-112557449D01*
X254615270Y-112503282D01*
X254615269Y-112503282D01*
X253982962Y-113135590D01*
X253965925Y-113072007D01*
X253900099Y-112957993D01*
X253807007Y-112864901D01*
X253692993Y-112799075D01*
X253629408Y-112782037D01*
X254299627Y-112111818D01*
X254360950Y-112078333D01*
X254387308Y-112075499D01*
X254397871Y-112075499D01*
X254397872Y-112075499D01*
X254457483Y-112069091D01*
X254592331Y-112018796D01*
X254707546Y-111932546D01*
X254793796Y-111817331D01*
X254844091Y-111682483D01*
X254850500Y-111622873D01*
X254850499Y-111409399D01*
X254864014Y-111353105D01*
X254890568Y-111300992D01*
X254963553Y-111076368D01*
X254968898Y-111042620D01*
X255000500Y-110843097D01*
X255000500Y-110606902D01*
X254963553Y-110373631D01*
X254890565Y-110149000D01*
X254864014Y-110096891D01*
X254850499Y-110040597D01*
X254850499Y-109827129D01*
X254850498Y-109827123D01*
X254844091Y-109767516D01*
X254793797Y-109632671D01*
X254793793Y-109632664D01*
X254707547Y-109517455D01*
X254707544Y-109517452D01*
X254592335Y-109431206D01*
X254592328Y-109431202D01*
X254457482Y-109380908D01*
X254457483Y-109380908D01*
X254397883Y-109374501D01*
X254397881Y-109374500D01*
X254397873Y-109374500D01*
X254397865Y-109374500D01*
X254184400Y-109374500D01*
X254128105Y-109360985D01*
X254075996Y-109334433D01*
X253851368Y-109261446D01*
X253618097Y-109224500D01*
X253618092Y-109224500D01*
X250897890Y-109224500D01*
X250830851Y-109204815D01*
X250810209Y-109188181D01*
X249672079Y-108050051D01*
X248334207Y-106712180D01*
X248300723Y-106650858D01*
X248305707Y-106581166D01*
X248347579Y-106525233D01*
X248413043Y-106500816D01*
X248421889Y-106500500D01*
X253327111Y-106500500D01*
X253394150Y-106520185D01*
X253414791Y-106536818D01*
X256082787Y-109204815D01*
X258747491Y-111869519D01*
X258747496Y-111869523D01*
X258914155Y-111990606D01*
X258938567Y-112008343D01*
X259051384Y-112065826D01*
X259149003Y-112115566D01*
X259149005Y-112115566D01*
X259149008Y-112115568D01*
X259269412Y-112154689D01*
X259373631Y-112188553D01*
X259606903Y-112225500D01*
X262343185Y-112225500D01*
X262410224Y-112245185D01*
X262455979Y-112297989D01*
X262465923Y-112367147D01*
X262443503Y-112422385D01*
X262345379Y-112557442D01*
X262248904Y-112746782D01*
X262183242Y-112948869D01*
X262183242Y-112948872D01*
X262150000Y-113158753D01*
X262150000Y-113371246D01*
X262183242Y-113581127D01*
X262183242Y-113581130D01*
X262248904Y-113783217D01*
X262345375Y-113972550D01*
X262384728Y-114026716D01*
X263017037Y-113394408D01*
X263034075Y-113457993D01*
X263099901Y-113572007D01*
X263192993Y-113665099D01*
X263307007Y-113730925D01*
X263370590Y-113747962D01*
X262738282Y-114380269D01*
X262738282Y-114380270D01*
X262792449Y-114419624D01*
X262981782Y-114516095D01*
X263183870Y-114581757D01*
X263393754Y-114615000D01*
X263606246Y-114615000D01*
X263816127Y-114581757D01*
X263816130Y-114581757D01*
X264018217Y-114516095D01*
X264207554Y-114419622D01*
X264261716Y-114380270D01*
X264261717Y-114380270D01*
X263629408Y-113747962D01*
X263692993Y-113730925D01*
X263807007Y-113665099D01*
X263900099Y-113572007D01*
X263965925Y-113457993D01*
X263982962Y-113394409D01*
X264615270Y-114026717D01*
X264615270Y-114026716D01*
X264654622Y-113972554D01*
X264751095Y-113783217D01*
X264816757Y-113581130D01*
X264816757Y-113581127D01*
X264850000Y-113371246D01*
X264850000Y-113158753D01*
X264816757Y-112948872D01*
X264816757Y-112948869D01*
X264751095Y-112746782D01*
X264654624Y-112557449D01*
X264615270Y-112503282D01*
X264615269Y-112503282D01*
X263982962Y-113135590D01*
X263965925Y-113072007D01*
X263900099Y-112957993D01*
X263807007Y-112864901D01*
X263692993Y-112799075D01*
X263629408Y-112782037D01*
X264299627Y-112111818D01*
X264360950Y-112078333D01*
X264387308Y-112075499D01*
X264397871Y-112075499D01*
X264397872Y-112075499D01*
X264457483Y-112069091D01*
X264592331Y-112018796D01*
X264707546Y-111932546D01*
X264793796Y-111817331D01*
X264844091Y-111682483D01*
X264850500Y-111622873D01*
X264850499Y-111409399D01*
X264864014Y-111353105D01*
X264890568Y-111300992D01*
X264963553Y-111076368D01*
X264968898Y-111042620D01*
X265000500Y-110843097D01*
X265000500Y-110606902D01*
X264963553Y-110373631D01*
X264890565Y-110149000D01*
X264864014Y-110096891D01*
X264850499Y-110040597D01*
X264850499Y-109827129D01*
X264850498Y-109827123D01*
X264844091Y-109767516D01*
X264793797Y-109632671D01*
X264793793Y-109632664D01*
X264707547Y-109517455D01*
X264707544Y-109517452D01*
X264592335Y-109431206D01*
X264592328Y-109431202D01*
X264457482Y-109380908D01*
X264457483Y-109380908D01*
X264397883Y-109374501D01*
X264397881Y-109374500D01*
X264397873Y-109374500D01*
X264397865Y-109374500D01*
X264184400Y-109374500D01*
X264128105Y-109360985D01*
X264075996Y-109334433D01*
X263851368Y-109261446D01*
X263618097Y-109224500D01*
X263618092Y-109224500D01*
X260397890Y-109224500D01*
X260330851Y-109204815D01*
X260310209Y-109188181D01*
X254977512Y-103855485D01*
X254977511Y-103855484D01*
X254786434Y-103716657D01*
X254575996Y-103609433D01*
X254351368Y-103536446D01*
X254118097Y-103499500D01*
X254118092Y-103499500D01*
X244618092Y-103499500D01*
X241172890Y-103499500D01*
X241105851Y-103479815D01*
X241085209Y-103463181D01*
X238477510Y-100855483D01*
X237542719Y-99920692D01*
X236363590Y-98741562D01*
X235334208Y-97712180D01*
X235300723Y-97650857D01*
X235305707Y-97581165D01*
X235347579Y-97525232D01*
X235413043Y-97500815D01*
X235421889Y-97500499D01*
X236618098Y-97500499D01*
X236851369Y-97463552D01*
X236881733Y-97453686D01*
X237075993Y-97390567D01*
X237286435Y-97283342D01*
X237477511Y-97144516D01*
X241085208Y-93536819D01*
X241146531Y-93503334D01*
X241172889Y-93500500D01*
X243881908Y-93500500D01*
X244102111Y-93500500D01*
X244169150Y-93520185D01*
X244189792Y-93536819D01*
X247613181Y-96960208D01*
X247646666Y-97021531D01*
X247649500Y-97047887D01*
X247649500Y-97122869D01*
X247649501Y-97122876D01*
X247655908Y-97182483D01*
X247706202Y-97317328D01*
X247706206Y-97317335D01*
X247792452Y-97432544D01*
X247792455Y-97432547D01*
X247907664Y-97518793D01*
X247907671Y-97518797D01*
X247952618Y-97535561D01*
X248042517Y-97569091D01*
X248102127Y-97575500D01*
X248112685Y-97575499D01*
X248179723Y-97595179D01*
X248200372Y-97611818D01*
X248870591Y-98282037D01*
X248807007Y-98299075D01*
X248692993Y-98364901D01*
X248599901Y-98457993D01*
X248534075Y-98572007D01*
X248517037Y-98635590D01*
X247884728Y-98003282D01*
X247884727Y-98003282D01*
X247845380Y-98057439D01*
X247748904Y-98246782D01*
X247683242Y-98448869D01*
X247683242Y-98448872D01*
X247650000Y-98658753D01*
X247650000Y-98871246D01*
X247683242Y-99081127D01*
X247683242Y-99081130D01*
X247748903Y-99283214D01*
X247748902Y-99283214D01*
X247845375Y-99472550D01*
X247884728Y-99526716D01*
X248517037Y-98894408D01*
X248534075Y-98957993D01*
X248599901Y-99072007D01*
X248692993Y-99165099D01*
X248807007Y-99230925D01*
X248870590Y-99247962D01*
X248238282Y-99880269D01*
X248238282Y-99880270D01*
X248292449Y-99919624D01*
X248481782Y-100016095D01*
X248683870Y-100081757D01*
X248893754Y-100115000D01*
X249106246Y-100115000D01*
X249316127Y-100081757D01*
X249316130Y-100081757D01*
X249518217Y-100016095D01*
X249707554Y-99919622D01*
X249761716Y-99880270D01*
X249761717Y-99880270D01*
X249129408Y-99247962D01*
X249192993Y-99230925D01*
X249307007Y-99165099D01*
X249400099Y-99072007D01*
X249465925Y-98957993D01*
X249482962Y-98894408D01*
X250115270Y-99526717D01*
X250115270Y-99526716D01*
X250154622Y-99472554D01*
X250251097Y-99283214D01*
X250316757Y-99081130D01*
X250316757Y-99081127D01*
X250350000Y-98871246D01*
X250350000Y-98658753D01*
X250316757Y-98448872D01*
X250316757Y-98448869D01*
X250251095Y-98246782D01*
X250154624Y-98057449D01*
X250115270Y-98003282D01*
X250115269Y-98003282D01*
X249482962Y-98635590D01*
X249465925Y-98572007D01*
X249400099Y-98457993D01*
X249307007Y-98364901D01*
X249192993Y-98299075D01*
X249129409Y-98282037D01*
X249799627Y-97611818D01*
X249860950Y-97578333D01*
X249887308Y-97575499D01*
X249897871Y-97575499D01*
X249897872Y-97575499D01*
X249957483Y-97569091D01*
X250092331Y-97518796D01*
X250207546Y-97432546D01*
X250293796Y-97317331D01*
X250344091Y-97182483D01*
X250350500Y-97122873D01*
X250350499Y-96909399D01*
X250364014Y-96853105D01*
X250390568Y-96800992D01*
X250463552Y-96576368D01*
X250482587Y-96456184D01*
X250500499Y-96343097D01*
X250500499Y-96106902D01*
X250479004Y-95971197D01*
X250463552Y-95873631D01*
X250390568Y-95649008D01*
X250390374Y-95648627D01*
X250364014Y-95596891D01*
X250350499Y-95540597D01*
X250350499Y-95327129D01*
X250350498Y-95327123D01*
X250349259Y-95315599D01*
X250344091Y-95267517D01*
X250293796Y-95132669D01*
X250293795Y-95132668D01*
X250293793Y-95132664D01*
X250207547Y-95017455D01*
X250207544Y-95017452D01*
X250092335Y-94931206D01*
X250092328Y-94931202D01*
X249957482Y-94880908D01*
X249957483Y-94880908D01*
X249897883Y-94874501D01*
X249897881Y-94874500D01*
X249897873Y-94874500D01*
X249897865Y-94874500D01*
X249822889Y-94874500D01*
X249755850Y-94854815D01*
X249735208Y-94838181D01*
X248609208Y-93712181D01*
X248575723Y-93650858D01*
X248580707Y-93581166D01*
X248622579Y-93525233D01*
X248688043Y-93500816D01*
X248696889Y-93500500D01*
X253602111Y-93500500D01*
X253669150Y-93520185D01*
X253689792Y-93536819D01*
X257113181Y-96960208D01*
X257146666Y-97021531D01*
X257149500Y-97047887D01*
X257149500Y-97122869D01*
X257149501Y-97122876D01*
X257155908Y-97182483D01*
X257206202Y-97317328D01*
X257206206Y-97317335D01*
X257292452Y-97432544D01*
X257292455Y-97432547D01*
X257407664Y-97518793D01*
X257407671Y-97518797D01*
X257452618Y-97535561D01*
X257542517Y-97569091D01*
X257602127Y-97575500D01*
X257612685Y-97575499D01*
X257679723Y-97595179D01*
X257700372Y-97611818D01*
X258370591Y-98282037D01*
X258307007Y-98299075D01*
X258192993Y-98364901D01*
X258099901Y-98457993D01*
X258034075Y-98572007D01*
X258017037Y-98635590D01*
X257384728Y-98003282D01*
X257384727Y-98003282D01*
X257345380Y-98057439D01*
X257248904Y-98246782D01*
X257183242Y-98448869D01*
X257183242Y-98448872D01*
X257150000Y-98658753D01*
X257150000Y-98871246D01*
X257183242Y-99081127D01*
X257183242Y-99081130D01*
X257248903Y-99283214D01*
X257248902Y-99283214D01*
X257345375Y-99472550D01*
X257384728Y-99526716D01*
X258017037Y-98894408D01*
X258034075Y-98957993D01*
X258099901Y-99072007D01*
X258192993Y-99165099D01*
X258307007Y-99230925D01*
X258370590Y-99247962D01*
X257738282Y-99880269D01*
X257738282Y-99880270D01*
X257792449Y-99919624D01*
X257981782Y-100016095D01*
X258183870Y-100081757D01*
X258393754Y-100115000D01*
X258606246Y-100115000D01*
X258816127Y-100081757D01*
X258816130Y-100081757D01*
X259018217Y-100016095D01*
X259207554Y-99919622D01*
X259261716Y-99880270D01*
X259261717Y-99880270D01*
X258629408Y-99247962D01*
X258692993Y-99230925D01*
X258807007Y-99165099D01*
X258900099Y-99072007D01*
X258965925Y-98957993D01*
X258982962Y-98894408D01*
X259615270Y-99526717D01*
X259615270Y-99526716D01*
X259654622Y-99472554D01*
X259751097Y-99283214D01*
X259816757Y-99081130D01*
X259816757Y-99081127D01*
X259850000Y-98871246D01*
X259850000Y-98658753D01*
X259816757Y-98448872D01*
X259816757Y-98448869D01*
X259751095Y-98246782D01*
X259654624Y-98057449D01*
X259615270Y-98003282D01*
X259615269Y-98003282D01*
X258982962Y-98635590D01*
X258965925Y-98572007D01*
X258900099Y-98457993D01*
X258807007Y-98364901D01*
X258692993Y-98299075D01*
X258629409Y-98282037D01*
X259299627Y-97611818D01*
X259360950Y-97578333D01*
X259387308Y-97575499D01*
X259397871Y-97575499D01*
X259397872Y-97575499D01*
X259457483Y-97569091D01*
X259592331Y-97518796D01*
X259707546Y-97432546D01*
X259793796Y-97317331D01*
X259844091Y-97182483D01*
X259850500Y-97122873D01*
X259850499Y-96909399D01*
X259864014Y-96853105D01*
X259890568Y-96800992D01*
X259963552Y-96576368D01*
X259982587Y-96456184D01*
X260000499Y-96343097D01*
X260000499Y-96106902D01*
X259979004Y-95971197D01*
X259963552Y-95873631D01*
X259890568Y-95649008D01*
X259890374Y-95648627D01*
X259864014Y-95596891D01*
X259850499Y-95540597D01*
X259850499Y-95327129D01*
X259850498Y-95327123D01*
X259849259Y-95315599D01*
X259844091Y-95267517D01*
X259793796Y-95132669D01*
X259793795Y-95132668D01*
X259793793Y-95132664D01*
X259707547Y-95017455D01*
X259707544Y-95017452D01*
X259592335Y-94931206D01*
X259592328Y-94931202D01*
X259457482Y-94880908D01*
X259457483Y-94880908D01*
X259397883Y-94874501D01*
X259397881Y-94874500D01*
X259397873Y-94874500D01*
X259397865Y-94874500D01*
X259322889Y-94874500D01*
X259255850Y-94854815D01*
X259235208Y-94838181D01*
X255252511Y-90855484D01*
X255236151Y-90843598D01*
X255061434Y-90716657D01*
X255042848Y-90707187D01*
X254850996Y-90609433D01*
X254626368Y-90536446D01*
X254393097Y-90499500D01*
X254393092Y-90499500D01*
X244118092Y-90499500D01*
X240618092Y-90499500D01*
X240381908Y-90499500D01*
X240381903Y-90499500D01*
X240148631Y-90536446D01*
X239924003Y-90609433D01*
X239713566Y-90716657D01*
X239608008Y-90793350D01*
X239522490Y-90855483D01*
X239522488Y-90855485D01*
X239522487Y-90855485D01*
X235914793Y-94463180D01*
X235853470Y-94496665D01*
X235827112Y-94499499D01*
X219381902Y-94499499D01*
X219148630Y-94536447D01*
X219148627Y-94536447D01*
X218924009Y-94609431D01*
X218924008Y-94609431D01*
X218871893Y-94635985D01*
X218815600Y-94649500D01*
X218602130Y-94649500D01*
X218602123Y-94649501D01*
X218542516Y-94655908D01*
X218407671Y-94706202D01*
X218407664Y-94706206D01*
X218292455Y-94792452D01*
X218292452Y-94792455D01*
X218206206Y-94907664D01*
X218206202Y-94907671D01*
X218155908Y-95042517D01*
X218149501Y-95102116D01*
X218149500Y-95102135D01*
X218149500Y-95315599D01*
X218135985Y-95371893D01*
X218109430Y-95424009D01*
X218109430Y-95424011D01*
X218036447Y-95648627D01*
X218036447Y-95648630D01*
X217999500Y-95881902D01*
X183500500Y-95881902D01*
X183500500Y-95831495D01*
X183462767Y-95496606D01*
X183387776Y-95168047D01*
X183375397Y-95132671D01*
X183335081Y-95017454D01*
X183276469Y-94849949D01*
X183130246Y-94546314D01*
X182950946Y-94260961D01*
X182740824Y-93997477D01*
X182502523Y-93759176D01*
X182239039Y-93549054D01*
X181953686Y-93369754D01*
X181953683Y-93369752D01*
X181650054Y-93223532D01*
X181331964Y-93112227D01*
X181331952Y-93112223D01*
X181003397Y-93037233D01*
X181003381Y-93037231D01*
X180668509Y-92999500D01*
X180668505Y-92999500D01*
X180331495Y-92999500D01*
X180331490Y-92999500D01*
X179996618Y-93037231D01*
X179996602Y-93037233D01*
X179668046Y-93112223D01*
X179668034Y-93112227D01*
X179349945Y-93223532D01*
X179046316Y-93369752D01*
X178760962Y-93549053D01*
X178497476Y-93759175D01*
X175962181Y-96294471D01*
X175900858Y-96327956D01*
X175831166Y-96322972D01*
X175775233Y-96281100D01*
X175750816Y-96215636D01*
X175750500Y-96206790D01*
X175750500Y-88602155D01*
X179150000Y-88602155D01*
X179150000Y-89250000D01*
X180066988Y-89250000D01*
X180034075Y-89307007D01*
X180000000Y-89434174D01*
X180000000Y-89565826D01*
X180034075Y-89692993D01*
X180066988Y-89750000D01*
X179150000Y-89750000D01*
X179150000Y-90397844D01*
X179156401Y-90457372D01*
X179156403Y-90457379D01*
X179206645Y-90592086D01*
X179206649Y-90592093D01*
X179292809Y-90707187D01*
X179292812Y-90707190D01*
X179407906Y-90793350D01*
X179407913Y-90793354D01*
X179542620Y-90843596D01*
X179542627Y-90843598D01*
X179602155Y-90849999D01*
X179602172Y-90850000D01*
X180250000Y-90850000D01*
X180250000Y-89933012D01*
X180307007Y-89965925D01*
X180434174Y-90000000D01*
X180565826Y-90000000D01*
X180692993Y-89965925D01*
X180750000Y-89933012D01*
X180750000Y-90850000D01*
X181397828Y-90850000D01*
X181397844Y-90849999D01*
X181457372Y-90843598D01*
X181457379Y-90843596D01*
X181592086Y-90793354D01*
X181592093Y-90793350D01*
X181707187Y-90707190D01*
X181707190Y-90707187D01*
X181793350Y-90592093D01*
X181793354Y-90592086D01*
X181843596Y-90457379D01*
X181843598Y-90457372D01*
X181849999Y-90397844D01*
X181850000Y-90397827D01*
X181850000Y-89750000D01*
X180933012Y-89750000D01*
X180965925Y-89692993D01*
X181000000Y-89565826D01*
X181000000Y-89434174D01*
X180965925Y-89307007D01*
X180933012Y-89250000D01*
X181850000Y-89250000D01*
X181850000Y-88602172D01*
X181849999Y-88602155D01*
X218150000Y-88602155D01*
X218150000Y-89250000D01*
X219066988Y-89250000D01*
X219034075Y-89307007D01*
X219000000Y-89434174D01*
X219000000Y-89565826D01*
X219034075Y-89692993D01*
X219066988Y-89750000D01*
X218150000Y-89750000D01*
X218150000Y-90397844D01*
X218156401Y-90457372D01*
X218156403Y-90457379D01*
X218206645Y-90592086D01*
X218206649Y-90592093D01*
X218292809Y-90707187D01*
X218292812Y-90707190D01*
X218407906Y-90793350D01*
X218407913Y-90793354D01*
X218542620Y-90843596D01*
X218542627Y-90843598D01*
X218602155Y-90849999D01*
X218602172Y-90850000D01*
X219250000Y-90850000D01*
X219250000Y-89933012D01*
X219307007Y-89965925D01*
X219434174Y-90000000D01*
X219565826Y-90000000D01*
X219692993Y-89965925D01*
X219750000Y-89933012D01*
X219750000Y-90850000D01*
X220397828Y-90850000D01*
X220397844Y-90849999D01*
X220457372Y-90843598D01*
X220457379Y-90843596D01*
X220592086Y-90793354D01*
X220592093Y-90793350D01*
X220707187Y-90707190D01*
X220707190Y-90707187D01*
X220793350Y-90592093D01*
X220793354Y-90592086D01*
X220843596Y-90457379D01*
X220843598Y-90457372D01*
X220849999Y-90397844D01*
X220850000Y-90397827D01*
X220850000Y-89750000D01*
X219933012Y-89750000D01*
X219965925Y-89692993D01*
X220000000Y-89565826D01*
X220000000Y-89434174D01*
X219965925Y-89307007D01*
X219933012Y-89250000D01*
X220850000Y-89250000D01*
X220850000Y-88602172D01*
X220849999Y-88602155D01*
X220843598Y-88542627D01*
X220843596Y-88542620D01*
X220793354Y-88407913D01*
X220793350Y-88407906D01*
X220707190Y-88292812D01*
X220707187Y-88292809D01*
X220592093Y-88206649D01*
X220592086Y-88206645D01*
X220457379Y-88156403D01*
X220457372Y-88156401D01*
X220397844Y-88150000D01*
X219750000Y-88150000D01*
X219750000Y-89066988D01*
X219692993Y-89034075D01*
X219565826Y-89000000D01*
X219434174Y-89000000D01*
X219307007Y-89034075D01*
X219250000Y-89066988D01*
X219250000Y-88150000D01*
X218602155Y-88150000D01*
X218542627Y-88156401D01*
X218542620Y-88156403D01*
X218407913Y-88206645D01*
X218407906Y-88206649D01*
X218292812Y-88292809D01*
X218292809Y-88292812D01*
X218206649Y-88407906D01*
X218206645Y-88407913D01*
X218156403Y-88542620D01*
X218156401Y-88542627D01*
X218150000Y-88602155D01*
X181849999Y-88602155D01*
X181843598Y-88542627D01*
X181843596Y-88542620D01*
X181793354Y-88407913D01*
X181793350Y-88407906D01*
X181707190Y-88292812D01*
X181707187Y-88292809D01*
X181592093Y-88206649D01*
X181592086Y-88206645D01*
X181457379Y-88156403D01*
X181457372Y-88156401D01*
X181397844Y-88150000D01*
X180750000Y-88150000D01*
X180750000Y-89066988D01*
X180692993Y-89034075D01*
X180565826Y-89000000D01*
X180434174Y-89000000D01*
X180307007Y-89034075D01*
X180250000Y-89066988D01*
X180250000Y-88150000D01*
X179602155Y-88150000D01*
X179542627Y-88156401D01*
X179542620Y-88156403D01*
X179407913Y-88206645D01*
X179407906Y-88206649D01*
X179292812Y-88292809D01*
X179292809Y-88292812D01*
X179206649Y-88407906D01*
X179206645Y-88407913D01*
X179156403Y-88542620D01*
X179156401Y-88542627D01*
X179150000Y-88602155D01*
X175750500Y-88602155D01*
X175750500Y-85014270D01*
X229000000Y-85014270D01*
X229000000Y-85250375D01*
X229036934Y-85483570D01*
X229109897Y-85708125D01*
X229217087Y-85918497D01*
X229277338Y-86001427D01*
X229277340Y-86001428D01*
X230017037Y-85261731D01*
X230034075Y-85325316D01*
X230099901Y-85439330D01*
X230192993Y-85532422D01*
X230307007Y-85598248D01*
X230370590Y-85615285D01*
X229630893Y-86354981D01*
X229713828Y-86415237D01*
X229924197Y-86522425D01*
X230148752Y-86595388D01*
X230148751Y-86595388D01*
X230381948Y-86632323D01*
X230618052Y-86632323D01*
X230851247Y-86595388D01*
X231075802Y-86522425D01*
X231286163Y-86415241D01*
X231286169Y-86415237D01*
X231369104Y-86354981D01*
X231369105Y-86354981D01*
X230629408Y-85615285D01*
X230692993Y-85598248D01*
X230807007Y-85532422D01*
X230900099Y-85439330D01*
X230965925Y-85325316D01*
X230982962Y-85261732D01*
X231722658Y-86001428D01*
X231722658Y-86001427D01*
X231782914Y-85918492D01*
X231782918Y-85918486D01*
X231890102Y-85708125D01*
X231963065Y-85483570D01*
X232000000Y-85250375D01*
X232000000Y-85014270D01*
X231963065Y-84781075D01*
X231890102Y-84556520D01*
X231782914Y-84346151D01*
X231722658Y-84263217D01*
X231722658Y-84263216D01*
X230982962Y-85002913D01*
X230965925Y-84939330D01*
X230900099Y-84825316D01*
X230807007Y-84732224D01*
X230692993Y-84666398D01*
X230629409Y-84649360D01*
X231369105Y-83909663D01*
X231369104Y-83909661D01*
X231286174Y-83849410D01*
X231075802Y-83742220D01*
X230851247Y-83669257D01*
X230851248Y-83669257D01*
X230618052Y-83632323D01*
X230381948Y-83632323D01*
X230148752Y-83669257D01*
X229924197Y-83742220D01*
X229713830Y-83849407D01*
X229630894Y-83909663D01*
X230370591Y-84649360D01*
X230307007Y-84666398D01*
X230192993Y-84732224D01*
X230099901Y-84825316D01*
X230034075Y-84939330D01*
X230017037Y-85002913D01*
X229277340Y-84263217D01*
X229217084Y-84346153D01*
X229109897Y-84556520D01*
X229036934Y-84781075D01*
X229000000Y-85014270D01*
X175750500Y-85014270D01*
X175750500Y-82544210D01*
X175770185Y-82477171D01*
X175786819Y-82456529D01*
X179247780Y-78995568D01*
X182740824Y-75502524D01*
X182950946Y-75239039D01*
X183130246Y-74953686D01*
X183276469Y-74650051D01*
X183387776Y-74331954D01*
X183462767Y-74003394D01*
X183500500Y-73668505D01*
X183500500Y-73331495D01*
X183500500Y-73331491D01*
X216499500Y-73331491D01*
X216499500Y-73668508D01*
X216537231Y-74003381D01*
X216537233Y-74003397D01*
X216612223Y-74331953D01*
X216612227Y-74331965D01*
X216723532Y-74650054D01*
X216869752Y-74953683D01*
X216905530Y-75010623D01*
X217049054Y-75239039D01*
X217259175Y-75502523D01*
X217497477Y-75740825D01*
X217760961Y-75950946D01*
X218046314Y-76130246D01*
X218349949Y-76276469D01*
X218588244Y-76359852D01*
X218668034Y-76387772D01*
X218668046Y-76387776D01*
X218996606Y-76462767D01*
X219331492Y-76500499D01*
X219331493Y-76500500D01*
X219331496Y-76500500D01*
X222705790Y-76500500D01*
X222772829Y-76520185D01*
X222793471Y-76536819D01*
X228497476Y-82240824D01*
X228760961Y-82450946D01*
X229046314Y-82630246D01*
X229349949Y-82776469D01*
X229557382Y-82849053D01*
X229668034Y-82887772D01*
X229668046Y-82887776D01*
X229996606Y-82962767D01*
X230331491Y-83000499D01*
X230331492Y-83000500D01*
X230331495Y-83000500D01*
X244668507Y-83000500D01*
X244668507Y-83000499D01*
X245003394Y-82962767D01*
X245331954Y-82887776D01*
X245650051Y-82776469D01*
X245953686Y-82630246D01*
X246239039Y-82450946D01*
X246502523Y-82240825D01*
X246740825Y-82002523D01*
X246950946Y-81739039D01*
X247130246Y-81453686D01*
X247276469Y-81150051D01*
X247387776Y-80831954D01*
X247462767Y-80503394D01*
X247500500Y-80168504D01*
X247500500Y-79831496D01*
X247462767Y-79496606D01*
X247387776Y-79168046D01*
X247276469Y-78849949D01*
X247130246Y-78546314D01*
X246950946Y-78260961D01*
X246740825Y-77997477D01*
X246502523Y-77759175D01*
X246239039Y-77549054D01*
X245953686Y-77369754D01*
X245953683Y-77369752D01*
X245650054Y-77223532D01*
X245331965Y-77112227D01*
X245331953Y-77112223D01*
X245077518Y-77054151D01*
X245016539Y-77020043D01*
X244983681Y-76958381D01*
X244989376Y-76888744D01*
X245031816Y-76833240D01*
X245073018Y-76813485D01*
X245112046Y-76803027D01*
X245342148Y-76707716D01*
X245342159Y-76707711D01*
X245557855Y-76583178D01*
X245655045Y-76508600D01*
X245655045Y-76508597D01*
X245559116Y-76412668D01*
X245474482Y-76328034D01*
X255999500Y-76328034D01*
X255999500Y-76671965D01*
X256033210Y-77014249D01*
X256100308Y-77351572D01*
X256200150Y-77680706D01*
X256331770Y-77998464D01*
X256331772Y-77998469D01*
X256493893Y-78301775D01*
X256493904Y-78301793D01*
X256684975Y-78587751D01*
X256684985Y-78587765D01*
X256903176Y-78853632D01*
X257146367Y-79096823D01*
X257146372Y-79096827D01*
X257146373Y-79096828D01*
X257412240Y-79315019D01*
X257698213Y-79506100D01*
X257698222Y-79506105D01*
X257698224Y-79506106D01*
X258001530Y-79668227D01*
X258001532Y-79668227D01*
X258001538Y-79668231D01*
X258319295Y-79799850D01*
X258648422Y-79899690D01*
X258985750Y-79966789D01*
X259328031Y-80000500D01*
X259328034Y-80000500D01*
X259671966Y-80000500D01*
X259671969Y-80000500D01*
X260014250Y-79966789D01*
X260351578Y-79899690D01*
X260680705Y-79799850D01*
X260998462Y-79668231D01*
X261301787Y-79506100D01*
X261587760Y-79315019D01*
X261853627Y-79096828D01*
X262096828Y-78853627D01*
X262315019Y-78587760D01*
X262506100Y-78301787D01*
X262668231Y-77998462D01*
X262799850Y-77680705D01*
X262899690Y-77351578D01*
X262966789Y-77014250D01*
X263000500Y-76671969D01*
X263000500Y-76328031D01*
X262966789Y-75985750D01*
X262899690Y-75648422D01*
X262799850Y-75319295D01*
X262668231Y-75001538D01*
X262667409Y-75000001D01*
X262506106Y-74698224D01*
X262506105Y-74698222D01*
X262506100Y-74698213D01*
X262315019Y-74412240D01*
X262096828Y-74146373D01*
X262096827Y-74146372D01*
X262096823Y-74146367D01*
X261853632Y-73903176D01*
X261587765Y-73684985D01*
X261587764Y-73684984D01*
X261587760Y-73684981D01*
X261301787Y-73493900D01*
X261301782Y-73493897D01*
X261301775Y-73493893D01*
X260998469Y-73331772D01*
X260998464Y-73331770D01*
X260997800Y-73331495D01*
X260903134Y-73292283D01*
X260680706Y-73200150D01*
X260351572Y-73100308D01*
X260014248Y-73033210D01*
X260014249Y-73033210D01*
X259756456Y-73007821D01*
X259671969Y-72999500D01*
X259328031Y-72999500D01*
X259249966Y-73007188D01*
X258985750Y-73033210D01*
X258648427Y-73100308D01*
X258319293Y-73200150D01*
X258001535Y-73331770D01*
X258001530Y-73331772D01*
X257698224Y-73493893D01*
X257698206Y-73493904D01*
X257412248Y-73684975D01*
X257412234Y-73684985D01*
X257146367Y-73903176D01*
X256903176Y-74146367D01*
X256684985Y-74412234D01*
X256684975Y-74412248D01*
X256493904Y-74698206D01*
X256493893Y-74698224D01*
X256331772Y-75001530D01*
X256331770Y-75001535D01*
X256200150Y-75319293D01*
X256100308Y-75648427D01*
X256033210Y-75985750D01*
X256007188Y-76249966D01*
X256004579Y-76276467D01*
X255999500Y-76328034D01*
X245474482Y-76328034D01*
X244747488Y-75601041D01*
X244807890Y-75576022D01*
X244914351Y-75504888D01*
X245004888Y-75414351D01*
X245076022Y-75307890D01*
X245101041Y-75247489D01*
X246008597Y-76155045D01*
X246008600Y-76155045D01*
X246083178Y-76057855D01*
X246207711Y-75842159D01*
X246207716Y-75842148D01*
X246303026Y-75612049D01*
X246367491Y-75371463D01*
X246400000Y-75124533D01*
X246400000Y-74875466D01*
X246367491Y-74628536D01*
X246303026Y-74387950D01*
X246207716Y-74157851D01*
X246207711Y-74157840D01*
X246083186Y-73942158D01*
X246083180Y-73942150D01*
X246008598Y-73844953D01*
X245101041Y-74752510D01*
X245076022Y-74692110D01*
X245004888Y-74585649D01*
X244914351Y-74495112D01*
X244807890Y-74423978D01*
X244747487Y-74398957D01*
X245655045Y-73491400D01*
X245557849Y-73416819D01*
X245557841Y-73416813D01*
X245342159Y-73292288D01*
X245342148Y-73292283D01*
X245112049Y-73196973D01*
X244871463Y-73132508D01*
X244624534Y-73100000D01*
X244375466Y-73100000D01*
X244128536Y-73132508D01*
X243887950Y-73196973D01*
X243657851Y-73292283D01*
X243657847Y-73292285D01*
X243442143Y-73416823D01*
X243344953Y-73491399D01*
X243344953Y-73491400D01*
X244252511Y-74398958D01*
X244192110Y-74423978D01*
X244085649Y-74495112D01*
X243995112Y-74585649D01*
X243923978Y-74692110D01*
X243898958Y-74752511D01*
X242991400Y-73844953D01*
X242991399Y-73844953D01*
X242916823Y-73942143D01*
X242792285Y-74157847D01*
X242792283Y-74157851D01*
X242696973Y-74387950D01*
X242632508Y-74628536D01*
X242600000Y-74875466D01*
X242600000Y-75124533D01*
X242632508Y-75371463D01*
X242696973Y-75612049D01*
X242792283Y-75842148D01*
X242792288Y-75842159D01*
X242916813Y-76057841D01*
X242916819Y-76057849D01*
X242991400Y-76155045D01*
X243898958Y-75247487D01*
X243923978Y-75307890D01*
X243995112Y-75414351D01*
X244085649Y-75504888D01*
X244192110Y-75576022D01*
X244252511Y-75601041D01*
X243344953Y-76508598D01*
X243442150Y-76583180D01*
X243442158Y-76583186D01*
X243657840Y-76707711D01*
X243657851Y-76707716D01*
X243786342Y-76760939D01*
X243840745Y-76804780D01*
X243862810Y-76871074D01*
X243845531Y-76938773D01*
X243794394Y-76986384D01*
X243738889Y-76999500D01*
X231794210Y-76999500D01*
X231727171Y-76979815D01*
X231706529Y-76963181D01*
X226002523Y-71259175D01*
X225935607Y-71205812D01*
X225739039Y-71049054D01*
X225453686Y-70869754D01*
X225453683Y-70869752D01*
X225150054Y-70723532D01*
X224831965Y-70612227D01*
X224831953Y-70612223D01*
X224503397Y-70537233D01*
X224503381Y-70537231D01*
X224168509Y-70499500D01*
X224168505Y-70499500D01*
X224168504Y-70499500D01*
X219331496Y-70499500D01*
X219331491Y-70499500D01*
X218996618Y-70537231D01*
X218996602Y-70537233D01*
X218668046Y-70612223D01*
X218668034Y-70612227D01*
X218349945Y-70723532D01*
X218046316Y-70869752D01*
X217760962Y-71049053D01*
X217497477Y-71259174D01*
X217259174Y-71497477D01*
X217049053Y-71760962D01*
X216869752Y-72046316D01*
X216723532Y-72349945D01*
X216612227Y-72668034D01*
X216612223Y-72668046D01*
X216537233Y-72996602D01*
X216537231Y-72996618D01*
X216499500Y-73331491D01*
X183500500Y-73331491D01*
X183462767Y-72996606D01*
X183387776Y-72668047D01*
X183387771Y-72668034D01*
X183342002Y-72537233D01*
X183276469Y-72349949D01*
X183130246Y-72046314D01*
X182950946Y-71760961D01*
X182740824Y-71497477D01*
X182502523Y-71259176D01*
X182502520Y-71259174D01*
X182435608Y-71205813D01*
X182239039Y-71049054D01*
X181953686Y-70869754D01*
X181953683Y-70869752D01*
X181650054Y-70723532D01*
X181331964Y-70612227D01*
X181331952Y-70612223D01*
X181003397Y-70537233D01*
X181003381Y-70537231D01*
X180668509Y-70499500D01*
X180668505Y-70499500D01*
X180331495Y-70499500D01*
X180331490Y-70499500D01*
X179996618Y-70537231D01*
X179996602Y-70537233D01*
X179668046Y-70612223D01*
X179668034Y-70612227D01*
X179349945Y-70723532D01*
X179046316Y-70869752D01*
X178760962Y-71049053D01*
X178497476Y-71259175D01*
X170509174Y-79247477D01*
X170299053Y-79510962D01*
X170119752Y-79796316D01*
X169973532Y-80099945D01*
X169862227Y-80418034D01*
X169862223Y-80418046D01*
X169787233Y-80746602D01*
X169787231Y-80746618D01*
X169749500Y-81081491D01*
X169749500Y-95375500D01*
X169729815Y-95442539D01*
X169677011Y-95488294D01*
X169625500Y-95499500D01*
X157331490Y-95499500D01*
X157095547Y-95526085D01*
X157095546Y-95526085D01*
X156996619Y-95537230D01*
X156996602Y-95537233D01*
X156668046Y-95612223D01*
X156668034Y-95612227D01*
X156349945Y-95723532D01*
X156046316Y-95869752D01*
X155760962Y-96049053D01*
X155611750Y-96168046D01*
X155611749Y-96168046D01*
X155497482Y-96259169D01*
X155497478Y-96259173D01*
X152470693Y-99285957D01*
X152439308Y-99308760D01*
X152286945Y-99386394D01*
X152200318Y-99449332D01*
X152113694Y-99512269D01*
X152113692Y-99512271D01*
X152113691Y-99512271D01*
X151962271Y-99663691D01*
X151962271Y-99663692D01*
X151962269Y-99663694D01*
X151909069Y-99736917D01*
X151836394Y-99836945D01*
X151758760Y-99989308D01*
X151735957Y-100020693D01*
X150997477Y-100759175D01*
X150759174Y-100997477D01*
X150586850Y-101213566D01*
X150586849Y-101213565D01*
X150549052Y-101260963D01*
X150369752Y-101546316D01*
X150223532Y-101849945D01*
X150112227Y-102168034D01*
X150112223Y-102168046D01*
X150037233Y-102496603D01*
X150037230Y-102496620D01*
X150024988Y-102605278D01*
X150024988Y-102605280D01*
X150024966Y-102605483D01*
X149999500Y-102831496D01*
X148900500Y-102831496D01*
X148900500Y-99134210D01*
X148920185Y-99067171D01*
X148936819Y-99046529D01*
X153102440Y-94880908D01*
X157280824Y-90702524D01*
X157490946Y-90439039D01*
X157670246Y-90153686D01*
X157816469Y-89850051D01*
X157927776Y-89531954D01*
X158002767Y-89203394D01*
X158040500Y-88868505D01*
X158040500Y-88531495D01*
X158040500Y-85131496D01*
X158002767Y-84796606D01*
X157927776Y-84468046D01*
X157816469Y-84149949D01*
X157670246Y-83846314D01*
X157490946Y-83560961D01*
X157280825Y-83297477D01*
X157042523Y-83059175D01*
X156779039Y-82849054D01*
X156493686Y-82669754D01*
X156493683Y-82669752D01*
X156190054Y-82523532D01*
X155871965Y-82412227D01*
X155871953Y-82412223D01*
X155543397Y-82337233D01*
X155543381Y-82337231D01*
X155208508Y-82299500D01*
X155208504Y-82299500D01*
X154871496Y-82299500D01*
X154871491Y-82299500D01*
X154536618Y-82337231D01*
X154536602Y-82337233D01*
X154208046Y-82412223D01*
X154208034Y-82412227D01*
X153889945Y-82523532D01*
X153586316Y-82669752D01*
X153300962Y-82849053D01*
X153037477Y-83059174D01*
X152799174Y-83297477D01*
X152589053Y-83560962D01*
X152409752Y-83846316D01*
X152263532Y-84149945D01*
X152152227Y-84468034D01*
X152152223Y-84468046D01*
X152077233Y-84796602D01*
X152077231Y-84796618D01*
X152039500Y-85131491D01*
X152039500Y-87405790D01*
X152019815Y-87472829D01*
X152003181Y-87493471D01*
X143897477Y-95599175D01*
X143659182Y-95837468D01*
X143623743Y-95881908D01*
X143449053Y-96100962D01*
X143269752Y-96386316D01*
X143123532Y-96689945D01*
X143012227Y-97008034D01*
X143012223Y-97008046D01*
X142937231Y-97336612D01*
X142905844Y-97615187D01*
X142905827Y-97615343D01*
X142905802Y-97615568D01*
X142899500Y-97671496D01*
X141500500Y-97671496D01*
X141500500Y-75828034D01*
X144499500Y-75828034D01*
X144499500Y-76171965D01*
X144533210Y-76514249D01*
X144600308Y-76851572D01*
X144700150Y-77180706D01*
X144831770Y-77498464D01*
X144831772Y-77498469D01*
X144993893Y-77801775D01*
X144993904Y-77801793D01*
X145184975Y-78087751D01*
X145184985Y-78087765D01*
X145403176Y-78353632D01*
X145646367Y-78596823D01*
X145646372Y-78596827D01*
X145646373Y-78596828D01*
X145912240Y-78815019D01*
X146198213Y-79006100D01*
X146198222Y-79006105D01*
X146198224Y-79006106D01*
X146501530Y-79168227D01*
X146501532Y-79168227D01*
X146501538Y-79168231D01*
X146819295Y-79299850D01*
X147148422Y-79399690D01*
X147485750Y-79466789D01*
X147828031Y-79500500D01*
X147828034Y-79500500D01*
X148171966Y-79500500D01*
X148171969Y-79500500D01*
X148514250Y-79466789D01*
X148851578Y-79399690D01*
X149180705Y-79299850D01*
X149498462Y-79168231D01*
X149801787Y-79006100D01*
X150087760Y-78815019D01*
X150353627Y-78596828D01*
X150596828Y-78353627D01*
X150815019Y-78087760D01*
X151006100Y-77801787D01*
X151168231Y-77498462D01*
X151299850Y-77180705D01*
X151399690Y-76851578D01*
X151466789Y-76514250D01*
X151500500Y-76171969D01*
X151500500Y-75828031D01*
X151466789Y-75485750D01*
X151444852Y-75375466D01*
X158100000Y-75375466D01*
X158100000Y-75624533D01*
X158132508Y-75871463D01*
X158196973Y-76112049D01*
X158292283Y-76342148D01*
X158292288Y-76342159D01*
X158416813Y-76557841D01*
X158416819Y-76557849D01*
X158491400Y-76655045D01*
X159398958Y-75747487D01*
X159423978Y-75807890D01*
X159495112Y-75914351D01*
X159585649Y-76004888D01*
X159692110Y-76076022D01*
X159752511Y-76101041D01*
X158844953Y-77008598D01*
X158942150Y-77083180D01*
X158942158Y-77083186D01*
X159157840Y-77207711D01*
X159157851Y-77207716D01*
X159387950Y-77303026D01*
X159628536Y-77367491D01*
X159875466Y-77400000D01*
X160124534Y-77400000D01*
X160371463Y-77367491D01*
X160612049Y-77303026D01*
X160842148Y-77207716D01*
X160842159Y-77207711D01*
X161057855Y-77083178D01*
X161155045Y-77008600D01*
X161155045Y-77008597D01*
X160247488Y-76101041D01*
X160307890Y-76076022D01*
X160414351Y-76004888D01*
X160504888Y-75914351D01*
X160576022Y-75807890D01*
X160601041Y-75747489D01*
X161508597Y-76655045D01*
X161508600Y-76655045D01*
X161583178Y-76557855D01*
X161707711Y-76342159D01*
X161707716Y-76342148D01*
X161760939Y-76213658D01*
X161804780Y-76159255D01*
X161871074Y-76137190D01*
X161938773Y-76154469D01*
X161986384Y-76205606D01*
X161999500Y-76261111D01*
X161999500Y-84772807D01*
X161997746Y-84793588D01*
X161997231Y-84796612D01*
X161959500Y-85131491D01*
X161959500Y-88868508D01*
X161997231Y-89203381D01*
X161997233Y-89203397D01*
X162072223Y-89531953D01*
X162072227Y-89531965D01*
X162183532Y-89850054D01*
X162329752Y-90153683D01*
X162329754Y-90153686D01*
X162509054Y-90439039D01*
X162719175Y-90702523D01*
X162957477Y-90940825D01*
X163220961Y-91150946D01*
X163506314Y-91330246D01*
X163809949Y-91476469D01*
X164048848Y-91560063D01*
X164128034Y-91587772D01*
X164128046Y-91587776D01*
X164456606Y-91662767D01*
X164791492Y-91700499D01*
X164791493Y-91700500D01*
X164791496Y-91700500D01*
X165128507Y-91700500D01*
X165128507Y-91700499D01*
X165463394Y-91662767D01*
X165791954Y-91587776D01*
X166110051Y-91476469D01*
X166413686Y-91330246D01*
X166699039Y-91150946D01*
X166962523Y-90940825D01*
X167200825Y-90702523D01*
X167410946Y-90439039D01*
X167590246Y-90153686D01*
X167736469Y-89850051D01*
X167847776Y-89531954D01*
X167922767Y-89203394D01*
X167960500Y-88868504D01*
X167960500Y-85787194D01*
X167962254Y-85766413D01*
X167962768Y-85763388D01*
X167988791Y-85532422D01*
X168000500Y-85428504D01*
X168000500Y-75331496D01*
X167962767Y-74996606D01*
X167887776Y-74668046D01*
X167776469Y-74349949D01*
X167630246Y-74046314D01*
X167450946Y-73760961D01*
X167240825Y-73497477D01*
X167002523Y-73259175D01*
X166739039Y-73049054D01*
X166453686Y-72869754D01*
X166453683Y-72869752D01*
X166150054Y-72723532D01*
X165831965Y-72612227D01*
X165831953Y-72612223D01*
X165503397Y-72537233D01*
X165503381Y-72537231D01*
X165168508Y-72499500D01*
X165168504Y-72499500D01*
X164831496Y-72499500D01*
X164831491Y-72499500D01*
X164496618Y-72537231D01*
X164496602Y-72537233D01*
X164168046Y-72612223D01*
X164168034Y-72612227D01*
X163849945Y-72723532D01*
X163546316Y-72869752D01*
X163260962Y-73049053D01*
X162997477Y-73259174D01*
X162759174Y-73497477D01*
X162549053Y-73760962D01*
X162369752Y-74046316D01*
X162223532Y-74349945D01*
X162112227Y-74668034D01*
X162112223Y-74668046D01*
X162054151Y-74922481D01*
X162020042Y-74983460D01*
X161958381Y-75016318D01*
X161888744Y-75010623D01*
X161833240Y-74968183D01*
X161813485Y-74926982D01*
X161803027Y-74887952D01*
X161707716Y-74657851D01*
X161707711Y-74657840D01*
X161583186Y-74442158D01*
X161583180Y-74442150D01*
X161508598Y-74344953D01*
X160601041Y-75252510D01*
X160576022Y-75192110D01*
X160504888Y-75085649D01*
X160414351Y-74995112D01*
X160307890Y-74923978D01*
X160247487Y-74898957D01*
X161155045Y-73991400D01*
X161057849Y-73916819D01*
X161057841Y-73916813D01*
X160842159Y-73792288D01*
X160842148Y-73792283D01*
X160612049Y-73696973D01*
X160371463Y-73632508D01*
X160124534Y-73600000D01*
X159875466Y-73600000D01*
X159628536Y-73632508D01*
X159387950Y-73696973D01*
X159157851Y-73792283D01*
X159157847Y-73792285D01*
X158942143Y-73916823D01*
X158844953Y-73991399D01*
X158844953Y-73991400D01*
X159752511Y-74898958D01*
X159692110Y-74923978D01*
X159585649Y-74995112D01*
X159495112Y-75085649D01*
X159423978Y-75192110D01*
X159398958Y-75252511D01*
X158491400Y-74344953D01*
X158491399Y-74344953D01*
X158416823Y-74442143D01*
X158292285Y-74657847D01*
X158292283Y-74657851D01*
X158196973Y-74887950D01*
X158132508Y-75128536D01*
X158100000Y-75375466D01*
X151444852Y-75375466D01*
X151399690Y-75148422D01*
X151299850Y-74819295D01*
X151168231Y-74501538D01*
X151146833Y-74461506D01*
X151006106Y-74198224D01*
X151006105Y-74198222D01*
X151006100Y-74198213D01*
X150815019Y-73912240D01*
X150596828Y-73646373D01*
X150596827Y-73646372D01*
X150596823Y-73646367D01*
X150353632Y-73403176D01*
X150087765Y-73184985D01*
X150087764Y-73184984D01*
X150087760Y-73184981D01*
X149801787Y-72993900D01*
X149801782Y-72993897D01*
X149801775Y-72993893D01*
X149498469Y-72831772D01*
X149498464Y-72831770D01*
X149180706Y-72700150D01*
X148851572Y-72600308D01*
X148514248Y-72533210D01*
X148514249Y-72533210D01*
X148256456Y-72507821D01*
X148171969Y-72499500D01*
X147828031Y-72499500D01*
X147749966Y-72507188D01*
X147485750Y-72533210D01*
X147148427Y-72600308D01*
X146819293Y-72700150D01*
X146501535Y-72831770D01*
X146501530Y-72831772D01*
X146198224Y-72993893D01*
X146198206Y-72993904D01*
X145912248Y-73184975D01*
X145912234Y-73184985D01*
X145646367Y-73403176D01*
X145403176Y-73646367D01*
X145184985Y-73912234D01*
X145184975Y-73912248D01*
X144993904Y-74198206D01*
X144993893Y-74198224D01*
X144831772Y-74501530D01*
X144831770Y-74501535D01*
X144700150Y-74819293D01*
X144600308Y-75148427D01*
X144533210Y-75485750D01*
X144499500Y-75828034D01*
X141500500Y-75828034D01*
X141500500Y-70124500D01*
X141520185Y-70057461D01*
X141572989Y-70011706D01*
X141624500Y-70000500D01*
X265875500Y-70000500D01*
X265942539Y-70020185D01*
G37*
%TD.AperFunction*%
%TD*%
M02*
