M48
; DRILL file {KiCad 9.0.3} date 2026-03-22T16:27:53+0530
; FORMAT={-:-/ absolute / metric / decimal}
; #@! TF.CreationDate,2026-03-22T16:27:53+05:30
; #@! TF.GenerationSoftware,Kicad,Pcbnew,9.0.3
; #@! TF.FileFunction,Plated,1,2,PTH
FMAT,2
METRIC
; #@! TA.AperFunction,Plated,PTH,ComponentDrill
T1C0.800
; #@! TA.AperFunction,Plated,PTH,ComponentDrill
T2C0.980
; #@! TA.AperFunction,Plated,PTH,ComponentDrill
T3C1.000
; #@! TA.AperFunction,Plated,PTH,ComponentDrill
T4C1.300
; #@! TA.AperFunction,Plated,PTH,ComponentDrill
T5C1.780
%
G90
G05
T1
X232.0Y-114.5
X232.0Y-119.5
T3
X148.0Y-118.0
X153.0Y-118.0
X163.5Y-115.735
X163.5Y-118.275
X180.5Y-73.5
X180.5Y-89.5
X180.5Y-96.0
X180.5Y-112.0
X181.0Y-119.5
X181.0Y-135.5
X219.5Y-73.5
X219.5Y-89.5
X219.5Y-96.0
X219.5Y-112.0
X220.0Y-119.5
X220.0Y-135.5
X230.5Y-80.132
X230.5Y-85.132
X231.5Y-96.0
X231.5Y-101.0
X244.0Y-119.5
X244.0Y-122.04
X244.5Y-110.725
X244.5Y-113.265
X249.0Y-96.225
X249.0Y-98.765
X253.0Y-119.5
X253.0Y-122.04
X253.5Y-110.725
X253.5Y-113.265
X258.5Y-96.225
X258.5Y-98.765
X263.5Y-110.725
X263.5Y-113.265
X263.5Y-119.5
X263.5Y-122.04
T4
X155.75Y-133.468
X160.0Y-75.5
X160.75Y-133.468
X165.0Y-75.5
X169.5Y-133.468
X174.5Y-133.468
X230.0Y-133.0
X235.0Y-133.0
X244.5Y-75.0
X244.5Y-80.0
X246.0Y-133.0
X251.0Y-133.0
T5
X155.04Y-85.3
X155.04Y-88.7
X164.96Y-85.3
X164.96Y-88.7
T2
G00X145.9Y-100.55
M15
G01X145.9Y-105.45
M16
G05
G00X153.0Y-100.55
M15
G01X153.0Y-105.45
M16
G05
M30
