%TF.GenerationSoftware,KiCad,Pcbnew,9.0.3*%
%TF.CreationDate,2026-03-22T16:41:16+05:30*%
%TF.ProjectId,Main_PCB 2.0,4d61696e-5f50-4434-9220-322e302e6b69,rev?*%
%TF.SameCoordinates,Original*%
%TF.FileFunction,Soldermask,Bot*%
%TF.FilePolarity,Negative*%
%FSLAX46Y46*%
G04 Gerber Fmt 4.6, Leading zero omitted, Abs format (unit mm)*
G04 Created by KiCad (PCBNEW 9.0.3) date 2026-03-22 16:41:16*
%MOMM*%
%LPD*%
G01*
G04 APERTURE LIST*
G04 Aperture macros list*
%AMRoundRect*
0 Rectangle with rounded corners*
0 $1 Rounding radius*
0 $2 $3 $4 $5 $6 $7 $8 $9 X,Y pos of 4 corners*
0 Add a 4 corners polygon primitive as box body*
4,1,4,$2,$3,$4,$5,$6,$7,$8,$9,$2,$3,0*
0 Add four circle primitives for the rounded corners*
1,1,$1+$1,$2,$3*
1,1,$1+$1,$4,$5*
1,1,$1+$1,$6,$7*
1,1,$1+$1,$8,$9*
0 Add four rect primitives between the rounded corners*
20,1,$1+$1,$2,$3,$4,$5,0*
20,1,$1+$1,$4,$5,$6,$7,0*
20,1,$1+$1,$6,$7,$8,$9,0*
20,1,$1+$1,$8,$9,$2,$3,0*%
G04 Aperture macros list end*
%ADD10C,1.700000*%
%ADD11R,1.700000X1.700000*%
%ADD12C,1.869000*%
%ADD13C,2.134400*%
%ADD14C,4.204000*%
%ADD15RoundRect,0.250000X0.550000X0.550000X-0.550000X0.550000X-0.550000X-0.550000X0.550000X-0.550000X0*%
%ADD16C,1.600000*%
%ADD17RoundRect,0.250000X-0.550000X-0.550000X0.550000X-0.550000X0.550000X0.550000X-0.550000X0.550000X0*%
G04 APERTURE END LIST*
D10*
%TO.C,J3*%
X159500000Y-157780001D03*
X159500000Y-155240001D03*
X159500000Y-152700002D03*
X159500000Y-150160001D03*
X159500000Y-147620001D03*
X159500000Y-145080001D03*
X159500000Y-142540001D03*
X159500000Y-140000000D03*
X159500000Y-137460001D03*
X159500000Y-134920001D03*
X159500000Y-132380001D03*
X159500000Y-129840002D03*
X159500000Y-127300001D03*
%TD*%
D11*
%TO.C,Solenoid1*%
X204040000Y-119000000D03*
D10*
X201500000Y-119000000D03*
X198960001Y-119000000D03*
%TD*%
D11*
%TO.C,J6*%
X135930025Y-70301333D03*
D10*
X135930025Y-67761333D03*
X135930025Y-65221334D03*
X135930025Y-62681333D03*
%TD*%
D12*
%TO.C,IC1*%
X148860000Y-97450000D03*
X146320000Y-97450000D03*
X143780001Y-97450000D03*
X141240000Y-97450000D03*
X138700000Y-97450000D03*
X136160000Y-97450000D03*
X133620000Y-97450000D03*
X131079999Y-97450000D03*
X128540000Y-97450000D03*
X126000000Y-97450000D03*
X123460000Y-97450000D03*
X120920001Y-97450000D03*
X120920000Y-112690000D03*
X123460000Y-112690000D03*
X126000000Y-112690000D03*
X128540000Y-112690000D03*
X131080000Y-112690000D03*
X133620000Y-112690000D03*
X136160000Y-112690000D03*
X138700000Y-112690000D03*
X141240000Y-112690000D03*
X143780000Y-112690000D03*
X146320000Y-112690000D03*
X115840000Y-97450000D03*
X113300000Y-97450000D03*
X110760001Y-97450000D03*
X108219999Y-97450000D03*
X105680000Y-97450000D03*
X103140000Y-97450000D03*
X100600000Y-97450000D03*
X98060001Y-97450000D03*
X95520000Y-97450000D03*
X95520000Y-112690000D03*
X98060000Y-112690000D03*
X100600000Y-112690000D03*
X103140000Y-112690000D03*
X105680000Y-112690000D03*
X108220000Y-112690000D03*
X110760000Y-112690000D03*
X113300000Y-112690000D03*
X115840000Y-112690000D03*
X118380000Y-97450000D03*
X108220000Y-99990000D03*
X108220000Y-102530000D03*
X108220000Y-105070000D03*
X108220000Y-107609999D03*
X108220000Y-110150001D03*
X137430000Y-100500000D03*
X139970000Y-100500000D03*
X142510000Y-100500000D03*
X145050000Y-100500000D03*
X147590000Y-100500000D03*
X148860000Y-112690000D03*
X153940000Y-112690000D03*
X151400000Y-97450000D03*
X151400000Y-110150000D03*
X118380000Y-112690000D03*
X151400000Y-112690000D03*
X153939999Y-97450000D03*
%TD*%
D10*
%TO.C,J2*%
X89500000Y-52260000D03*
X89500000Y-54800000D03*
X89500000Y-57339999D03*
X89500000Y-59880000D03*
X89500000Y-62420000D03*
X89500000Y-64960000D03*
X89500000Y-67500000D03*
X89500000Y-70040001D03*
X89500000Y-72580000D03*
X89500000Y-75120000D03*
X89500000Y-77660000D03*
X89500000Y-80199999D03*
X89500000Y-82740000D03*
%TD*%
D11*
%TO.C,3.3V_Power1*%
X104225000Y-121000000D03*
D10*
X106765000Y-121000000D03*
%TD*%
D13*
%TO.C,Gyro_Sensor1*%
X58510000Y-111645000D03*
X58510000Y-109105000D03*
X58510000Y-106565000D03*
X58510000Y-104025000D03*
X58510000Y-101485000D03*
X58510000Y-98945000D03*
X40730000Y-101485000D03*
X40730000Y-104025000D03*
X40730000Y-106565000D03*
X40730000Y-109105000D03*
D14*
X57240000Y-116090000D03*
X57240000Y-94500000D03*
X42000000Y-94500000D03*
X42000000Y-116090000D03*
%TD*%
D15*
%TO.C,C3*%
X153000000Y-121000000D03*
D16*
X150500000Y-121000000D03*
%TD*%
D10*
%TO.C,J1*%
X159500000Y-82700000D03*
X159500000Y-80160000D03*
X159500000Y-77620001D03*
X159500000Y-75080000D03*
X159500000Y-72540000D03*
X159500000Y-70000000D03*
X159500000Y-67460000D03*
X159500000Y-64919999D03*
X159500000Y-62380000D03*
X159500000Y-59840000D03*
X159500000Y-57300000D03*
X159500000Y-54760001D03*
X159500000Y-52220000D03*
%TD*%
D11*
%TO.C,5V_Power1*%
X145500000Y-121000000D03*
D10*
X142960000Y-121000000D03*
%TD*%
D17*
%TO.C,C2*%
X95500000Y-121000000D03*
D16*
X98000000Y-121000000D03*
%TD*%
D11*
%TO.C,OLED*%
X133225000Y-121000000D03*
D10*
X135765000Y-121000000D03*
%TD*%
D11*
%TO.C,US_PCB*%
X122540000Y-121000000D03*
D10*
X120000000Y-121000000D03*
%TD*%
D11*
%TO.C,Camera1*%
X125775000Y-88000000D03*
D10*
X123235000Y-88000000D03*
%TD*%
D11*
%TO.C,IR_PCB*%
X126725000Y-121000000D03*
D10*
X129265000Y-121000000D03*
%TD*%
D11*
%TO.C,Line_PCB*%
X113460001Y-121000000D03*
D10*
X116000001Y-121000000D03*
%TD*%
D11*
%TO.C,Ultrasonic_Sensor1*%
X120690000Y-134500000D03*
D10*
X123230000Y-134500000D03*
X125769999Y-134500000D03*
X128310000Y-134500000D03*
%TD*%
D11*
%TO.C,J5*%
X113069980Y-75381352D03*
D10*
X113069980Y-72841352D03*
X113069980Y-70301353D03*
X113069980Y-67761352D03*
X113069980Y-65221352D03*
X113069980Y-62681352D03*
%TD*%
%TO.C,J4*%
X89500000Y-127180000D03*
X89500000Y-129720000D03*
X89500000Y-132259999D03*
X89500000Y-134800000D03*
X89500000Y-137340000D03*
X89500000Y-139880000D03*
X89500000Y-142420000D03*
X89500000Y-144960001D03*
X89500000Y-147500000D03*
X89500000Y-150040000D03*
X89500000Y-152580000D03*
X89500000Y-155119999D03*
X89500000Y-157660000D03*
%TD*%
M02*
