%TF.GenerationSoftware,KiCad,Pcbnew,9.0.3*%
%TF.CreationDate,2026-03-22T16:41:16+05:30*%
%TF.ProjectId,Main_PCB 2.0,4d61696e-5f50-4434-9220-322e302e6b69,rev?*%
%TF.SameCoordinates,Original*%
%TF.FileFunction,Legend,Top*%
%TF.FilePolarity,Positive*%
%FSLAX46Y46*%
G04 Gerber Fmt 4.6, Leading zero omitted, Abs format (unit mm)*
G04 Created by KiCad (PCBNEW 9.0.3) date 2026-03-22 16:41:16*
%MOMM*%
%LPD*%
G01*
G04 APERTURE LIST*
%ADD10C,0.200000*%
%ADD11C,0.100000*%
%ADD12C,0.150000*%
%ADD13C,0.375000*%
%ADD14C,0.120000*%
%ADD15C,0.127000*%
G04 APERTURE END LIST*
D10*
X111805679Y-52319218D02*
X111805679Y-81519218D01*
X128860022Y-58371318D02*
G75*
G02*
X127759998Y-58371318I-550012J0D01*
G01*
X127759998Y-58371318D02*
G75*
G02*
X128860022Y-58371318I550012J0D01*
G01*
X132205678Y-56119219D02*
G75*
G02*
X131192980Y-57131978I-1012678J-81D01*
G01*
X117792977Y-57131919D02*
G75*
G02*
X116780281Y-56119219I23J1012719D01*
G01*
X113619993Y-62681326D02*
G75*
G02*
X112519967Y-62681326I-550013J0D01*
G01*
X112519967Y-62681326D02*
G75*
G02*
X113619993Y-62681326I550013J0D01*
G01*
X113619992Y-72841346D02*
G75*
G02*
X112519966Y-72841346I-550013J0D01*
G01*
X112519966Y-72841346D02*
G75*
G02*
X113619992Y-72841346I550013J0D01*
G01*
X112792979Y-82506518D02*
X136192980Y-82506519D01*
X137180280Y-81519219D02*
G75*
G02*
X136192980Y-82506580I-987280J-81D01*
G01*
X126320017Y-58371318D02*
G75*
G02*
X125219993Y-58371318I-550012J0D01*
G01*
X125219993Y-58371318D02*
G75*
G02*
X126320017Y-58371318I550012J0D01*
G01*
X112792979Y-82506518D02*
G75*
G02*
X111805682Y-81519218I21J987318D01*
G01*
X136192980Y-51331919D02*
G75*
G02*
X137180281Y-52319219I20J-987281D01*
G01*
X123780012Y-58371318D02*
G75*
G02*
X122679986Y-58371318I-550013J0D01*
G01*
X122679986Y-58371318D02*
G75*
G02*
X123780012Y-58371318I550013J0D01*
G01*
X121240006Y-58371318D02*
G75*
G02*
X120139982Y-58371318I-550012J0D01*
G01*
X120139982Y-58371318D02*
G75*
G02*
X121240006Y-58371318I550012J0D01*
G01*
X113619991Y-67761336D02*
G75*
G02*
X112519965Y-67761336I-550013J0D01*
G01*
X112519965Y-67761336D02*
G75*
G02*
X113619991Y-67761336I550013J0D01*
G01*
X131192980Y-57131919D02*
X117792977Y-57131919D01*
X115792979Y-51331916D02*
G75*
G02*
X116780284Y-52319218I21J-987284D01*
G01*
X136480039Y-70301342D02*
G75*
G02*
X135380013Y-70301342I-550013J0D01*
G01*
X135380013Y-70301342D02*
G75*
G02*
X136480039Y-70301342I550013J0D01*
G01*
X113619993Y-75381352D02*
G75*
G02*
X112519967Y-75381352I-550013J0D01*
G01*
X112519967Y-75381352D02*
G75*
G02*
X113619993Y-75381352I550013J0D01*
G01*
X111805679Y-52319218D02*
G75*
G02*
X112792979Y-51331979I987321J-82D01*
G01*
D11*
X210635777Y-122763348D02*
X183135777Y-122763348D01*
X183135777Y-87763348D01*
X210635777Y-87763348D01*
X210635777Y-122763348D01*
D10*
X136480038Y-62681326D02*
G75*
G02*
X135380012Y-62681326I-550013J0D01*
G01*
X135380012Y-62681326D02*
G75*
G02*
X136480038Y-62681326I550013J0D01*
G01*
X132205678Y-52319218D02*
X132205678Y-56119219D01*
X136480038Y-65221331D02*
G75*
G02*
X135380012Y-65221331I-550013J0D01*
G01*
X135380012Y-65221331D02*
G75*
G02*
X136480038Y-65221331I550013J0D01*
G01*
X116780277Y-56119219D02*
X116780280Y-52319218D01*
X113619992Y-70301341D02*
G75*
G02*
X112519966Y-70301341I-550013J0D01*
G01*
X112519966Y-70301341D02*
G75*
G02*
X113619992Y-70301341I550013J0D01*
G01*
X115792979Y-51331916D02*
X112792979Y-51331918D01*
X113619993Y-65221332D02*
G75*
G02*
X112519967Y-65221332I-550013J0D01*
G01*
X112519967Y-65221332D02*
G75*
G02*
X113619993Y-65221332I550013J0D01*
G01*
X137180280Y-81519219D02*
X137180280Y-52319219D01*
X136480039Y-67761336D02*
G75*
G02*
X135380013Y-67761336I-550013J0D01*
G01*
X135380013Y-67761336D02*
G75*
G02*
X136480039Y-67761336I550013J0D01*
G01*
X136192980Y-51331919D02*
X133192979Y-51331916D01*
X132205678Y-52319218D02*
G75*
G02*
X133192979Y-51331978I987322J-82D01*
G01*
D12*
X93738095Y-117002438D02*
X93642857Y-116954819D01*
X93642857Y-116954819D02*
X93500000Y-116954819D01*
X93500000Y-116954819D02*
X93357143Y-117002438D01*
X93357143Y-117002438D02*
X93261905Y-117097676D01*
X93261905Y-117097676D02*
X93214286Y-117192914D01*
X93214286Y-117192914D02*
X93166667Y-117383390D01*
X93166667Y-117383390D02*
X93166667Y-117526247D01*
X93166667Y-117526247D02*
X93214286Y-117716723D01*
X93214286Y-117716723D02*
X93261905Y-117811961D01*
X93261905Y-117811961D02*
X93357143Y-117907200D01*
X93357143Y-117907200D02*
X93500000Y-117954819D01*
X93500000Y-117954819D02*
X93595238Y-117954819D01*
X93595238Y-117954819D02*
X93738095Y-117907200D01*
X93738095Y-117907200D02*
X93785714Y-117859580D01*
X93785714Y-117859580D02*
X93785714Y-117526247D01*
X93785714Y-117526247D02*
X93595238Y-117526247D01*
X94214286Y-117954819D02*
X94214286Y-116954819D01*
X94214286Y-116954819D02*
X94785714Y-117954819D01*
X94785714Y-117954819D02*
X94785714Y-116954819D01*
X95261905Y-117954819D02*
X95261905Y-116954819D01*
X95261905Y-116954819D02*
X95500000Y-116954819D01*
X95500000Y-116954819D02*
X95642857Y-117002438D01*
X95642857Y-117002438D02*
X95738095Y-117097676D01*
X95738095Y-117097676D02*
X95785714Y-117192914D01*
X95785714Y-117192914D02*
X95833333Y-117383390D01*
X95833333Y-117383390D02*
X95833333Y-117526247D01*
X95833333Y-117526247D02*
X95785714Y-117716723D01*
X95785714Y-117716723D02*
X95738095Y-117811961D01*
X95738095Y-117811961D02*
X95642857Y-117907200D01*
X95642857Y-117907200D02*
X95500000Y-117954819D01*
X95500000Y-117954819D02*
X95261905Y-117954819D01*
D11*
X70803884Y-52372419D02*
X70803884Y-51372419D01*
X70803884Y-51372419D02*
X71137217Y-52086704D01*
X71137217Y-52086704D02*
X71470550Y-51372419D01*
X71470550Y-51372419D02*
X71470550Y-52372419D01*
X71899122Y-51467657D02*
X71946741Y-51420038D01*
X71946741Y-51420038D02*
X72041979Y-51372419D01*
X72041979Y-51372419D02*
X72280074Y-51372419D01*
X72280074Y-51372419D02*
X72375312Y-51420038D01*
X72375312Y-51420038D02*
X72422931Y-51467657D01*
X72422931Y-51467657D02*
X72470550Y-51562895D01*
X72470550Y-51562895D02*
X72470550Y-51658133D01*
X72470550Y-51658133D02*
X72422931Y-51800990D01*
X72422931Y-51800990D02*
X71851503Y-52372419D01*
X71851503Y-52372419D02*
X72470550Y-52372419D01*
D12*
X106238095Y-118002438D02*
X106142857Y-117954819D01*
X106142857Y-117954819D02*
X106000000Y-117954819D01*
X106000000Y-117954819D02*
X105857143Y-118002438D01*
X105857143Y-118002438D02*
X105761905Y-118097676D01*
X105761905Y-118097676D02*
X105714286Y-118192914D01*
X105714286Y-118192914D02*
X105666667Y-118383390D01*
X105666667Y-118383390D02*
X105666667Y-118526247D01*
X105666667Y-118526247D02*
X105714286Y-118716723D01*
X105714286Y-118716723D02*
X105761905Y-118811961D01*
X105761905Y-118811961D02*
X105857143Y-118907200D01*
X105857143Y-118907200D02*
X106000000Y-118954819D01*
X106000000Y-118954819D02*
X106095238Y-118954819D01*
X106095238Y-118954819D02*
X106238095Y-118907200D01*
X106238095Y-118907200D02*
X106285714Y-118859580D01*
X106285714Y-118859580D02*
X106285714Y-118526247D01*
X106285714Y-118526247D02*
X106095238Y-118526247D01*
X106714286Y-118954819D02*
X106714286Y-117954819D01*
X106714286Y-117954819D02*
X107285714Y-118954819D01*
X107285714Y-118954819D02*
X107285714Y-117954819D01*
X107761905Y-118954819D02*
X107761905Y-117954819D01*
X107761905Y-117954819D02*
X108000000Y-117954819D01*
X108000000Y-117954819D02*
X108142857Y-118002438D01*
X108142857Y-118002438D02*
X108238095Y-118097676D01*
X108238095Y-118097676D02*
X108285714Y-118192914D01*
X108285714Y-118192914D02*
X108333333Y-118383390D01*
X108333333Y-118383390D02*
X108333333Y-118526247D01*
X108333333Y-118526247D02*
X108285714Y-118716723D01*
X108285714Y-118716723D02*
X108238095Y-118811961D01*
X108238095Y-118811961D02*
X108142857Y-118907200D01*
X108142857Y-118907200D02*
X108000000Y-118954819D01*
X108000000Y-118954819D02*
X107761905Y-118954819D01*
D11*
G36*
X112567594Y-139723217D02*
G01*
X112567594Y-139605980D01*
X113200854Y-139629427D01*
X113329998Y-139627229D01*
X113895664Y-139605980D01*
X113895664Y-139723217D01*
X113807554Y-139741718D01*
X113552249Y-139796771D01*
X113492847Y-139816823D01*
X113467905Y-139840610D01*
X113450898Y-139875258D01*
X113436610Y-140294378D01*
X113426352Y-141025825D01*
X113770644Y-140735152D01*
X114125663Y-140409424D01*
X114491922Y-140046350D01*
X114603045Y-139909605D01*
X114627110Y-139844117D01*
X114621591Y-139819344D01*
X114604579Y-139798321D01*
X114553125Y-139776890D01*
X114389523Y-139735673D01*
X114342445Y-139723217D01*
X114342445Y-139605980D01*
X114844364Y-139629427D01*
X115459307Y-139605980D01*
X115459307Y-139723217D01*
X115118954Y-139815724D01*
X115018571Y-139873243D01*
X114657885Y-140211946D01*
X114100462Y-140720826D01*
X113848403Y-140944492D01*
X114082635Y-141182696D01*
X114512438Y-141596437D01*
X115170245Y-142203136D01*
X115236555Y-142249203D01*
X115307449Y-142284286D01*
X115418036Y-142317214D01*
X115758443Y-142396210D01*
X115758443Y-142513447D01*
X115106681Y-142490000D01*
X114393553Y-142513447D01*
X114393553Y-142396210D01*
X114566077Y-142351540D01*
X114613921Y-142331364D01*
X114635263Y-142308271D01*
X114641582Y-142285202D01*
X114633562Y-142255486D01*
X114602564Y-142211746D01*
X114380728Y-141981637D01*
X113727503Y-141351706D01*
X113426352Y-141060812D01*
X113432397Y-142114659D01*
X113438046Y-142224245D01*
X113448883Y-142262670D01*
X113474576Y-142290685D01*
X113524720Y-142316160D01*
X113895664Y-142396210D01*
X113895664Y-142513447D01*
X113266434Y-142490000D01*
X112567594Y-142513447D01*
X112567594Y-142396210D01*
X112665963Y-142375694D01*
X112916946Y-142326720D01*
X112991844Y-142293445D01*
X113014713Y-142251275D01*
X113028663Y-142141404D01*
X113043135Y-141159364D01*
X113032876Y-140041587D01*
X113023534Y-139868114D01*
X112996057Y-139832027D01*
X112900621Y-139793628D01*
X112657719Y-139741718D01*
X112567594Y-139723217D01*
G37*
G36*
X116325942Y-142103119D02*
G01*
X116413367Y-142119716D01*
X116486775Y-142169431D01*
X116536696Y-142242947D01*
X116553454Y-142331730D01*
X116536817Y-142418938D01*
X116486775Y-142492930D01*
X116413281Y-142543505D01*
X116325942Y-142560341D01*
X116236837Y-142543419D01*
X116162909Y-142492930D01*
X116113012Y-142418952D01*
X116096414Y-142331730D01*
X116113132Y-142242932D01*
X116162909Y-142169431D01*
X116236751Y-142119801D01*
X116325942Y-142103119D01*
G37*
G36*
X118877597Y-140282759D02*
G01*
X119260336Y-141165043D01*
X119737892Y-142211379D01*
X119773735Y-142262528D01*
X119809699Y-142295460D01*
X120111034Y-142396210D01*
X120111034Y-142513447D01*
X119561671Y-142490000D01*
X118946912Y-142513447D01*
X118946912Y-142396210D01*
X119169138Y-142341562D01*
X119235790Y-142313046D01*
X119267139Y-142278071D01*
X119276823Y-142239956D01*
X119268508Y-142189833D01*
X119233775Y-142092128D01*
X119028977Y-141587278D01*
X118393702Y-141583065D01*
X117830050Y-141587278D01*
X117616826Y-142110629D01*
X117563520Y-142269082D01*
X117569691Y-142293431D01*
X117589166Y-142313961D01*
X117637026Y-142331801D01*
X117828035Y-142377526D01*
X117891416Y-142396210D01*
X117891416Y-142513447D01*
X117397557Y-142490000D01*
X116930443Y-142513447D01*
X116930443Y-142396210D01*
X117100579Y-142346913D01*
X117186531Y-142302055D01*
X117235150Y-142253266D01*
X117293143Y-142168148D01*
X117446749Y-141855705D01*
X117653480Y-141387976D01*
X117909918Y-141387976D01*
X118317681Y-141396219D01*
X118946912Y-141387976D01*
X118428506Y-140163220D01*
X117909918Y-141387976D01*
X117653480Y-141387976D01*
X117887386Y-140858763D01*
X118451038Y-139547362D01*
X118579998Y-139547362D01*
X118877597Y-140282759D01*
G37*
G36*
X120739898Y-142103119D02*
G01*
X120827324Y-142119716D01*
X120900732Y-142169431D01*
X120950653Y-142242947D01*
X120967411Y-142331730D01*
X120950773Y-142418938D01*
X120900732Y-142492930D01*
X120827238Y-142543505D01*
X120739898Y-142560341D01*
X120650794Y-142543419D01*
X120576866Y-142492930D01*
X120526968Y-142418952D01*
X120510371Y-142331730D01*
X120527089Y-142242932D01*
X120576866Y-142169431D01*
X120650708Y-142119801D01*
X120739898Y-142103119D01*
G37*
G36*
X121840867Y-139623321D02*
G01*
X122309586Y-139629427D01*
X123223482Y-139617704D01*
X123532689Y-139634855D01*
X123776330Y-139681387D01*
X123966468Y-139751427D01*
X124136628Y-139857198D01*
X124279665Y-139997592D01*
X124397862Y-140176959D01*
X124481543Y-140376824D01*
X124533465Y-140601793D01*
X124551552Y-140856564D01*
X124531050Y-141139023D01*
X124471569Y-141394308D01*
X124374605Y-141626806D01*
X124239551Y-141840032D01*
X124063738Y-142036441D01*
X123861732Y-142199615D01*
X123633985Y-142327939D01*
X123376844Y-142422160D01*
X123085533Y-142481103D01*
X122754352Y-142501723D01*
X122379195Y-142490000D01*
X121993963Y-142478276D01*
X121773951Y-142485785D01*
X121426282Y-142513447D01*
X121426282Y-142396210D01*
X121798142Y-142320190D01*
X121852363Y-142291430D01*
X121875078Y-142246184D01*
X121889549Y-141897039D01*
X121900033Y-141066857D01*
X122289070Y-141066857D01*
X122301343Y-142267250D01*
X122620283Y-142294471D01*
X122858766Y-142302421D01*
X123090649Y-142288477D01*
X123280967Y-142249878D01*
X123436706Y-142190314D01*
X123591182Y-142097502D01*
X123723983Y-141987134D01*
X123837104Y-141858407D01*
X123931664Y-141709644D01*
X124022532Y-141492796D01*
X124080224Y-141236597D01*
X124100741Y-140933318D01*
X124086091Y-140699230D01*
X124044321Y-140494413D01*
X123975504Y-140309539D01*
X123893745Y-140177508D01*
X123793930Y-140070901D01*
X123675164Y-139981826D01*
X123535075Y-139909696D01*
X123383969Y-139862282D01*
X123175764Y-139829464D01*
X122895586Y-139817006D01*
X122632706Y-139825117D01*
X122301343Y-139852177D01*
X122289070Y-141066857D01*
X121900033Y-141066857D01*
X121901823Y-140925075D01*
X121889366Y-140025284D01*
X121891564Y-139955308D01*
X121874804Y-139867129D01*
X121832213Y-139823967D01*
X121759071Y-139800187D01*
X121426282Y-139723217D01*
X121426282Y-139605980D01*
X121840867Y-139623321D01*
G37*
G36*
X127600158Y-139619243D02*
G01*
X127770576Y-139655495D01*
X127905370Y-139710703D01*
X128011130Y-139782751D01*
X128100527Y-139879070D01*
X128163116Y-139985320D01*
X128201030Y-140103638D01*
X128214096Y-140237226D01*
X128195351Y-140391257D01*
X128137159Y-140548818D01*
X128044842Y-140691262D01*
X127921004Y-140808754D01*
X127802828Y-140877688D01*
X127609412Y-140952735D01*
X127817448Y-140979216D01*
X127949764Y-141016299D01*
X128063034Y-141074781D01*
X128157948Y-141149065D01*
X128236627Y-141239965D01*
X128294447Y-141344518D01*
X128330507Y-141467463D01*
X128343239Y-141613107D01*
X128326166Y-141787741D01*
X128276450Y-141943719D01*
X128194098Y-142085055D01*
X128076161Y-142214444D01*
X127916974Y-142333012D01*
X127772131Y-142405295D01*
X127586785Y-142461959D01*
X127352161Y-142499616D01*
X127058217Y-142513447D01*
X126654483Y-142499708D01*
X126443457Y-142490000D01*
X125914610Y-142513447D01*
X125914610Y-142396210D01*
X126010964Y-142375694D01*
X126276466Y-142315817D01*
X126340875Y-142289415D01*
X126358738Y-142259579D01*
X126371650Y-142184635D01*
X126382393Y-141910417D01*
X126388136Y-141101845D01*
X126388014Y-141075467D01*
X126763110Y-141075467D01*
X126763110Y-142281721D01*
X126977364Y-142306547D01*
X127156585Y-142314145D01*
X127353806Y-142300933D01*
X127511559Y-142264675D01*
X127637172Y-142209061D01*
X127736540Y-142135725D01*
X127818331Y-142040689D01*
X127877391Y-141929856D01*
X127914238Y-141800116D01*
X127927233Y-141647178D01*
X127914338Y-141507538D01*
X127878189Y-141393035D01*
X127820621Y-141298583D01*
X127743284Y-141217835D01*
X127657984Y-141158350D01*
X127563433Y-141118148D01*
X127390658Y-141085417D01*
X127084961Y-141071437D01*
X126763110Y-141075467D01*
X126388014Y-141075467D01*
X126386143Y-140672283D01*
X126761095Y-140672283D01*
X126763110Y-140893567D01*
X126968091Y-140895582D01*
X127289156Y-140878484D01*
X127472208Y-140838246D01*
X127571885Y-140790414D01*
X127657424Y-140723759D01*
X127730495Y-140636563D01*
X127784661Y-140536274D01*
X127817547Y-140425469D01*
X127828864Y-140301523D01*
X127815660Y-140168825D01*
X127778409Y-140059241D01*
X127718455Y-139967955D01*
X127634141Y-139891927D01*
X127535395Y-139842030D01*
X127389125Y-139807109D01*
X127179117Y-139793558D01*
X126995252Y-139800894D01*
X126785642Y-139824333D01*
X126768084Y-140162685D01*
X126761095Y-140672283D01*
X126386143Y-140672283D01*
X126383923Y-140193628D01*
X126373429Y-139938110D01*
X126357362Y-139860786D01*
X126314314Y-139820853D01*
X126000706Y-139743733D01*
X125914610Y-139723217D01*
X125914610Y-139605980D01*
X126607405Y-139629427D01*
X127038799Y-139617704D01*
X127386113Y-139605980D01*
X127600158Y-139619243D01*
G37*
G36*
X129719981Y-140507348D02*
G01*
X129836906Y-140536912D01*
X129940362Y-140586058D01*
X130015326Y-140647554D01*
X130072468Y-140724427D01*
X130114610Y-140816814D01*
X130138357Y-140929862D01*
X130148499Y-141130239D01*
X130129998Y-141976723D01*
X130142393Y-142133062D01*
X130169016Y-142202220D01*
X130213993Y-142242445D01*
X130269399Y-142255526D01*
X130350064Y-142235326D01*
X130500942Y-142150013D01*
X130564506Y-142234094D01*
X130248883Y-142504654D01*
X130186822Y-142528268D01*
X130105451Y-142536894D01*
X129983341Y-142518896D01*
X129899371Y-142470216D01*
X129841863Y-142387672D01*
X129802102Y-142245268D01*
X129568347Y-142414000D01*
X129437386Y-142486702D01*
X129314589Y-142524108D01*
X129179099Y-142536894D01*
X129033115Y-142520556D01*
X128912705Y-142474214D01*
X128812185Y-142398592D01*
X128735460Y-142298829D01*
X128689111Y-142182556D01*
X128672967Y-142044867D01*
X128682037Y-141954009D01*
X129043911Y-141954009D01*
X129054006Y-142052783D01*
X129082336Y-142133101D01*
X129127808Y-142198923D01*
X129188525Y-142250861D01*
X129253424Y-142280714D01*
X129324729Y-142290697D01*
X129441647Y-142273326D01*
X129577704Y-142215776D01*
X129695423Y-142131046D01*
X129757955Y-142044501D01*
X129788413Y-141928126D01*
X129802102Y-141694073D01*
X129802102Y-141343646D01*
X129437981Y-141515994D01*
X129242984Y-141625635D01*
X129155469Y-141691692D01*
X129093037Y-141770120D01*
X129056372Y-141856557D01*
X129043911Y-141954009D01*
X128682037Y-141954009D01*
X128685610Y-141918214D01*
X128722060Y-141808012D01*
X128781648Y-141709396D01*
X128863476Y-141622449D01*
X128949189Y-141563204D01*
X129105277Y-141479017D01*
X129493493Y-141296753D01*
X129802102Y-141165226D01*
X129783046Y-140970751D01*
X129748775Y-140849716D01*
X129705748Y-140779445D01*
X129642108Y-140728935D01*
X129556365Y-140696518D01*
X129441416Y-140684556D01*
X129333372Y-140696521D01*
X129238393Y-140731322D01*
X129153454Y-140789337D01*
X129081811Y-140865541D01*
X129010311Y-140972773D01*
X128939314Y-141118332D01*
X128806140Y-141106608D01*
X128841075Y-140891613D01*
X128863476Y-140678878D01*
X129135115Y-140573385D01*
X129373760Y-140515142D01*
X129584848Y-140496978D01*
X129719981Y-140507348D01*
G37*
G36*
X130642358Y-139887348D02*
G01*
X130642358Y-139770111D01*
X130995764Y-139641587D01*
X131302180Y-139500467D01*
X131357501Y-139535638D01*
X131323783Y-140003297D01*
X131308408Y-140967939D01*
X131316468Y-142137008D01*
X131334502Y-142237561D01*
X131362630Y-142286667D01*
X131428587Y-142322455D01*
X131658836Y-142396210D01*
X131658836Y-142513447D01*
X131146475Y-142490000D01*
X130642358Y-142513447D01*
X130642358Y-142396210D01*
X130891009Y-142312783D01*
X130945525Y-142285568D01*
X130963358Y-142251100D01*
X130976299Y-142166683D01*
X130982527Y-141036999D01*
X130978314Y-140063386D01*
X130978314Y-140034626D01*
X130968670Y-139932743D01*
X130947540Y-139886981D01*
X130910416Y-139861705D01*
X130851369Y-139852177D01*
X130642358Y-139887348D01*
G37*
G36*
X131779553Y-139887348D02*
G01*
X131779553Y-139770111D01*
X132132958Y-139641587D01*
X132439375Y-139500467D01*
X132494696Y-139535638D01*
X132460977Y-140003297D01*
X132445603Y-140967939D01*
X132453663Y-142137008D01*
X132471697Y-142237561D01*
X132499825Y-142286667D01*
X132565781Y-142322455D01*
X132796031Y-142396210D01*
X132796031Y-142513447D01*
X132283670Y-142490000D01*
X131779553Y-142513447D01*
X131779553Y-142396210D01*
X132028204Y-142312783D01*
X132082719Y-142285568D01*
X132100553Y-142251100D01*
X132113494Y-142166683D01*
X132119722Y-141036999D01*
X132115509Y-140063386D01*
X132115509Y-140034626D01*
X132105864Y-139932743D01*
X132084734Y-139886981D01*
X132047610Y-139861705D01*
X131988564Y-139852177D01*
X131779553Y-139887348D01*
G37*
G36*
X134142658Y-140485695D02*
G01*
X134274194Y-140519771D01*
X134383770Y-140573480D01*
X134475078Y-140646454D01*
X134546905Y-140737309D01*
X134601545Y-140851933D01*
X134637787Y-140995586D01*
X134652398Y-141174935D01*
X134570092Y-141228890D01*
X134494678Y-141294187D01*
X134312229Y-141292172D01*
X133367559Y-141305910D01*
X133378582Y-141546316D01*
X133410682Y-141739163D01*
X133459817Y-141892515D01*
X133523264Y-142013360D01*
X133612015Y-142122381D01*
X133710343Y-142196447D01*
X133820223Y-142240452D01*
X133945498Y-142255526D01*
X134079139Y-142242825D01*
X134224118Y-142202770D01*
X134375495Y-142134388D01*
X134586819Y-142009330D01*
X134664855Y-142131512D01*
X134257091Y-142436144D01*
X134170631Y-142486712D01*
X134082885Y-142520957D01*
X133950222Y-142550488D01*
X133814340Y-142560341D01*
X133653721Y-142543588D01*
X133507213Y-142494258D01*
X133371260Y-142411404D01*
X133243545Y-142291064D01*
X133143492Y-142150700D01*
X133069864Y-141985912D01*
X133023360Y-141792060D01*
X133006873Y-141563281D01*
X133026212Y-141318934D01*
X133069610Y-141153503D01*
X133394120Y-141153503D01*
X133508975Y-141155518D01*
X133857861Y-141146485D01*
X134287683Y-141116683D01*
X134270297Y-140981356D01*
X134239313Y-140879908D01*
X134197557Y-140805090D01*
X134111432Y-140718089D01*
X134009982Y-140667015D01*
X133887979Y-140649385D01*
X133780388Y-140662336D01*
X133681593Y-140700828D01*
X133588843Y-140766622D01*
X133514481Y-140853269D01*
X133448863Y-140978582D01*
X133394120Y-141153503D01*
X133069610Y-141153503D01*
X133081189Y-141109365D01*
X133169248Y-140928505D01*
X133290622Y-140771751D01*
X133442230Y-140640023D01*
X133606234Y-140547992D01*
X133785535Y-140492521D01*
X133984333Y-140473531D01*
X134142658Y-140485695D01*
G37*
G36*
X134843457Y-140872135D02*
G01*
X134843457Y-140754898D01*
X135095341Y-140681429D01*
X135311914Y-140595028D01*
X135497234Y-140496978D01*
X135550540Y-140536728D01*
X135524799Y-140744308D01*
X135511523Y-140979846D01*
X135746379Y-140711874D01*
X135857920Y-140611467D01*
X135963401Y-140561239D01*
X136089462Y-140543872D01*
X136179395Y-140552083D01*
X136286200Y-140579043D01*
X136212377Y-141012819D01*
X136109979Y-141012819D01*
X136083322Y-140922966D01*
X136048429Y-140869570D01*
X136001890Y-140835901D01*
X135952076Y-140825240D01*
X135871595Y-140842262D01*
X135775854Y-140900894D01*
X135654206Y-141023560D01*
X135573988Y-141159364D01*
X135529381Y-141321568D01*
X135511523Y-141572990D01*
X135520008Y-142008346D01*
X135538267Y-142210280D01*
X135557731Y-142265475D01*
X135594504Y-142306451D01*
X135665701Y-142338330D01*
X135884481Y-142396210D01*
X135884481Y-142513447D01*
X135419382Y-142490000D01*
X134843457Y-142513447D01*
X134843457Y-142396210D01*
X135093314Y-142323258D01*
X135159996Y-142288133D01*
X135183948Y-142232882D01*
X135195900Y-142083335D01*
X135200113Y-141636737D01*
X135195090Y-141045192D01*
X135187840Y-140930753D01*
X135165843Y-140883285D01*
X135129210Y-140855677D01*
X135072984Y-140845573D01*
X134896763Y-140865907D01*
X134843457Y-140872135D01*
G37*
G36*
X137616468Y-141047990D02*
G01*
X137473037Y-141035717D01*
X137451445Y-140921524D01*
X137408639Y-140828744D01*
X137344993Y-140753066D01*
X137263949Y-140696022D01*
X137170479Y-140661423D01*
X137061060Y-140649385D01*
X136965745Y-140658987D01*
X136888846Y-140685826D01*
X136826404Y-140728703D01*
X136760388Y-140815531D01*
X136739392Y-140910969D01*
X136755729Y-140997114D01*
X136806987Y-141079863D01*
X136932957Y-141183450D01*
X137212552Y-141338517D01*
X137417390Y-141449717D01*
X137551485Y-141544877D01*
X137632772Y-141626296D01*
X137692140Y-141722945D01*
X137727420Y-141826770D01*
X137739384Y-141940270D01*
X137717361Y-142099789D01*
X137651831Y-142243494D01*
X137538433Y-142376427D01*
X137433439Y-142454184D01*
X137309523Y-142511366D01*
X137163022Y-142547508D01*
X136989253Y-142560341D01*
X136822964Y-142548852D01*
X136638144Y-142512433D01*
X136431830Y-142447501D01*
X136456834Y-142162396D01*
X136464619Y-141915540D01*
X136606036Y-141915540D01*
X136657007Y-142074383D01*
X136718079Y-142188200D01*
X136787386Y-142266884D01*
X136873847Y-142325141D01*
X136972770Y-142360489D01*
X137087622Y-142372763D01*
X137191224Y-142362658D01*
X137272228Y-142334824D01*
X137335650Y-142291064D01*
X137384516Y-142231790D01*
X137413678Y-142163449D01*
X137423761Y-142083152D01*
X137402767Y-141967220D01*
X137337665Y-141857838D01*
X137217966Y-141758061D01*
X136946205Y-141607611D01*
X136746214Y-141499852D01*
X136618056Y-141410272D01*
X136542655Y-141335952D01*
X136485309Y-141248477D01*
X136451491Y-141155057D01*
X136440073Y-141053302D01*
X136461230Y-140912222D01*
X136525603Y-140779694D01*
X136639924Y-140651217D01*
X136744244Y-140575706D01*
X136865391Y-140520469D01*
X137006529Y-140485776D01*
X137171702Y-140473531D01*
X137324237Y-140484734D01*
X137490139Y-140519923D01*
X137671789Y-140582158D01*
X137616468Y-141047990D01*
G37*
X176303884Y-158372419D02*
X176303884Y-157372419D01*
X176303884Y-157372419D02*
X176637217Y-158086704D01*
X176637217Y-158086704D02*
X176970550Y-157372419D01*
X176970550Y-157372419D02*
X176970550Y-158372419D01*
X177351503Y-157372419D02*
X177970550Y-157372419D01*
X177970550Y-157372419D02*
X177637217Y-157753371D01*
X177637217Y-157753371D02*
X177780074Y-157753371D01*
X177780074Y-157753371D02*
X177875312Y-157800990D01*
X177875312Y-157800990D02*
X177922931Y-157848609D01*
X177922931Y-157848609D02*
X177970550Y-157943847D01*
X177970550Y-157943847D02*
X177970550Y-158181942D01*
X177970550Y-158181942D02*
X177922931Y-158277180D01*
X177922931Y-158277180D02*
X177875312Y-158324800D01*
X177875312Y-158324800D02*
X177780074Y-158372419D01*
X177780074Y-158372419D02*
X177494360Y-158372419D01*
X177494360Y-158372419D02*
X177399122Y-158324800D01*
X177399122Y-158324800D02*
X177351503Y-158277180D01*
X70803884Y-158372419D02*
X70803884Y-157372419D01*
X70803884Y-157372419D02*
X71137217Y-158086704D01*
X71137217Y-158086704D02*
X71470550Y-157372419D01*
X71470550Y-157372419D02*
X71470550Y-158372419D01*
X72375312Y-157705752D02*
X72375312Y-158372419D01*
X72137217Y-157324800D02*
X71899122Y-158039085D01*
X71899122Y-158039085D02*
X72518169Y-158039085D01*
G36*
X108297782Y-156338232D02*
G01*
X108375732Y-156357941D01*
X108444703Y-156390705D01*
X108494678Y-156431702D01*
X108532774Y-156482951D01*
X108560868Y-156544542D01*
X108576699Y-156619908D01*
X108583461Y-156753492D01*
X108571127Y-157317815D01*
X108579390Y-157422041D01*
X108597138Y-157468147D01*
X108627124Y-157494963D01*
X108664061Y-157503684D01*
X108717837Y-157490217D01*
X108818422Y-157433342D01*
X108860799Y-157489396D01*
X108650383Y-157669769D01*
X108609010Y-157685512D01*
X108554762Y-157691263D01*
X108473355Y-157679264D01*
X108417376Y-157646810D01*
X108379037Y-157591781D01*
X108352529Y-157496845D01*
X108196693Y-157609333D01*
X108109385Y-157657801D01*
X108027520Y-157682739D01*
X107937194Y-157691263D01*
X107839871Y-157680371D01*
X107759598Y-157649476D01*
X107692585Y-157599061D01*
X107641435Y-157532553D01*
X107610535Y-157455037D01*
X107599773Y-157363244D01*
X107605819Y-157302672D01*
X107847069Y-157302672D01*
X107853798Y-157368522D01*
X107872686Y-157422067D01*
X107903000Y-157465949D01*
X107943478Y-157500574D01*
X107986744Y-157520476D01*
X108034281Y-157527131D01*
X108112226Y-157515551D01*
X108202930Y-157477184D01*
X108281410Y-157420697D01*
X108323098Y-157363000D01*
X108343403Y-157285417D01*
X108352529Y-157129382D01*
X108352529Y-156895764D01*
X108109782Y-157010662D01*
X107979784Y-157083756D01*
X107921441Y-157127794D01*
X107879820Y-157180080D01*
X107855376Y-157237705D01*
X107847069Y-157302672D01*
X107605819Y-157302672D01*
X107608201Y-157278809D01*
X107632501Y-157205341D01*
X107672226Y-157139597D01*
X107726779Y-157081632D01*
X107783921Y-157042136D01*
X107887979Y-156986011D01*
X108146790Y-156864502D01*
X108352529Y-156776817D01*
X108339825Y-156647167D01*
X108316978Y-156566477D01*
X108288293Y-156519630D01*
X108245867Y-156485957D01*
X108188705Y-156464345D01*
X108112072Y-156456371D01*
X108040042Y-156464347D01*
X107976723Y-156487548D01*
X107920097Y-156526224D01*
X107872336Y-156577027D01*
X107824669Y-156648515D01*
X107777337Y-156745554D01*
X107688555Y-156737739D01*
X107711845Y-156594408D01*
X107726779Y-156452585D01*
X107907871Y-156382257D01*
X108066968Y-156343428D01*
X108207693Y-156331318D01*
X108297782Y-156338232D01*
G37*
G36*
X109629919Y-155815478D02*
G01*
X109629919Y-155737320D01*
X110052093Y-155752951D01*
X110138189Y-155751486D01*
X110515300Y-155737320D01*
X110515300Y-155815478D01*
X110456559Y-155827812D01*
X110286356Y-155864514D01*
X110246755Y-155877882D01*
X110230127Y-155893740D01*
X110218789Y-155916838D01*
X110209263Y-156196252D01*
X110202424Y-156683883D01*
X110431953Y-156490101D01*
X110668632Y-156272949D01*
X110912805Y-156030900D01*
X110986887Y-155939737D01*
X111002930Y-155896078D01*
X110999251Y-155879563D01*
X110987909Y-155865547D01*
X110953607Y-155851260D01*
X110844539Y-155823782D01*
X110813154Y-155815478D01*
X110813154Y-155737320D01*
X111147766Y-155752951D01*
X111557728Y-155737320D01*
X111557728Y-155815478D01*
X111330826Y-155877149D01*
X111263904Y-155915495D01*
X111023447Y-156141297D01*
X110651831Y-156480551D01*
X110483792Y-156629661D01*
X110639947Y-156788464D01*
X110926482Y-157064291D01*
X111365020Y-157468757D01*
X111409227Y-157499469D01*
X111456489Y-157522857D01*
X111530214Y-157544809D01*
X111757152Y-157597473D01*
X111757152Y-157675631D01*
X111322644Y-157660000D01*
X110847226Y-157675631D01*
X110847226Y-157597473D01*
X110962242Y-157567693D01*
X110994138Y-157554242D01*
X111008365Y-157538847D01*
X111012578Y-157523468D01*
X111007231Y-157503657D01*
X110986566Y-157474497D01*
X110838676Y-157321091D01*
X110403192Y-156901137D01*
X110202424Y-156707208D01*
X110206454Y-157409773D01*
X110210221Y-157482830D01*
X110217445Y-157508447D01*
X110234574Y-157527123D01*
X110268004Y-157544106D01*
X110515300Y-157597473D01*
X110515300Y-157675631D01*
X110095812Y-157660000D01*
X109629919Y-157675631D01*
X109629919Y-157597473D01*
X109695498Y-157583796D01*
X109862821Y-157551147D01*
X109912752Y-157528963D01*
X109927999Y-157500850D01*
X109937299Y-157427602D01*
X109946946Y-156772909D01*
X109940108Y-156027725D01*
X109933879Y-155912076D01*
X109915561Y-155888018D01*
X109851937Y-155862418D01*
X109690003Y-155827812D01*
X109629919Y-155815478D01*
G37*
G36*
X111712456Y-156503265D02*
G01*
X111712456Y-156425108D01*
X111955617Y-156401786D01*
X112170167Y-156362581D01*
X112204361Y-156388349D01*
X112183491Y-156635548D01*
X112175662Y-156958290D01*
X112181770Y-157224108D01*
X112194103Y-157330638D01*
X112223670Y-157403322D01*
X112273970Y-157457522D01*
X112340609Y-157491814D01*
X112421615Y-157503684D01*
X112516665Y-157490627D01*
X112606629Y-157451050D01*
X112681370Y-157390107D01*
X112727529Y-157317449D01*
X112751640Y-157225027D01*
X112761723Y-157067588D01*
X112753541Y-156612564D01*
X112740128Y-156561268D01*
X112718614Y-156534284D01*
X112678085Y-156519738D01*
X112563642Y-156507295D01*
X112514427Y-156503265D01*
X112514427Y-156425108D01*
X112790376Y-156395929D01*
X112970795Y-156362581D01*
X113006332Y-156388105D01*
X112987892Y-156666420D01*
X112981786Y-157056109D01*
X112987129Y-157309463D01*
X112996807Y-157388890D01*
X113011841Y-157417772D01*
X113036211Y-157434864D01*
X113073255Y-157441158D01*
X113216748Y-157433342D01*
X113216748Y-157511500D01*
X113082048Y-157551136D01*
X112979710Y-157588192D01*
X112883023Y-157632161D01*
X112775523Y-157691263D01*
X112734490Y-157661465D01*
X112754884Y-157460575D01*
X112600611Y-157592948D01*
X112513084Y-157650596D01*
X112428802Y-157680844D01*
X112332711Y-157691263D01*
X112210417Y-157679543D01*
X112119090Y-157647914D01*
X112051343Y-157599183D01*
X112001378Y-157532612D01*
X111969043Y-157442540D01*
X111957065Y-157321479D01*
X111957065Y-156847281D01*
X111945682Y-156619887D01*
X111927634Y-156556144D01*
X111904373Y-156537689D01*
X111854128Y-156520844D01*
X111760327Y-156508639D01*
X111712456Y-156503265D01*
G37*
G36*
X114109211Y-156698660D02*
G01*
X114013590Y-156690478D01*
X113999195Y-156614349D01*
X113970658Y-156552496D01*
X113928227Y-156502044D01*
X113874198Y-156464015D01*
X113811885Y-156440948D01*
X113738939Y-156432923D01*
X113675395Y-156439324D01*
X113624129Y-156457217D01*
X113582501Y-156485802D01*
X113538491Y-156543687D01*
X113524494Y-156607313D01*
X113535385Y-156664743D01*
X113569556Y-156719909D01*
X113653536Y-156788966D01*
X113839933Y-156892344D01*
X113976492Y-156966478D01*
X114065889Y-157029918D01*
X114120080Y-157084197D01*
X114159659Y-157148630D01*
X114183179Y-157217846D01*
X114191154Y-157293513D01*
X114176473Y-157399859D01*
X114132786Y-157495663D01*
X114057187Y-157584284D01*
X113987191Y-157636122D01*
X113904581Y-157674244D01*
X113806914Y-157698338D01*
X113691067Y-157706894D01*
X113580208Y-157699234D01*
X113456995Y-157674955D01*
X113319452Y-157631667D01*
X113336121Y-157441597D01*
X113341311Y-157277027D01*
X113435589Y-157277027D01*
X113469570Y-157382922D01*
X113510285Y-157458800D01*
X113556489Y-157511256D01*
X113614130Y-157550094D01*
X113680079Y-157573659D01*
X113756646Y-157581842D01*
X113825715Y-157575105D01*
X113879717Y-157556549D01*
X113921999Y-157527376D01*
X113954576Y-157487860D01*
X113974017Y-157442299D01*
X113980739Y-157388768D01*
X113966743Y-157311480D01*
X113923342Y-157238558D01*
X113843543Y-157172040D01*
X113662369Y-157071741D01*
X113529041Y-156999901D01*
X113443602Y-156940181D01*
X113393335Y-156890635D01*
X113355105Y-156832318D01*
X113332560Y-156770038D01*
X113324947Y-156702201D01*
X113339052Y-156608148D01*
X113381967Y-156519796D01*
X113458182Y-156434145D01*
X113527728Y-156383804D01*
X113608493Y-156346979D01*
X113702585Y-156323851D01*
X113812700Y-156315687D01*
X113914390Y-156323156D01*
X114024991Y-156346615D01*
X114146092Y-156388105D01*
X114109211Y-156698660D01*
G37*
G36*
X114320969Y-155915251D02*
G01*
X114320969Y-155838925D01*
X114587438Y-155751608D01*
X114759630Y-155666978D01*
X114793702Y-155690425D01*
X114775994Y-155973625D01*
X114763660Y-156474811D01*
X114765003Y-156609633D01*
X114944033Y-156437686D01*
X114997815Y-156399609D01*
X115051988Y-156374061D01*
X115131242Y-156353774D01*
X115214532Y-156346950D01*
X115316455Y-156356597D01*
X115398380Y-156383442D01*
X115464515Y-156425963D01*
X115517066Y-156484134D01*
X115553538Y-156556134D01*
X115573813Y-156645293D01*
X115579675Y-156792624D01*
X115583339Y-157404033D01*
X115590384Y-157498395D01*
X115604466Y-157533482D01*
X115640312Y-157554491D01*
X115756873Y-157587948D01*
X115799249Y-157597473D01*
X115799249Y-157675631D01*
X115452180Y-157660000D01*
X115137962Y-157675631D01*
X115137962Y-157597473D01*
X115303314Y-157547037D01*
X115329937Y-157525177D01*
X115347034Y-157476085D01*
X115353872Y-157328684D01*
X115363398Y-156935697D01*
X115355783Y-156760371D01*
X115339462Y-156679853D01*
X115306838Y-156621421D01*
X115256053Y-156574829D01*
X115192966Y-156544764D01*
X115120254Y-156534528D01*
X115021564Y-156549477D01*
X114927547Y-156595223D01*
X114850460Y-156664727D01*
X114802494Y-156748119D01*
X114778319Y-156856587D01*
X114767690Y-157062581D01*
X114771759Y-157343897D01*
X114780024Y-157458255D01*
X114792379Y-157510691D01*
X114806646Y-157533360D01*
X114838515Y-157549262D01*
X114950872Y-157583796D01*
X114997278Y-157597473D01*
X114997278Y-157675631D01*
X114666573Y-157660000D01*
X114337334Y-157675631D01*
X114337334Y-157597473D01*
X114381053Y-157585139D01*
X114490587Y-157551138D01*
X114521127Y-157534581D01*
X114533136Y-157505746D01*
X114543719Y-157412826D01*
X114553244Y-156748119D01*
X114545146Y-156063573D01*
X114534071Y-155945293D01*
X114505650Y-155913288D01*
X114452128Y-155901451D01*
X114320969Y-155915251D01*
G37*
G36*
X116625486Y-156338232D02*
G01*
X116703436Y-156357941D01*
X116772407Y-156390705D01*
X116822383Y-156431702D01*
X116860478Y-156482951D01*
X116888572Y-156544542D01*
X116904403Y-156619908D01*
X116911165Y-156753492D01*
X116898831Y-157317815D01*
X116907094Y-157422041D01*
X116924842Y-157468147D01*
X116954828Y-157494963D01*
X116991765Y-157503684D01*
X117045542Y-157490217D01*
X117146127Y-157433342D01*
X117188503Y-157489396D01*
X116978087Y-157669769D01*
X116936714Y-157685512D01*
X116882466Y-157691263D01*
X116801059Y-157679264D01*
X116745080Y-157646810D01*
X116706741Y-157591781D01*
X116680233Y-157496845D01*
X116524397Y-157609333D01*
X116437090Y-157657801D01*
X116355225Y-157682739D01*
X116264898Y-157691263D01*
X116167575Y-157680371D01*
X116087302Y-157649476D01*
X116020289Y-157599061D01*
X115969139Y-157532553D01*
X115938239Y-157455037D01*
X115927477Y-157363244D01*
X115933523Y-157302672D01*
X116174773Y-157302672D01*
X116181502Y-157368522D01*
X116200390Y-157422067D01*
X116230704Y-157465949D01*
X116271182Y-157500574D01*
X116314448Y-157520476D01*
X116361985Y-157527131D01*
X116439930Y-157515551D01*
X116530635Y-157477184D01*
X116609114Y-157420697D01*
X116650802Y-157363000D01*
X116671107Y-157285417D01*
X116680233Y-157129382D01*
X116680233Y-156895764D01*
X116437486Y-157010662D01*
X116307488Y-157083756D01*
X116249145Y-157127794D01*
X116207524Y-157180080D01*
X116183080Y-157237705D01*
X116174773Y-157302672D01*
X115933523Y-157302672D01*
X115935905Y-157278809D01*
X115960205Y-157205341D01*
X115999931Y-157139597D01*
X116054483Y-157081632D01*
X116111625Y-157042136D01*
X116215683Y-156986011D01*
X116474494Y-156864502D01*
X116680233Y-156776817D01*
X116667529Y-156647167D01*
X116644682Y-156566477D01*
X116615997Y-156519630D01*
X116573571Y-156485957D01*
X116516409Y-156464345D01*
X116439776Y-156456371D01*
X116367746Y-156464347D01*
X116304427Y-156487548D01*
X116247801Y-156526224D01*
X116200040Y-156577027D01*
X116152373Y-156648515D01*
X116105041Y-156745554D01*
X116016259Y-156737739D01*
X116039549Y-156594408D01*
X116054483Y-156452585D01*
X116235575Y-156382257D01*
X116394672Y-156343428D01*
X116535397Y-156331318D01*
X116625486Y-156338232D01*
G37*
G36*
X117240404Y-155924898D02*
G01*
X117240404Y-155846741D01*
X117476008Y-155761058D01*
X117680286Y-155666978D01*
X117717166Y-155690425D01*
X117694687Y-156002198D01*
X117684438Y-156645293D01*
X117689811Y-157424672D01*
X117701834Y-157491707D01*
X117720586Y-157524445D01*
X117764557Y-157548303D01*
X117918056Y-157597473D01*
X117918056Y-157675631D01*
X117576482Y-157660000D01*
X117240404Y-157675631D01*
X117240404Y-157597473D01*
X117406171Y-157541855D01*
X117442515Y-157523712D01*
X117454404Y-157500733D01*
X117463032Y-157444455D01*
X117467184Y-156691332D01*
X117464375Y-156042257D01*
X117464375Y-156023084D01*
X117457945Y-155955162D01*
X117443859Y-155924654D01*
X117419109Y-155907803D01*
X117379745Y-155901451D01*
X117240404Y-155924898D01*
G37*
G36*
X119972749Y-156260976D02*
G01*
X119868824Y-156260976D01*
X119827436Y-156098081D01*
X119788224Y-156004155D01*
X119732253Y-155932702D01*
X119650837Y-155877149D01*
X119554380Y-155842924D01*
X119443963Y-155831109D01*
X119338996Y-155841945D01*
X119254107Y-155872304D01*
X119184944Y-155920990D01*
X119131004Y-155985912D01*
X119099434Y-156057661D01*
X119088712Y-156138855D01*
X119097538Y-156211148D01*
X119123607Y-156276345D01*
X119167969Y-156336448D01*
X119227599Y-156386183D01*
X119345201Y-156455733D01*
X119548499Y-156551137D01*
X119746546Y-156648856D01*
X119878426Y-156737964D01*
X119960415Y-156819193D01*
X120020707Y-156916470D01*
X120056343Y-157019871D01*
X120068370Y-157131824D01*
X120059304Y-157233289D01*
X120032359Y-157329251D01*
X119987037Y-157421252D01*
X119925370Y-157502712D01*
X119844820Y-157573778D01*
X119742550Y-157634842D01*
X119631361Y-157679067D01*
X119514553Y-157705696D01*
X119390718Y-157714710D01*
X119262443Y-157708576D01*
X119133164Y-157690041D01*
X118998552Y-157658565D01*
X118823709Y-157605289D01*
X118837483Y-157397977D01*
X118842882Y-157097264D01*
X118948028Y-157097264D01*
X118998682Y-157283608D01*
X119041573Y-157381074D01*
X119101013Y-157453530D01*
X119188363Y-157514187D01*
X119290860Y-157553029D01*
X119404396Y-157566210D01*
X119508880Y-157555932D01*
X119602323Y-157525981D01*
X119687107Y-157476329D01*
X119754466Y-157408609D01*
X119794662Y-157326143D01*
X119808740Y-157224148D01*
X119798990Y-157139171D01*
X119770168Y-157061716D01*
X119721301Y-156989675D01*
X119654372Y-156930386D01*
X119533579Y-156855455D01*
X119336741Y-156761430D01*
X119141411Y-156666696D01*
X119015730Y-156585826D01*
X118941189Y-156516943D01*
X118885927Y-156435260D01*
X118852795Y-156344207D01*
X118841416Y-156240949D01*
X118850214Y-156149739D01*
X118876715Y-156061115D01*
X118922016Y-155973625D01*
X118982741Y-155896251D01*
X119060899Y-155829286D01*
X119159054Y-155772369D01*
X119265339Y-155730974D01*
X119373172Y-155706429D01*
X119483653Y-155698241D01*
X119617136Y-155707256D01*
X119778499Y-155736981D01*
X119972749Y-155792030D01*
X119965910Y-156034075D01*
X119972749Y-156260976D01*
G37*
G36*
X121012088Y-156338232D02*
G01*
X121090038Y-156357941D01*
X121159008Y-156390705D01*
X121208984Y-156431702D01*
X121247079Y-156482951D01*
X121275174Y-156544542D01*
X121291005Y-156619908D01*
X121297766Y-156753492D01*
X121285432Y-157317815D01*
X121293696Y-157422041D01*
X121311444Y-157468147D01*
X121341429Y-157494963D01*
X121378367Y-157503684D01*
X121432143Y-157490217D01*
X121532728Y-157433342D01*
X121575104Y-157489396D01*
X121364689Y-157669769D01*
X121323315Y-157685512D01*
X121269068Y-157691263D01*
X121187661Y-157679264D01*
X121131681Y-157646810D01*
X121093342Y-157591781D01*
X121066835Y-157496845D01*
X120910998Y-157609333D01*
X120823691Y-157657801D01*
X120741826Y-157682739D01*
X120651500Y-157691263D01*
X120554177Y-157680371D01*
X120473904Y-157649476D01*
X120406891Y-157599061D01*
X120355741Y-157532553D01*
X120324841Y-157455037D01*
X120314078Y-157363244D01*
X120320125Y-157302672D01*
X120561374Y-157302672D01*
X120568104Y-157368522D01*
X120586991Y-157422067D01*
X120617306Y-157465949D01*
X120657784Y-157500574D01*
X120701049Y-157520476D01*
X120748586Y-157527131D01*
X120826532Y-157515551D01*
X120917236Y-157477184D01*
X120995716Y-157420697D01*
X121037404Y-157363000D01*
X121057709Y-157285417D01*
X121066835Y-157129382D01*
X121066835Y-156895764D01*
X120824087Y-157010662D01*
X120694090Y-157083756D01*
X120635746Y-157127794D01*
X120594125Y-157180080D01*
X120569681Y-157237705D01*
X120561374Y-157302672D01*
X120320125Y-157302672D01*
X120322507Y-157278809D01*
X120346807Y-157205341D01*
X120386532Y-157139597D01*
X120441085Y-157081632D01*
X120498226Y-157042136D01*
X120602285Y-156986011D01*
X120861096Y-156864502D01*
X121066835Y-156776817D01*
X121054131Y-156647167D01*
X121031284Y-156566477D01*
X121002599Y-156519630D01*
X120960172Y-156485957D01*
X120903010Y-156464345D01*
X120826378Y-156456371D01*
X120754348Y-156464347D01*
X120691029Y-156487548D01*
X120634403Y-156526224D01*
X120586641Y-156577027D01*
X120538974Y-156648515D01*
X120491643Y-156745554D01*
X120402861Y-156737739D01*
X120426150Y-156594408D01*
X120441085Y-156452585D01*
X120622177Y-156382257D01*
X120781274Y-156343428D01*
X120921999Y-156331318D01*
X121012088Y-156338232D01*
G37*
G36*
X122704972Y-156792449D02*
G01*
X122613381Y-156784633D01*
X122599664Y-156670420D01*
X122569837Y-156586235D01*
X122526552Y-156525003D01*
X122467539Y-156479164D01*
X122394897Y-156450828D01*
X122304658Y-156440739D01*
X122206459Y-156454592D01*
X122110607Y-156497159D01*
X122055081Y-156540640D01*
X122006569Y-156600760D01*
X121965038Y-156680830D01*
X121926178Y-156813869D01*
X121912526Y-156969647D01*
X121921324Y-157099671D01*
X121945925Y-157208071D01*
X121984434Y-157298488D01*
X122036113Y-157373869D01*
X122103309Y-157439864D01*
X122172577Y-157484484D01*
X122245020Y-157510578D01*
X122322365Y-157519316D01*
X122432936Y-157505530D01*
X122567822Y-157459256D01*
X122733670Y-157370816D01*
X122784106Y-157452759D01*
X122575504Y-157596060D01*
X122427512Y-157676730D01*
X122354682Y-157698808D01*
X122260938Y-157706894D01*
X122142747Y-157697434D01*
X122040673Y-157670453D01*
X121951900Y-157627073D01*
X121874302Y-157567065D01*
X121790371Y-157468630D01*
X121729855Y-157354457D01*
X121692171Y-157221460D01*
X121678907Y-157065390D01*
X121692495Y-156904436D01*
X121731568Y-156763258D01*
X121795046Y-156638271D01*
X121883827Y-156526835D01*
X121992948Y-156433985D01*
X122111959Y-156368764D01*
X122243038Y-156329260D01*
X122389288Y-156315687D01*
X122523238Y-156327303D01*
X122654258Y-156362281D01*
X122784106Y-156421810D01*
X122756873Y-156543077D01*
X122704972Y-156792449D01*
G37*
G36*
X122877285Y-155915251D02*
G01*
X122877285Y-155838925D01*
X123143754Y-155751608D01*
X123315945Y-155666978D01*
X123350017Y-155690425D01*
X123332309Y-155973625D01*
X123319975Y-156474811D01*
X123321318Y-156609633D01*
X123500348Y-156437686D01*
X123554130Y-156399609D01*
X123608304Y-156374061D01*
X123687557Y-156353774D01*
X123770847Y-156346950D01*
X123872770Y-156356597D01*
X123954695Y-156383442D01*
X124020830Y-156425963D01*
X124073382Y-156484134D01*
X124109854Y-156556134D01*
X124130129Y-156645293D01*
X124135991Y-156792624D01*
X124139654Y-157404033D01*
X124146700Y-157498395D01*
X124160781Y-157533482D01*
X124196628Y-157554491D01*
X124313189Y-157587948D01*
X124355565Y-157597473D01*
X124355565Y-157675631D01*
X124008496Y-157660000D01*
X123694277Y-157675631D01*
X123694277Y-157597473D01*
X123859630Y-157547037D01*
X123886252Y-157525177D01*
X123903349Y-157476085D01*
X123910188Y-157328684D01*
X123919713Y-156935697D01*
X123912099Y-156760371D01*
X123895778Y-156679853D01*
X123863154Y-156621421D01*
X123812369Y-156574829D01*
X123749282Y-156544764D01*
X123676570Y-156534528D01*
X123577879Y-156549477D01*
X123483862Y-156595223D01*
X123406776Y-156664727D01*
X123358810Y-156748119D01*
X123334634Y-156856587D01*
X123324005Y-157062581D01*
X123328075Y-157343897D01*
X123336339Y-157458255D01*
X123348695Y-157510691D01*
X123362962Y-157533360D01*
X123394830Y-157549262D01*
X123507187Y-157583796D01*
X123553593Y-157597473D01*
X123553593Y-157675631D01*
X123222889Y-157660000D01*
X122893649Y-157675631D01*
X122893649Y-157597473D01*
X122937369Y-157585139D01*
X123046902Y-157551138D01*
X123077442Y-157534581D01*
X123089451Y-157505746D01*
X123100034Y-157412826D01*
X123109560Y-156748119D01*
X123101461Y-156063573D01*
X123090387Y-155945293D01*
X123061965Y-155913288D01*
X123008443Y-155901451D01*
X122877285Y-155915251D01*
G37*
G36*
X125669591Y-155698241D02*
G01*
X125648966Y-156079800D01*
X125639549Y-156868531D01*
X125644258Y-157295431D01*
X125651762Y-157396950D01*
X125665816Y-157426437D01*
X125691580Y-157444350D01*
X125733827Y-157451172D01*
X125878663Y-157433342D01*
X125878663Y-157511500D01*
X125611214Y-157605377D01*
X125436095Y-157691263D01*
X125401901Y-157665251D01*
X125422418Y-157460331D01*
X125259775Y-157596747D01*
X125171702Y-157653039D01*
X125086812Y-157681156D01*
X124981071Y-157691263D01*
X124879910Y-157681246D01*
X124789930Y-157652116D01*
X124708735Y-157603895D01*
X124634734Y-157534825D01*
X124577496Y-157453496D01*
X124534731Y-157354920D01*
X124507312Y-157235622D01*
X124497470Y-157091280D01*
X124504425Y-156978928D01*
X124726936Y-156978928D01*
X124735063Y-157108900D01*
X124757495Y-157214629D01*
X124792040Y-157300327D01*
X124837578Y-157369473D01*
X124918566Y-157445713D01*
X125005798Y-157489174D01*
X125102581Y-157503684D01*
X125200548Y-157489050D01*
X125289794Y-157445066D01*
X125361332Y-157378856D01*
X125401779Y-157303405D01*
X125420443Y-157200466D01*
X125429134Y-156977585D01*
X125424662Y-156735537D01*
X125416922Y-156666908D01*
X125395421Y-156616402D01*
X125360409Y-156570541D01*
X125309699Y-156528545D01*
X125251241Y-156497926D01*
X125182562Y-156478771D01*
X125101360Y-156472002D01*
X125003303Y-156486117D01*
X124916040Y-156528054D01*
X124836235Y-156600840D01*
X124791256Y-156667333D01*
X124757145Y-156750074D01*
X124734976Y-156852532D01*
X124726936Y-156978928D01*
X124504425Y-156978928D01*
X124505512Y-156961365D01*
X124528301Y-156849247D01*
X124564392Y-156752271D01*
X124625074Y-156647496D01*
X124710572Y-156545275D01*
X124812313Y-156457043D01*
X124924284Y-156389448D01*
X125044173Y-156345487D01*
X125161444Y-156331318D01*
X125282955Y-156345240D01*
X125429134Y-156387006D01*
X125431943Y-156308970D01*
X125427142Y-156024342D01*
X125419609Y-155959092D01*
X125403495Y-155932539D01*
X125375235Y-155915752D01*
X125329483Y-155909267D01*
X125242044Y-155918426D01*
X125194173Y-155924898D01*
X125194173Y-155846741D01*
X125408618Y-155777498D01*
X125635397Y-155666978D01*
X125669591Y-155698241D01*
G37*
G36*
X126758585Y-156323796D02*
G01*
X126846276Y-156346514D01*
X126919326Y-156382320D01*
X126980198Y-156430969D01*
X127028083Y-156491539D01*
X127064510Y-156567955D01*
X127088671Y-156663724D01*
X127098412Y-156783290D01*
X127043541Y-156819260D01*
X126993265Y-156862791D01*
X126871632Y-156861448D01*
X126241852Y-156870607D01*
X126249201Y-157030877D01*
X126270601Y-157159442D01*
X126303358Y-157261677D01*
X126345655Y-157342240D01*
X126404823Y-157414920D01*
X126470375Y-157464298D01*
X126543629Y-157493634D01*
X126627145Y-157503684D01*
X126716239Y-157495217D01*
X126812892Y-157468513D01*
X126913810Y-157422925D01*
X127054692Y-157339553D01*
X127106716Y-157421008D01*
X126834874Y-157624096D01*
X126777234Y-157657808D01*
X126718736Y-157680638D01*
X126630294Y-157700325D01*
X126539706Y-157706894D01*
X126432627Y-157695725D01*
X126334955Y-157662839D01*
X126244320Y-157607602D01*
X126159176Y-157527376D01*
X126092474Y-157433800D01*
X126043389Y-157323941D01*
X126012387Y-157194707D01*
X126001395Y-157042187D01*
X126014288Y-156879289D01*
X126043220Y-156769002D01*
X126259560Y-156769002D01*
X126336130Y-156770345D01*
X126568721Y-156764323D01*
X126855268Y-156744455D01*
X126843678Y-156654237D01*
X126823022Y-156586605D01*
X126795184Y-156536727D01*
X126737768Y-156478726D01*
X126670134Y-156444677D01*
X126588799Y-156432923D01*
X126517072Y-156441557D01*
X126451209Y-156467219D01*
X126389375Y-156511081D01*
X126339800Y-156568846D01*
X126296055Y-156652388D01*
X126259560Y-156769002D01*
X126043220Y-156769002D01*
X126050939Y-156739576D01*
X126109645Y-156619003D01*
X126190561Y-156514501D01*
X126291633Y-156426682D01*
X126400969Y-156365328D01*
X126520503Y-156328347D01*
X126653035Y-156315687D01*
X126758585Y-156323796D01*
G37*
G36*
X127181699Y-156440739D02*
G01*
X127181699Y-156362581D01*
X127468562Y-156378213D01*
X127793771Y-156362581D01*
X127793771Y-156440739D01*
X127762264Y-156446235D01*
X127682638Y-156464454D01*
X127654309Y-156478230D01*
X127639934Y-156496763D01*
X127635258Y-156518408D01*
X127635258Y-156532208D01*
X127654431Y-156591803D01*
X127769225Y-156915792D01*
X127931769Y-157330760D01*
X128114829Y-156855708D01*
X128209717Y-156590094D01*
X128218632Y-156521950D01*
X128206420Y-156483360D01*
X128183821Y-156467224D01*
X128140718Y-156451730D01*
X128102494Y-156440739D01*
X128102494Y-156362581D01*
X128155739Y-156366856D01*
X128379954Y-156378213D01*
X128558862Y-156362581D01*
X128558862Y-156440739D01*
X128472081Y-156473101D01*
X128420647Y-156504231D01*
X128393510Y-156533796D01*
X128313481Y-156716732D01*
X127923464Y-157706894D01*
X127841521Y-157706894D01*
X127521184Y-156899021D01*
X127390648Y-156595467D01*
X127352180Y-156527963D01*
X127319574Y-156492763D01*
X127282398Y-156473493D01*
X127181699Y-156440739D01*
G37*
G36*
X129298759Y-156338232D02*
G01*
X129376709Y-156357941D01*
X129445680Y-156390705D01*
X129495655Y-156431702D01*
X129533751Y-156482951D01*
X129561845Y-156544542D01*
X129577676Y-156619908D01*
X129584438Y-156753492D01*
X129572103Y-157317815D01*
X129580367Y-157422041D01*
X129598115Y-157468147D01*
X129628101Y-157494963D01*
X129665038Y-157503684D01*
X129718814Y-157490217D01*
X129819399Y-157433342D01*
X129861775Y-157489396D01*
X129651360Y-157669769D01*
X129609987Y-157685512D01*
X129555739Y-157691263D01*
X129474332Y-157679264D01*
X129418353Y-157646810D01*
X129380014Y-157591781D01*
X129353506Y-157496845D01*
X129197669Y-157609333D01*
X129110362Y-157657801D01*
X129028497Y-157682739D01*
X128938171Y-157691263D01*
X128840848Y-157680371D01*
X128760575Y-157649476D01*
X128693562Y-157599061D01*
X128642412Y-157532553D01*
X128611512Y-157455037D01*
X128600750Y-157363244D01*
X128606796Y-157302672D01*
X128848046Y-157302672D01*
X128854775Y-157368522D01*
X128873662Y-157422067D01*
X128903977Y-157465949D01*
X128944455Y-157500574D01*
X128987721Y-157520476D01*
X129035258Y-157527131D01*
X129113203Y-157515551D01*
X129203907Y-157477184D01*
X129282387Y-157420697D01*
X129324075Y-157363000D01*
X129344380Y-157285417D01*
X129353506Y-157129382D01*
X129353506Y-156895764D01*
X129110759Y-157010662D01*
X128980761Y-157083756D01*
X128922418Y-157127794D01*
X128880797Y-157180080D01*
X128856353Y-157237705D01*
X128848046Y-157302672D01*
X128606796Y-157302672D01*
X128609178Y-157278809D01*
X128633478Y-157205341D01*
X128673203Y-157139597D01*
X128727756Y-157081632D01*
X128784898Y-157042136D01*
X128888956Y-156986011D01*
X129147767Y-156864502D01*
X129353506Y-156776817D01*
X129340802Y-156647167D01*
X129317955Y-156566477D01*
X129289270Y-156519630D01*
X129246844Y-156485957D01*
X129189682Y-156464345D01*
X129113049Y-156456371D01*
X129041019Y-156464347D01*
X128977700Y-156487548D01*
X128921074Y-156526224D01*
X128873312Y-156577027D01*
X128825646Y-156648515D01*
X128778314Y-156745554D01*
X128689532Y-156737739D01*
X128712821Y-156594408D01*
X128727756Y-156452585D01*
X128908848Y-156382257D01*
X129067945Y-156343428D01*
X129208670Y-156331318D01*
X129298759Y-156338232D01*
G37*
G36*
X131548219Y-156341240D02*
G01*
X131641238Y-156369897D01*
X131724000Y-156416884D01*
X131798255Y-156483482D01*
X131856233Y-156562858D01*
X131899422Y-156659065D01*
X131927066Y-156775521D01*
X131936985Y-156916524D01*
X131926105Y-157065614D01*
X131894769Y-157198079D01*
X131844050Y-157316594D01*
X131773700Y-157424350D01*
X131686126Y-157517857D01*
X131579780Y-157598206D01*
X131461880Y-157660816D01*
X131353146Y-157695777D01*
X131251151Y-157706894D01*
X131139776Y-157691873D01*
X131009351Y-157648154D01*
X131021563Y-158068251D01*
X131031283Y-158099611D01*
X131047452Y-158119909D01*
X131082379Y-158135751D01*
X131204623Y-158168879D01*
X131262020Y-158183656D01*
X131262020Y-158261814D01*
X130929972Y-158246182D01*
X130554326Y-158261814D01*
X130554326Y-158183656D01*
X130619905Y-158167292D01*
X130724673Y-158137053D01*
X130762055Y-158114291D01*
X130779890Y-158079285D01*
X130790753Y-158005603D01*
X130793207Y-157432121D01*
X131005198Y-157432121D01*
X131082679Y-157491332D01*
X131158827Y-157532383D01*
X131238904Y-157557810D01*
X131320760Y-157566210D01*
X131415943Y-157551836D01*
X131503928Y-157508344D01*
X131587840Y-157431388D01*
X131635850Y-157361547D01*
X131671867Y-157276475D01*
X131695033Y-157173081D01*
X131703367Y-157047561D01*
X131695084Y-156918706D01*
X131671914Y-156810875D01*
X131635685Y-156720637D01*
X131587229Y-156645170D01*
X131523331Y-156583181D01*
X131449776Y-156546947D01*
X131363136Y-156534528D01*
X131275000Y-156547843D01*
X131184106Y-156589849D01*
X131106353Y-156653918D01*
X131052948Y-156732976D01*
X131021476Y-156827607D01*
X131007885Y-156953527D01*
X131005198Y-157432121D01*
X130793207Y-157432121D01*
X130793440Y-157377777D01*
X130789410Y-156813820D01*
X130790753Y-156769002D01*
X130783836Y-156643869D01*
X130770237Y-156597543D01*
X130753211Y-156582698D01*
X130721022Y-156576905D01*
X130562508Y-156589239D01*
X130562508Y-156511081D01*
X130750719Y-156450270D01*
X130890724Y-156392860D01*
X130991643Y-156339134D01*
X131036706Y-156365879D01*
X131021224Y-156485264D01*
X131012037Y-156621601D01*
X131179205Y-156445781D01*
X131273011Y-156370886D01*
X131344836Y-156342002D01*
X131442393Y-156331318D01*
X131548219Y-156341240D01*
G37*
G36*
X132073517Y-156581423D02*
G01*
X132073517Y-156503265D01*
X132241439Y-156454286D01*
X132385821Y-156396685D01*
X132509368Y-156331318D01*
X132544905Y-156357819D01*
X132527744Y-156496205D01*
X132518893Y-156653230D01*
X132675464Y-156474583D01*
X132749825Y-156407644D01*
X132820146Y-156374159D01*
X132904187Y-156362581D01*
X132964142Y-156368055D01*
X133035345Y-156386029D01*
X132986130Y-156675212D01*
X132917864Y-156675212D01*
X132900093Y-156615311D01*
X132876831Y-156579713D01*
X132845805Y-156557267D01*
X132812595Y-156550160D01*
X132758941Y-156561508D01*
X132695115Y-156600596D01*
X132614016Y-156682373D01*
X132560537Y-156772909D01*
X132530799Y-156881045D01*
X132518893Y-157048660D01*
X132524551Y-157338897D01*
X132536723Y-157473520D01*
X132549699Y-157510316D01*
X132574214Y-157537634D01*
X132621679Y-157558886D01*
X132767533Y-157597473D01*
X132767533Y-157675631D01*
X132457466Y-157660000D01*
X132073517Y-157675631D01*
X132073517Y-157597473D01*
X132240088Y-157548838D01*
X132284542Y-157525422D01*
X132300510Y-157488588D01*
X132308478Y-157388890D01*
X132311287Y-157091158D01*
X132307939Y-156696794D01*
X132303105Y-156620502D01*
X132288441Y-156588856D01*
X132264019Y-156570451D01*
X132226535Y-156563715D01*
X132109054Y-156577271D01*
X132073517Y-156581423D01*
G37*
G36*
X133946984Y-156327544D02*
G01*
X134068187Y-156361205D01*
X134172149Y-156415172D01*
X134261688Y-156489832D01*
X134332982Y-156581348D01*
X134385419Y-156690437D01*
X134418630Y-156820596D01*
X134430460Y-156976364D01*
X134417410Y-157143746D01*
X134380504Y-157285733D01*
X134321735Y-157406779D01*
X134241172Y-157510279D01*
X134140548Y-157595666D01*
X134027215Y-157656493D01*
X133898655Y-157693883D01*
X133751343Y-157706894D01*
X133607600Y-157694903D01*
X133485773Y-157660936D01*
X133381854Y-157606593D01*
X133292899Y-157531528D01*
X133222617Y-157439488D01*
X133170593Y-157328588D01*
X133137450Y-157195015D01*
X133125593Y-157033883D01*
X133134897Y-156915181D01*
X133387909Y-156915181D01*
X133396440Y-157124020D01*
X133416608Y-157244909D01*
X133454866Y-157355268D01*
X133502746Y-157439789D01*
X133559368Y-157503196D01*
X133628479Y-157551448D01*
X133703588Y-157579974D01*
X133786880Y-157589658D01*
X133893041Y-157575272D01*
X133983718Y-157533386D01*
X134062875Y-157462285D01*
X134106142Y-157396838D01*
X134139918Y-157310416D01*
X134162472Y-157197818D01*
X134170830Y-157052812D01*
X134161516Y-156890917D01*
X134136181Y-156762929D01*
X134097897Y-156662640D01*
X134048464Y-156584842D01*
X133981624Y-156515812D01*
X133912288Y-156469257D01*
X133839323Y-156442047D01*
X133760868Y-156432923D01*
X133656997Y-156446502D01*
X133568817Y-156485842D01*
X133492445Y-156552114D01*
X133449753Y-156613788D01*
X133417118Y-156692196D01*
X133395727Y-156791122D01*
X133387909Y-156915181D01*
X133134897Y-156915181D01*
X133138494Y-156869286D01*
X133174980Y-156729699D01*
X133233096Y-156610721D01*
X133312805Y-156509005D01*
X133412253Y-156425436D01*
X133525426Y-156365589D01*
X133655008Y-156328610D01*
X133804710Y-156315687D01*
X133946984Y-156327544D01*
G37*
G36*
X135822278Y-155698241D02*
G01*
X135801653Y-156079800D01*
X135792236Y-156868531D01*
X135796944Y-157295431D01*
X135804448Y-157396950D01*
X135818502Y-157426437D01*
X135844267Y-157444350D01*
X135886514Y-157451172D01*
X136031350Y-157433342D01*
X136031350Y-157511500D01*
X135763901Y-157605377D01*
X135588782Y-157691263D01*
X135554588Y-157665251D01*
X135575104Y-157460331D01*
X135412462Y-157596747D01*
X135324389Y-157653039D01*
X135239499Y-157681156D01*
X135133757Y-157691263D01*
X135032596Y-157681246D01*
X134942617Y-157652116D01*
X134861421Y-157603895D01*
X134787421Y-157534825D01*
X134730183Y-157453496D01*
X134687417Y-157354920D01*
X134659999Y-157235622D01*
X134650157Y-157091280D01*
X134657112Y-156978928D01*
X134879623Y-156978928D01*
X134887749Y-157108900D01*
X134910182Y-157214629D01*
X134944726Y-157300327D01*
X134990265Y-157369473D01*
X135071253Y-157445713D01*
X135158485Y-157489174D01*
X135255268Y-157503684D01*
X135353234Y-157489050D01*
X135442480Y-157445066D01*
X135514019Y-157378856D01*
X135554466Y-157303405D01*
X135573129Y-157200466D01*
X135581821Y-156977585D01*
X135577349Y-156735537D01*
X135569609Y-156666908D01*
X135548107Y-156616402D01*
X135513095Y-156570541D01*
X135462386Y-156528545D01*
X135403928Y-156497926D01*
X135335249Y-156478771D01*
X135254047Y-156472002D01*
X135155989Y-156486117D01*
X135068727Y-156528054D01*
X134988921Y-156600840D01*
X134943943Y-156667333D01*
X134909831Y-156750074D01*
X134887663Y-156852532D01*
X134879623Y-156978928D01*
X134657112Y-156978928D01*
X134658199Y-156961365D01*
X134680988Y-156849247D01*
X134717079Y-156752271D01*
X134777760Y-156647496D01*
X134863258Y-156545275D01*
X134965000Y-156457043D01*
X135076971Y-156389448D01*
X135196860Y-156345487D01*
X135314131Y-156331318D01*
X135435642Y-156345240D01*
X135581821Y-156387006D01*
X135584630Y-156308970D01*
X135579828Y-156024342D01*
X135572295Y-155959092D01*
X135556182Y-155932539D01*
X135527922Y-155915752D01*
X135482170Y-155909267D01*
X135394731Y-155918426D01*
X135346859Y-155924898D01*
X135346859Y-155846741D01*
X135561304Y-155777498D01*
X135788084Y-155666978D01*
X135822278Y-155698241D01*
G37*
G36*
X136062491Y-156503265D02*
G01*
X136062491Y-156425108D01*
X136305652Y-156401786D01*
X136520202Y-156362581D01*
X136554396Y-156388349D01*
X136533525Y-156635548D01*
X136525697Y-156958290D01*
X136531805Y-157224108D01*
X136544138Y-157330638D01*
X136573705Y-157403322D01*
X136624005Y-157457522D01*
X136690644Y-157491814D01*
X136771650Y-157503684D01*
X136866700Y-157490627D01*
X136956664Y-157451050D01*
X137031405Y-157390107D01*
X137077564Y-157317449D01*
X137101675Y-157225027D01*
X137111758Y-157067588D01*
X137103576Y-156612564D01*
X137090163Y-156561268D01*
X137068649Y-156534284D01*
X137028120Y-156519738D01*
X136913677Y-156507295D01*
X136864462Y-156503265D01*
X136864462Y-156425108D01*
X137140411Y-156395929D01*
X137320830Y-156362581D01*
X137356367Y-156388105D01*
X137337927Y-156666420D01*
X137331821Y-157056109D01*
X137337164Y-157309463D01*
X137346842Y-157388890D01*
X137361876Y-157417772D01*
X137386246Y-157434864D01*
X137423290Y-157441158D01*
X137566782Y-157433342D01*
X137566782Y-157511500D01*
X137432083Y-157551136D01*
X137329745Y-157588192D01*
X137233057Y-157632161D01*
X137125558Y-157691263D01*
X137084525Y-157661465D01*
X137104919Y-157460575D01*
X136950646Y-157592948D01*
X136863119Y-157650596D01*
X136778837Y-157680844D01*
X136682745Y-157691263D01*
X136560452Y-157679543D01*
X136469125Y-157647914D01*
X136401378Y-157599183D01*
X136351413Y-157532612D01*
X136319078Y-157442540D01*
X136307100Y-157321479D01*
X136307100Y-156847281D01*
X136295717Y-156619887D01*
X136277669Y-156556144D01*
X136254408Y-156537689D01*
X136204163Y-156520844D01*
X136110362Y-156508639D01*
X136062491Y-156503265D01*
G37*
G36*
X138715579Y-156792449D02*
G01*
X138623988Y-156784633D01*
X138610271Y-156670420D01*
X138580444Y-156586235D01*
X138537159Y-156525003D01*
X138478146Y-156479164D01*
X138405504Y-156450828D01*
X138315265Y-156440739D01*
X138217066Y-156454592D01*
X138121214Y-156497159D01*
X138065688Y-156540640D01*
X138017176Y-156600760D01*
X137975645Y-156680830D01*
X137936785Y-156813869D01*
X137923133Y-156969647D01*
X137931931Y-157099671D01*
X137956532Y-157208071D01*
X137995041Y-157298488D01*
X138046720Y-157373869D01*
X138113916Y-157439864D01*
X138183184Y-157484484D01*
X138255627Y-157510578D01*
X138332972Y-157519316D01*
X138443543Y-157505530D01*
X138578429Y-157459256D01*
X138744277Y-157370816D01*
X138794713Y-157452759D01*
X138586111Y-157596060D01*
X138438119Y-157676730D01*
X138365289Y-157698808D01*
X138271545Y-157706894D01*
X138153354Y-157697434D01*
X138051280Y-157670453D01*
X137962507Y-157627073D01*
X137884909Y-157567065D01*
X137800978Y-157468630D01*
X137740462Y-157354457D01*
X137702778Y-157221460D01*
X137689515Y-157065390D01*
X137703102Y-156904436D01*
X137742175Y-156763258D01*
X137805653Y-156638271D01*
X137894434Y-156526835D01*
X138003555Y-156433985D01*
X138122566Y-156368764D01*
X138253645Y-156329260D01*
X138399895Y-156315687D01*
X138533845Y-156327303D01*
X138664866Y-156362281D01*
X138794713Y-156421810D01*
X138767480Y-156543077D01*
X138715579Y-156792449D01*
G37*
G36*
X139252669Y-156034319D02*
G01*
X139331926Y-156034319D01*
X139300540Y-156386029D01*
X139678995Y-156378213D01*
X139689863Y-156399829D01*
X139627093Y-156518897D01*
X139300540Y-156511081D01*
X139288206Y-157207662D01*
X139288206Y-157215722D01*
X139299008Y-157365166D01*
X139324354Y-157448241D01*
X139354041Y-157487568D01*
X139394107Y-157510956D01*
X139448063Y-157519316D01*
X139524294Y-157506150D01*
X139639305Y-157456789D01*
X139678995Y-157534703D01*
X139537432Y-157619921D01*
X139452215Y-157660854D01*
X139376083Y-157684397D01*
X139316905Y-157691263D01*
X139232247Y-157679124D01*
X139163886Y-157644368D01*
X139112139Y-157589060D01*
X139080600Y-157514309D01*
X139072619Y-157445337D01*
X139068265Y-157231109D01*
X139083286Y-156511081D01*
X138885205Y-156518897D01*
X138885205Y-156440739D01*
X138992641Y-156379931D01*
X139084019Y-156300788D01*
X139162872Y-156198096D01*
X139252669Y-156034319D01*
G37*
G36*
X140111793Y-155666978D02*
G01*
X140167474Y-155677528D01*
X140213642Y-155708988D01*
X140244811Y-155755481D01*
X140255286Y-155811570D01*
X140244895Y-155866628D01*
X140213642Y-155913541D01*
X140167426Y-155945478D01*
X140111793Y-155956161D01*
X140057420Y-155945546D01*
X140011409Y-155913541D01*
X139980156Y-155866628D01*
X139969766Y-155811570D01*
X139980240Y-155755481D01*
X140011409Y-155708988D01*
X140057372Y-155677461D01*
X140111793Y-155666978D01*
G37*
G36*
X139771685Y-156565792D02*
G01*
X139771685Y-156487634D01*
X139994826Y-156415573D01*
X140203384Y-156315687D01*
X140238921Y-156346950D01*
X140219446Y-156667670D01*
X140211566Y-157169193D01*
X140215793Y-157395099D01*
X140223900Y-157475718D01*
X140235898Y-157510138D01*
X140252599Y-157531161D01*
X140285897Y-157548080D01*
X140394626Y-157583796D01*
X140439689Y-157597473D01*
X140439689Y-157675631D01*
X140145987Y-157660000D01*
X139771685Y-157675631D01*
X139771685Y-157597473D01*
X139897759Y-157560789D01*
X139957451Y-157533691D01*
X139979291Y-157514187D01*
X139993504Y-157439848D01*
X140002494Y-157117903D01*
X140001151Y-156824445D01*
X140001151Y-156767903D01*
X139994035Y-156628656D01*
X139980635Y-156581912D01*
X139954763Y-156558482D01*
X139915055Y-156550160D01*
X139771685Y-156565792D01*
G37*
G36*
X141407137Y-156327544D02*
G01*
X141528340Y-156361205D01*
X141632302Y-156415172D01*
X141721842Y-156489832D01*
X141793136Y-156581348D01*
X141845572Y-156690437D01*
X141878784Y-156820596D01*
X141890614Y-156976364D01*
X141877564Y-157143746D01*
X141840658Y-157285733D01*
X141781889Y-157406779D01*
X141701325Y-157510279D01*
X141600702Y-157595666D01*
X141487368Y-157656493D01*
X141358808Y-157693883D01*
X141211496Y-157706894D01*
X141067753Y-157694903D01*
X140945926Y-157660936D01*
X140842007Y-157606593D01*
X140753053Y-157531528D01*
X140682771Y-157439488D01*
X140630746Y-157328588D01*
X140597603Y-157195015D01*
X140585746Y-157033883D01*
X140595050Y-156915181D01*
X140848063Y-156915181D01*
X140856594Y-157124020D01*
X140876762Y-157244909D01*
X140915020Y-157355268D01*
X140962900Y-157439789D01*
X141019521Y-157503196D01*
X141088633Y-157551448D01*
X141163741Y-157579974D01*
X141247034Y-157589658D01*
X141353194Y-157575272D01*
X141443871Y-157533386D01*
X141523028Y-157462285D01*
X141566295Y-157396838D01*
X141600071Y-157310416D01*
X141622626Y-157197818D01*
X141630983Y-157052812D01*
X141621670Y-156890917D01*
X141596334Y-156762929D01*
X141558051Y-156662640D01*
X141508618Y-156584842D01*
X141441778Y-156515812D01*
X141372442Y-156469257D01*
X141299477Y-156442047D01*
X141221022Y-156432923D01*
X141117151Y-156446502D01*
X141028970Y-156485842D01*
X140952599Y-156552114D01*
X140909906Y-156613788D01*
X140877272Y-156692196D01*
X140855880Y-156791122D01*
X140848063Y-156915181D01*
X140595050Y-156915181D01*
X140598647Y-156869286D01*
X140635134Y-156729699D01*
X140693250Y-156610721D01*
X140772958Y-156509005D01*
X140872406Y-156425436D01*
X140985579Y-156365589D01*
X141115161Y-156328610D01*
X141264863Y-156315687D01*
X141407137Y-156327544D01*
G37*
G36*
X142035083Y-156581423D02*
G01*
X142035083Y-156503265D01*
X142196312Y-156458061D01*
X142344377Y-156400644D01*
X142480460Y-156331318D01*
X142517341Y-156354521D01*
X142502077Y-156471721D01*
X142494138Y-156593635D01*
X142667672Y-156421444D01*
X142714671Y-156387591D01*
X142770132Y-156361360D01*
X142852276Y-156338859D01*
X142938171Y-156331318D01*
X143034029Y-156340253D01*
X143113111Y-156365377D01*
X143178791Y-156405520D01*
X143233339Y-156461378D01*
X143267049Y-156523217D01*
X143290900Y-156618131D01*
X143300261Y-156758377D01*
X143296109Y-157089692D01*
X143299042Y-157390254D01*
X143304291Y-157482435D01*
X143315069Y-157519336D01*
X143330181Y-157540076D01*
X143361009Y-157555013D01*
X143460118Y-157582452D01*
X143521545Y-157597473D01*
X143521545Y-157675631D01*
X143234682Y-157660000D01*
X142860380Y-157675631D01*
X142860380Y-157597473D01*
X143001955Y-157551966D01*
X143038555Y-157534581D01*
X143053837Y-157514375D01*
X143062491Y-157481336D01*
X143073075Y-157327809D01*
X143077512Y-157067100D01*
X143073239Y-156797250D01*
X143065300Y-156707575D01*
X143034741Y-156626175D01*
X142984699Y-156568112D01*
X142917942Y-156531482D01*
X142837177Y-156518897D01*
X142748993Y-156531655D01*
X142659490Y-156571531D01*
X142583189Y-156633575D01*
X142530408Y-156713070D01*
X142500818Y-156813218D01*
X142488764Y-156975509D01*
X142496985Y-157418297D01*
X142509159Y-157507958D01*
X142528525Y-157529094D01*
X142575751Y-157554275D01*
X142669016Y-157583796D01*
X142720917Y-157597473D01*
X142720917Y-157675631D01*
X142413538Y-157660000D01*
X142055600Y-157675631D01*
X142055600Y-157597473D01*
X142199746Y-157558448D01*
X142238660Y-157541175D01*
X142248982Y-157524942D01*
X142257833Y-157483534D01*
X142268582Y-157341140D01*
X142272854Y-157127916D01*
X142269022Y-156708648D01*
X142263328Y-156622578D01*
X142247727Y-156590660D01*
X142222034Y-156571936D01*
X142182728Y-156565059D01*
X142088328Y-156574584D01*
X142035083Y-156581423D01*
G37*
D12*
X120333333Y-88454819D02*
X120000000Y-87978628D01*
X119761905Y-88454819D02*
X119761905Y-87454819D01*
X119761905Y-87454819D02*
X120142857Y-87454819D01*
X120142857Y-87454819D02*
X120238095Y-87502438D01*
X120238095Y-87502438D02*
X120285714Y-87550057D01*
X120285714Y-87550057D02*
X120333333Y-87645295D01*
X120333333Y-87645295D02*
X120333333Y-87788152D01*
X120333333Y-87788152D02*
X120285714Y-87883390D01*
X120285714Y-87883390D02*
X120238095Y-87931009D01*
X120238095Y-87931009D02*
X120142857Y-87978628D01*
X120142857Y-87978628D02*
X119761905Y-87978628D01*
X120666667Y-87454819D02*
X121333333Y-88454819D01*
X121333333Y-87454819D02*
X120666667Y-88454819D01*
X119833333Y-118954819D02*
X119500000Y-118478628D01*
X119261905Y-118954819D02*
X119261905Y-117954819D01*
X119261905Y-117954819D02*
X119642857Y-117954819D01*
X119642857Y-117954819D02*
X119738095Y-118002438D01*
X119738095Y-118002438D02*
X119785714Y-118050057D01*
X119785714Y-118050057D02*
X119833333Y-118145295D01*
X119833333Y-118145295D02*
X119833333Y-118288152D01*
X119833333Y-118288152D02*
X119785714Y-118383390D01*
X119785714Y-118383390D02*
X119738095Y-118431009D01*
X119738095Y-118431009D02*
X119642857Y-118478628D01*
X119642857Y-118478628D02*
X119261905Y-118478628D01*
X120166667Y-117954819D02*
X120833333Y-118954819D01*
X120833333Y-117954819D02*
X120166667Y-118954819D01*
X129333333Y-118954819D02*
X129000000Y-118478628D01*
X128761905Y-118954819D02*
X128761905Y-117954819D01*
X128761905Y-117954819D02*
X129142857Y-117954819D01*
X129142857Y-117954819D02*
X129238095Y-118002438D01*
X129238095Y-118002438D02*
X129285714Y-118050057D01*
X129285714Y-118050057D02*
X129333333Y-118145295D01*
X129333333Y-118145295D02*
X129333333Y-118288152D01*
X129333333Y-118288152D02*
X129285714Y-118383390D01*
X129285714Y-118383390D02*
X129238095Y-118431009D01*
X129238095Y-118431009D02*
X129142857Y-118478628D01*
X129142857Y-118478628D02*
X128761905Y-118478628D01*
X129666667Y-117954819D02*
X130333333Y-118954819D01*
X130333333Y-117954819D02*
X129666667Y-118954819D01*
D11*
X176303884Y-52372419D02*
X176303884Y-51372419D01*
X176303884Y-51372419D02*
X176637217Y-52086704D01*
X176637217Y-52086704D02*
X176970550Y-51372419D01*
X176970550Y-51372419D02*
X176970550Y-52372419D01*
X177970550Y-52372419D02*
X177399122Y-52372419D01*
X177684836Y-52372419D02*
X177684836Y-51372419D01*
X177684836Y-51372419D02*
X177589598Y-51515276D01*
X177589598Y-51515276D02*
X177494360Y-51610514D01*
X177494360Y-51610514D02*
X177399122Y-51658133D01*
D12*
X115833333Y-118954819D02*
X115500000Y-118478628D01*
X115261905Y-118954819D02*
X115261905Y-117954819D01*
X115261905Y-117954819D02*
X115642857Y-117954819D01*
X115642857Y-117954819D02*
X115738095Y-118002438D01*
X115738095Y-118002438D02*
X115785714Y-118050057D01*
X115785714Y-118050057D02*
X115833333Y-118145295D01*
X115833333Y-118145295D02*
X115833333Y-118288152D01*
X115833333Y-118288152D02*
X115785714Y-118383390D01*
X115785714Y-118383390D02*
X115738095Y-118431009D01*
X115738095Y-118431009D02*
X115642857Y-118478628D01*
X115642857Y-118478628D02*
X115261905Y-118478628D01*
X116166667Y-117954819D02*
X116833333Y-118954819D01*
X116833333Y-117954819D02*
X116166667Y-118954819D01*
X97523810Y-116954819D02*
X98142857Y-116954819D01*
X98142857Y-116954819D02*
X97809524Y-117335771D01*
X97809524Y-117335771D02*
X97952381Y-117335771D01*
X97952381Y-117335771D02*
X98047619Y-117383390D01*
X98047619Y-117383390D02*
X98095238Y-117431009D01*
X98095238Y-117431009D02*
X98142857Y-117526247D01*
X98142857Y-117526247D02*
X98142857Y-117764342D01*
X98142857Y-117764342D02*
X98095238Y-117859580D01*
X98095238Y-117859580D02*
X98047619Y-117907200D01*
X98047619Y-117907200D02*
X97952381Y-117954819D01*
X97952381Y-117954819D02*
X97666667Y-117954819D01*
X97666667Y-117954819D02*
X97571429Y-117907200D01*
X97571429Y-117907200D02*
X97523810Y-117859580D01*
X98571429Y-117859580D02*
X98619048Y-117907200D01*
X98619048Y-117907200D02*
X98571429Y-117954819D01*
X98571429Y-117954819D02*
X98523810Y-117907200D01*
X98523810Y-117907200D02*
X98571429Y-117859580D01*
X98571429Y-117859580D02*
X98571429Y-117954819D01*
X98952381Y-116954819D02*
X99571428Y-116954819D01*
X99571428Y-116954819D02*
X99238095Y-117335771D01*
X99238095Y-117335771D02*
X99380952Y-117335771D01*
X99380952Y-117335771D02*
X99476190Y-117383390D01*
X99476190Y-117383390D02*
X99523809Y-117431009D01*
X99523809Y-117431009D02*
X99571428Y-117526247D01*
X99571428Y-117526247D02*
X99571428Y-117764342D01*
X99571428Y-117764342D02*
X99523809Y-117859580D01*
X99523809Y-117859580D02*
X99476190Y-117907200D01*
X99476190Y-117907200D02*
X99380952Y-117954819D01*
X99380952Y-117954819D02*
X99095238Y-117954819D01*
X99095238Y-117954819D02*
X99000000Y-117907200D01*
X99000000Y-117907200D02*
X98952381Y-117859580D01*
X99857143Y-116954819D02*
X100190476Y-117954819D01*
X100190476Y-117954819D02*
X100523809Y-116954819D01*
X112738095Y-117954819D02*
X113309523Y-117954819D01*
X113023809Y-118954819D02*
X113023809Y-117954819D01*
X113547619Y-117954819D02*
X114214285Y-118954819D01*
X114214285Y-117954819D02*
X113547619Y-118954819D01*
X153238095Y-117002438D02*
X153142857Y-116954819D01*
X153142857Y-116954819D02*
X153000000Y-116954819D01*
X153000000Y-116954819D02*
X152857143Y-117002438D01*
X152857143Y-117002438D02*
X152761905Y-117097676D01*
X152761905Y-117097676D02*
X152714286Y-117192914D01*
X152714286Y-117192914D02*
X152666667Y-117383390D01*
X152666667Y-117383390D02*
X152666667Y-117526247D01*
X152666667Y-117526247D02*
X152714286Y-117716723D01*
X152714286Y-117716723D02*
X152761905Y-117811961D01*
X152761905Y-117811961D02*
X152857143Y-117907200D01*
X152857143Y-117907200D02*
X153000000Y-117954819D01*
X153000000Y-117954819D02*
X153095238Y-117954819D01*
X153095238Y-117954819D02*
X153238095Y-117907200D01*
X153238095Y-117907200D02*
X153285714Y-117859580D01*
X153285714Y-117859580D02*
X153285714Y-117526247D01*
X153285714Y-117526247D02*
X153095238Y-117526247D01*
X153714286Y-117954819D02*
X153714286Y-116954819D01*
X153714286Y-116954819D02*
X154285714Y-117954819D01*
X154285714Y-117954819D02*
X154285714Y-116954819D01*
X154761905Y-117954819D02*
X154761905Y-116954819D01*
X154761905Y-116954819D02*
X155000000Y-116954819D01*
X155000000Y-116954819D02*
X155142857Y-117002438D01*
X155142857Y-117002438D02*
X155238095Y-117097676D01*
X155238095Y-117097676D02*
X155285714Y-117192914D01*
X155285714Y-117192914D02*
X155333333Y-117383390D01*
X155333333Y-117383390D02*
X155333333Y-117526247D01*
X155333333Y-117526247D02*
X155285714Y-117716723D01*
X155285714Y-117716723D02*
X155238095Y-117811961D01*
X155238095Y-117811961D02*
X155142857Y-117907200D01*
X155142857Y-117907200D02*
X155000000Y-117954819D01*
X155000000Y-117954819D02*
X154761905Y-117954819D01*
X131785714Y-118907200D02*
X131928571Y-118954819D01*
X131928571Y-118954819D02*
X132166666Y-118954819D01*
X132166666Y-118954819D02*
X132261904Y-118907200D01*
X132261904Y-118907200D02*
X132309523Y-118859580D01*
X132309523Y-118859580D02*
X132357142Y-118764342D01*
X132357142Y-118764342D02*
X132357142Y-118669104D01*
X132357142Y-118669104D02*
X132309523Y-118573866D01*
X132309523Y-118573866D02*
X132261904Y-118526247D01*
X132261904Y-118526247D02*
X132166666Y-118478628D01*
X132166666Y-118478628D02*
X131976190Y-118431009D01*
X131976190Y-118431009D02*
X131880952Y-118383390D01*
X131880952Y-118383390D02*
X131833333Y-118335771D01*
X131833333Y-118335771D02*
X131785714Y-118240533D01*
X131785714Y-118240533D02*
X131785714Y-118145295D01*
X131785714Y-118145295D02*
X131833333Y-118050057D01*
X131833333Y-118050057D02*
X131880952Y-118002438D01*
X131880952Y-118002438D02*
X131976190Y-117954819D01*
X131976190Y-117954819D02*
X132214285Y-117954819D01*
X132214285Y-117954819D02*
X132357142Y-118002438D01*
X132785714Y-118954819D02*
X132785714Y-117954819D01*
X132785714Y-117954819D02*
X133023809Y-117954819D01*
X133023809Y-117954819D02*
X133166666Y-118002438D01*
X133166666Y-118002438D02*
X133261904Y-118097676D01*
X133261904Y-118097676D02*
X133309523Y-118192914D01*
X133309523Y-118192914D02*
X133357142Y-118383390D01*
X133357142Y-118383390D02*
X133357142Y-118526247D01*
X133357142Y-118526247D02*
X133309523Y-118716723D01*
X133309523Y-118716723D02*
X133261904Y-118811961D01*
X133261904Y-118811961D02*
X133166666Y-118907200D01*
X133166666Y-118907200D02*
X133023809Y-118954819D01*
X133023809Y-118954819D02*
X132785714Y-118954819D01*
X133738095Y-118669104D02*
X134214285Y-118669104D01*
X133642857Y-118954819D02*
X133976190Y-117954819D01*
X133976190Y-117954819D02*
X134309523Y-118954819D01*
X149809523Y-116954819D02*
X149333333Y-116954819D01*
X149333333Y-116954819D02*
X149285714Y-117431009D01*
X149285714Y-117431009D02*
X149333333Y-117383390D01*
X149333333Y-117383390D02*
X149428571Y-117335771D01*
X149428571Y-117335771D02*
X149666666Y-117335771D01*
X149666666Y-117335771D02*
X149761904Y-117383390D01*
X149761904Y-117383390D02*
X149809523Y-117431009D01*
X149809523Y-117431009D02*
X149857142Y-117526247D01*
X149857142Y-117526247D02*
X149857142Y-117764342D01*
X149857142Y-117764342D02*
X149809523Y-117859580D01*
X149809523Y-117859580D02*
X149761904Y-117907200D01*
X149761904Y-117907200D02*
X149666666Y-117954819D01*
X149666666Y-117954819D02*
X149428571Y-117954819D01*
X149428571Y-117954819D02*
X149333333Y-117907200D01*
X149333333Y-117907200D02*
X149285714Y-117859580D01*
X150142857Y-116954819D02*
X150476190Y-117954819D01*
X150476190Y-117954819D02*
X150809523Y-116954819D01*
X125738095Y-117954819D02*
X126309523Y-117954819D01*
X126023809Y-118954819D02*
X126023809Y-117954819D01*
X126547619Y-117954819D02*
X127214285Y-118954819D01*
X127214285Y-117954819D02*
X126547619Y-118954819D01*
X145309523Y-117954819D02*
X144833333Y-117954819D01*
X144833333Y-117954819D02*
X144785714Y-118431009D01*
X144785714Y-118431009D02*
X144833333Y-118383390D01*
X144833333Y-118383390D02*
X144928571Y-118335771D01*
X144928571Y-118335771D02*
X145166666Y-118335771D01*
X145166666Y-118335771D02*
X145261904Y-118383390D01*
X145261904Y-118383390D02*
X145309523Y-118431009D01*
X145309523Y-118431009D02*
X145357142Y-118526247D01*
X145357142Y-118526247D02*
X145357142Y-118764342D01*
X145357142Y-118764342D02*
X145309523Y-118859580D01*
X145309523Y-118859580D02*
X145261904Y-118907200D01*
X145261904Y-118907200D02*
X145166666Y-118954819D01*
X145166666Y-118954819D02*
X144928571Y-118954819D01*
X144928571Y-118954819D02*
X144833333Y-118907200D01*
X144833333Y-118907200D02*
X144785714Y-118859580D01*
X145642857Y-117954819D02*
X145976190Y-118954819D01*
X145976190Y-118954819D02*
X146309523Y-117954819D01*
X102023810Y-117954819D02*
X102642857Y-117954819D01*
X102642857Y-117954819D02*
X102309524Y-118335771D01*
X102309524Y-118335771D02*
X102452381Y-118335771D01*
X102452381Y-118335771D02*
X102547619Y-118383390D01*
X102547619Y-118383390D02*
X102595238Y-118431009D01*
X102595238Y-118431009D02*
X102642857Y-118526247D01*
X102642857Y-118526247D02*
X102642857Y-118764342D01*
X102642857Y-118764342D02*
X102595238Y-118859580D01*
X102595238Y-118859580D02*
X102547619Y-118907200D01*
X102547619Y-118907200D02*
X102452381Y-118954819D01*
X102452381Y-118954819D02*
X102166667Y-118954819D01*
X102166667Y-118954819D02*
X102071429Y-118907200D01*
X102071429Y-118907200D02*
X102023810Y-118859580D01*
X103071429Y-118859580D02*
X103119048Y-118907200D01*
X103119048Y-118907200D02*
X103071429Y-118954819D01*
X103071429Y-118954819D02*
X103023810Y-118907200D01*
X103023810Y-118907200D02*
X103071429Y-118859580D01*
X103071429Y-118859580D02*
X103071429Y-118954819D01*
X103452381Y-117954819D02*
X104071428Y-117954819D01*
X104071428Y-117954819D02*
X103738095Y-118335771D01*
X103738095Y-118335771D02*
X103880952Y-118335771D01*
X103880952Y-118335771D02*
X103976190Y-118383390D01*
X103976190Y-118383390D02*
X104023809Y-118431009D01*
X104023809Y-118431009D02*
X104071428Y-118526247D01*
X104071428Y-118526247D02*
X104071428Y-118764342D01*
X104071428Y-118764342D02*
X104023809Y-118859580D01*
X104023809Y-118859580D02*
X103976190Y-118907200D01*
X103976190Y-118907200D02*
X103880952Y-118954819D01*
X103880952Y-118954819D02*
X103595238Y-118954819D01*
X103595238Y-118954819D02*
X103500000Y-118907200D01*
X103500000Y-118907200D02*
X103452381Y-118859580D01*
X104357143Y-117954819D02*
X104690476Y-118954819D01*
X104690476Y-118954819D02*
X105023809Y-117954819D01*
X128238095Y-87454819D02*
X128809523Y-87454819D01*
X128523809Y-88454819D02*
X128523809Y-87454819D01*
X129047619Y-87454819D02*
X129714285Y-88454819D01*
X129714285Y-87454819D02*
X129047619Y-88454819D01*
D11*
G36*
X116010990Y-143815478D02*
G01*
X116010990Y-143737320D01*
X116357937Y-143752951D01*
X116495548Y-143749192D01*
X116648953Y-143737320D01*
X116739078Y-143954818D01*
X117095673Y-144717222D01*
X117363485Y-145266280D01*
X117946859Y-144045799D01*
X118073988Y-143737320D01*
X118354012Y-143752951D01*
X118658705Y-143737320D01*
X118658705Y-143815478D01*
X118597278Y-143830498D01*
X118427455Y-143869846D01*
X118385519Y-143886674D01*
X118361217Y-143926711D01*
X118349982Y-144025038D01*
X118349982Y-144042868D01*
X118344487Y-144477009D01*
X118351325Y-145471444D01*
X118357749Y-145504841D01*
X118372452Y-145526277D01*
X118414972Y-145543033D01*
X118605460Y-145585139D01*
X118658705Y-145597473D01*
X118658705Y-145675631D01*
X118225540Y-145660000D01*
X117773325Y-145675631D01*
X117773325Y-145597473D01*
X117853925Y-145578300D01*
X118003621Y-145546908D01*
X118044556Y-145533848D01*
X118064751Y-145518084D01*
X118076674Y-145497578D01*
X118084740Y-145440774D01*
X118089009Y-145275928D01*
X118089009Y-144081458D01*
X117527494Y-145265425D01*
X117349808Y-145660000D01*
X117272016Y-145660000D01*
X116945093Y-144954719D01*
X116521946Y-144081458D01*
X116539654Y-145356650D01*
X116548474Y-145492049D01*
X116564200Y-145530429D01*
X116608217Y-145549210D01*
X116770586Y-145583796D01*
X116833356Y-145597473D01*
X116833356Y-145675631D01*
X116450872Y-145660000D01*
X116064235Y-145675631D01*
X116064235Y-145597473D01*
X116122976Y-145583796D01*
X116283234Y-145544170D01*
X116325209Y-145522124D01*
X116347476Y-145468985D01*
X116359281Y-145334546D01*
X116366120Y-145026311D01*
X116372958Y-144208586D01*
X116371615Y-144041524D01*
X116367473Y-143950705D01*
X116359281Y-143916228D01*
X116343396Y-143894534D01*
X116319713Y-143879836D01*
X116251631Y-143860994D01*
X116087438Y-143831964D01*
X116010990Y-143815478D01*
G37*
G36*
X120021166Y-144188506D02*
G01*
X120276325Y-144776695D01*
X120594696Y-145474253D01*
X120618591Y-145508352D01*
X120642568Y-145530307D01*
X120843457Y-145597473D01*
X120843457Y-145675631D01*
X120477215Y-145660000D01*
X120067376Y-145675631D01*
X120067376Y-145597473D01*
X120215527Y-145561041D01*
X120259961Y-145542030D01*
X120280860Y-145518714D01*
X120287316Y-145493304D01*
X120281773Y-145459888D01*
X120258618Y-145394752D01*
X120122086Y-145058185D01*
X119698569Y-145055376D01*
X119322801Y-145058185D01*
X119180652Y-145407086D01*
X119145115Y-145512721D01*
X119149228Y-145528954D01*
X119162212Y-145542641D01*
X119194119Y-145554534D01*
X119321458Y-145585017D01*
X119363712Y-145597473D01*
X119363712Y-145675631D01*
X119034473Y-145660000D01*
X118723063Y-145675631D01*
X118723063Y-145597473D01*
X118836487Y-145564608D01*
X118893789Y-145534703D01*
X118926201Y-145502177D01*
X118964863Y-145445432D01*
X119067267Y-145237137D01*
X119205088Y-144925317D01*
X119376046Y-144925317D01*
X119647889Y-144930812D01*
X120067376Y-144925317D01*
X119721772Y-144108813D01*
X119376046Y-144925317D01*
X119205088Y-144925317D01*
X119361025Y-144572508D01*
X119736793Y-143698241D01*
X119822766Y-143698241D01*
X120021166Y-144188506D01*
G37*
G36*
X121825558Y-143737320D02*
G01*
X121825558Y-143815478D01*
X121754483Y-143831109D01*
X121592437Y-143867315D01*
X121544190Y-143890582D01*
X121524496Y-143928557D01*
X121515491Y-144015635D01*
X121515491Y-144063506D01*
X121509996Y-144612808D01*
X121514148Y-145410994D01*
X121522996Y-145496540D01*
X121542114Y-145532627D01*
X121587555Y-145552670D01*
X121734089Y-145577690D01*
X121825558Y-145597473D01*
X121825558Y-145675631D01*
X121607486Y-145663826D01*
X121402041Y-145660000D01*
X120940300Y-145675631D01*
X120940300Y-145597473D01*
X121000383Y-145581842D01*
X121173510Y-145545890D01*
X121222278Y-145523956D01*
X121241263Y-145485958D01*
X121250366Y-145389501D01*
X121249023Y-145321357D01*
X121251831Y-144820903D01*
X121249023Y-143967152D01*
X121239899Y-143926235D01*
X121219591Y-143897543D01*
X121173689Y-143876374D01*
X121012718Y-143838925D01*
X120940300Y-143815478D01*
X120940300Y-143737320D01*
X121403384Y-143752951D01*
X121825558Y-143737320D01*
G37*
G36*
X121889794Y-143815478D02*
G01*
X121889794Y-143737320D01*
X122162979Y-143752951D01*
X122451308Y-143737320D01*
X122839288Y-144219822D01*
X123661775Y-145210471D01*
X123663119Y-144934232D01*
X123650907Y-144192466D01*
X123643116Y-143965828D01*
X123637840Y-143918914D01*
X123626786Y-143898841D01*
X123606454Y-143879469D01*
X123565127Y-143863324D01*
X123415823Y-143830498D01*
X123351587Y-143815478D01*
X123351587Y-143737320D01*
X123738224Y-143752951D01*
X124123517Y-143737320D01*
X124123517Y-143815478D01*
X124068928Y-143827812D01*
X123904764Y-143865164D01*
X123865352Y-143878370D01*
X123840806Y-143903039D01*
X123830270Y-143930020D01*
X123821632Y-143985104D01*
X123815404Y-144357819D01*
X123810642Y-145028632D01*
X123814377Y-145396439D01*
X123824319Y-145675631D01*
X123735537Y-145716664D01*
X123165840Y-145010558D01*
X122418457Y-144113698D01*
X122425296Y-144920432D01*
X122434674Y-145397965D01*
X122440317Y-145485488D01*
X122464863Y-145527864D01*
X122513383Y-145550567D01*
X122668562Y-145585139D01*
X122729989Y-145597473D01*
X122729989Y-145675631D01*
X122377547Y-145660000D01*
X121958060Y-145675631D01*
X121958060Y-145597473D01*
X122030478Y-145580987D01*
X122176906Y-145548212D01*
X122220376Y-145527620D01*
X122232670Y-145512122D01*
X122242236Y-145485122D01*
X122251515Y-145381440D01*
X122260066Y-145008482D01*
X122266905Y-144315443D01*
X122263171Y-144005932D01*
X122257257Y-143933325D01*
X122246156Y-143908802D01*
X122221720Y-143887407D01*
X122168170Y-143869922D01*
X121963555Y-143830498D01*
X121889794Y-143815478D01*
G37*
G36*
X124151116Y-145871025D02*
G01*
X125582868Y-145871025D01*
X125582868Y-146003893D01*
X124151116Y-146003893D01*
X124151116Y-145871025D01*
G37*
G36*
X126770498Y-143746995D02*
G01*
X126890652Y-143773261D01*
X126983965Y-143812985D01*
X127055652Y-143864570D01*
X127115017Y-143933183D01*
X127157739Y-144012662D01*
X127184306Y-144105144D01*
X127193649Y-144213593D01*
X127181750Y-144337822D01*
X127147091Y-144449071D01*
X127089735Y-144550082D01*
X127007780Y-144642728D01*
X126910475Y-144715947D01*
X126795378Y-144769774D01*
X126659022Y-144803805D01*
X126496946Y-144815896D01*
X126366237Y-144807783D01*
X126199092Y-144780359D01*
X126197749Y-145088715D01*
X126202738Y-145405452D01*
X126211427Y-145496601D01*
X126220683Y-145517308D01*
X126237438Y-145532505D01*
X126297679Y-145551920D01*
X126494260Y-145586360D01*
X126548848Y-145597473D01*
X126548848Y-145675631D01*
X126293272Y-145663764D01*
X126063782Y-145660000D01*
X125849406Y-145663855D01*
X125626587Y-145675631D01*
X125626587Y-145597473D01*
X125705844Y-145579644D01*
X125867179Y-145541941D01*
X125906612Y-145526277D01*
X125929650Y-145482014D01*
X125940806Y-145365931D01*
X125944958Y-144703056D01*
X125944882Y-144665809D01*
X126200436Y-144665809D01*
X126340878Y-144691206D01*
X126449075Y-144698660D01*
X126561129Y-144690392D01*
X126654068Y-144667276D01*
X126731281Y-144630976D01*
X126795411Y-144581912D01*
X126862355Y-144497095D01*
X126903243Y-144395094D01*
X126917655Y-144270868D01*
X126904080Y-144149816D01*
X126866124Y-144053466D01*
X126804937Y-143976189D01*
X126746128Y-143932664D01*
X126671567Y-143899622D01*
X126577691Y-143878055D01*
X126460066Y-143870188D01*
X126352705Y-143875132D01*
X126212770Y-143891926D01*
X126200436Y-144665809D01*
X125944882Y-144665809D01*
X125943614Y-144040059D01*
X125943614Y-144010017D01*
X125935261Y-143931559D01*
X125916992Y-143897665D01*
X125869387Y-143875550D01*
X125694853Y-143831964D01*
X125626587Y-143815478D01*
X125626587Y-143737320D01*
X125815275Y-143748609D01*
X126077459Y-143752951D01*
X126617114Y-143737320D01*
X126770498Y-143746995D01*
G37*
G36*
X129154187Y-145339553D02*
G01*
X129211584Y-145443478D01*
X128990573Y-145566978D01*
X128789410Y-145648642D01*
X128653273Y-145685306D01*
X128514186Y-145707323D01*
X128371388Y-145714710D01*
X128191569Y-145700477D01*
X128026224Y-145658798D01*
X127872644Y-145590024D01*
X127766872Y-145520715D01*
X127675746Y-145439286D01*
X127598049Y-145345072D01*
X127533147Y-145236849D01*
X127469635Y-145080980D01*
X127430970Y-144912949D01*
X127417742Y-144730289D01*
X127430387Y-144550016D01*
X127466944Y-144388153D01*
X127526262Y-144241845D01*
X127608449Y-144108778D01*
X127714863Y-143987302D01*
X127838455Y-143885272D01*
X127976512Y-143805472D01*
X128131070Y-143747186D01*
X128304839Y-143710892D01*
X128501081Y-143698241D01*
X128699629Y-143710947D01*
X128921621Y-143751298D01*
X129170551Y-143823293D01*
X129167864Y-144003422D01*
X129172857Y-144180038D01*
X129188381Y-144370397D01*
X129073586Y-144370397D01*
X129015519Y-144146393D01*
X128965631Y-144033709D01*
X128921597Y-143978466D01*
X128860755Y-143929328D01*
X128779762Y-143886308D01*
X128692450Y-143856887D01*
X128587856Y-143837916D01*
X128462857Y-143831109D01*
X128305529Y-143843513D01*
X128170559Y-143878773D01*
X128054060Y-143935243D01*
X127953078Y-144013046D01*
X127865806Y-144114064D01*
X127799686Y-144227391D01*
X127751143Y-144355862D01*
X127720749Y-144502006D01*
X127710101Y-144668862D01*
X127719923Y-144829925D01*
X127747903Y-144970617D01*
X127792444Y-145093849D01*
X127852838Y-145202071D01*
X127929309Y-145297177D01*
X128021519Y-145379244D01*
X128123448Y-145442790D01*
X128236463Y-145488800D01*
X128362486Y-145517256D01*
X128503890Y-145527131D01*
X128655170Y-145516953D01*
X128801744Y-145486587D01*
X128952267Y-145433637D01*
X129154187Y-145339553D01*
G37*
G36*
X130492452Y-143746162D02*
G01*
X130606065Y-143770330D01*
X130695927Y-143807135D01*
X130766434Y-143855167D01*
X130826032Y-143919380D01*
X130867757Y-143990213D01*
X130893034Y-144069092D01*
X130901744Y-144158150D01*
X130889247Y-144260838D01*
X130850453Y-144365879D01*
X130788908Y-144460841D01*
X130706350Y-144539169D01*
X130627566Y-144585125D01*
X130498621Y-144635157D01*
X130637312Y-144652811D01*
X130725523Y-144677533D01*
X130801036Y-144716520D01*
X130864312Y-144766043D01*
X130916765Y-144826643D01*
X130955311Y-144896345D01*
X130979352Y-144978309D01*
X130987840Y-145075404D01*
X130976457Y-145191827D01*
X130943313Y-145295812D01*
X130888412Y-145390037D01*
X130809787Y-145476296D01*
X130703663Y-145555341D01*
X130607101Y-145603530D01*
X130483537Y-145641306D01*
X130327121Y-145666410D01*
X130131158Y-145675631D01*
X129862002Y-145666472D01*
X129721318Y-145660000D01*
X129368754Y-145675631D01*
X129368754Y-145597473D01*
X129432990Y-145583796D01*
X129609991Y-145543878D01*
X129652930Y-145526277D01*
X129664839Y-145506386D01*
X129673447Y-145456423D01*
X129680609Y-145273611D01*
X129684438Y-144734563D01*
X129684356Y-144716978D01*
X129934420Y-144716978D01*
X129934420Y-145521147D01*
X130077256Y-145537698D01*
X130196737Y-145542763D01*
X130328218Y-145533955D01*
X130433386Y-145509783D01*
X130517128Y-145472707D01*
X130583374Y-145423817D01*
X130637901Y-145360459D01*
X130677274Y-145286571D01*
X130701839Y-145200077D01*
X130710502Y-145098119D01*
X130701906Y-145005025D01*
X130677806Y-144928690D01*
X130639427Y-144865722D01*
X130587870Y-144811890D01*
X130531003Y-144772233D01*
X130467969Y-144745432D01*
X130352785Y-144723611D01*
X130148988Y-144714291D01*
X129934420Y-144716978D01*
X129684356Y-144716978D01*
X129683109Y-144448189D01*
X129933077Y-144448189D01*
X129934420Y-144595711D01*
X130071074Y-144597055D01*
X130285118Y-144585656D01*
X130407152Y-144558831D01*
X130473604Y-144526942D01*
X130530629Y-144482506D01*
X130579344Y-144424375D01*
X130615454Y-144357516D01*
X130637378Y-144283646D01*
X130644923Y-144201015D01*
X130636120Y-144112550D01*
X130611286Y-144039494D01*
X130571317Y-143978636D01*
X130515108Y-143927951D01*
X130449277Y-143894686D01*
X130351764Y-143871406D01*
X130211758Y-143862372D01*
X130089181Y-143867262D01*
X129949441Y-143882889D01*
X129937737Y-144108457D01*
X129933077Y-144448189D01*
X129683109Y-144448189D01*
X129681629Y-144129085D01*
X129674633Y-143958740D01*
X129663921Y-143907191D01*
X129635223Y-143880568D01*
X129426151Y-143829155D01*
X129368754Y-143815478D01*
X129368754Y-143737320D01*
X129830617Y-143752951D01*
X130118213Y-143745136D01*
X130349755Y-143737320D01*
X130492452Y-143746162D01*
G37*
D12*
X121738095Y-117954819D02*
X122309523Y-117954819D01*
X122023809Y-118954819D02*
X122023809Y-117954819D01*
X122547619Y-117954819D02*
X123214285Y-118954819D01*
X123214285Y-117954819D02*
X122547619Y-118954819D01*
X141778095Y-118002438D02*
X141682857Y-117954819D01*
X141682857Y-117954819D02*
X141540000Y-117954819D01*
X141540000Y-117954819D02*
X141397143Y-118002438D01*
X141397143Y-118002438D02*
X141301905Y-118097676D01*
X141301905Y-118097676D02*
X141254286Y-118192914D01*
X141254286Y-118192914D02*
X141206667Y-118383390D01*
X141206667Y-118383390D02*
X141206667Y-118526247D01*
X141206667Y-118526247D02*
X141254286Y-118716723D01*
X141254286Y-118716723D02*
X141301905Y-118811961D01*
X141301905Y-118811961D02*
X141397143Y-118907200D01*
X141397143Y-118907200D02*
X141540000Y-118954819D01*
X141540000Y-118954819D02*
X141635238Y-118954819D01*
X141635238Y-118954819D02*
X141778095Y-118907200D01*
X141778095Y-118907200D02*
X141825714Y-118859580D01*
X141825714Y-118859580D02*
X141825714Y-118526247D01*
X141825714Y-118526247D02*
X141635238Y-118526247D01*
X142254286Y-118954819D02*
X142254286Y-117954819D01*
X142254286Y-117954819D02*
X142825714Y-118954819D01*
X142825714Y-118954819D02*
X142825714Y-117954819D01*
X143301905Y-118954819D02*
X143301905Y-117954819D01*
X143301905Y-117954819D02*
X143540000Y-117954819D01*
X143540000Y-117954819D02*
X143682857Y-118002438D01*
X143682857Y-118002438D02*
X143778095Y-118097676D01*
X143778095Y-118097676D02*
X143825714Y-118192914D01*
X143825714Y-118192914D02*
X143873333Y-118383390D01*
X143873333Y-118383390D02*
X143873333Y-118526247D01*
X143873333Y-118526247D02*
X143825714Y-118716723D01*
X143825714Y-118716723D02*
X143778095Y-118811961D01*
X143778095Y-118811961D02*
X143682857Y-118907200D01*
X143682857Y-118907200D02*
X143540000Y-118954819D01*
X143540000Y-118954819D02*
X143301905Y-118954819D01*
X134809524Y-118907200D02*
X134952381Y-118954819D01*
X134952381Y-118954819D02*
X135190476Y-118954819D01*
X135190476Y-118954819D02*
X135285714Y-118907200D01*
X135285714Y-118907200D02*
X135333333Y-118859580D01*
X135333333Y-118859580D02*
X135380952Y-118764342D01*
X135380952Y-118764342D02*
X135380952Y-118669104D01*
X135380952Y-118669104D02*
X135333333Y-118573866D01*
X135333333Y-118573866D02*
X135285714Y-118526247D01*
X135285714Y-118526247D02*
X135190476Y-118478628D01*
X135190476Y-118478628D02*
X135000000Y-118431009D01*
X135000000Y-118431009D02*
X134904762Y-118383390D01*
X134904762Y-118383390D02*
X134857143Y-118335771D01*
X134857143Y-118335771D02*
X134809524Y-118240533D01*
X134809524Y-118240533D02*
X134809524Y-118145295D01*
X134809524Y-118145295D02*
X134857143Y-118050057D01*
X134857143Y-118050057D02*
X134904762Y-118002438D01*
X134904762Y-118002438D02*
X135000000Y-117954819D01*
X135000000Y-117954819D02*
X135238095Y-117954819D01*
X135238095Y-117954819D02*
X135380952Y-118002438D01*
X136380952Y-118859580D02*
X136333333Y-118907200D01*
X136333333Y-118907200D02*
X136190476Y-118954819D01*
X136190476Y-118954819D02*
X136095238Y-118954819D01*
X136095238Y-118954819D02*
X135952381Y-118907200D01*
X135952381Y-118907200D02*
X135857143Y-118811961D01*
X135857143Y-118811961D02*
X135809524Y-118716723D01*
X135809524Y-118716723D02*
X135761905Y-118526247D01*
X135761905Y-118526247D02*
X135761905Y-118383390D01*
X135761905Y-118383390D02*
X135809524Y-118192914D01*
X135809524Y-118192914D02*
X135857143Y-118097676D01*
X135857143Y-118097676D02*
X135952381Y-118002438D01*
X135952381Y-118002438D02*
X136095238Y-117954819D01*
X136095238Y-117954819D02*
X136190476Y-117954819D01*
X136190476Y-117954819D02*
X136333333Y-118002438D01*
X136333333Y-118002438D02*
X136380952Y-118050057D01*
X137285714Y-118954819D02*
X136809524Y-118954819D01*
X136809524Y-118954819D02*
X136809524Y-117954819D01*
D13*
X122532424Y-154613357D02*
X126246710Y-154613357D01*
X122818138Y-152470500D02*
X125960995Y-152470500D01*
X122818138Y-151613357D02*
X122818138Y-152470500D01*
X122960995Y-153327642D02*
X125818138Y-153327642D01*
X124389567Y-151184785D02*
X124389567Y-152470500D01*
X125960995Y-151613357D02*
X125960995Y-152470500D01*
D12*
X198000000Y-116643852D02*
X198142857Y-116691471D01*
X198142857Y-116691471D02*
X198380952Y-116691471D01*
X198380952Y-116691471D02*
X198476190Y-116643852D01*
X198476190Y-116643852D02*
X198523809Y-116596232D01*
X198523809Y-116596232D02*
X198571428Y-116500994D01*
X198571428Y-116500994D02*
X198571428Y-116405756D01*
X198571428Y-116405756D02*
X198523809Y-116310518D01*
X198523809Y-116310518D02*
X198476190Y-116262899D01*
X198476190Y-116262899D02*
X198380952Y-116215280D01*
X198380952Y-116215280D02*
X198190476Y-116167661D01*
X198190476Y-116167661D02*
X198095238Y-116120042D01*
X198095238Y-116120042D02*
X198047619Y-116072423D01*
X198047619Y-116072423D02*
X198000000Y-115977185D01*
X198000000Y-115977185D02*
X198000000Y-115881947D01*
X198000000Y-115881947D02*
X198047619Y-115786709D01*
X198047619Y-115786709D02*
X198095238Y-115739090D01*
X198095238Y-115739090D02*
X198190476Y-115691471D01*
X198190476Y-115691471D02*
X198428571Y-115691471D01*
X198428571Y-115691471D02*
X198571428Y-115739090D01*
X199142857Y-116691471D02*
X199047619Y-116643852D01*
X199047619Y-116643852D02*
X199000000Y-116596232D01*
X199000000Y-116596232D02*
X198952381Y-116500994D01*
X198952381Y-116500994D02*
X198952381Y-116215280D01*
X198952381Y-116215280D02*
X199000000Y-116120042D01*
X199000000Y-116120042D02*
X199047619Y-116072423D01*
X199047619Y-116072423D02*
X199142857Y-116024804D01*
X199142857Y-116024804D02*
X199285714Y-116024804D01*
X199285714Y-116024804D02*
X199380952Y-116072423D01*
X199380952Y-116072423D02*
X199428571Y-116120042D01*
X199428571Y-116120042D02*
X199476190Y-116215280D01*
X199476190Y-116215280D02*
X199476190Y-116500994D01*
X199476190Y-116500994D02*
X199428571Y-116596232D01*
X199428571Y-116596232D02*
X199380952Y-116643852D01*
X199380952Y-116643852D02*
X199285714Y-116691471D01*
X199285714Y-116691471D02*
X199142857Y-116691471D01*
X200047619Y-116691471D02*
X199952381Y-116643852D01*
X199952381Y-116643852D02*
X199904762Y-116548613D01*
X199904762Y-116548613D02*
X199904762Y-115691471D01*
X200809524Y-116643852D02*
X200714286Y-116691471D01*
X200714286Y-116691471D02*
X200523810Y-116691471D01*
X200523810Y-116691471D02*
X200428572Y-116643852D01*
X200428572Y-116643852D02*
X200380953Y-116548613D01*
X200380953Y-116548613D02*
X200380953Y-116167661D01*
X200380953Y-116167661D02*
X200428572Y-116072423D01*
X200428572Y-116072423D02*
X200523810Y-116024804D01*
X200523810Y-116024804D02*
X200714286Y-116024804D01*
X200714286Y-116024804D02*
X200809524Y-116072423D01*
X200809524Y-116072423D02*
X200857143Y-116167661D01*
X200857143Y-116167661D02*
X200857143Y-116262899D01*
X200857143Y-116262899D02*
X200380953Y-116358137D01*
X201285715Y-116024804D02*
X201285715Y-116691471D01*
X201285715Y-116120042D02*
X201333334Y-116072423D01*
X201333334Y-116072423D02*
X201428572Y-116024804D01*
X201428572Y-116024804D02*
X201571429Y-116024804D01*
X201571429Y-116024804D02*
X201666667Y-116072423D01*
X201666667Y-116072423D02*
X201714286Y-116167661D01*
X201714286Y-116167661D02*
X201714286Y-116691471D01*
X202333334Y-116691471D02*
X202238096Y-116643852D01*
X202238096Y-116643852D02*
X202190477Y-116596232D01*
X202190477Y-116596232D02*
X202142858Y-116500994D01*
X202142858Y-116500994D02*
X202142858Y-116215280D01*
X202142858Y-116215280D02*
X202190477Y-116120042D01*
X202190477Y-116120042D02*
X202238096Y-116072423D01*
X202238096Y-116072423D02*
X202333334Y-116024804D01*
X202333334Y-116024804D02*
X202476191Y-116024804D01*
X202476191Y-116024804D02*
X202571429Y-116072423D01*
X202571429Y-116072423D02*
X202619048Y-116120042D01*
X202619048Y-116120042D02*
X202666667Y-116215280D01*
X202666667Y-116215280D02*
X202666667Y-116500994D01*
X202666667Y-116500994D02*
X202619048Y-116596232D01*
X202619048Y-116596232D02*
X202571429Y-116643852D01*
X202571429Y-116643852D02*
X202476191Y-116691471D01*
X202476191Y-116691471D02*
X202333334Y-116691471D01*
X203095239Y-116691471D02*
X203095239Y-116024804D01*
X203095239Y-115691471D02*
X203047620Y-115739090D01*
X203047620Y-115739090D02*
X203095239Y-115786709D01*
X203095239Y-115786709D02*
X203142858Y-115739090D01*
X203142858Y-115739090D02*
X203095239Y-115691471D01*
X203095239Y-115691471D02*
X203095239Y-115786709D01*
X204000000Y-116691471D02*
X204000000Y-115691471D01*
X204000000Y-116643852D02*
X203904762Y-116691471D01*
X203904762Y-116691471D02*
X203714286Y-116691471D01*
X203714286Y-116691471D02*
X203619048Y-116643852D01*
X203619048Y-116643852D02*
X203571429Y-116596232D01*
X203571429Y-116596232D02*
X203523810Y-116500994D01*
X203523810Y-116500994D02*
X203523810Y-116215280D01*
X203523810Y-116215280D02*
X203571429Y-116120042D01*
X203571429Y-116120042D02*
X203619048Y-116072423D01*
X203619048Y-116072423D02*
X203714286Y-116024804D01*
X203714286Y-116024804D02*
X203904762Y-116024804D01*
X203904762Y-116024804D02*
X204000000Y-116072423D01*
X205000000Y-116691471D02*
X204428572Y-116691471D01*
X204714286Y-116691471D02*
X204714286Y-115691471D01*
X204714286Y-115691471D02*
X204619048Y-115834328D01*
X204619048Y-115834328D02*
X204523810Y-115929566D01*
X204523810Y-115929566D02*
X204428572Y-115977185D01*
X123753810Y-105524819D02*
X123753810Y-104524819D01*
X124801428Y-105429580D02*
X124753809Y-105477200D01*
X124753809Y-105477200D02*
X124610952Y-105524819D01*
X124610952Y-105524819D02*
X124515714Y-105524819D01*
X124515714Y-105524819D02*
X124372857Y-105477200D01*
X124372857Y-105477200D02*
X124277619Y-105381961D01*
X124277619Y-105381961D02*
X124230000Y-105286723D01*
X124230000Y-105286723D02*
X124182381Y-105096247D01*
X124182381Y-105096247D02*
X124182381Y-104953390D01*
X124182381Y-104953390D02*
X124230000Y-104762914D01*
X124230000Y-104762914D02*
X124277619Y-104667676D01*
X124277619Y-104667676D02*
X124372857Y-104572438D01*
X124372857Y-104572438D02*
X124515714Y-104524819D01*
X124515714Y-104524819D02*
X124610952Y-104524819D01*
X124610952Y-104524819D02*
X124753809Y-104572438D01*
X124753809Y-104572438D02*
X124801428Y-104620057D01*
X125753809Y-105524819D02*
X125182381Y-105524819D01*
X125468095Y-105524819D02*
X125468095Y-104524819D01*
X125468095Y-104524819D02*
X125372857Y-104667676D01*
X125372857Y-104667676D02*
X125277619Y-104762914D01*
X125277619Y-104762914D02*
X125182381Y-104810533D01*
X99452381Y-122954819D02*
X100071428Y-122954819D01*
X100071428Y-122954819D02*
X99738095Y-123335771D01*
X99738095Y-123335771D02*
X99880952Y-123335771D01*
X99880952Y-123335771D02*
X99976190Y-123383390D01*
X99976190Y-123383390D02*
X100023809Y-123431009D01*
X100023809Y-123431009D02*
X100071428Y-123526247D01*
X100071428Y-123526247D02*
X100071428Y-123764342D01*
X100071428Y-123764342D02*
X100023809Y-123859580D01*
X100023809Y-123859580D02*
X99976190Y-123907200D01*
X99976190Y-123907200D02*
X99880952Y-123954819D01*
X99880952Y-123954819D02*
X99595238Y-123954819D01*
X99595238Y-123954819D02*
X99500000Y-123907200D01*
X99500000Y-123907200D02*
X99452381Y-123859580D01*
X100500000Y-123859580D02*
X100547619Y-123907200D01*
X100547619Y-123907200D02*
X100500000Y-123954819D01*
X100500000Y-123954819D02*
X100452381Y-123907200D01*
X100452381Y-123907200D02*
X100500000Y-123859580D01*
X100500000Y-123859580D02*
X100500000Y-123954819D01*
X100880952Y-122954819D02*
X101499999Y-122954819D01*
X101499999Y-122954819D02*
X101166666Y-123335771D01*
X101166666Y-123335771D02*
X101309523Y-123335771D01*
X101309523Y-123335771D02*
X101404761Y-123383390D01*
X101404761Y-123383390D02*
X101452380Y-123431009D01*
X101452380Y-123431009D02*
X101499999Y-123526247D01*
X101499999Y-123526247D02*
X101499999Y-123764342D01*
X101499999Y-123764342D02*
X101452380Y-123859580D01*
X101452380Y-123859580D02*
X101404761Y-123907200D01*
X101404761Y-123907200D02*
X101309523Y-123954819D01*
X101309523Y-123954819D02*
X101023809Y-123954819D01*
X101023809Y-123954819D02*
X100928571Y-123907200D01*
X100928571Y-123907200D02*
X100880952Y-123859580D01*
X101785714Y-122954819D02*
X102119047Y-123954819D01*
X102119047Y-123954819D02*
X102452380Y-122954819D01*
X102547619Y-124050057D02*
X103309523Y-124050057D01*
X103547619Y-123954819D02*
X103547619Y-122954819D01*
X103547619Y-122954819D02*
X103928571Y-122954819D01*
X103928571Y-122954819D02*
X104023809Y-123002438D01*
X104023809Y-123002438D02*
X104071428Y-123050057D01*
X104071428Y-123050057D02*
X104119047Y-123145295D01*
X104119047Y-123145295D02*
X104119047Y-123288152D01*
X104119047Y-123288152D02*
X104071428Y-123383390D01*
X104071428Y-123383390D02*
X104023809Y-123431009D01*
X104023809Y-123431009D02*
X103928571Y-123478628D01*
X103928571Y-123478628D02*
X103547619Y-123478628D01*
X104690476Y-123954819D02*
X104595238Y-123907200D01*
X104595238Y-123907200D02*
X104547619Y-123859580D01*
X104547619Y-123859580D02*
X104500000Y-123764342D01*
X104500000Y-123764342D02*
X104500000Y-123478628D01*
X104500000Y-123478628D02*
X104547619Y-123383390D01*
X104547619Y-123383390D02*
X104595238Y-123335771D01*
X104595238Y-123335771D02*
X104690476Y-123288152D01*
X104690476Y-123288152D02*
X104833333Y-123288152D01*
X104833333Y-123288152D02*
X104928571Y-123335771D01*
X104928571Y-123335771D02*
X104976190Y-123383390D01*
X104976190Y-123383390D02*
X105023809Y-123478628D01*
X105023809Y-123478628D02*
X105023809Y-123764342D01*
X105023809Y-123764342D02*
X104976190Y-123859580D01*
X104976190Y-123859580D02*
X104928571Y-123907200D01*
X104928571Y-123907200D02*
X104833333Y-123954819D01*
X104833333Y-123954819D02*
X104690476Y-123954819D01*
X105357143Y-123288152D02*
X105547619Y-123954819D01*
X105547619Y-123954819D02*
X105738095Y-123478628D01*
X105738095Y-123478628D02*
X105928571Y-123954819D01*
X105928571Y-123954819D02*
X106119047Y-123288152D01*
X106880952Y-123907200D02*
X106785714Y-123954819D01*
X106785714Y-123954819D02*
X106595238Y-123954819D01*
X106595238Y-123954819D02*
X106500000Y-123907200D01*
X106500000Y-123907200D02*
X106452381Y-123811961D01*
X106452381Y-123811961D02*
X106452381Y-123431009D01*
X106452381Y-123431009D02*
X106500000Y-123335771D01*
X106500000Y-123335771D02*
X106595238Y-123288152D01*
X106595238Y-123288152D02*
X106785714Y-123288152D01*
X106785714Y-123288152D02*
X106880952Y-123335771D01*
X106880952Y-123335771D02*
X106928571Y-123431009D01*
X106928571Y-123431009D02*
X106928571Y-123526247D01*
X106928571Y-123526247D02*
X106452381Y-123621485D01*
X107357143Y-123954819D02*
X107357143Y-123288152D01*
X107357143Y-123478628D02*
X107404762Y-123383390D01*
X107404762Y-123383390D02*
X107452381Y-123335771D01*
X107452381Y-123335771D02*
X107547619Y-123288152D01*
X107547619Y-123288152D02*
X107642857Y-123288152D01*
X108500000Y-123954819D02*
X107928572Y-123954819D01*
X108214286Y-123954819D02*
X108214286Y-122954819D01*
X108214286Y-122954819D02*
X108119048Y-123097676D01*
X108119048Y-123097676D02*
X108023810Y-123192914D01*
X108023810Y-123192914D02*
X107928572Y-123240533D01*
X45238094Y-119502438D02*
X45142856Y-119454819D01*
X45142856Y-119454819D02*
X44999999Y-119454819D01*
X44999999Y-119454819D02*
X44857142Y-119502438D01*
X44857142Y-119502438D02*
X44761904Y-119597676D01*
X44761904Y-119597676D02*
X44714285Y-119692914D01*
X44714285Y-119692914D02*
X44666666Y-119883390D01*
X44666666Y-119883390D02*
X44666666Y-120026247D01*
X44666666Y-120026247D02*
X44714285Y-120216723D01*
X44714285Y-120216723D02*
X44761904Y-120311961D01*
X44761904Y-120311961D02*
X44857142Y-120407200D01*
X44857142Y-120407200D02*
X44999999Y-120454819D01*
X44999999Y-120454819D02*
X45095237Y-120454819D01*
X45095237Y-120454819D02*
X45238094Y-120407200D01*
X45238094Y-120407200D02*
X45285713Y-120359580D01*
X45285713Y-120359580D02*
X45285713Y-120026247D01*
X45285713Y-120026247D02*
X45095237Y-120026247D01*
X45619047Y-119788152D02*
X45857142Y-120454819D01*
X46095237Y-119788152D02*
X45857142Y-120454819D01*
X45857142Y-120454819D02*
X45761904Y-120692914D01*
X45761904Y-120692914D02*
X45714285Y-120740533D01*
X45714285Y-120740533D02*
X45619047Y-120788152D01*
X46476190Y-120454819D02*
X46476190Y-119788152D01*
X46476190Y-119978628D02*
X46523809Y-119883390D01*
X46523809Y-119883390D02*
X46571428Y-119835771D01*
X46571428Y-119835771D02*
X46666666Y-119788152D01*
X46666666Y-119788152D02*
X46761904Y-119788152D01*
X47238095Y-120454819D02*
X47142857Y-120407200D01*
X47142857Y-120407200D02*
X47095238Y-120359580D01*
X47095238Y-120359580D02*
X47047619Y-120264342D01*
X47047619Y-120264342D02*
X47047619Y-119978628D01*
X47047619Y-119978628D02*
X47095238Y-119883390D01*
X47095238Y-119883390D02*
X47142857Y-119835771D01*
X47142857Y-119835771D02*
X47238095Y-119788152D01*
X47238095Y-119788152D02*
X47380952Y-119788152D01*
X47380952Y-119788152D02*
X47476190Y-119835771D01*
X47476190Y-119835771D02*
X47523809Y-119883390D01*
X47523809Y-119883390D02*
X47571428Y-119978628D01*
X47571428Y-119978628D02*
X47571428Y-120264342D01*
X47571428Y-120264342D02*
X47523809Y-120359580D01*
X47523809Y-120359580D02*
X47476190Y-120407200D01*
X47476190Y-120407200D02*
X47380952Y-120454819D01*
X47380952Y-120454819D02*
X47238095Y-120454819D01*
X47761905Y-120550057D02*
X48523809Y-120550057D01*
X48714286Y-120407200D02*
X48857143Y-120454819D01*
X48857143Y-120454819D02*
X49095238Y-120454819D01*
X49095238Y-120454819D02*
X49190476Y-120407200D01*
X49190476Y-120407200D02*
X49238095Y-120359580D01*
X49238095Y-120359580D02*
X49285714Y-120264342D01*
X49285714Y-120264342D02*
X49285714Y-120169104D01*
X49285714Y-120169104D02*
X49238095Y-120073866D01*
X49238095Y-120073866D02*
X49190476Y-120026247D01*
X49190476Y-120026247D02*
X49095238Y-119978628D01*
X49095238Y-119978628D02*
X48904762Y-119931009D01*
X48904762Y-119931009D02*
X48809524Y-119883390D01*
X48809524Y-119883390D02*
X48761905Y-119835771D01*
X48761905Y-119835771D02*
X48714286Y-119740533D01*
X48714286Y-119740533D02*
X48714286Y-119645295D01*
X48714286Y-119645295D02*
X48761905Y-119550057D01*
X48761905Y-119550057D02*
X48809524Y-119502438D01*
X48809524Y-119502438D02*
X48904762Y-119454819D01*
X48904762Y-119454819D02*
X49142857Y-119454819D01*
X49142857Y-119454819D02*
X49285714Y-119502438D01*
X50095238Y-120407200D02*
X50000000Y-120454819D01*
X50000000Y-120454819D02*
X49809524Y-120454819D01*
X49809524Y-120454819D02*
X49714286Y-120407200D01*
X49714286Y-120407200D02*
X49666667Y-120311961D01*
X49666667Y-120311961D02*
X49666667Y-119931009D01*
X49666667Y-119931009D02*
X49714286Y-119835771D01*
X49714286Y-119835771D02*
X49809524Y-119788152D01*
X49809524Y-119788152D02*
X50000000Y-119788152D01*
X50000000Y-119788152D02*
X50095238Y-119835771D01*
X50095238Y-119835771D02*
X50142857Y-119931009D01*
X50142857Y-119931009D02*
X50142857Y-120026247D01*
X50142857Y-120026247D02*
X49666667Y-120121485D01*
X50571429Y-119788152D02*
X50571429Y-120454819D01*
X50571429Y-119883390D02*
X50619048Y-119835771D01*
X50619048Y-119835771D02*
X50714286Y-119788152D01*
X50714286Y-119788152D02*
X50857143Y-119788152D01*
X50857143Y-119788152D02*
X50952381Y-119835771D01*
X50952381Y-119835771D02*
X51000000Y-119931009D01*
X51000000Y-119931009D02*
X51000000Y-120454819D01*
X51428572Y-120407200D02*
X51523810Y-120454819D01*
X51523810Y-120454819D02*
X51714286Y-120454819D01*
X51714286Y-120454819D02*
X51809524Y-120407200D01*
X51809524Y-120407200D02*
X51857143Y-120311961D01*
X51857143Y-120311961D02*
X51857143Y-120264342D01*
X51857143Y-120264342D02*
X51809524Y-120169104D01*
X51809524Y-120169104D02*
X51714286Y-120121485D01*
X51714286Y-120121485D02*
X51571429Y-120121485D01*
X51571429Y-120121485D02*
X51476191Y-120073866D01*
X51476191Y-120073866D02*
X51428572Y-119978628D01*
X51428572Y-119978628D02*
X51428572Y-119931009D01*
X51428572Y-119931009D02*
X51476191Y-119835771D01*
X51476191Y-119835771D02*
X51571429Y-119788152D01*
X51571429Y-119788152D02*
X51714286Y-119788152D01*
X51714286Y-119788152D02*
X51809524Y-119835771D01*
X52428572Y-120454819D02*
X52333334Y-120407200D01*
X52333334Y-120407200D02*
X52285715Y-120359580D01*
X52285715Y-120359580D02*
X52238096Y-120264342D01*
X52238096Y-120264342D02*
X52238096Y-119978628D01*
X52238096Y-119978628D02*
X52285715Y-119883390D01*
X52285715Y-119883390D02*
X52333334Y-119835771D01*
X52333334Y-119835771D02*
X52428572Y-119788152D01*
X52428572Y-119788152D02*
X52571429Y-119788152D01*
X52571429Y-119788152D02*
X52666667Y-119835771D01*
X52666667Y-119835771D02*
X52714286Y-119883390D01*
X52714286Y-119883390D02*
X52761905Y-119978628D01*
X52761905Y-119978628D02*
X52761905Y-120264342D01*
X52761905Y-120264342D02*
X52714286Y-120359580D01*
X52714286Y-120359580D02*
X52666667Y-120407200D01*
X52666667Y-120407200D02*
X52571429Y-120454819D01*
X52571429Y-120454819D02*
X52428572Y-120454819D01*
X53190477Y-120454819D02*
X53190477Y-119788152D01*
X53190477Y-119978628D02*
X53238096Y-119883390D01*
X53238096Y-119883390D02*
X53285715Y-119835771D01*
X53285715Y-119835771D02*
X53380953Y-119788152D01*
X53380953Y-119788152D02*
X53476191Y-119788152D01*
X54333334Y-120454819D02*
X53761906Y-120454819D01*
X54047620Y-120454819D02*
X54047620Y-119454819D01*
X54047620Y-119454819D02*
X53952382Y-119597676D01*
X53952382Y-119597676D02*
X53857144Y-119692914D01*
X53857144Y-119692914D02*
X53761906Y-119740533D01*
X151583333Y-125109580D02*
X151535714Y-125157200D01*
X151535714Y-125157200D02*
X151392857Y-125204819D01*
X151392857Y-125204819D02*
X151297619Y-125204819D01*
X151297619Y-125204819D02*
X151154762Y-125157200D01*
X151154762Y-125157200D02*
X151059524Y-125061961D01*
X151059524Y-125061961D02*
X151011905Y-124966723D01*
X151011905Y-124966723D02*
X150964286Y-124776247D01*
X150964286Y-124776247D02*
X150964286Y-124633390D01*
X150964286Y-124633390D02*
X151011905Y-124442914D01*
X151011905Y-124442914D02*
X151059524Y-124347676D01*
X151059524Y-124347676D02*
X151154762Y-124252438D01*
X151154762Y-124252438D02*
X151297619Y-124204819D01*
X151297619Y-124204819D02*
X151392857Y-124204819D01*
X151392857Y-124204819D02*
X151535714Y-124252438D01*
X151535714Y-124252438D02*
X151583333Y-124300057D01*
X151916667Y-124204819D02*
X152535714Y-124204819D01*
X152535714Y-124204819D02*
X152202381Y-124585771D01*
X152202381Y-124585771D02*
X152345238Y-124585771D01*
X152345238Y-124585771D02*
X152440476Y-124633390D01*
X152440476Y-124633390D02*
X152488095Y-124681009D01*
X152488095Y-124681009D02*
X152535714Y-124776247D01*
X152535714Y-124776247D02*
X152535714Y-125014342D01*
X152535714Y-125014342D02*
X152488095Y-125109580D01*
X152488095Y-125109580D02*
X152440476Y-125157200D01*
X152440476Y-125157200D02*
X152345238Y-125204819D01*
X152345238Y-125204819D02*
X152059524Y-125204819D01*
X152059524Y-125204819D02*
X151964286Y-125157200D01*
X151964286Y-125157200D02*
X151916667Y-125109580D01*
X141738094Y-122954819D02*
X141261904Y-122954819D01*
X141261904Y-122954819D02*
X141214285Y-123431009D01*
X141214285Y-123431009D02*
X141261904Y-123383390D01*
X141261904Y-123383390D02*
X141357142Y-123335771D01*
X141357142Y-123335771D02*
X141595237Y-123335771D01*
X141595237Y-123335771D02*
X141690475Y-123383390D01*
X141690475Y-123383390D02*
X141738094Y-123431009D01*
X141738094Y-123431009D02*
X141785713Y-123526247D01*
X141785713Y-123526247D02*
X141785713Y-123764342D01*
X141785713Y-123764342D02*
X141738094Y-123859580D01*
X141738094Y-123859580D02*
X141690475Y-123907200D01*
X141690475Y-123907200D02*
X141595237Y-123954819D01*
X141595237Y-123954819D02*
X141357142Y-123954819D01*
X141357142Y-123954819D02*
X141261904Y-123907200D01*
X141261904Y-123907200D02*
X141214285Y-123859580D01*
X142071428Y-122954819D02*
X142404761Y-123954819D01*
X142404761Y-123954819D02*
X142738094Y-122954819D01*
X142833333Y-124050057D02*
X143595237Y-124050057D01*
X143833333Y-123954819D02*
X143833333Y-122954819D01*
X143833333Y-122954819D02*
X144214285Y-122954819D01*
X144214285Y-122954819D02*
X144309523Y-123002438D01*
X144309523Y-123002438D02*
X144357142Y-123050057D01*
X144357142Y-123050057D02*
X144404761Y-123145295D01*
X144404761Y-123145295D02*
X144404761Y-123288152D01*
X144404761Y-123288152D02*
X144357142Y-123383390D01*
X144357142Y-123383390D02*
X144309523Y-123431009D01*
X144309523Y-123431009D02*
X144214285Y-123478628D01*
X144214285Y-123478628D02*
X143833333Y-123478628D01*
X144976190Y-123954819D02*
X144880952Y-123907200D01*
X144880952Y-123907200D02*
X144833333Y-123859580D01*
X144833333Y-123859580D02*
X144785714Y-123764342D01*
X144785714Y-123764342D02*
X144785714Y-123478628D01*
X144785714Y-123478628D02*
X144833333Y-123383390D01*
X144833333Y-123383390D02*
X144880952Y-123335771D01*
X144880952Y-123335771D02*
X144976190Y-123288152D01*
X144976190Y-123288152D02*
X145119047Y-123288152D01*
X145119047Y-123288152D02*
X145214285Y-123335771D01*
X145214285Y-123335771D02*
X145261904Y-123383390D01*
X145261904Y-123383390D02*
X145309523Y-123478628D01*
X145309523Y-123478628D02*
X145309523Y-123764342D01*
X145309523Y-123764342D02*
X145261904Y-123859580D01*
X145261904Y-123859580D02*
X145214285Y-123907200D01*
X145214285Y-123907200D02*
X145119047Y-123954819D01*
X145119047Y-123954819D02*
X144976190Y-123954819D01*
X145642857Y-123288152D02*
X145833333Y-123954819D01*
X145833333Y-123954819D02*
X146023809Y-123478628D01*
X146023809Y-123478628D02*
X146214285Y-123954819D01*
X146214285Y-123954819D02*
X146404761Y-123288152D01*
X147166666Y-123907200D02*
X147071428Y-123954819D01*
X147071428Y-123954819D02*
X146880952Y-123954819D01*
X146880952Y-123954819D02*
X146785714Y-123907200D01*
X146785714Y-123907200D02*
X146738095Y-123811961D01*
X146738095Y-123811961D02*
X146738095Y-123431009D01*
X146738095Y-123431009D02*
X146785714Y-123335771D01*
X146785714Y-123335771D02*
X146880952Y-123288152D01*
X146880952Y-123288152D02*
X147071428Y-123288152D01*
X147071428Y-123288152D02*
X147166666Y-123335771D01*
X147166666Y-123335771D02*
X147214285Y-123431009D01*
X147214285Y-123431009D02*
X147214285Y-123526247D01*
X147214285Y-123526247D02*
X146738095Y-123621485D01*
X147642857Y-123954819D02*
X147642857Y-123288152D01*
X147642857Y-123478628D02*
X147690476Y-123383390D01*
X147690476Y-123383390D02*
X147738095Y-123335771D01*
X147738095Y-123335771D02*
X147833333Y-123288152D01*
X147833333Y-123288152D02*
X147928571Y-123288152D01*
X148785714Y-123954819D02*
X148214286Y-123954819D01*
X148500000Y-123954819D02*
X148500000Y-122954819D01*
X148500000Y-122954819D02*
X148404762Y-123097676D01*
X148404762Y-123097676D02*
X148309524Y-123192914D01*
X148309524Y-123192914D02*
X148214286Y-123240533D01*
X96333333Y-125359580D02*
X96285714Y-125407200D01*
X96285714Y-125407200D02*
X96142857Y-125454819D01*
X96142857Y-125454819D02*
X96047619Y-125454819D01*
X96047619Y-125454819D02*
X95904762Y-125407200D01*
X95904762Y-125407200D02*
X95809524Y-125311961D01*
X95809524Y-125311961D02*
X95761905Y-125216723D01*
X95761905Y-125216723D02*
X95714286Y-125026247D01*
X95714286Y-125026247D02*
X95714286Y-124883390D01*
X95714286Y-124883390D02*
X95761905Y-124692914D01*
X95761905Y-124692914D02*
X95809524Y-124597676D01*
X95809524Y-124597676D02*
X95904762Y-124502438D01*
X95904762Y-124502438D02*
X96047619Y-124454819D01*
X96047619Y-124454819D02*
X96142857Y-124454819D01*
X96142857Y-124454819D02*
X96285714Y-124502438D01*
X96285714Y-124502438D02*
X96333333Y-124550057D01*
X96714286Y-124550057D02*
X96761905Y-124502438D01*
X96761905Y-124502438D02*
X96857143Y-124454819D01*
X96857143Y-124454819D02*
X97095238Y-124454819D01*
X97095238Y-124454819D02*
X97190476Y-124502438D01*
X97190476Y-124502438D02*
X97238095Y-124550057D01*
X97238095Y-124550057D02*
X97285714Y-124645295D01*
X97285714Y-124645295D02*
X97285714Y-124740533D01*
X97285714Y-124740533D02*
X97238095Y-124883390D01*
X97238095Y-124883390D02*
X96666667Y-125454819D01*
X96666667Y-125454819D02*
X97285714Y-125454819D01*
X133272619Y-123454819D02*
X133463095Y-123454819D01*
X133463095Y-123454819D02*
X133558333Y-123502438D01*
X133558333Y-123502438D02*
X133653571Y-123597676D01*
X133653571Y-123597676D02*
X133701190Y-123788152D01*
X133701190Y-123788152D02*
X133701190Y-124121485D01*
X133701190Y-124121485D02*
X133653571Y-124311961D01*
X133653571Y-124311961D02*
X133558333Y-124407200D01*
X133558333Y-124407200D02*
X133463095Y-124454819D01*
X133463095Y-124454819D02*
X133272619Y-124454819D01*
X133272619Y-124454819D02*
X133177381Y-124407200D01*
X133177381Y-124407200D02*
X133082143Y-124311961D01*
X133082143Y-124311961D02*
X133034524Y-124121485D01*
X133034524Y-124121485D02*
X133034524Y-123788152D01*
X133034524Y-123788152D02*
X133082143Y-123597676D01*
X133082143Y-123597676D02*
X133177381Y-123502438D01*
X133177381Y-123502438D02*
X133272619Y-123454819D01*
X134605952Y-124454819D02*
X134129762Y-124454819D01*
X134129762Y-124454819D02*
X134129762Y-123454819D01*
X134939286Y-123931009D02*
X135272619Y-123931009D01*
X135415476Y-124454819D02*
X134939286Y-124454819D01*
X134939286Y-124454819D02*
X134939286Y-123454819D01*
X134939286Y-123454819D02*
X135415476Y-123454819D01*
X135844048Y-124454819D02*
X135844048Y-123454819D01*
X135844048Y-123454819D02*
X136082143Y-123454819D01*
X136082143Y-123454819D02*
X136225000Y-123502438D01*
X136225000Y-123502438D02*
X136320238Y-123597676D01*
X136320238Y-123597676D02*
X136367857Y-123692914D01*
X136367857Y-123692914D02*
X136415476Y-123883390D01*
X136415476Y-123883390D02*
X136415476Y-124026247D01*
X136415476Y-124026247D02*
X136367857Y-124216723D01*
X136367857Y-124216723D02*
X136320238Y-124311961D01*
X136320238Y-124311961D02*
X136225000Y-124407200D01*
X136225000Y-124407200D02*
X136082143Y-124454819D01*
X136082143Y-124454819D02*
X135844048Y-124454819D01*
X118357143Y-123454819D02*
X118357143Y-124264342D01*
X118357143Y-124264342D02*
X118404762Y-124359580D01*
X118404762Y-124359580D02*
X118452381Y-124407200D01*
X118452381Y-124407200D02*
X118547619Y-124454819D01*
X118547619Y-124454819D02*
X118738095Y-124454819D01*
X118738095Y-124454819D02*
X118833333Y-124407200D01*
X118833333Y-124407200D02*
X118880952Y-124359580D01*
X118880952Y-124359580D02*
X118928571Y-124264342D01*
X118928571Y-124264342D02*
X118928571Y-123454819D01*
X119357143Y-124407200D02*
X119500000Y-124454819D01*
X119500000Y-124454819D02*
X119738095Y-124454819D01*
X119738095Y-124454819D02*
X119833333Y-124407200D01*
X119833333Y-124407200D02*
X119880952Y-124359580D01*
X119880952Y-124359580D02*
X119928571Y-124264342D01*
X119928571Y-124264342D02*
X119928571Y-124169104D01*
X119928571Y-124169104D02*
X119880952Y-124073866D01*
X119880952Y-124073866D02*
X119833333Y-124026247D01*
X119833333Y-124026247D02*
X119738095Y-123978628D01*
X119738095Y-123978628D02*
X119547619Y-123931009D01*
X119547619Y-123931009D02*
X119452381Y-123883390D01*
X119452381Y-123883390D02*
X119404762Y-123835771D01*
X119404762Y-123835771D02*
X119357143Y-123740533D01*
X119357143Y-123740533D02*
X119357143Y-123645295D01*
X119357143Y-123645295D02*
X119404762Y-123550057D01*
X119404762Y-123550057D02*
X119452381Y-123502438D01*
X119452381Y-123502438D02*
X119547619Y-123454819D01*
X119547619Y-123454819D02*
X119785714Y-123454819D01*
X119785714Y-123454819D02*
X119928571Y-123502438D01*
X120119048Y-124550057D02*
X120880952Y-124550057D01*
X121119048Y-124454819D02*
X121119048Y-123454819D01*
X121119048Y-123454819D02*
X121500000Y-123454819D01*
X121500000Y-123454819D02*
X121595238Y-123502438D01*
X121595238Y-123502438D02*
X121642857Y-123550057D01*
X121642857Y-123550057D02*
X121690476Y-123645295D01*
X121690476Y-123645295D02*
X121690476Y-123788152D01*
X121690476Y-123788152D02*
X121642857Y-123883390D01*
X121642857Y-123883390D02*
X121595238Y-123931009D01*
X121595238Y-123931009D02*
X121500000Y-123978628D01*
X121500000Y-123978628D02*
X121119048Y-123978628D01*
X122690476Y-124359580D02*
X122642857Y-124407200D01*
X122642857Y-124407200D02*
X122500000Y-124454819D01*
X122500000Y-124454819D02*
X122404762Y-124454819D01*
X122404762Y-124454819D02*
X122261905Y-124407200D01*
X122261905Y-124407200D02*
X122166667Y-124311961D01*
X122166667Y-124311961D02*
X122119048Y-124216723D01*
X122119048Y-124216723D02*
X122071429Y-124026247D01*
X122071429Y-124026247D02*
X122071429Y-123883390D01*
X122071429Y-123883390D02*
X122119048Y-123692914D01*
X122119048Y-123692914D02*
X122166667Y-123597676D01*
X122166667Y-123597676D02*
X122261905Y-123502438D01*
X122261905Y-123502438D02*
X122404762Y-123454819D01*
X122404762Y-123454819D02*
X122500000Y-123454819D01*
X122500000Y-123454819D02*
X122642857Y-123502438D01*
X122642857Y-123502438D02*
X122690476Y-123550057D01*
X123452381Y-123931009D02*
X123595238Y-123978628D01*
X123595238Y-123978628D02*
X123642857Y-124026247D01*
X123642857Y-124026247D02*
X123690476Y-124121485D01*
X123690476Y-124121485D02*
X123690476Y-124264342D01*
X123690476Y-124264342D02*
X123642857Y-124359580D01*
X123642857Y-124359580D02*
X123595238Y-124407200D01*
X123595238Y-124407200D02*
X123500000Y-124454819D01*
X123500000Y-124454819D02*
X123119048Y-124454819D01*
X123119048Y-124454819D02*
X123119048Y-123454819D01*
X123119048Y-123454819D02*
X123452381Y-123454819D01*
X123452381Y-123454819D02*
X123547619Y-123502438D01*
X123547619Y-123502438D02*
X123595238Y-123550057D01*
X123595238Y-123550057D02*
X123642857Y-123645295D01*
X123642857Y-123645295D02*
X123642857Y-123740533D01*
X123642857Y-123740533D02*
X123595238Y-123835771D01*
X123595238Y-123835771D02*
X123547619Y-123883390D01*
X123547619Y-123883390D02*
X123452381Y-123931009D01*
X123452381Y-123931009D02*
X123119048Y-123931009D01*
X122298809Y-90859580D02*
X122251190Y-90907200D01*
X122251190Y-90907200D02*
X122108333Y-90954819D01*
X122108333Y-90954819D02*
X122013095Y-90954819D01*
X122013095Y-90954819D02*
X121870238Y-90907200D01*
X121870238Y-90907200D02*
X121775000Y-90811961D01*
X121775000Y-90811961D02*
X121727381Y-90716723D01*
X121727381Y-90716723D02*
X121679762Y-90526247D01*
X121679762Y-90526247D02*
X121679762Y-90383390D01*
X121679762Y-90383390D02*
X121727381Y-90192914D01*
X121727381Y-90192914D02*
X121775000Y-90097676D01*
X121775000Y-90097676D02*
X121870238Y-90002438D01*
X121870238Y-90002438D02*
X122013095Y-89954819D01*
X122013095Y-89954819D02*
X122108333Y-89954819D01*
X122108333Y-89954819D02*
X122251190Y-90002438D01*
X122251190Y-90002438D02*
X122298809Y-90050057D01*
X123155952Y-90954819D02*
X123155952Y-90431009D01*
X123155952Y-90431009D02*
X123108333Y-90335771D01*
X123108333Y-90335771D02*
X123013095Y-90288152D01*
X123013095Y-90288152D02*
X122822619Y-90288152D01*
X122822619Y-90288152D02*
X122727381Y-90335771D01*
X123155952Y-90907200D02*
X123060714Y-90954819D01*
X123060714Y-90954819D02*
X122822619Y-90954819D01*
X122822619Y-90954819D02*
X122727381Y-90907200D01*
X122727381Y-90907200D02*
X122679762Y-90811961D01*
X122679762Y-90811961D02*
X122679762Y-90716723D01*
X122679762Y-90716723D02*
X122727381Y-90621485D01*
X122727381Y-90621485D02*
X122822619Y-90573866D01*
X122822619Y-90573866D02*
X123060714Y-90573866D01*
X123060714Y-90573866D02*
X123155952Y-90526247D01*
X123632143Y-90954819D02*
X123632143Y-90288152D01*
X123632143Y-90383390D02*
X123679762Y-90335771D01*
X123679762Y-90335771D02*
X123775000Y-90288152D01*
X123775000Y-90288152D02*
X123917857Y-90288152D01*
X123917857Y-90288152D02*
X124013095Y-90335771D01*
X124013095Y-90335771D02*
X124060714Y-90431009D01*
X124060714Y-90431009D02*
X124060714Y-90954819D01*
X124060714Y-90431009D02*
X124108333Y-90335771D01*
X124108333Y-90335771D02*
X124203571Y-90288152D01*
X124203571Y-90288152D02*
X124346428Y-90288152D01*
X124346428Y-90288152D02*
X124441667Y-90335771D01*
X124441667Y-90335771D02*
X124489286Y-90431009D01*
X124489286Y-90431009D02*
X124489286Y-90954819D01*
X125346428Y-90907200D02*
X125251190Y-90954819D01*
X125251190Y-90954819D02*
X125060714Y-90954819D01*
X125060714Y-90954819D02*
X124965476Y-90907200D01*
X124965476Y-90907200D02*
X124917857Y-90811961D01*
X124917857Y-90811961D02*
X124917857Y-90431009D01*
X124917857Y-90431009D02*
X124965476Y-90335771D01*
X124965476Y-90335771D02*
X125060714Y-90288152D01*
X125060714Y-90288152D02*
X125251190Y-90288152D01*
X125251190Y-90288152D02*
X125346428Y-90335771D01*
X125346428Y-90335771D02*
X125394047Y-90431009D01*
X125394047Y-90431009D02*
X125394047Y-90526247D01*
X125394047Y-90526247D02*
X124917857Y-90621485D01*
X125822619Y-90954819D02*
X125822619Y-90288152D01*
X125822619Y-90478628D02*
X125870238Y-90383390D01*
X125870238Y-90383390D02*
X125917857Y-90335771D01*
X125917857Y-90335771D02*
X126013095Y-90288152D01*
X126013095Y-90288152D02*
X126108333Y-90288152D01*
X126870238Y-90954819D02*
X126870238Y-90431009D01*
X126870238Y-90431009D02*
X126822619Y-90335771D01*
X126822619Y-90335771D02*
X126727381Y-90288152D01*
X126727381Y-90288152D02*
X126536905Y-90288152D01*
X126536905Y-90288152D02*
X126441667Y-90335771D01*
X126870238Y-90907200D02*
X126775000Y-90954819D01*
X126775000Y-90954819D02*
X126536905Y-90954819D01*
X126536905Y-90954819D02*
X126441667Y-90907200D01*
X126441667Y-90907200D02*
X126394048Y-90811961D01*
X126394048Y-90811961D02*
X126394048Y-90716723D01*
X126394048Y-90716723D02*
X126441667Y-90621485D01*
X126441667Y-90621485D02*
X126536905Y-90573866D01*
X126536905Y-90573866D02*
X126775000Y-90573866D01*
X126775000Y-90573866D02*
X126870238Y-90526247D01*
X127870238Y-90954819D02*
X127298810Y-90954819D01*
X127584524Y-90954819D02*
X127584524Y-89954819D01*
X127584524Y-89954819D02*
X127489286Y-90097676D01*
X127489286Y-90097676D02*
X127394048Y-90192914D01*
X127394048Y-90192914D02*
X127298810Y-90240533D01*
X125619048Y-124454819D02*
X125619048Y-123454819D01*
X126666666Y-124454819D02*
X126333333Y-123978628D01*
X126095238Y-124454819D02*
X126095238Y-123454819D01*
X126095238Y-123454819D02*
X126476190Y-123454819D01*
X126476190Y-123454819D02*
X126571428Y-123502438D01*
X126571428Y-123502438D02*
X126619047Y-123550057D01*
X126619047Y-123550057D02*
X126666666Y-123645295D01*
X126666666Y-123645295D02*
X126666666Y-123788152D01*
X126666666Y-123788152D02*
X126619047Y-123883390D01*
X126619047Y-123883390D02*
X126571428Y-123931009D01*
X126571428Y-123931009D02*
X126476190Y-123978628D01*
X126476190Y-123978628D02*
X126095238Y-123978628D01*
X126857143Y-124550057D02*
X127619047Y-124550057D01*
X127857143Y-124454819D02*
X127857143Y-123454819D01*
X127857143Y-123454819D02*
X128238095Y-123454819D01*
X128238095Y-123454819D02*
X128333333Y-123502438D01*
X128333333Y-123502438D02*
X128380952Y-123550057D01*
X128380952Y-123550057D02*
X128428571Y-123645295D01*
X128428571Y-123645295D02*
X128428571Y-123788152D01*
X128428571Y-123788152D02*
X128380952Y-123883390D01*
X128380952Y-123883390D02*
X128333333Y-123931009D01*
X128333333Y-123931009D02*
X128238095Y-123978628D01*
X128238095Y-123978628D02*
X127857143Y-123978628D01*
X129428571Y-124359580D02*
X129380952Y-124407200D01*
X129380952Y-124407200D02*
X129238095Y-124454819D01*
X129238095Y-124454819D02*
X129142857Y-124454819D01*
X129142857Y-124454819D02*
X129000000Y-124407200D01*
X129000000Y-124407200D02*
X128904762Y-124311961D01*
X128904762Y-124311961D02*
X128857143Y-124216723D01*
X128857143Y-124216723D02*
X128809524Y-124026247D01*
X128809524Y-124026247D02*
X128809524Y-123883390D01*
X128809524Y-123883390D02*
X128857143Y-123692914D01*
X128857143Y-123692914D02*
X128904762Y-123597676D01*
X128904762Y-123597676D02*
X129000000Y-123502438D01*
X129000000Y-123502438D02*
X129142857Y-123454819D01*
X129142857Y-123454819D02*
X129238095Y-123454819D01*
X129238095Y-123454819D02*
X129380952Y-123502438D01*
X129380952Y-123502438D02*
X129428571Y-123550057D01*
X130190476Y-123931009D02*
X130333333Y-123978628D01*
X130333333Y-123978628D02*
X130380952Y-124026247D01*
X130380952Y-124026247D02*
X130428571Y-124121485D01*
X130428571Y-124121485D02*
X130428571Y-124264342D01*
X130428571Y-124264342D02*
X130380952Y-124359580D01*
X130380952Y-124359580D02*
X130333333Y-124407200D01*
X130333333Y-124407200D02*
X130238095Y-124454819D01*
X130238095Y-124454819D02*
X129857143Y-124454819D01*
X129857143Y-124454819D02*
X129857143Y-123454819D01*
X129857143Y-123454819D02*
X130190476Y-123454819D01*
X130190476Y-123454819D02*
X130285714Y-123502438D01*
X130285714Y-123502438D02*
X130333333Y-123550057D01*
X130333333Y-123550057D02*
X130380952Y-123645295D01*
X130380952Y-123645295D02*
X130380952Y-123740533D01*
X130380952Y-123740533D02*
X130333333Y-123835771D01*
X130333333Y-123835771D02*
X130285714Y-123883390D01*
X130285714Y-123883390D02*
X130190476Y-123931009D01*
X130190476Y-123931009D02*
X129857143Y-123931009D01*
X111309523Y-124454819D02*
X110833333Y-124454819D01*
X110833333Y-124454819D02*
X110833333Y-123454819D01*
X111642857Y-124454819D02*
X111642857Y-123788152D01*
X111642857Y-123454819D02*
X111595238Y-123502438D01*
X111595238Y-123502438D02*
X111642857Y-123550057D01*
X111642857Y-123550057D02*
X111690476Y-123502438D01*
X111690476Y-123502438D02*
X111642857Y-123454819D01*
X111642857Y-123454819D02*
X111642857Y-123550057D01*
X112119047Y-123788152D02*
X112119047Y-124454819D01*
X112119047Y-123883390D02*
X112166666Y-123835771D01*
X112166666Y-123835771D02*
X112261904Y-123788152D01*
X112261904Y-123788152D02*
X112404761Y-123788152D01*
X112404761Y-123788152D02*
X112499999Y-123835771D01*
X112499999Y-123835771D02*
X112547618Y-123931009D01*
X112547618Y-123931009D02*
X112547618Y-124454819D01*
X113404761Y-124407200D02*
X113309523Y-124454819D01*
X113309523Y-124454819D02*
X113119047Y-124454819D01*
X113119047Y-124454819D02*
X113023809Y-124407200D01*
X113023809Y-124407200D02*
X112976190Y-124311961D01*
X112976190Y-124311961D02*
X112976190Y-123931009D01*
X112976190Y-123931009D02*
X113023809Y-123835771D01*
X113023809Y-123835771D02*
X113119047Y-123788152D01*
X113119047Y-123788152D02*
X113309523Y-123788152D01*
X113309523Y-123788152D02*
X113404761Y-123835771D01*
X113404761Y-123835771D02*
X113452380Y-123931009D01*
X113452380Y-123931009D02*
X113452380Y-124026247D01*
X113452380Y-124026247D02*
X112976190Y-124121485D01*
X113642857Y-124550057D02*
X114404761Y-124550057D01*
X114642857Y-124454819D02*
X114642857Y-123454819D01*
X114642857Y-123454819D02*
X115023809Y-123454819D01*
X115023809Y-123454819D02*
X115119047Y-123502438D01*
X115119047Y-123502438D02*
X115166666Y-123550057D01*
X115166666Y-123550057D02*
X115214285Y-123645295D01*
X115214285Y-123645295D02*
X115214285Y-123788152D01*
X115214285Y-123788152D02*
X115166666Y-123883390D01*
X115166666Y-123883390D02*
X115119047Y-123931009D01*
X115119047Y-123931009D02*
X115023809Y-123978628D01*
X115023809Y-123978628D02*
X114642857Y-123978628D01*
X116214285Y-124359580D02*
X116166666Y-124407200D01*
X116166666Y-124407200D02*
X116023809Y-124454819D01*
X116023809Y-124454819D02*
X115928571Y-124454819D01*
X115928571Y-124454819D02*
X115785714Y-124407200D01*
X115785714Y-124407200D02*
X115690476Y-124311961D01*
X115690476Y-124311961D02*
X115642857Y-124216723D01*
X115642857Y-124216723D02*
X115595238Y-124026247D01*
X115595238Y-124026247D02*
X115595238Y-123883390D01*
X115595238Y-123883390D02*
X115642857Y-123692914D01*
X115642857Y-123692914D02*
X115690476Y-123597676D01*
X115690476Y-123597676D02*
X115785714Y-123502438D01*
X115785714Y-123502438D02*
X115928571Y-123454819D01*
X115928571Y-123454819D02*
X116023809Y-123454819D01*
X116023809Y-123454819D02*
X116166666Y-123502438D01*
X116166666Y-123502438D02*
X116214285Y-123550057D01*
X116976190Y-123931009D02*
X117119047Y-123978628D01*
X117119047Y-123978628D02*
X117166666Y-124026247D01*
X117166666Y-124026247D02*
X117214285Y-124121485D01*
X117214285Y-124121485D02*
X117214285Y-124264342D01*
X117214285Y-124264342D02*
X117166666Y-124359580D01*
X117166666Y-124359580D02*
X117119047Y-124407200D01*
X117119047Y-124407200D02*
X117023809Y-124454819D01*
X117023809Y-124454819D02*
X116642857Y-124454819D01*
X116642857Y-124454819D02*
X116642857Y-123454819D01*
X116642857Y-123454819D02*
X116976190Y-123454819D01*
X116976190Y-123454819D02*
X117071428Y-123502438D01*
X117071428Y-123502438D02*
X117119047Y-123550057D01*
X117119047Y-123550057D02*
X117166666Y-123645295D01*
X117166666Y-123645295D02*
X117166666Y-123740533D01*
X117166666Y-123740533D02*
X117119047Y-123835771D01*
X117119047Y-123835771D02*
X117071428Y-123883390D01*
X117071428Y-123883390D02*
X116976190Y-123931009D01*
X116976190Y-123931009D02*
X116642857Y-123931009D01*
X117547618Y-131454819D02*
X117547618Y-132264342D01*
X117547618Y-132264342D02*
X117595237Y-132359580D01*
X117595237Y-132359580D02*
X117642856Y-132407200D01*
X117642856Y-132407200D02*
X117738094Y-132454819D01*
X117738094Y-132454819D02*
X117928570Y-132454819D01*
X117928570Y-132454819D02*
X118023808Y-132407200D01*
X118023808Y-132407200D02*
X118071427Y-132359580D01*
X118071427Y-132359580D02*
X118119046Y-132264342D01*
X118119046Y-132264342D02*
X118119046Y-131454819D01*
X118738094Y-132454819D02*
X118642856Y-132407200D01*
X118642856Y-132407200D02*
X118595237Y-132311961D01*
X118595237Y-132311961D02*
X118595237Y-131454819D01*
X118976190Y-131788152D02*
X119357142Y-131788152D01*
X119119047Y-131454819D02*
X119119047Y-132311961D01*
X119119047Y-132311961D02*
X119166666Y-132407200D01*
X119166666Y-132407200D02*
X119261904Y-132454819D01*
X119261904Y-132454819D02*
X119357142Y-132454819D01*
X119690476Y-132454819D02*
X119690476Y-131788152D01*
X119690476Y-131978628D02*
X119738095Y-131883390D01*
X119738095Y-131883390D02*
X119785714Y-131835771D01*
X119785714Y-131835771D02*
X119880952Y-131788152D01*
X119880952Y-131788152D02*
X119976190Y-131788152D01*
X120738095Y-132454819D02*
X120738095Y-131931009D01*
X120738095Y-131931009D02*
X120690476Y-131835771D01*
X120690476Y-131835771D02*
X120595238Y-131788152D01*
X120595238Y-131788152D02*
X120404762Y-131788152D01*
X120404762Y-131788152D02*
X120309524Y-131835771D01*
X120738095Y-132407200D02*
X120642857Y-132454819D01*
X120642857Y-132454819D02*
X120404762Y-132454819D01*
X120404762Y-132454819D02*
X120309524Y-132407200D01*
X120309524Y-132407200D02*
X120261905Y-132311961D01*
X120261905Y-132311961D02*
X120261905Y-132216723D01*
X120261905Y-132216723D02*
X120309524Y-132121485D01*
X120309524Y-132121485D02*
X120404762Y-132073866D01*
X120404762Y-132073866D02*
X120642857Y-132073866D01*
X120642857Y-132073866D02*
X120738095Y-132026247D01*
X121166667Y-132407200D02*
X121261905Y-132454819D01*
X121261905Y-132454819D02*
X121452381Y-132454819D01*
X121452381Y-132454819D02*
X121547619Y-132407200D01*
X121547619Y-132407200D02*
X121595238Y-132311961D01*
X121595238Y-132311961D02*
X121595238Y-132264342D01*
X121595238Y-132264342D02*
X121547619Y-132169104D01*
X121547619Y-132169104D02*
X121452381Y-132121485D01*
X121452381Y-132121485D02*
X121309524Y-132121485D01*
X121309524Y-132121485D02*
X121214286Y-132073866D01*
X121214286Y-132073866D02*
X121166667Y-131978628D01*
X121166667Y-131978628D02*
X121166667Y-131931009D01*
X121166667Y-131931009D02*
X121214286Y-131835771D01*
X121214286Y-131835771D02*
X121309524Y-131788152D01*
X121309524Y-131788152D02*
X121452381Y-131788152D01*
X121452381Y-131788152D02*
X121547619Y-131835771D01*
X122166667Y-132454819D02*
X122071429Y-132407200D01*
X122071429Y-132407200D02*
X122023810Y-132359580D01*
X122023810Y-132359580D02*
X121976191Y-132264342D01*
X121976191Y-132264342D02*
X121976191Y-131978628D01*
X121976191Y-131978628D02*
X122023810Y-131883390D01*
X122023810Y-131883390D02*
X122071429Y-131835771D01*
X122071429Y-131835771D02*
X122166667Y-131788152D01*
X122166667Y-131788152D02*
X122309524Y-131788152D01*
X122309524Y-131788152D02*
X122404762Y-131835771D01*
X122404762Y-131835771D02*
X122452381Y-131883390D01*
X122452381Y-131883390D02*
X122500000Y-131978628D01*
X122500000Y-131978628D02*
X122500000Y-132264342D01*
X122500000Y-132264342D02*
X122452381Y-132359580D01*
X122452381Y-132359580D02*
X122404762Y-132407200D01*
X122404762Y-132407200D02*
X122309524Y-132454819D01*
X122309524Y-132454819D02*
X122166667Y-132454819D01*
X122928572Y-131788152D02*
X122928572Y-132454819D01*
X122928572Y-131883390D02*
X122976191Y-131835771D01*
X122976191Y-131835771D02*
X123071429Y-131788152D01*
X123071429Y-131788152D02*
X123214286Y-131788152D01*
X123214286Y-131788152D02*
X123309524Y-131835771D01*
X123309524Y-131835771D02*
X123357143Y-131931009D01*
X123357143Y-131931009D02*
X123357143Y-132454819D01*
X123833334Y-132454819D02*
X123833334Y-131788152D01*
X123833334Y-131454819D02*
X123785715Y-131502438D01*
X123785715Y-131502438D02*
X123833334Y-131550057D01*
X123833334Y-131550057D02*
X123880953Y-131502438D01*
X123880953Y-131502438D02*
X123833334Y-131454819D01*
X123833334Y-131454819D02*
X123833334Y-131550057D01*
X124738095Y-132407200D02*
X124642857Y-132454819D01*
X124642857Y-132454819D02*
X124452381Y-132454819D01*
X124452381Y-132454819D02*
X124357143Y-132407200D01*
X124357143Y-132407200D02*
X124309524Y-132359580D01*
X124309524Y-132359580D02*
X124261905Y-132264342D01*
X124261905Y-132264342D02*
X124261905Y-131978628D01*
X124261905Y-131978628D02*
X124309524Y-131883390D01*
X124309524Y-131883390D02*
X124357143Y-131835771D01*
X124357143Y-131835771D02*
X124452381Y-131788152D01*
X124452381Y-131788152D02*
X124642857Y-131788152D01*
X124642857Y-131788152D02*
X124738095Y-131835771D01*
X124928572Y-132550057D02*
X125690476Y-132550057D01*
X125880953Y-132407200D02*
X126023810Y-132454819D01*
X126023810Y-132454819D02*
X126261905Y-132454819D01*
X126261905Y-132454819D02*
X126357143Y-132407200D01*
X126357143Y-132407200D02*
X126404762Y-132359580D01*
X126404762Y-132359580D02*
X126452381Y-132264342D01*
X126452381Y-132264342D02*
X126452381Y-132169104D01*
X126452381Y-132169104D02*
X126404762Y-132073866D01*
X126404762Y-132073866D02*
X126357143Y-132026247D01*
X126357143Y-132026247D02*
X126261905Y-131978628D01*
X126261905Y-131978628D02*
X126071429Y-131931009D01*
X126071429Y-131931009D02*
X125976191Y-131883390D01*
X125976191Y-131883390D02*
X125928572Y-131835771D01*
X125928572Y-131835771D02*
X125880953Y-131740533D01*
X125880953Y-131740533D02*
X125880953Y-131645295D01*
X125880953Y-131645295D02*
X125928572Y-131550057D01*
X125928572Y-131550057D02*
X125976191Y-131502438D01*
X125976191Y-131502438D02*
X126071429Y-131454819D01*
X126071429Y-131454819D02*
X126309524Y-131454819D01*
X126309524Y-131454819D02*
X126452381Y-131502438D01*
X127261905Y-132407200D02*
X127166667Y-132454819D01*
X127166667Y-132454819D02*
X126976191Y-132454819D01*
X126976191Y-132454819D02*
X126880953Y-132407200D01*
X126880953Y-132407200D02*
X126833334Y-132311961D01*
X126833334Y-132311961D02*
X126833334Y-131931009D01*
X126833334Y-131931009D02*
X126880953Y-131835771D01*
X126880953Y-131835771D02*
X126976191Y-131788152D01*
X126976191Y-131788152D02*
X127166667Y-131788152D01*
X127166667Y-131788152D02*
X127261905Y-131835771D01*
X127261905Y-131835771D02*
X127309524Y-131931009D01*
X127309524Y-131931009D02*
X127309524Y-132026247D01*
X127309524Y-132026247D02*
X126833334Y-132121485D01*
X127738096Y-131788152D02*
X127738096Y-132454819D01*
X127738096Y-131883390D02*
X127785715Y-131835771D01*
X127785715Y-131835771D02*
X127880953Y-131788152D01*
X127880953Y-131788152D02*
X128023810Y-131788152D01*
X128023810Y-131788152D02*
X128119048Y-131835771D01*
X128119048Y-131835771D02*
X128166667Y-131931009D01*
X128166667Y-131931009D02*
X128166667Y-132454819D01*
X128595239Y-132407200D02*
X128690477Y-132454819D01*
X128690477Y-132454819D02*
X128880953Y-132454819D01*
X128880953Y-132454819D02*
X128976191Y-132407200D01*
X128976191Y-132407200D02*
X129023810Y-132311961D01*
X129023810Y-132311961D02*
X129023810Y-132264342D01*
X129023810Y-132264342D02*
X128976191Y-132169104D01*
X128976191Y-132169104D02*
X128880953Y-132121485D01*
X128880953Y-132121485D02*
X128738096Y-132121485D01*
X128738096Y-132121485D02*
X128642858Y-132073866D01*
X128642858Y-132073866D02*
X128595239Y-131978628D01*
X128595239Y-131978628D02*
X128595239Y-131931009D01*
X128595239Y-131931009D02*
X128642858Y-131835771D01*
X128642858Y-131835771D02*
X128738096Y-131788152D01*
X128738096Y-131788152D02*
X128880953Y-131788152D01*
X128880953Y-131788152D02*
X128976191Y-131835771D01*
X129595239Y-132454819D02*
X129500001Y-132407200D01*
X129500001Y-132407200D02*
X129452382Y-132359580D01*
X129452382Y-132359580D02*
X129404763Y-132264342D01*
X129404763Y-132264342D02*
X129404763Y-131978628D01*
X129404763Y-131978628D02*
X129452382Y-131883390D01*
X129452382Y-131883390D02*
X129500001Y-131835771D01*
X129500001Y-131835771D02*
X129595239Y-131788152D01*
X129595239Y-131788152D02*
X129738096Y-131788152D01*
X129738096Y-131788152D02*
X129833334Y-131835771D01*
X129833334Y-131835771D02*
X129880953Y-131883390D01*
X129880953Y-131883390D02*
X129928572Y-131978628D01*
X129928572Y-131978628D02*
X129928572Y-132264342D01*
X129928572Y-132264342D02*
X129880953Y-132359580D01*
X129880953Y-132359580D02*
X129833334Y-132407200D01*
X129833334Y-132407200D02*
X129738096Y-132454819D01*
X129738096Y-132454819D02*
X129595239Y-132454819D01*
X130357144Y-132454819D02*
X130357144Y-131788152D01*
X130357144Y-131978628D02*
X130404763Y-131883390D01*
X130404763Y-131883390D02*
X130452382Y-131835771D01*
X130452382Y-131835771D02*
X130547620Y-131788152D01*
X130547620Y-131788152D02*
X130642858Y-131788152D01*
X131500001Y-132454819D02*
X130928573Y-132454819D01*
X131214287Y-132454819D02*
X131214287Y-131454819D01*
X131214287Y-131454819D02*
X131119049Y-131597676D01*
X131119049Y-131597676D02*
X131023811Y-131692914D01*
X131023811Y-131692914D02*
X130928573Y-131740533D01*
X124666666Y-79454819D02*
X124666666Y-80169104D01*
X124666666Y-80169104D02*
X124619047Y-80311961D01*
X124619047Y-80311961D02*
X124523809Y-80407200D01*
X124523809Y-80407200D02*
X124380952Y-80454819D01*
X124380952Y-80454819D02*
X124285714Y-80454819D01*
X125619047Y-79454819D02*
X125142857Y-79454819D01*
X125142857Y-79454819D02*
X125095238Y-79931009D01*
X125095238Y-79931009D02*
X125142857Y-79883390D01*
X125142857Y-79883390D02*
X125238095Y-79835771D01*
X125238095Y-79835771D02*
X125476190Y-79835771D01*
X125476190Y-79835771D02*
X125571428Y-79883390D01*
X125571428Y-79883390D02*
X125619047Y-79931009D01*
X125619047Y-79931009D02*
X125666666Y-80026247D01*
X125666666Y-80026247D02*
X125666666Y-80264342D01*
X125666666Y-80264342D02*
X125619047Y-80359580D01*
X125619047Y-80359580D02*
X125571428Y-80407200D01*
X125571428Y-80407200D02*
X125476190Y-80454819D01*
X125476190Y-80454819D02*
X125238095Y-80454819D01*
X125238095Y-80454819D02*
X125142857Y-80407200D01*
X125142857Y-80407200D02*
X125095238Y-80359580D01*
D11*
%TO.C,J3*%
X158000000Y-126000000D02*
X178500000Y-126000000D01*
X158000000Y-159000000D02*
X158000000Y-126000000D01*
X178500000Y-126000000D02*
X178500000Y-159000000D01*
X178500000Y-159000000D02*
X158000000Y-159000000D01*
D14*
%TO.C,Solenoid1*%
X197580000Y-117620000D02*
X197580000Y-120380000D01*
X202770000Y-117620000D02*
X197580000Y-117620000D01*
X202770000Y-117620000D02*
X202770000Y-120380000D01*
X202770000Y-120380000D02*
X197580000Y-120380000D01*
X204040000Y-117620001D02*
X205420000Y-117620000D01*
X205420000Y-117620000D02*
X205419999Y-119000000D01*
%TO.C,J6*%
X134550025Y-69031333D02*
X134550026Y-61301333D01*
X137310024Y-61301333D02*
X134550026Y-61301333D01*
X137310024Y-70301333D02*
X137310025Y-71681333D01*
X137310025Y-69031333D02*
X134550025Y-69031333D01*
X137310025Y-69031333D02*
X137310024Y-61301333D01*
X137310025Y-71681333D02*
X135930025Y-71681332D01*
D10*
%TO.C,IC1*%
X94250000Y-96180000D02*
X94250000Y-113960000D01*
X94250000Y-113960000D02*
X155210000Y-113960000D01*
X148760000Y-95550000D02*
X148760000Y-95550000D01*
X148860000Y-95550000D02*
X148860000Y-95550000D01*
X148860000Y-95550000D02*
X148860000Y-95550000D01*
X155210000Y-96179999D02*
X94250000Y-96180000D01*
X155210000Y-113960000D02*
X155210000Y-96179999D01*
X148760000Y-95550000D02*
G75*
G02*
X148860000Y-95550000I50000J0D01*
G01*
X148760000Y-95550000D02*
G75*
G02*
X148860000Y-95550000I50000J0D01*
G01*
X148860000Y-95550000D02*
G75*
G02*
X148760000Y-95550000I-50000J0D01*
G01*
D11*
%TO.C,J2*%
X70500000Y-51000000D02*
X91000000Y-51000000D01*
X70500000Y-84000000D02*
X70500000Y-51000000D01*
X91000000Y-51000000D02*
X91000000Y-84000000D01*
X91000000Y-84000000D02*
X70500000Y-84000000D01*
D14*
%TO.C,3.3V_Power1*%
X102845000Y-122380000D02*
X102845001Y-121000000D01*
X104225000Y-122379999D02*
X102845000Y-122380000D01*
X105495000Y-119620000D02*
X108145000Y-119620000D01*
X105495000Y-122380000D02*
X105495000Y-119620000D01*
X105495000Y-122380000D02*
X108145000Y-122380000D01*
X108145000Y-122380000D02*
X108145000Y-119620000D01*
D15*
%TO.C,Gyro_Sensor1*%
X39460000Y-116090000D02*
X39460001Y-110390200D01*
X39460001Y-100199800D02*
X39460000Y-94500000D01*
X42000000Y-91960000D02*
X57240000Y-91960000D01*
X57240000Y-118630000D02*
X42000000Y-118630000D01*
X59780000Y-94500000D02*
X59780000Y-97659800D01*
X59780000Y-112930200D02*
X59780000Y-116090000D01*
X39460000Y-94500000D02*
G75*
G02*
X42000000Y-91960000I2540000J0D01*
G01*
X42000000Y-118630000D02*
G75*
G02*
X39460000Y-116090000I1J2540001D01*
G01*
X57240000Y-91960000D02*
G75*
G02*
X59780000Y-94500000I0J-2540000D01*
G01*
X59780000Y-116090000D02*
G75*
G02*
X57240000Y-118630000I-2540001J1D01*
G01*
D14*
%TO.C,C3*%
X149150000Y-121283000D02*
X149150000Y-120717000D01*
X149190000Y-121517000D02*
X149190000Y-120483000D01*
X149230000Y-121677000D02*
X149230000Y-120323000D01*
X149270000Y-121805000D02*
X149270000Y-120195000D01*
X149310000Y-121914001D02*
X149310000Y-120085999D01*
X149350000Y-122011000D02*
X149350000Y-119989000D01*
X149390000Y-122098000D02*
X149390000Y-119902000D01*
X149430000Y-122177000D02*
X149430000Y-119823000D01*
X149470000Y-119960000D02*
X149470000Y-119748999D01*
X149470000Y-122251001D02*
X149470000Y-122040000D01*
X149510000Y-119960000D02*
X149510000Y-119681000D01*
X149510000Y-122319000D02*
X149510000Y-122040000D01*
X149550000Y-122383000D02*
X149550001Y-122040000D01*
X149550001Y-119960000D02*
X149550000Y-119617000D01*
X149590000Y-119960000D02*
X149590000Y-119557000D01*
X149590000Y-122443000D02*
X149590000Y-122040000D01*
X149630000Y-119960000D02*
X149630000Y-119501000D01*
X149630000Y-122499000D02*
X149630000Y-122040000D01*
X149669999Y-119960000D02*
X149670000Y-119447000D01*
X149670000Y-122553000D02*
X149669999Y-122040000D01*
X149710000Y-119960000D02*
X149710000Y-119396000D01*
X149710000Y-122604000D02*
X149710000Y-122040000D01*
X149750000Y-119960000D02*
X149750000Y-119348001D01*
X149750000Y-122651999D02*
X149750000Y-122040000D01*
X149790000Y-119960000D02*
X149790000Y-119301000D01*
X149790000Y-122699000D02*
X149790000Y-122040000D01*
X149830000Y-119959999D02*
X149830000Y-119256999D01*
X149830000Y-122743001D02*
X149830000Y-122040001D01*
X149870000Y-119960000D02*
X149870000Y-119215000D01*
X149870000Y-122785000D02*
X149870000Y-122040000D01*
X149910000Y-119960000D02*
X149910000Y-119175000D01*
X149910000Y-122825000D02*
X149910000Y-122040000D01*
X149950000Y-119960000D02*
X149950000Y-119136000D01*
X149950000Y-122864000D02*
X149950000Y-122040000D01*
X149990001Y-119960000D02*
X149990001Y-119099000D01*
X149990001Y-122901000D02*
X149990001Y-122040000D01*
X150030000Y-119960000D02*
X150030000Y-119064000D01*
X150030000Y-122936000D02*
X150030000Y-122040000D01*
X150070000Y-119960000D02*
X150070000Y-119030001D01*
X150070000Y-122969999D02*
X150070000Y-122040000D01*
X150109999Y-119960000D02*
X150110000Y-118997001D01*
X150110000Y-123002999D02*
X150109999Y-122040000D01*
X150150000Y-119960000D02*
X150150000Y-118965000D01*
X150150000Y-123035000D02*
X150150000Y-122040000D01*
X150189999Y-123065000D02*
X150190000Y-122040000D01*
X150190000Y-119960000D02*
X150189999Y-118935000D01*
X150230000Y-119960000D02*
X150230000Y-118906000D01*
X150230000Y-123094000D02*
X150230000Y-122040000D01*
X150270000Y-119959999D02*
X150270000Y-118878000D01*
X150270000Y-123122000D02*
X150270000Y-122040001D01*
X150310000Y-119960000D02*
X150310000Y-118851000D01*
X150310000Y-123149000D02*
X150310000Y-122040000D01*
X150350000Y-119960000D02*
X150350000Y-118825000D01*
X150350000Y-123175000D02*
X150350000Y-122040000D01*
X150390000Y-119960000D02*
X150390000Y-118801000D01*
X150390000Y-123199000D02*
X150390000Y-122040000D01*
X150430000Y-123223000D02*
X150430001Y-122040000D01*
X150430001Y-119960000D02*
X150430000Y-118777000D01*
X150470000Y-119960000D02*
X150470000Y-118754000D01*
X150470000Y-123246000D02*
X150470000Y-122040000D01*
X150510000Y-119960000D02*
X150510000Y-118732000D01*
X150510000Y-123268000D02*
X150510000Y-122040000D01*
X150549999Y-119960000D02*
X150550000Y-118711000D01*
X150550000Y-123289000D02*
X150549999Y-122040000D01*
X150590000Y-119960000D02*
X150590000Y-118691000D01*
X150590000Y-123309000D02*
X150590000Y-122040000D01*
X150630000Y-119960000D02*
X150630000Y-118671000D01*
X150630000Y-123329000D02*
X150630000Y-122040000D01*
X150670000Y-119960000D02*
X150670000Y-118653000D01*
X150670000Y-123347000D02*
X150670000Y-122040000D01*
X150710000Y-119959999D02*
X150710000Y-118635000D01*
X150710000Y-123365000D02*
X150710000Y-122040001D01*
X150750000Y-119960000D02*
X150750000Y-118618000D01*
X150750000Y-123382000D02*
X150750000Y-122040000D01*
X150790000Y-119960000D02*
X150790000Y-118602000D01*
X150790000Y-123398000D02*
X150790000Y-122040000D01*
X150830000Y-119960000D02*
X150830000Y-118587000D01*
X150830000Y-123413000D02*
X150830000Y-122040000D01*
X150870000Y-123428000D02*
X150870001Y-122040000D01*
X150870001Y-119960000D02*
X150870000Y-118572000D01*
X150910000Y-119960000D02*
X150910000Y-118558000D01*
X150910000Y-123442000D02*
X150910000Y-122040000D01*
X150950000Y-119960000D02*
X150950000Y-118545000D01*
X150950000Y-123455000D02*
X150950000Y-122040000D01*
X150989999Y-119960000D02*
X150990000Y-118533000D01*
X150990000Y-123467000D02*
X150989999Y-122040000D01*
X151030000Y-123479000D02*
X151030001Y-122040000D01*
X151030001Y-119960000D02*
X151030000Y-118521000D01*
X151070000Y-119960000D02*
X151070000Y-118510000D01*
X151070000Y-123490000D02*
X151070000Y-122040000D01*
X151110000Y-119960000D02*
X151110000Y-118499000D01*
X151110000Y-123501000D02*
X151110000Y-122040000D01*
X151149999Y-123510000D02*
X151150000Y-122040001D01*
X151150000Y-119959999D02*
X151149999Y-118490000D01*
X151190000Y-119960000D02*
X151190000Y-118481000D01*
X151190000Y-123519000D02*
X151190000Y-122040000D01*
X151230000Y-119960000D02*
X151230000Y-118472000D01*
X151230000Y-123528000D02*
X151230000Y-122040000D01*
X151270000Y-119960000D02*
X151270000Y-118464000D01*
X151270000Y-123536000D02*
X151270000Y-122040000D01*
X151310000Y-119959999D02*
X151310000Y-118457000D01*
X151310000Y-123543000D02*
X151310000Y-122040001D01*
X151350000Y-119960000D02*
X151350000Y-118451000D01*
X151350000Y-123549000D02*
X151350000Y-122040000D01*
X151390000Y-119960000D02*
X151390000Y-118445000D01*
X151390000Y-123555000D02*
X151390000Y-122040000D01*
X151430000Y-119960000D02*
X151430000Y-118440000D01*
X151430000Y-123560000D02*
X151430000Y-122040000D01*
X151470001Y-119960000D02*
X151470001Y-118435000D01*
X151470001Y-123565000D02*
X151470001Y-122040000D01*
X151510000Y-119960000D02*
X151510000Y-118431000D01*
X151510000Y-123569000D02*
X151510000Y-122040000D01*
X151550000Y-123572000D02*
X151550000Y-118428000D01*
X151589999Y-123575000D02*
X151589999Y-118425000D01*
X151630000Y-123577000D02*
X151630000Y-118423000D01*
X151670000Y-123578999D02*
X151670000Y-118421001D01*
X151710000Y-123580000D02*
X151710000Y-118420000D01*
X151750000Y-123580000D02*
X151750000Y-118420000D01*
X154304775Y-122725000D02*
X154304775Y-122225000D01*
X154554774Y-122475000D02*
X154054775Y-122475000D01*
X154370002Y-121000000D02*
G75*
G02*
X149130000Y-121000000I-2620001J0D01*
G01*
X149130000Y-121000000D02*
G75*
G02*
X154370002Y-121000000I2620001J0D01*
G01*
D11*
%TO.C,J1*%
X158000000Y-51000000D02*
X178500000Y-51000000D01*
X158000000Y-84000000D02*
X158000000Y-51000000D01*
X178500000Y-51000000D02*
X178500000Y-84000000D01*
X178500000Y-84000000D02*
X158000000Y-84000000D01*
D14*
%TO.C,5V_Power1*%
X141580000Y-119620000D02*
X141580000Y-122380000D01*
X144230000Y-119620000D02*
X141580000Y-119620000D01*
X144230000Y-119620000D02*
X144230000Y-122380000D01*
X144230000Y-122380000D02*
X141580000Y-122380000D01*
X145500000Y-119620001D02*
X146880000Y-119620000D01*
X146880000Y-119620000D02*
X146879999Y-121000000D01*
%TO.C,C2*%
X93945226Y-119525000D02*
X94445225Y-119525000D01*
X94195225Y-119275000D02*
X94195225Y-119775000D01*
X96750000Y-118420000D02*
X96750000Y-123580000D01*
X96790000Y-118420000D02*
X96790000Y-123580000D01*
X96830000Y-118421001D02*
X96830000Y-123578999D01*
X96870000Y-118423000D02*
X96870000Y-123577000D01*
X96910001Y-118425000D02*
X96910001Y-123575000D01*
X96950000Y-118428000D02*
X96950000Y-123572000D01*
X96990000Y-118431000D02*
X96990000Y-119960000D01*
X96990000Y-122040000D02*
X96990000Y-123569000D01*
X97029999Y-118435000D02*
X97029999Y-119960000D01*
X97029999Y-122040000D02*
X97029999Y-123565000D01*
X97070000Y-118440000D02*
X97070000Y-119960000D01*
X97070000Y-122040000D02*
X97070000Y-123560000D01*
X97110000Y-118445000D02*
X97110000Y-119960000D01*
X97110000Y-122040000D02*
X97110000Y-123555000D01*
X97150000Y-118451000D02*
X97150000Y-119960000D01*
X97150000Y-122040000D02*
X97150000Y-123549000D01*
X97190000Y-118457000D02*
X97190000Y-119959999D01*
X97190000Y-122040001D02*
X97190000Y-123543000D01*
X97230000Y-118464000D02*
X97230000Y-119960000D01*
X97230000Y-122040000D02*
X97230000Y-123536000D01*
X97270000Y-118472000D02*
X97270000Y-119960000D01*
X97270000Y-122040000D02*
X97270000Y-123528000D01*
X97310000Y-118481000D02*
X97310000Y-119960000D01*
X97310000Y-122040000D02*
X97310000Y-123519000D01*
X97350000Y-122040001D02*
X97350001Y-123510000D01*
X97350001Y-118490000D02*
X97350000Y-119959999D01*
X97390000Y-118499000D02*
X97390000Y-119960000D01*
X97390000Y-122040000D02*
X97390000Y-123501000D01*
X97430000Y-118510000D02*
X97430000Y-119960000D01*
X97430000Y-122040000D02*
X97430000Y-123490000D01*
X97469999Y-122040000D02*
X97470000Y-123479000D01*
X97470000Y-118521000D02*
X97469999Y-119960000D01*
X97510000Y-118533000D02*
X97510001Y-119960000D01*
X97510001Y-122040000D02*
X97510000Y-123467000D01*
X97550000Y-118545000D02*
X97550000Y-119960000D01*
X97550000Y-122040000D02*
X97550000Y-123455000D01*
X97590000Y-118558000D02*
X97590000Y-119960000D01*
X97590000Y-122040000D02*
X97590000Y-123442000D01*
X97629999Y-122040000D02*
X97630000Y-123428000D01*
X97630000Y-118572000D02*
X97629999Y-119960000D01*
X97670000Y-118587000D02*
X97670000Y-119960000D01*
X97670000Y-122040000D02*
X97670000Y-123413000D01*
X97710000Y-118602000D02*
X97710000Y-119960000D01*
X97710000Y-122040000D02*
X97710000Y-123398000D01*
X97750000Y-118618000D02*
X97750000Y-119960000D01*
X97750000Y-122040000D02*
X97750000Y-123382000D01*
X97790000Y-118635000D02*
X97790000Y-119959999D01*
X97790000Y-122040001D02*
X97790000Y-123365000D01*
X97830000Y-118653000D02*
X97830000Y-119960000D01*
X97830000Y-122040000D02*
X97830000Y-123347000D01*
X97870000Y-118671000D02*
X97870000Y-119960000D01*
X97870000Y-122040000D02*
X97870000Y-123329000D01*
X97910000Y-118691000D02*
X97910000Y-119960000D01*
X97910000Y-122040000D02*
X97910000Y-123309000D01*
X97950000Y-118711000D02*
X97950001Y-119960000D01*
X97950001Y-122040000D02*
X97950000Y-123289000D01*
X97990000Y-118732000D02*
X97990000Y-119960000D01*
X97990000Y-122040000D02*
X97990000Y-123268000D01*
X98030000Y-118754000D02*
X98030000Y-119960000D01*
X98030000Y-122040000D02*
X98030000Y-123246000D01*
X98069999Y-122040000D02*
X98070000Y-123223000D01*
X98070000Y-118777000D02*
X98069999Y-119960000D01*
X98110000Y-118801000D02*
X98110000Y-119960000D01*
X98110000Y-122040000D02*
X98110000Y-123199000D01*
X98150000Y-118825000D02*
X98150000Y-119960000D01*
X98150000Y-122040000D02*
X98150000Y-123175000D01*
X98190000Y-118851000D02*
X98190000Y-119960000D01*
X98190000Y-122040000D02*
X98190000Y-123149000D01*
X98230000Y-118878000D02*
X98230000Y-119959999D01*
X98230000Y-122040001D02*
X98230000Y-123122000D01*
X98270000Y-118906000D02*
X98270000Y-119960000D01*
X98270000Y-122040000D02*
X98270000Y-123094000D01*
X98310000Y-122040000D02*
X98310001Y-123065000D01*
X98310001Y-118935000D02*
X98310000Y-119960000D01*
X98350000Y-118965000D02*
X98350000Y-119960000D01*
X98350000Y-122040000D02*
X98350000Y-123035000D01*
X98390000Y-118997001D02*
X98390001Y-119960000D01*
X98390001Y-122040000D02*
X98390000Y-123002999D01*
X98430000Y-119030001D02*
X98430000Y-119960000D01*
X98430000Y-122040000D02*
X98430000Y-122969999D01*
X98470000Y-119064000D02*
X98470000Y-119960000D01*
X98470000Y-122040000D02*
X98470000Y-122936000D01*
X98509999Y-119099000D02*
X98509999Y-119960000D01*
X98509999Y-122040000D02*
X98509999Y-122901000D01*
X98550000Y-119136000D02*
X98550000Y-119960000D01*
X98550000Y-122040000D02*
X98550000Y-122864000D01*
X98590000Y-119175000D02*
X98590000Y-119960000D01*
X98590000Y-122040000D02*
X98590000Y-122825000D01*
X98630000Y-119215000D02*
X98630000Y-119960000D01*
X98630000Y-122040000D02*
X98630000Y-122785000D01*
X98670000Y-119256999D02*
X98670000Y-119959999D01*
X98670000Y-122040001D02*
X98670000Y-122743001D01*
X98710000Y-119301000D02*
X98710000Y-119960000D01*
X98710000Y-122040000D02*
X98710000Y-122699000D01*
X98750000Y-119348001D02*
X98750000Y-119960000D01*
X98750000Y-122040000D02*
X98750000Y-122651999D01*
X98790000Y-119396000D02*
X98790000Y-119960000D01*
X98790000Y-122040000D02*
X98790000Y-122604000D01*
X98830000Y-119447000D02*
X98830001Y-119960000D01*
X98830001Y-122040000D02*
X98830000Y-122553000D01*
X98870000Y-119501000D02*
X98870000Y-119960000D01*
X98870000Y-122040000D02*
X98870000Y-122499000D01*
X98910000Y-119557000D02*
X98910000Y-119960000D01*
X98910000Y-122040000D02*
X98910000Y-122443000D01*
X98949999Y-122040000D02*
X98950000Y-122383000D01*
X98950000Y-119617000D02*
X98949999Y-119960000D01*
X98990000Y-119681000D02*
X98990000Y-119960000D01*
X98990000Y-122040000D02*
X98990000Y-122319000D01*
X99030000Y-119748999D02*
X99030000Y-119960000D01*
X99030000Y-122040000D02*
X99030000Y-122251001D01*
X99070000Y-119823000D02*
X99070000Y-122177000D01*
X99110000Y-119902000D02*
X99110000Y-122098000D01*
X99150000Y-119989000D02*
X99150000Y-122011000D01*
X99190000Y-120085999D02*
X99190000Y-121914001D01*
X99230000Y-120195000D02*
X99230000Y-121805000D01*
X99270000Y-120323000D02*
X99270000Y-121677000D01*
X99310000Y-120483000D02*
X99310000Y-121517000D01*
X99350000Y-120717000D02*
X99350000Y-121283000D01*
X99370000Y-121000000D02*
G75*
G02*
X94129998Y-121000000I-2620001J0D01*
G01*
X94129998Y-121000000D02*
G75*
G02*
X99370000Y-121000000I2620001J0D01*
G01*
%TO.C,OLED*%
X131845000Y-122380000D02*
X131845001Y-121000000D01*
X133225000Y-122379999D02*
X131845000Y-122380000D01*
X134495000Y-119620000D02*
X137145000Y-119620000D01*
X134495000Y-122380000D02*
X134495000Y-119620000D01*
X134495000Y-122380000D02*
X137145000Y-122380000D01*
X137145000Y-122380000D02*
X137145000Y-119620000D01*
%TO.C,US_PCB*%
X118620000Y-119620000D02*
X118620000Y-122380000D01*
X121270000Y-119620000D02*
X118620000Y-119620000D01*
X121270000Y-119620000D02*
X121270000Y-122380000D01*
X121270000Y-122380000D02*
X118620000Y-122380000D01*
X122540000Y-119620001D02*
X123920000Y-119620000D01*
X123920000Y-119620000D02*
X123919999Y-121000000D01*
%TO.C,Camera1*%
X121855000Y-86620000D02*
X121855000Y-89380000D01*
X124505000Y-86620000D02*
X121855000Y-86620000D01*
X124505000Y-86620000D02*
X124505000Y-89380000D01*
X124505000Y-89380000D02*
X121855000Y-89380000D01*
X125775000Y-86620001D02*
X127155000Y-86620000D01*
X127155000Y-86620000D02*
X127154999Y-88000000D01*
%TO.C,IR_PCB*%
X125345000Y-122380000D02*
X125345001Y-121000000D01*
X126725000Y-122379999D02*
X125345000Y-122380000D01*
X127995000Y-119620000D02*
X130645000Y-119620000D01*
X127995000Y-122380000D02*
X127995000Y-119620000D01*
X127995000Y-122380000D02*
X130645000Y-122380000D01*
X130645000Y-122380000D02*
X130645000Y-119620000D01*
%TO.C,Line_PCB*%
X112080001Y-122380000D02*
X112080002Y-121000000D01*
X113460001Y-122379999D02*
X112080001Y-122380000D01*
X114730001Y-119620000D02*
X117380001Y-119620000D01*
X114730001Y-122380000D02*
X114730001Y-119620000D01*
X114730001Y-122380000D02*
X117380001Y-122380000D01*
X117380001Y-122380000D02*
X117380001Y-119620000D01*
%TO.C,Ultrasonic_Sensor1*%
X119310000Y-135880000D02*
X119310001Y-134500000D01*
X120690000Y-135879999D02*
X119310000Y-135880000D01*
X121960000Y-133120000D02*
X129690000Y-133120001D01*
X121960000Y-135880000D02*
X121960000Y-133120000D01*
X121960000Y-135880000D02*
X129690000Y-135879999D01*
X129690000Y-135879999D02*
X129690000Y-133120001D01*
%TO.C,J5*%
X111689980Y-74111352D02*
X111689980Y-61301352D01*
X114449979Y-75381352D02*
X114449980Y-76761352D01*
X114449980Y-61301352D02*
X111689980Y-61301352D01*
X114449980Y-74111352D02*
X111689980Y-74111352D01*
X114449980Y-74111352D02*
X114449980Y-61301352D01*
X114449980Y-76761352D02*
X113069980Y-76761351D01*
D11*
%TO.C,J4*%
X70500000Y-126000000D02*
X91000000Y-126000000D01*
X70500000Y-159000000D02*
X70500000Y-126000000D01*
X91000000Y-126000000D02*
X91000000Y-159000000D01*
X91000000Y-159000000D02*
X70500000Y-159000000D01*
%TD*%
M02*
