M48
; DRILL file {KiCad 9.0.3} date 2026-03-22T16:41:19+0530
; FORMAT={-:-/ absolute / metric / decimal}
; #@! TF.CreationDate,2026-03-22T16:41:19+05:30
; #@! TF.GenerationSoftware,Kicad,Pcbnew,9.0.3
; #@! TF.FileFunction,Plated,1,2,PTH
FMAT,2
METRIC
; #@! TA.AperFunction,Plated,PTH,ViaDrill
T1C0.400
; #@! TA.AperFunction,Plated,PTH,ComponentDrill
T2C0.800
; #@! TA.AperFunction,Plated,PTH,ComponentDrill
T3C1.000
; #@! TA.AperFunction,Plated,PTH,ComponentDrill
T4C1.110
; #@! TA.AperFunction,Plated,PTH,ComponentDrill
T5C2.500
%
G90
G05
T1
X112.5Y-100.5
X124.5Y-99.5
X148.5Y-110.5
X154.5Y-114.5
X195.0Y-117.5
T2
X95.5Y-121.0
X98.0Y-121.0
X150.5Y-121.0
X153.0Y-121.0
T3
X40.73Y-101.485
X40.73Y-104.025
X40.73Y-106.565
X40.73Y-109.105
X58.51Y-98.945
X58.51Y-101.485
X58.51Y-104.025
X58.51Y-106.565
X58.51Y-109.105
X58.51Y-111.645
X89.5Y-52.26
X89.5Y-54.8
X89.5Y-57.34
X89.5Y-59.88
X89.5Y-62.42
X89.5Y-64.96
X89.5Y-67.5
X89.5Y-70.04
X89.5Y-72.58
X89.5Y-75.12
X89.5Y-77.66
X89.5Y-80.2
X89.5Y-82.74
X89.5Y-127.18
X89.5Y-129.72
X89.5Y-132.26
X89.5Y-134.8
X89.5Y-137.34
X89.5Y-139.88
X89.5Y-142.42
X89.5Y-144.96
X89.5Y-147.5
X89.5Y-150.04
X89.5Y-152.58
X89.5Y-155.12
X89.5Y-157.66
X104.225Y-121.0
X106.765Y-121.0
X113.07Y-62.681
X113.07Y-65.221
X113.07Y-67.761
X113.07Y-70.301
X113.07Y-72.841
X113.07Y-75.381
X113.46Y-121.0
X116.0Y-121.0
X120.0Y-121.0
X120.69Y-134.5
X122.54Y-121.0
X123.23Y-134.5
X123.235Y-88.0
X125.77Y-134.5
X125.775Y-88.0
X126.725Y-121.0
X128.31Y-134.5
X129.265Y-121.0
X133.225Y-121.0
X135.765Y-121.0
X135.93Y-62.681
X135.93Y-65.221
X135.93Y-67.761
X135.93Y-70.301
X142.96Y-121.0
X145.5Y-121.0
X159.5Y-52.22
X159.5Y-54.76
X159.5Y-57.3
X159.5Y-59.84
X159.5Y-62.38
X159.5Y-64.92
X159.5Y-67.46
X159.5Y-70.0
X159.5Y-72.54
X159.5Y-75.08
X159.5Y-77.62
X159.5Y-80.16
X159.5Y-82.7
X159.5Y-127.3
X159.5Y-129.84
X159.5Y-132.38
X159.5Y-134.92
X159.5Y-137.46
X159.5Y-140.0
X159.5Y-142.54
X159.5Y-145.08
X159.5Y-147.62
X159.5Y-150.16
X159.5Y-152.7
X159.5Y-155.24
X159.5Y-157.78
X198.96Y-119.0
X201.5Y-119.0
X204.04Y-119.0
T4
X95.52Y-97.45
X95.52Y-112.69
X98.06Y-112.69
X98.06Y-97.45
X100.6Y-97.45
X100.6Y-112.69
X103.14Y-97.45
X103.14Y-112.69
X105.68Y-97.45
X105.68Y-112.69
X108.22Y-97.45
X108.22Y-99.99
X108.22Y-102.53
X108.22Y-105.07
X108.22Y-107.61
X108.22Y-110.15
X108.22Y-112.69
X110.76Y-112.69
X110.76Y-97.45
X113.3Y-97.45
X113.3Y-112.69
X115.84Y-97.45
X115.84Y-112.69
X118.38Y-97.45
X118.38Y-112.69
X120.92Y-112.69
X120.92Y-97.45
X123.46Y-97.45
X123.46Y-112.69
X126.0Y-97.45
X126.0Y-112.69
X128.54Y-97.45
X128.54Y-112.69
X131.08Y-97.45
X131.08Y-112.69
X133.62Y-97.45
X133.62Y-112.69
X136.16Y-97.45
X136.16Y-112.69
X137.43Y-100.5
X138.7Y-97.45
X138.7Y-112.69
X139.97Y-100.5
X141.24Y-97.45
X141.24Y-112.69
X142.51Y-100.5
X143.78Y-112.69
X143.78Y-97.45
X145.05Y-100.5
X146.32Y-97.45
X146.32Y-112.69
X147.59Y-100.5
X148.86Y-97.45
X148.86Y-112.69
X151.4Y-97.45
X151.4Y-110.15
X151.4Y-112.69
X153.94Y-97.45
X153.94Y-112.69
T5
X42.0Y-94.5
X42.0Y-116.09
X57.24Y-94.5
X57.24Y-116.09
M30
