%TF.GenerationSoftware,KiCad,Pcbnew,9.0.3*%
%TF.CreationDate,2026-01-24T07:10:14+05:30*%
%TF.ProjectId,Main_PCB,4d61696e-5f50-4434-922e-6b696361645f,rev?*%
%TF.SameCoordinates,Original*%
%TF.FileFunction,Soldermask,Bot*%
%TF.FilePolarity,Negative*%
%FSLAX46Y46*%
G04 Gerber Fmt 4.6, Leading zero omitted, Abs format (unit mm)*
G04 Created by KiCad (PCBNEW 9.0.3) date 2026-01-24 07:10:14*
%MOMM*%
%LPD*%
G01*
G04 APERTURE LIST*
G04 Aperture macros list*
%AMRoundRect*
0 Rectangle with rounded corners*
0 $1 Rounding radius*
0 $2 $3 $4 $5 $6 $7 $8 $9 X,Y pos of 4 corners*
0 Add a 4 corners polygon primitive as box body*
4,1,4,$2,$3,$4,$5,$6,$7,$8,$9,$2,$3,0*
0 Add four circle primitives for the rounded corners*
1,1,$1+$1,$2,$3*
1,1,$1+$1,$4,$5*
1,1,$1+$1,$6,$7*
1,1,$1+$1,$8,$9*
0 Add four rect primitives between the rounded corners*
20,1,$1+$1,$2,$3,$4,$5,0*
20,1,$1+$1,$4,$5,$6,$7,0*
20,1,$1+$1,$6,$7,$8,$9,0*
20,1,$1+$1,$8,$9,$2,$3,0*%
%AMFreePoly0*
4,1,353,0.005411,0.866864,0.084411,0.862864,0.090139,0.862411,0.090698,0.862351,0.096374,0.861580,0.175374,0.848580,0.180107,0.847686,0.180552,0.847591,0.184900,0.846563,0.261900,0.826563,0.267741,0.824858,0.268308,0.824674,0.274041,0.822623,0.348041,0.793623,0.352389,0.791802,0.352826,0.791607,0.357389,0.789434,0.428389,0.753434,0.432954,0.750971,0.433394,0.750719,
0.437794,0.748050,0.504794,0.705050,0.509380,0.701927,0.509818,0.701611,0.514170,0.698290,0.576170,0.648290,0.580236,0.644832,0.580633,0.644476,0.584661,0.640661,0.640661,0.584661,0.644476,0.580633,0.644832,0.580236,0.648290,0.576170,0.698290,0.514170,0.701611,0.509818,0.701927,0.509380,0.705050,0.504794,0.748050,0.437794,0.750719,0.433394,0.750971,0.432954,
0.753434,0.428389,0.789434,0.357389,0.791607,0.352826,0.791802,0.352389,0.793623,0.348041,0.822623,0.274041,0.824674,0.268308,0.824858,0.267741,0.826563,0.261900,0.846563,0.184900,0.847591,0.180552,0.847686,0.180107,0.848580,0.175374,0.861580,0.096374,0.862351,0.090698,0.862411,0.090139,0.862864,0.084411,0.866864,0.005411,0.866988,0.001313,0.866992,0.000928,
0.866963,-0.002815,0.865963,-0.040815,0.865853,-0.043575,0.865839,-0.043837,0.865668,-0.046422,0.862668,-0.084422,0.862565,-0.085629,0.862552,-0.085772,0.862380,-0.087500,0.858380,-0.124500,0.857896,-0.128307,0.857842,-0.128676,0.857229,-0.132385,0.850229,-0.170385,0.849915,-0.172017,0.849879,-0.172196,0.849452,-0.174212,0.841452,-0.210212,0.840941,-0.212400,0.840887,-0.212620,
0.840294,-0.214918,0.830294,-0.251918,0.829363,-0.255150,0.829266,-0.255467,0.828216,-0.258703,0.816216,-0.293703,0.815252,-0.296392,0.815164,-0.296627,0.814347,-0.298739,0.800347,-0.333739,0.800114,-0.334315,0.800068,-0.334428,0.799349,-0.336150,0.784349,-0.371150,0.783044,-0.374066,0.782920,-0.374332,0.781704,-0.376852,0.764704,-0.410852,0.763007,-0.414099,0.762834,-0.414416,
0.761004,-0.417628,0.742004,-0.449628,0.741445,-0.450559,0.741386,-0.450656,0.740736,-0.451710,0.720736,-0.483710,0.719216,-0.486069,0.719054,-0.486313,0.717260,-0.488926,0.695260,-0.519926,0.693448,-0.522399,0.693287,-0.522612,0.691834,-0.524489,0.668834,-0.553489,0.667683,-0.554914,0.667553,-0.555072,0.666043,-0.556865,0.641043,-0.585865,0.639177,-0.587970,0.638992,-0.588173,
0.637075,-0.590219,0.611075,-0.617219,0.608995,-0.619318,0.608795,-0.619514,0.606808,-0.621409,0.578808,-0.647409,0.576721,-0.649294,0.576507,-0.649482,0.574220,-0.651432,0.545220,-0.675432,0.543572,-0.676768,0.514491,-0.699833,0.512612,-0.701287,0.512399,-0.701448,0.509926,-0.703260,0.478926,-0.725260,0.476313,-0.727054,0.476069,-0.727216,0.473710,-0.728736,0.441710,-0.748736,
0.438959,-0.750395,0.438703,-0.750544,0.436237,-0.751934,0.403237,-0.769934,0.400694,-0.771275,0.400429,-0.771410,0.397560,-0.772816,0.363560,-0.788816,0.362205,-0.789441,0.362046,-0.789513,0.360150,-0.790349,0.325150,-0.805349,0.323428,-0.806068,0.323315,-0.806114,0.322739,-0.806347,0.287739,-0.820347,0.283855,-0.821809,0.283459,-0.821949,0.279267,-0.823330,0.243267,-0.834330,
0.242113,-0.834675,0.241990,-0.834711,0.240638,-0.835097,0.204638,-0.845097,0.201662,-0.845875,0.201381,-0.845944,0.198613,-0.846583,0.172000,-0.852337,0.172000,-1.530000,0.164242,-1.569019,0.162778,-1.572555,0.121845,-1.620497,0.107555,-1.627778,0.104019,-1.629242,0.065000,-1.637000,-0.065000,-1.637000,-0.104019,-1.629242,-0.107555,-1.627778,-0.155497,-1.586845,-0.162778,-1.572555,
-0.164242,-1.569019,-0.172000,-1.530000,-0.172000,-0.852337,-0.198613,-0.846583,-0.201381,-0.845944,-0.201662,-0.845875,-0.204638,-0.845097,-0.240638,-0.835097,-0.241990,-0.834711,-0.242113,-0.834675,-0.243267,-0.834330,-0.279267,-0.823330,-0.283459,-0.821949,-0.283855,-0.821809,-0.287739,-0.820347,-0.322739,-0.806347,-0.323315,-0.806114,-0.323428,-0.806068,-0.325150,-0.805349,-0.360150,-0.790349,
-0.362046,-0.789513,-0.362205,-0.789441,-0.363560,-0.788816,-0.397560,-0.772816,-0.400429,-0.771410,-0.400694,-0.771275,-0.403237,-0.769934,-0.436237,-0.751934,-0.438703,-0.750544,-0.438959,-0.750395,-0.441710,-0.748736,-0.473710,-0.728736,-0.476069,-0.727216,-0.476313,-0.727054,-0.478926,-0.725260,-0.509926,-0.703260,-0.512399,-0.701448,-0.512612,-0.701287,-0.514491,-0.699833,-0.543572,-0.676768,
-0.545220,-0.675432,-0.574220,-0.651432,-0.576507,-0.649482,-0.576721,-0.649294,-0.578808,-0.647409,-0.606808,-0.621409,-0.608795,-0.619514,-0.608995,-0.619318,-0.611075,-0.617219,-0.637075,-0.590219,-0.638992,-0.588173,-0.639177,-0.587970,-0.641043,-0.585865,-0.666043,-0.556865,-0.667553,-0.555072,-0.667683,-0.554914,-0.668834,-0.553489,-0.691834,-0.524489,-0.693287,-0.522612,-0.693448,-0.522399,
-0.695260,-0.519926,-0.717260,-0.488926,-0.719054,-0.486313,-0.719216,-0.486069,-0.720736,-0.483710,-0.740736,-0.451710,-0.741386,-0.450656,-0.741445,-0.450559,-0.742004,-0.449628,-0.761004,-0.417628,-0.762834,-0.414416,-0.763007,-0.414099,-0.764704,-0.410852,-0.781704,-0.376852,-0.782920,-0.374332,-0.783044,-0.374066,-0.784349,-0.371150,-0.799349,-0.336150,-0.800068,-0.334428,-0.800114,-0.334315,
-0.800347,-0.333739,-0.814347,-0.298739,-0.815164,-0.296627,-0.815252,-0.296392,-0.816216,-0.293703,-0.828216,-0.258703,-0.829266,-0.255467,-0.829363,-0.255150,-0.830294,-0.251918,-0.840294,-0.214918,-0.840887,-0.212620,-0.840941,-0.212400,-0.841452,-0.210212,-0.849452,-0.174212,-0.849879,-0.172196,-0.849915,-0.172017,-0.850229,-0.170385,-0.857229,-0.132385,-0.857842,-0.128676,-0.857896,-0.128307,
-0.858380,-0.124500,-0.862380,-0.087500,-0.862552,-0.085772,-0.862565,-0.085629,-0.862668,-0.084422,-0.865668,-0.046422,-0.865839,-0.043837,-0.865853,-0.043575,-0.865963,-0.040815,-0.866963,-0.002815,-0.866992,0.000928,-0.866988,0.001313,-0.866864,0.005411,-0.862864,0.084411,-0.862411,0.090139,-0.862351,0.090698,-0.861580,0.096374,-0.848580,0.175374,-0.847686,0.180107,-0.847591,0.180552,
-0.846563,0.184900,-0.826563,0.261900,-0.824858,0.267741,-0.824674,0.268308,-0.822623,0.274041,-0.793623,0.348041,-0.791802,0.352389,-0.791607,0.352826,-0.789434,0.357389,-0.753434,0.428389,-0.750971,0.432954,-0.750719,0.433394,-0.748050,0.437794,-0.705050,0.504794,-0.701927,0.509380,-0.701611,0.509818,-0.698290,0.514170,-0.648290,0.576170,-0.644832,0.580236,-0.644476,0.580633,
-0.640661,0.584661,-0.584661,0.640661,-0.580633,0.644476,-0.580236,0.644832,-0.576170,0.648290,-0.514170,0.698290,-0.509818,0.701611,-0.509380,0.701927,-0.504794,0.705050,-0.437794,0.748050,-0.433394,0.750719,-0.432954,0.750971,-0.428389,0.753434,-0.357389,0.789434,-0.352826,0.791607,-0.352389,0.791802,-0.348041,0.793623,-0.274041,0.822623,-0.268308,0.824674,-0.267741,0.824858,
-0.261900,0.826563,-0.184900,0.846563,-0.180552,0.847591,-0.180107,0.847686,-0.175374,0.848580,-0.096374,0.861580,-0.090698,0.862351,-0.090139,0.862411,-0.084411,0.862864,-0.005411,0.866864,-0.000253,0.866994,0.000253,0.866994,0.005411,0.866864,0.005411,0.866864,$1*%
%AMFreePoly1*
4,1,469,0.104019,1.629242,0.107555,1.627778,0.155497,1.586845,0.162778,1.572555,0.164242,1.569019,0.172000,1.530000,0.172000,0.853017,0.181079,0.851461,0.184169,0.850883,0.184469,0.850822,0.187507,0.850156,0.221507,0.842156,0.224628,0.841369,0.224933,0.841287,0.228031,0.840401,0.261031,0.830401,0.262591,0.829915,0.262722,0.829873,0.263836,0.829509,0.296836,0.818509,
0.297739,0.818203,0.297867,0.818159,0.299567,0.817558,0.332567,0.805558,0.335591,0.804404,0.335886,0.804286,0.338888,0.803029,0.370888,0.789029,0.373956,0.787626,0.374245,0.787488,0.377075,0.786082,0.408075,0.770082,0.409167,0.769510,0.409278,0.769451,0.410449,0.768819,0.441449,0.751819,0.443406,0.750717,0.443574,0.750620,0.445051,0.749751,0.475051,0.731751,
0.477583,0.730181,0.477850,0.730010,0.480748,0.728084,0.509748,0.708084,0.512065,0.706437,0.512296,0.706268,0.514692,0.704461,0.541692,0.683461,0.543499,0.682022,0.570587,0.659951,0.572974,0.657945,0.573207,0.657743,0.575576,0.655623,0.601648,0.631556,0.603101,0.630189,0.628101,0.606189,0.630427,0.603882,0.630638,0.603666,0.632624,0.601576,0.656624,0.575576,
0.658743,0.573207,0.658945,0.572974,0.660950,0.570589,0.682950,0.543589,0.684116,0.542131,0.684240,0.541973,0.685600,0.540200,0.706600,0.512200,0.707225,0.511357,0.707294,0.511263,0.708070,0.510192,0.728070,0.482192,0.729769,0.479739,0.729924,0.479508,0.731396,0.477250,0.750396,0.447250,0.751688,0.445154,0.751814,0.444944,0.753092,0.442752,0.770092,0.412752,
0.771372,0.410424,0.771494,0.410195,0.772704,0.407852,0.788704,0.375852,0.789791,0.373610,0.789900,0.373378,0.791029,0.370888,0.805029,0.338888,0.805689,0.337344,0.805740,0.337222,0.806132,0.336272,0.819132,0.304272,0.820332,0.301173,0.820443,0.300872,0.821509,0.297836,0.832509,0.264836,0.832956,0.263461,0.833010,0.263291,0.833652,0.261192,0.843652,0.227192,
0.844439,0.224369,0.844509,0.224103,0.845156,0.221507,0.853156,0.187507,0.853506,0.185964,0.853536,0.185827,0.853802,0.184577,0.860802,0.150577,0.861416,0.147328,0.861472,0.147003,0.861996,0.143620,0.865996,0.114620,0.866712,0.107685,0.866759,0.107002,0.867000,0.100000,0.867000,0.000000,0.866987,-0.001632,0.866985,-0.001757,0.866966,-0.002674,0.865966,-0.042674,
0.865869,-0.045258,0.865856,-0.045516,0.865685,-0.048206,0.862685,-0.087206,0.862466,-0.089660,0.862442,-0.089897,0.862173,-0.092272,0.857173,-0.132272,0.856622,-0.136092,0.856559,-0.136477,0.855817,-0.140501,0.847817,-0.179501,0.847547,-0.180777,0.847521,-0.180896,0.847260,-0.182060,0.838260,-0.221060,0.837604,-0.223735,0.837535,-0.224001,0.836781,-0.226752,0.825781,-0.264752,
0.824891,-0.267662,0.824805,-0.267929,0.823950,-0.270469,0.810950,-0.307469,0.809738,-0.310738,0.809610,-0.311066,0.808210,-0.314470,0.792210,-0.351470,0.791489,-0.353100,0.791421,-0.353250,0.790754,-0.354690,0.773754,-0.390690,0.772460,-0.393332,0.772333,-0.393582,0.771037,-0.396048,0.752037,-0.431048,0.750684,-0.433462,0.750544,-0.433704,0.749035,-0.436227,0.728035,-0.470227,
0.727187,-0.471577,0.727093,-0.471724,0.726029,-0.473353,0.704029,-0.506353,0.702024,-0.509251,0.701818,-0.509538,0.699608,-0.512503,0.675608,-0.543503,0.674245,-0.545224,0.674122,-0.545376,0.672983,-0.546759,0.646983,-0.577759,0.644146,-0.581000,0.643851,-0.581323,0.640661,-0.584661,0.584661,-0.640661,0.581323,-0.643851,0.581000,-0.644146,0.577759,-0.646983,0.546759,-0.672983,
0.545376,-0.674122,0.545224,-0.674245,0.543503,-0.675608,0.512503,-0.699608,0.509538,-0.701818,0.509251,-0.702024,0.506353,-0.704029,0.473353,-0.726029,0.471724,-0.727093,0.471577,-0.727187,0.470227,-0.728035,0.436227,-0.749035,0.433704,-0.750544,0.433462,-0.750684,0.431048,-0.752037,0.396048,-0.771037,0.393582,-0.772333,0.393332,-0.772460,0.390690,-0.773754,0.354690,-0.790754,
0.353250,-0.791421,0.353100,-0.791489,0.351470,-0.792210,0.314470,-0.808210,0.311066,-0.809610,0.310738,-0.809738,0.307469,-0.810950,0.270469,-0.823950,0.267929,-0.824805,0.267662,-0.824891,0.264752,-0.825781,0.226752,-0.836781,0.224001,-0.837535,0.223735,-0.837604,0.221060,-0.838260,0.182060,-0.847260,0.180896,-0.847521,0.180777,-0.847547,0.179501,-0.847817,0.140501,-0.855817,
0.136477,-0.856559,0.136092,-0.856622,0.132272,-0.857173,0.092272,-0.862173,0.089897,-0.862442,0.089660,-0.862466,0.087206,-0.862685,0.048206,-0.865685,0.045516,-0.865856,0.045258,-0.865869,0.042674,-0.865966,0.002674,-0.866966,0.000125,-0.866998,-0.000125,-0.866998,-0.002674,-0.866966,-0.042674,-0.865966,-0.045258,-0.865869,-0.045516,-0.865856,-0.048206,-0.865685,-0.087206,-0.862685,
-0.089660,-0.862466,-0.089897,-0.862442,-0.092272,-0.862173,-0.132272,-0.857173,-0.136092,-0.856622,-0.136477,-0.856559,-0.140501,-0.855817,-0.179501,-0.847817,-0.180777,-0.847547,-0.180896,-0.847521,-0.182060,-0.847260,-0.221060,-0.838260,-0.223735,-0.837604,-0.224001,-0.837535,-0.226752,-0.836781,-0.264752,-0.825781,-0.267662,-0.824891,-0.267929,-0.824805,-0.270469,-0.823950,-0.307469,-0.810950,
-0.310738,-0.809738,-0.311066,-0.809610,-0.314470,-0.808210,-0.351470,-0.792210,-0.353100,-0.791489,-0.353250,-0.791421,-0.354690,-0.790754,-0.390690,-0.773754,-0.393332,-0.772460,-0.393582,-0.772333,-0.396048,-0.771037,-0.431048,-0.752037,-0.433462,-0.750684,-0.433704,-0.750544,-0.436227,-0.749035,-0.470227,-0.728035,-0.471577,-0.727187,-0.471724,-0.727093,-0.473353,-0.726029,-0.506353,-0.704029,
-0.509251,-0.702024,-0.509538,-0.701818,-0.512503,-0.699608,-0.543503,-0.675608,-0.545224,-0.674245,-0.545376,-0.674122,-0.546759,-0.672983,-0.577759,-0.646983,-0.581000,-0.644146,-0.581323,-0.643851,-0.584661,-0.640661,-0.640661,-0.584661,-0.643851,-0.581323,-0.644146,-0.581000,-0.646983,-0.577759,-0.672983,-0.546759,-0.674122,-0.545376,-0.674245,-0.545224,-0.675608,-0.543503,-0.699608,-0.512503,
-0.701818,-0.509538,-0.702024,-0.509251,-0.704029,-0.506353,-0.726029,-0.473353,-0.727093,-0.471724,-0.727187,-0.471577,-0.728035,-0.470227,-0.749035,-0.436227,-0.750544,-0.433704,-0.750684,-0.433462,-0.752037,-0.431048,-0.771037,-0.396048,-0.772333,-0.393582,-0.772460,-0.393332,-0.773754,-0.390690,-0.790754,-0.354690,-0.791421,-0.353250,-0.791489,-0.353100,-0.792210,-0.351470,-0.808210,-0.314470,
-0.809610,-0.311066,-0.809738,-0.310738,-0.810950,-0.307469,-0.823950,-0.270469,-0.824805,-0.267929,-0.824891,-0.267662,-0.825781,-0.264752,-0.836781,-0.226752,-0.837535,-0.224001,-0.837604,-0.223735,-0.838260,-0.221060,-0.847260,-0.182060,-0.847521,-0.180896,-0.847547,-0.180777,-0.847817,-0.179501,-0.855817,-0.140501,-0.856559,-0.136477,-0.856622,-0.136092,-0.857173,-0.132272,-0.862173,-0.092272,
-0.862442,-0.089897,-0.862466,-0.089660,-0.862685,-0.087206,-0.865685,-0.048206,-0.865856,-0.045516,-0.865869,-0.045258,-0.865966,-0.042674,-0.866966,-0.002674,-0.866985,-0.001757,-0.866987,-0.001632,-0.867000,0.000000,-0.867000,0.100000,-0.866759,0.107002,-0.866712,0.107685,-0.865996,0.114620,-0.861996,0.143620,-0.861472,0.147003,-0.861416,0.147328,-0.860802,0.150577,-0.853802,0.184577,
-0.853536,0.185827,-0.853506,0.185964,-0.853156,0.187507,-0.845156,0.221507,-0.844509,0.224103,-0.844439,0.224369,-0.843652,0.227192,-0.833652,0.261192,-0.833010,0.263291,-0.832956,0.263461,-0.832509,0.264836,-0.821509,0.297836,-0.820443,0.300872,-0.820332,0.301173,-0.819132,0.304272,-0.806132,0.336272,-0.805740,0.337222,-0.805689,0.337344,-0.805029,0.338888,-0.791029,0.370888,
-0.789900,0.373378,-0.789791,0.373610,-0.788704,0.375852,-0.772704,0.407852,-0.771494,0.410195,-0.771372,0.410424,-0.770092,0.412752,-0.753092,0.442752,-0.751814,0.444944,-0.751688,0.445154,-0.750396,0.447250,-0.731396,0.477250,-0.729924,0.479508,-0.729769,0.479739,-0.728070,0.482192,-0.708070,0.510192,-0.707294,0.511263,-0.707225,0.511357,-0.706600,0.512200,-0.685600,0.540200,
-0.684240,0.541973,-0.684116,0.542131,-0.682950,0.543589,-0.660950,0.570589,-0.658945,0.572974,-0.658743,0.573207,-0.656624,0.575576,-0.632624,0.601576,-0.630638,0.603666,-0.630427,0.603882,-0.628101,0.606189,-0.603101,0.630189,-0.601648,0.631556,-0.575576,0.655623,-0.573207,0.657743,-0.572974,0.657945,-0.570587,0.659951,-0.543499,0.682022,-0.541692,0.683461,-0.514692,0.704461,
-0.512296,0.706268,-0.512065,0.706437,-0.509748,0.708084,-0.480748,0.728084,-0.477850,0.730010,-0.477583,0.730181,-0.475051,0.731751,-0.445051,0.749751,-0.443574,0.750620,-0.443406,0.750717,-0.441449,0.751819,-0.410449,0.768819,-0.409278,0.769451,-0.409167,0.769510,-0.408075,0.770082,-0.377075,0.786082,-0.374245,0.787488,-0.373956,0.787626,-0.370888,0.789029,-0.338888,0.803029,
-0.335886,0.804286,-0.335591,0.804404,-0.332567,0.805558,-0.299567,0.817558,-0.297867,0.818159,-0.297739,0.818203,-0.296836,0.818509,-0.263836,0.829509,-0.262722,0.829873,-0.262591,0.829915,-0.261031,0.830401,-0.228031,0.840401,-0.224933,0.841287,-0.224628,0.841369,-0.221507,0.842156,-0.187507,0.850156,-0.184469,0.850822,-0.184169,0.850883,-0.181079,0.851461,-0.172000,0.853017,
-0.172000,1.530000,-0.164242,1.569019,-0.162778,1.572555,-0.121845,1.620497,-0.107555,1.627778,-0.104019,1.629242,-0.065000,1.637000,0.065000,1.637000,0.104019,1.629242,0.104019,1.629242,$1*%
G04 Aperture macros list end*
%ADD10C,1.600000*%
%ADD11RoundRect,0.250000X-0.550000X-0.550000X0.550000X-0.550000X0.550000X0.550000X-0.550000X0.550000X0*%
%ADD12FreePoly0,0.000000*%
%ADD13C,3.720000*%
%ADD14C,1.712000*%
%ADD15RoundRect,0.102000X0.754000X-0.754000X0.754000X0.754000X-0.754000X0.754000X-0.754000X-0.754000X0*%
%ADD16C,2.184000*%
%ADD17FreePoly1,0.000000*%
%ADD18FreePoly0,90.000000*%
%ADD19O,1.924000X6.824000*%
%ADD20FreePoly1,90.000000*%
%ADD21C,1.869000*%
G04 APERTURE END LIST*
D10*
%TO.C,C1*%
X118294888Y-49000000D03*
D11*
X115794888Y-49000000D03*
%TD*%
D12*
%TO.C,J4*%
X121690000Y-40500000D03*
X124230000Y-40500000D03*
X126770000Y-40500000D03*
X129310000Y-40500000D03*
%TD*%
D13*
%TO.C,U5*%
X98170000Y-42120000D03*
X72770000Y-42120000D03*
D14*
X71500000Y-34500000D03*
X74040000Y-34500000D03*
X76580000Y-34500000D03*
X79120000Y-34500000D03*
X81660000Y-34500000D03*
X84200000Y-34500000D03*
X86740000Y-34500000D03*
X89280000Y-34500000D03*
X91820000Y-34500000D03*
X94360000Y-34500000D03*
X96900000Y-34500000D03*
X99440000Y-34500000D03*
X99440000Y-49740000D03*
X96900000Y-49740000D03*
X94360000Y-49740000D03*
X91820000Y-49740000D03*
X89280000Y-49740000D03*
X86740000Y-49740000D03*
X84200000Y-49740000D03*
X81660000Y-49740000D03*
X79120000Y-49740000D03*
X76580000Y-49740000D03*
X74040000Y-49740000D03*
D15*
X71500000Y-49740000D03*
%TD*%
D12*
%TO.C,J3*%
X129310000Y-91500000D03*
X126770000Y-91500000D03*
X124230000Y-91500000D03*
X121690000Y-91500000D03*
%TD*%
D16*
%TO.C,U2*%
X177620000Y-74890000D03*
X177620000Y-72350000D03*
X177620000Y-69810000D03*
X177620000Y-67270000D03*
X177620000Y-64730000D03*
X177620000Y-62190000D03*
X177620000Y-59650000D03*
X177620000Y-57110000D03*
X162380000Y-57110000D03*
X162380000Y-59650000D03*
X162380000Y-62190000D03*
X162380000Y-64730000D03*
X162380000Y-67270000D03*
X162380000Y-69810000D03*
X162380000Y-72350000D03*
X162380000Y-74890000D03*
%TD*%
D12*
%TO.C,IR1*%
X94300000Y-82500000D03*
D17*
X94300000Y-79960000D03*
D12*
X96840000Y-82500000D03*
D17*
X96840000Y-79960000D03*
D12*
X99380000Y-82500000D03*
D17*
X99380000Y-79960000D03*
D12*
X101920000Y-82500000D03*
D17*
X101920000Y-79960000D03*
D12*
X104460000Y-82500000D03*
D17*
X104460000Y-79960000D03*
D12*
X107000000Y-82500000D03*
D17*
X107000000Y-79960000D03*
D12*
X109540000Y-82500000D03*
D17*
X109540000Y-79960000D03*
%TD*%
D12*
%TO.C,Gyro1*%
X133780000Y-80500000D03*
X131240000Y-80500000D03*
X128700000Y-80500000D03*
X126160000Y-80500000D03*
X123620000Y-80500000D03*
X121080000Y-80500000D03*
X118540000Y-80500000D03*
X116000000Y-80500000D03*
%TD*%
%TO.C,M4*%
X185000000Y-78000000D03*
D17*
X185000000Y-75460000D03*
%TD*%
D18*
%TO.C,J1*%
X65500000Y-62190000D03*
X65500000Y-64730000D03*
X65500000Y-67270000D03*
X65500000Y-69810000D03*
%TD*%
D11*
%TO.C,C2*%
X161000000Y-81500000D03*
D10*
X163500000Y-81500000D03*
%TD*%
D19*
%TO.C,SW1*%
X187400000Y-39500000D03*
X194500000Y-39500000D03*
%TD*%
D16*
%TO.C,U1*%
X72380000Y-56610000D03*
X72380000Y-59150000D03*
X72380000Y-61690000D03*
X72380000Y-64230000D03*
X72380000Y-66770000D03*
X72380000Y-69310000D03*
X72380000Y-71850000D03*
X72380000Y-74390000D03*
X87620000Y-74390000D03*
X87620000Y-71850000D03*
X87620000Y-69310000D03*
X87620000Y-66770000D03*
X87620000Y-64230000D03*
X87620000Y-61690000D03*
X87620000Y-59150000D03*
X87620000Y-56610000D03*
%TD*%
D12*
%TO.C,J6*%
X177000000Y-85270000D03*
D17*
X177000000Y-82730000D03*
%TD*%
D18*
%TO.C,J2*%
X185000000Y-62960000D03*
X185000000Y-65500000D03*
X185000000Y-68040000D03*
X185000000Y-70580000D03*
%TD*%
D12*
%TO.C,BuckConverter1*%
X155540000Y-81500000D03*
X153000000Y-81500000D03*
X150460000Y-81500000D03*
X147920000Y-81500000D03*
%TD*%
%TO.C,M2*%
X65500000Y-77770000D03*
D17*
X65500000Y-75230000D03*
%TD*%
D18*
%TO.C,12V1*%
X141770000Y-80500000D03*
D20*
X139230000Y-80500000D03*
%TD*%
D12*
%TO.C,M3*%
X185000000Y-56540000D03*
D17*
X185000000Y-54000000D03*
%TD*%
D12*
%TO.C,J5*%
X129310000Y-86500000D03*
X126770000Y-86500000D03*
X124230000Y-86500000D03*
X121690000Y-86500000D03*
%TD*%
%TO.C,M1*%
X65500000Y-56040000D03*
D17*
X65500000Y-53500000D03*
%TD*%
D21*
%TO.C,IC1*%
X100495000Y-73535000D03*
X103035000Y-73535000D03*
X105575000Y-73535000D03*
X108115000Y-73535000D03*
X110655000Y-73535000D03*
X113195000Y-73535000D03*
X115735000Y-73535000D03*
X118275000Y-73535000D03*
X120815000Y-73535000D03*
X123355000Y-73535000D03*
X125895000Y-73535000D03*
X128435000Y-73535000D03*
X128435000Y-58295000D03*
X125895000Y-58295000D03*
X123355000Y-58295000D03*
X120815000Y-58295000D03*
X118275000Y-58295000D03*
X115735000Y-58295000D03*
X113195000Y-58295000D03*
X110655000Y-58295000D03*
X108115000Y-58295000D03*
X105575000Y-58295000D03*
X103035000Y-58295000D03*
X133515000Y-73535000D03*
X136055000Y-73535000D03*
X138595000Y-73535000D03*
X141135000Y-73535000D03*
X143675000Y-73535000D03*
X146215000Y-73535000D03*
X148755000Y-73535000D03*
X151295000Y-73535000D03*
X153835000Y-73535000D03*
X153835000Y-58295000D03*
X151295000Y-58295000D03*
X148755000Y-58295000D03*
X146215000Y-58295000D03*
X143675000Y-58295000D03*
X141135000Y-58295000D03*
X138595000Y-58295000D03*
X136055000Y-58295000D03*
X133515000Y-58295000D03*
X130975000Y-73535000D03*
X141135000Y-70995000D03*
X141135000Y-68455000D03*
X141135000Y-65915000D03*
X141135000Y-63375000D03*
X141135000Y-60835000D03*
X111925000Y-70485000D03*
X109385000Y-70485000D03*
X106845000Y-70485000D03*
X104305000Y-70485000D03*
X101765000Y-70485000D03*
X100495000Y-58295000D03*
X95415000Y-58295000D03*
X97955000Y-73535000D03*
X97955000Y-60835000D03*
X130975000Y-58295000D03*
X97955000Y-58295000D03*
X95415000Y-73535000D03*
%TD*%
M02*
