M48
; DRILL file {KiCad 9.0.3} date 2026-01-24T07:10:12+0530
; FORMAT={-:-/ absolute / metric / decimal}
; #@! TF.CreationDate,2026-01-24T07:10:12+05:30
; #@! TF.GenerationSoftware,Kicad,Pcbnew,9.0.3
; #@! TF.FileFunction,Plated,1,2,PTH
FMAT,2
METRIC
; #@! TA.AperFunction,Plated,PTH,ComponentDrill
T1C0.800
; #@! TA.AperFunction,Plated,PTH,ComponentDrill
T2C0.980
; #@! TA.AperFunction,Plated,PTH,ComponentDrill
T3C1.000
; #@! TA.AperFunction,Plated,PTH,ComponentDrill
T4C1.020
; #@! TA.AperFunction,Plated,PTH,ComponentDrill
T5C1.110
; #@! TA.AperFunction,Plated,PTH,ComponentDrill
T6C1.320
; #@! TA.AperFunction,Plated,PTH,ComponentDrill
T7C2.500
%
G90
G05
T1
X115.795Y-49.0
X118.295Y-49.0
X161.0Y-81.5
X163.5Y-81.5
T3
X71.5Y-34.5
X71.5Y-49.74
X74.04Y-34.5
X74.04Y-49.74
X76.58Y-34.5
X76.58Y-49.74
X79.12Y-34.5
X79.12Y-49.74
X81.66Y-34.5
X81.66Y-49.74
X84.2Y-34.5
X84.2Y-49.74
X86.74Y-34.5
X86.74Y-49.74
X89.28Y-34.5
X89.28Y-49.74
X91.82Y-34.5
X91.82Y-49.74
X94.36Y-34.5
X94.36Y-49.74
X96.9Y-34.5
X96.9Y-49.74
X99.44Y-34.5
X99.44Y-49.74
T4
X65.5Y-53.5
X65.5Y-56.04
X65.5Y-62.19
X65.5Y-64.73
X65.5Y-67.27
X65.5Y-69.81
X65.5Y-75.23
X65.5Y-77.77
X94.3Y-79.96
X94.3Y-82.5
X96.84Y-79.96
X96.84Y-82.5
X99.38Y-79.96
X99.38Y-82.5
X101.92Y-79.96
X101.92Y-82.5
X104.46Y-79.96
X104.46Y-82.5
X107.0Y-79.96
X107.0Y-82.5
X109.54Y-79.96
X109.54Y-82.5
X116.0Y-80.5
X118.54Y-80.5
X121.08Y-80.5
X121.69Y-40.5
X121.69Y-86.5
X121.69Y-91.5
X123.62Y-80.5
X124.23Y-40.5
X124.23Y-86.5
X124.23Y-91.5
X126.16Y-80.5
X126.77Y-40.5
X126.77Y-86.5
X126.77Y-91.5
X128.7Y-80.5
X129.31Y-40.5
X129.31Y-86.5
X129.31Y-91.5
X131.24Y-80.5
X133.78Y-80.5
X139.23Y-80.5
X141.77Y-80.5
X147.92Y-81.5
X150.46Y-81.5
X153.0Y-81.5
X155.54Y-81.5
X177.0Y-82.73
X177.0Y-85.27
X185.0Y-54.0
X185.0Y-56.54
X185.0Y-62.96
X185.0Y-65.5
X185.0Y-68.04
X185.0Y-70.58
X185.0Y-75.46
X185.0Y-78.0
T5
X95.415Y-58.295
X95.415Y-73.535
X97.955Y-58.295
X97.955Y-60.835
X97.955Y-73.535
X100.495Y-58.295
X100.495Y-73.535
X101.765Y-70.485
X103.035Y-58.295
X103.035Y-73.535
X104.305Y-70.485
X105.575Y-58.295
X105.575Y-73.535
X106.845Y-70.485
X108.115Y-58.295
X108.115Y-73.535
X109.385Y-70.485
X110.655Y-58.295
X110.655Y-73.535
X111.925Y-70.485
X113.195Y-58.295
X113.195Y-73.535
X115.735Y-58.295
X115.735Y-73.535
X118.275Y-58.295
X118.275Y-73.535
X120.815Y-58.295
X120.815Y-73.535
X123.355Y-58.295
X123.355Y-73.535
X125.895Y-58.295
X125.895Y-73.535
X128.435Y-58.295
X128.435Y-73.535
X130.975Y-58.295
X130.975Y-73.535
X133.515Y-58.295
X133.515Y-73.535
X136.055Y-58.295
X136.055Y-73.535
X138.595Y-58.295
X138.595Y-73.535
X141.135Y-58.295
X141.135Y-60.835
X141.135Y-63.375
X141.135Y-65.915
X141.135Y-68.455
X141.135Y-70.995
X141.135Y-73.535
X143.675Y-58.295
X143.675Y-73.535
X146.215Y-58.295
X146.215Y-73.535
X148.755Y-58.295
X148.755Y-73.535
X151.295Y-58.295
X151.295Y-73.535
X153.835Y-58.295
X153.835Y-73.535
T6
X72.38Y-56.61
X72.38Y-59.15
X72.38Y-61.69
X72.38Y-64.23
X72.38Y-66.77
X72.38Y-69.31
X72.38Y-71.85
X72.38Y-74.39
X87.62Y-56.61
X87.62Y-59.15
X87.62Y-61.69
X87.62Y-64.23
X87.62Y-66.77
X87.62Y-69.31
X87.62Y-71.85
X87.62Y-74.39
X162.38Y-57.11
X162.38Y-59.65
X162.38Y-62.19
X162.38Y-64.73
X162.38Y-67.27
X162.38Y-69.81
X162.38Y-72.35
X162.38Y-74.89
X177.62Y-57.11
X177.62Y-59.65
X177.62Y-62.19
X177.62Y-64.73
X177.62Y-67.27
X177.62Y-69.81
X177.62Y-72.35
X177.62Y-74.89
T7
X72.77Y-42.12
X98.17Y-42.12
T2
G00X187.4Y-37.05
M15
G01X187.4Y-41.95
M16
G05
G00X194.5Y-37.05
M15
G01X194.5Y-41.95
M16
G05
M30
