%TF.GenerationSoftware,KiCad,Pcbnew,9.0.3*%
%TF.CreationDate,2026-03-22T16:46:22+05:30*%
%TF.ProjectId,IR_PCB,49525f50-4342-42e6-9b69-6361645f7063,rev?*%
%TF.SameCoordinates,Original*%
%TF.FileFunction,Legend,Bot*%
%TF.FilePolarity,Positive*%
%FSLAX46Y46*%
G04 Gerber Fmt 4.6, Leading zero omitted, Abs format (unit mm)*
G04 Created by KiCad (PCBNEW 9.0.3) date 2026-03-22 16:46:22*
%MOMM*%
%LPD*%
G01*
G04 APERTURE LIST*
%ADD10C,0.300000*%
%ADD11C,0.100000*%
G04 APERTURE END LIST*
D10*
G36*
X134910625Y-144038859D02*
G01*
X134875362Y-144317571D01*
X134947099Y-144332516D01*
X135002655Y-144356734D01*
X135045264Y-144389287D01*
X135078023Y-144431214D01*
X135097371Y-144477807D01*
X135103974Y-144530703D01*
X135096407Y-144587194D01*
X135074195Y-144636595D01*
X135036288Y-144680821D01*
X134987794Y-144713757D01*
X134927922Y-144734419D01*
X134853564Y-144741821D01*
X134783236Y-144734730D01*
X134726745Y-144714945D01*
X134681098Y-144683386D01*
X134645422Y-144641137D01*
X134624541Y-144594248D01*
X134617442Y-144540962D01*
X134622313Y-144483456D01*
X134638966Y-144408796D01*
X134406416Y-144440578D01*
X134401453Y-144516751D01*
X134384055Y-144574756D01*
X134356041Y-144618814D01*
X134316807Y-144652798D01*
X134270191Y-144673227D01*
X134213892Y-144680363D01*
X134165510Y-144674986D01*
X134126122Y-144659820D01*
X134093724Y-144635209D01*
X134069234Y-144602677D01*
X134054172Y-144563386D01*
X134048845Y-144515408D01*
X134054579Y-144468247D01*
X134071359Y-144426681D01*
X134099678Y-144389287D01*
X134136685Y-144360256D01*
X134185195Y-144338823D01*
X134248147Y-144325814D01*
X134203450Y-144060383D01*
X134113319Y-144083491D01*
X134041260Y-144111619D01*
X133984364Y-144143914D01*
X133934313Y-144185345D01*
X133891445Y-144236806D01*
X133855496Y-144299619D01*
X133829755Y-144367668D01*
X133813950Y-144441948D01*
X133808510Y-144523559D01*
X133817583Y-144627763D01*
X133843502Y-144717547D01*
X133885400Y-144795591D01*
X133943881Y-144863820D01*
X134002624Y-144911036D01*
X134063289Y-144943576D01*
X134126726Y-144962851D01*
X134194108Y-144969333D01*
X134268328Y-144961087D01*
X134335551Y-144936806D01*
X134397621Y-144895848D01*
X134455651Y-144835881D01*
X134509914Y-144753087D01*
X134536573Y-144834576D01*
X134577785Y-144902672D01*
X134634112Y-144959533D01*
X134701949Y-145002102D01*
X134778786Y-145027966D01*
X134867028Y-145036927D01*
X134963104Y-145027760D01*
X135050198Y-145000927D01*
X135130282Y-144956324D01*
X135204724Y-144892397D01*
X135265587Y-144816076D01*
X135308793Y-144731868D01*
X135335189Y-144638177D01*
X135344309Y-144532810D01*
X135336325Y-144432179D01*
X135313368Y-144343558D01*
X135276168Y-144264879D01*
X135224416Y-144194564D01*
X135160288Y-144134882D01*
X135087579Y-144089347D01*
X135004980Y-144057252D01*
X134910625Y-144038859D01*
G37*
G36*
X135315000Y-145277171D02*
G01*
X135027770Y-145277171D01*
X135027770Y-145565041D01*
X135315000Y-145565041D01*
X135315000Y-145277171D01*
G37*
G36*
X134910625Y-145788615D02*
G01*
X134875362Y-146067327D01*
X134947099Y-146082272D01*
X135002655Y-146106490D01*
X135045264Y-146139043D01*
X135078023Y-146180970D01*
X135097371Y-146227562D01*
X135103974Y-146280459D01*
X135096407Y-146336949D01*
X135074195Y-146386351D01*
X135036288Y-146430577D01*
X134987794Y-146463513D01*
X134927922Y-146484175D01*
X134853564Y-146491577D01*
X134783236Y-146484486D01*
X134726745Y-146464700D01*
X134681098Y-146433142D01*
X134645422Y-146390893D01*
X134624541Y-146344004D01*
X134617442Y-146290717D01*
X134622313Y-146233212D01*
X134638966Y-146158551D01*
X134406416Y-146190334D01*
X134401453Y-146266507D01*
X134384055Y-146324512D01*
X134356041Y-146368570D01*
X134316807Y-146402553D01*
X134270191Y-146422983D01*
X134213892Y-146430119D01*
X134165510Y-146424742D01*
X134126122Y-146409576D01*
X134093724Y-146384965D01*
X134069234Y-146352433D01*
X134054172Y-146313142D01*
X134048845Y-146265163D01*
X134054579Y-146218003D01*
X134071359Y-146176437D01*
X134099678Y-146139043D01*
X134136685Y-146110012D01*
X134185195Y-146088578D01*
X134248147Y-146075570D01*
X134203450Y-145810139D01*
X134113319Y-145833247D01*
X134041260Y-145861375D01*
X133984364Y-145893670D01*
X133934313Y-145935101D01*
X133891445Y-145986562D01*
X133855496Y-146049375D01*
X133829755Y-146117423D01*
X133813950Y-146191704D01*
X133808510Y-146273315D01*
X133817583Y-146377519D01*
X133843502Y-146467303D01*
X133885400Y-146545347D01*
X133943881Y-146613576D01*
X134002624Y-146660792D01*
X134063289Y-146693332D01*
X134126726Y-146712607D01*
X134194108Y-146719089D01*
X134268328Y-146710843D01*
X134335551Y-146686562D01*
X134397621Y-146645604D01*
X134455651Y-146585637D01*
X134509914Y-146502842D01*
X134536573Y-146584332D01*
X134577785Y-146652427D01*
X134634112Y-146709289D01*
X134701949Y-146751858D01*
X134778786Y-146777721D01*
X134867028Y-146786683D01*
X134963104Y-146777516D01*
X135050198Y-146750682D01*
X135130282Y-146706080D01*
X135204724Y-146642152D01*
X135265587Y-146565831D01*
X135308793Y-146481624D01*
X135335189Y-146387932D01*
X135344309Y-146282566D01*
X135336325Y-146181934D01*
X135313368Y-146093313D01*
X135276168Y-146014635D01*
X135224416Y-145944320D01*
X135160288Y-145884638D01*
X135087579Y-145839103D01*
X135004980Y-145807008D01*
X134910625Y-145788615D01*
G37*
G36*
X135315000Y-147412158D02*
G01*
X133808510Y-146875252D01*
X133808510Y-147204155D01*
X134922257Y-147584350D01*
X133808510Y-147952179D01*
X133808510Y-148273939D01*
X135315000Y-147735933D01*
X135315000Y-147412158D01*
G37*
D11*
G36*
X133702000Y-56565621D02*
G01*
X132697673Y-56565621D01*
X132697673Y-56767854D01*
X133702000Y-56767854D01*
X133702000Y-56565621D01*
G37*
G36*
X133702000Y-57163527D02*
G01*
X133283856Y-57163527D01*
X133283856Y-57204499D01*
X133287230Y-57269436D01*
X133295152Y-57306287D01*
X133310630Y-57336763D01*
X133336734Y-57367103D01*
X133378484Y-57400641D01*
X133483769Y-57473654D01*
X133702000Y-57619834D01*
X133702000Y-57861634D01*
X133506605Y-57739391D01*
X133399770Y-57668854D01*
X133344001Y-57624230D01*
X133301120Y-57577155D01*
X133259920Y-57515969D01*
X133245810Y-57581529D01*
X133225246Y-57635188D01*
X133198900Y-57678863D01*
X133166924Y-57714050D01*
X133128254Y-57742641D01*
X133084826Y-57763217D01*
X133035744Y-57775934D01*
X132979834Y-57780362D01*
X132921599Y-57775337D01*
X132869109Y-57760711D01*
X132821260Y-57736643D01*
X132779234Y-57703805D01*
X132747411Y-57665215D01*
X132724784Y-57620139D01*
X132711276Y-57570250D01*
X132701501Y-57495134D01*
X132697673Y-57386887D01*
X132697673Y-57321308D01*
X132865712Y-57321308D01*
X132869192Y-57468892D01*
X132883782Y-57513392D01*
X132909065Y-57545034D01*
X132931468Y-57559643D01*
X132958666Y-57568772D01*
X132991924Y-57572023D01*
X133034912Y-57566606D01*
X133068189Y-57551507D01*
X133094054Y-57527266D01*
X133111176Y-57494842D01*
X133119425Y-57445336D01*
X133123632Y-57313126D01*
X133123632Y-57163527D01*
X132865712Y-57163527D01*
X132865712Y-57321308D01*
X132697673Y-57321308D01*
X132697673Y-56961294D01*
X133702000Y-56961294D01*
X133702000Y-57163527D01*
G37*
G36*
X133979459Y-57856017D02*
G01*
X133854407Y-57856017D01*
X133854407Y-58653897D01*
X133979459Y-58653897D01*
X133979459Y-57856017D01*
G37*
G36*
X133381553Y-58697250D02*
G01*
X133362013Y-58893988D01*
X133424095Y-58911142D01*
X133470410Y-58935396D01*
X133504224Y-58966039D01*
X133528595Y-59004656D01*
X133544033Y-59052673D01*
X133549592Y-59112585D01*
X133544326Y-59176618D01*
X133530212Y-59224446D01*
X133508864Y-59259802D01*
X133479092Y-59288097D01*
X133447725Y-59304050D01*
X133413610Y-59309323D01*
X133380917Y-59304006D01*
X133354076Y-59288501D01*
X133332653Y-59262456D01*
X133311333Y-59215717D01*
X133266881Y-59053845D01*
X133233872Y-58946295D01*
X133200170Y-58873030D01*
X133166680Y-58825661D01*
X133121916Y-58784698D01*
X133073782Y-58756291D01*
X133021430Y-58739267D01*
X132963592Y-58733459D01*
X132913472Y-58738247D01*
X132865691Y-58752555D01*
X132819428Y-58776812D01*
X132778753Y-58809465D01*
X132744755Y-58850734D01*
X132717151Y-58901864D01*
X132698325Y-58957381D01*
X132686312Y-59022513D01*
X132682041Y-59098907D01*
X132688181Y-59194524D01*
X132705071Y-59271588D01*
X132731002Y-59333431D01*
X132765145Y-59382779D01*
X132809783Y-59424507D01*
X132860752Y-59454846D01*
X132919213Y-59474419D01*
X132986856Y-59482857D01*
X132994672Y-59280624D01*
X132945265Y-59267592D01*
X132909315Y-59248811D01*
X132883847Y-59224937D01*
X132866234Y-59194557D01*
X132854488Y-59153001D01*
X132850080Y-59096892D01*
X132854668Y-59039070D01*
X132867182Y-58993955D01*
X132886412Y-58958895D01*
X132903888Y-58940890D01*
X132924306Y-58930386D01*
X132948693Y-58926777D01*
X132981382Y-58934097D01*
X133009693Y-58956819D01*
X133027373Y-58985594D01*
X133049694Y-59042760D01*
X133077287Y-59142627D01*
X133116167Y-59279782D01*
X133150011Y-59360858D01*
X133178224Y-59405014D01*
X133212069Y-59441649D01*
X133251921Y-59471500D01*
X133296673Y-59493094D01*
X133349353Y-59506681D01*
X133411656Y-59511495D01*
X133467732Y-59506212D01*
X133521248Y-59490428D01*
X133573100Y-59463684D01*
X133618677Y-59427687D01*
X133655801Y-59382998D01*
X133684964Y-59328435D01*
X133704394Y-59269005D01*
X133716997Y-59197125D01*
X133721539Y-59110509D01*
X133715247Y-59014657D01*
X133697790Y-58935978D01*
X133670712Y-58871505D01*
X133634711Y-58818822D01*
X133588138Y-58774460D01*
X133531641Y-58739320D01*
X133463537Y-58713333D01*
X133381553Y-58697250D01*
G37*
G36*
X133702000Y-59675321D02*
G01*
X132697673Y-59675321D01*
X132697673Y-59877554D01*
X133702000Y-59877554D01*
X133702000Y-59675321D01*
G37*
G36*
X133334658Y-60536215D02*
G01*
X133166619Y-60536215D01*
X133166619Y-60972006D01*
X133567239Y-60972006D01*
X133603938Y-60926906D01*
X133639962Y-60866589D01*
X133675011Y-60787908D01*
X133701033Y-60706493D01*
X133716430Y-60625271D01*
X133721539Y-60543665D01*
X133717123Y-60465161D01*
X133704349Y-60393938D01*
X133683712Y-60329067D01*
X133655410Y-60269747D01*
X133618647Y-60214830D01*
X133575180Y-60167628D01*
X133524585Y-60127514D01*
X133466122Y-60094197D01*
X133382338Y-60061767D01*
X133293452Y-60042132D01*
X133198371Y-60035457D01*
X133120029Y-60039780D01*
X133047911Y-60052367D01*
X132981236Y-60072827D01*
X132919323Y-60101036D01*
X132861811Y-60137656D01*
X132811793Y-60181509D01*
X132768656Y-60233037D01*
X132732111Y-60293011D01*
X132705319Y-60359061D01*
X132688175Y-60438130D01*
X132682041Y-60532796D01*
X132687678Y-60627236D01*
X132703360Y-60705607D01*
X132727685Y-60770505D01*
X132759894Y-60824117D01*
X132802263Y-60871630D01*
X132851620Y-60909668D01*
X132908813Y-60938822D01*
X132975133Y-60959061D01*
X133014212Y-60758232D01*
X132967572Y-60739644D01*
X132928876Y-60713228D01*
X132896975Y-60678609D01*
X132873631Y-60637729D01*
X132859110Y-60589696D01*
X132853988Y-60532796D01*
X132859694Y-60467693D01*
X132875952Y-60411958D01*
X132902177Y-60363836D01*
X132938741Y-60322076D01*
X132982895Y-60289734D01*
X133037849Y-60265362D01*
X133105937Y-60249577D01*
X133190066Y-60243857D01*
X133281266Y-60249724D01*
X133354541Y-60265841D01*
X133413139Y-60290552D01*
X133459711Y-60323053D01*
X133498964Y-60365659D01*
X133526713Y-60413659D01*
X133543692Y-60468145D01*
X133549592Y-60530720D01*
X133543406Y-60593761D01*
X133524374Y-60658154D01*
X133495828Y-60718634D01*
X133463191Y-60767758D01*
X133334658Y-60767758D01*
X133334658Y-60536215D01*
G37*
D10*
G36*
X137334330Y-143925837D02*
G01*
X137305020Y-144220943D01*
X137398143Y-144246675D01*
X137467616Y-144283056D01*
X137518336Y-144329021D01*
X137554893Y-144386945D01*
X137578049Y-144458971D01*
X137586388Y-144548839D01*
X137578489Y-144644889D01*
X137557318Y-144716631D01*
X137525297Y-144769665D01*
X137480638Y-144812108D01*
X137433588Y-144836037D01*
X137382415Y-144843946D01*
X137333376Y-144835971D01*
X137293114Y-144812713D01*
X137260980Y-144773646D01*
X137229000Y-144703537D01*
X137162322Y-144460729D01*
X137112808Y-144299405D01*
X137062256Y-144189508D01*
X137012021Y-144118453D01*
X136944875Y-144057008D01*
X136872673Y-144014398D01*
X136794146Y-143988863D01*
X136707389Y-143980150D01*
X136632209Y-143987333D01*
X136560537Y-144008794D01*
X136491142Y-144045180D01*
X136430130Y-144094160D01*
X136379133Y-144156063D01*
X136337727Y-144232759D01*
X136309488Y-144316033D01*
X136291469Y-144413731D01*
X136285062Y-144528323D01*
X136294272Y-144671748D01*
X136319607Y-144787344D01*
X136358503Y-144880109D01*
X136409718Y-144954130D01*
X136476675Y-145016722D01*
X136553129Y-145062231D01*
X136640819Y-145091590D01*
X136742285Y-145104248D01*
X136754009Y-144800898D01*
X136679898Y-144781350D01*
X136625973Y-144753178D01*
X136587771Y-144717367D01*
X136561351Y-144671797D01*
X136543732Y-144609464D01*
X136537121Y-144525300D01*
X136544003Y-144438567D01*
X136562774Y-144370894D01*
X136591618Y-144318305D01*
X136617833Y-144291296D01*
X136648459Y-144275541D01*
X136685040Y-144270128D01*
X136734073Y-144281107D01*
X136776540Y-144315191D01*
X136803059Y-144358353D01*
X136836541Y-144444103D01*
X136877931Y-144593902D01*
X136936250Y-144799635D01*
X136987016Y-144921249D01*
X137029336Y-144987482D01*
X137080104Y-145042435D01*
X137139882Y-145087212D01*
X137207010Y-145119602D01*
X137286030Y-145139984D01*
X137379484Y-145147204D01*
X137463598Y-145139280D01*
X137543872Y-145115604D01*
X137621651Y-145075488D01*
X137690016Y-145021492D01*
X137745702Y-144954458D01*
X137789446Y-144872614D01*
X137818592Y-144783470D01*
X137837496Y-144675649D01*
X137844309Y-144545725D01*
X137834871Y-144401948D01*
X137808685Y-144283929D01*
X137768069Y-144187220D01*
X137714066Y-144108195D01*
X137644207Y-144041651D01*
X137559462Y-143988942D01*
X137457306Y-143949962D01*
X137334330Y-143925837D01*
G37*
G36*
X137258126Y-146363350D02*
G01*
X137351915Y-146657449D01*
X137473438Y-146615486D01*
X137573065Y-146563659D01*
X137653986Y-146502679D01*
X137718646Y-146432501D01*
X137769628Y-146351407D01*
X137806936Y-146259223D01*
X137830268Y-146154023D01*
X137838447Y-146033439D01*
X137829833Y-145915082D01*
X137804870Y-145808396D01*
X137764217Y-145711498D01*
X137707637Y-145622882D01*
X137634016Y-145541503D01*
X137549640Y-145474412D01*
X137453492Y-145421352D01*
X137343871Y-145382174D01*
X137218583Y-145357540D01*
X137075035Y-145348887D01*
X136922299Y-145357745D01*
X136790436Y-145382822D01*
X136676469Y-145422431D01*
X136577860Y-145475679D01*
X136492608Y-145542511D01*
X136418440Y-145624154D01*
X136361092Y-145714445D01*
X136319608Y-145814603D01*
X136293963Y-145926354D01*
X136285062Y-146051849D01*
X136296036Y-146187927D01*
X136327397Y-146305939D01*
X136377937Y-146409048D01*
X136448003Y-146499637D01*
X136517747Y-146559614D01*
X136608544Y-146611111D01*
X136724699Y-146653327D01*
X136795041Y-146353092D01*
X136721235Y-146328238D01*
X136660475Y-146291265D01*
X136610669Y-146241900D01*
X136573499Y-146182425D01*
X136550850Y-146114672D01*
X136542983Y-146036461D01*
X136550822Y-145955260D01*
X136573438Y-145884277D01*
X136610536Y-145821436D01*
X136663242Y-145765352D01*
X136725113Y-145723700D01*
X136807086Y-145691184D01*
X136914198Y-145669456D01*
X137052504Y-145661396D01*
X137200257Y-145669517D01*
X137312808Y-145691223D01*
X137397203Y-145723327D01*
X137459351Y-145763886D01*
X137512621Y-145819305D01*
X137549973Y-145881173D01*
X137572673Y-145950831D01*
X137580526Y-146030325D01*
X137571698Y-146107960D01*
X137545932Y-146176570D01*
X137502766Y-146238328D01*
X137445492Y-146287944D01*
X137365872Y-146330027D01*
X137258126Y-146363350D01*
G37*
G36*
X137815000Y-146925628D02*
G01*
X136326095Y-146925628D01*
X136326095Y-147228977D01*
X137562941Y-147228977D01*
X137562941Y-147983138D01*
X137815000Y-147983138D01*
X137815000Y-146925628D01*
G37*
G36*
X139944330Y-143885837D02*
G01*
X139915020Y-144180943D01*
X140008143Y-144206675D01*
X140077616Y-144243056D01*
X140128336Y-144289021D01*
X140164893Y-144346945D01*
X140188049Y-144418971D01*
X140196388Y-144508839D01*
X140188489Y-144604889D01*
X140167318Y-144676631D01*
X140135297Y-144729665D01*
X140090638Y-144772108D01*
X140043588Y-144796037D01*
X139992415Y-144803946D01*
X139943376Y-144795971D01*
X139903114Y-144772713D01*
X139870980Y-144733646D01*
X139839000Y-144663537D01*
X139772322Y-144420729D01*
X139722808Y-144259405D01*
X139672256Y-144149508D01*
X139622021Y-144078453D01*
X139554875Y-144017008D01*
X139482673Y-143974398D01*
X139404146Y-143948863D01*
X139317389Y-143940150D01*
X139242209Y-143947333D01*
X139170537Y-143968794D01*
X139101142Y-144005180D01*
X139040130Y-144054160D01*
X138989133Y-144116063D01*
X138947727Y-144192759D01*
X138919488Y-144276033D01*
X138901469Y-144373731D01*
X138895062Y-144488323D01*
X138904272Y-144631748D01*
X138929607Y-144747344D01*
X138968503Y-144840109D01*
X139019718Y-144914130D01*
X139086675Y-144976722D01*
X139163129Y-145022231D01*
X139250819Y-145051590D01*
X139352285Y-145064248D01*
X139364009Y-144760898D01*
X139289898Y-144741350D01*
X139235973Y-144713178D01*
X139197771Y-144677367D01*
X139171351Y-144631797D01*
X139153732Y-144569464D01*
X139147121Y-144485300D01*
X139154003Y-144398567D01*
X139172774Y-144330894D01*
X139201618Y-144278305D01*
X139227833Y-144251296D01*
X139258459Y-144235541D01*
X139295040Y-144230128D01*
X139344073Y-144241107D01*
X139386540Y-144275191D01*
X139413059Y-144318353D01*
X139446541Y-144404103D01*
X139487931Y-144553902D01*
X139546250Y-144759635D01*
X139597016Y-144881249D01*
X139639336Y-144947482D01*
X139690104Y-145002435D01*
X139749882Y-145047212D01*
X139817010Y-145079602D01*
X139896030Y-145099984D01*
X139989484Y-145107204D01*
X140073598Y-145099280D01*
X140153872Y-145075604D01*
X140231651Y-145035488D01*
X140300016Y-144981492D01*
X140355702Y-144914458D01*
X140399446Y-144832614D01*
X140428592Y-144743470D01*
X140447496Y-144635649D01*
X140454309Y-144505725D01*
X140444871Y-144361948D01*
X140418685Y-144243929D01*
X140378069Y-144147220D01*
X140324066Y-144068195D01*
X140254207Y-144001651D01*
X140169462Y-143948942D01*
X140067306Y-143909962D01*
X139944330Y-143885837D01*
G37*
G36*
X140425000Y-145931890D02*
G01*
X140416014Y-146091281D01*
X140393126Y-146200343D01*
X140358992Y-146287073D01*
X140318759Y-146357309D01*
X140272867Y-146413476D01*
X140200342Y-146476191D01*
X140112424Y-146529923D01*
X140006795Y-146574401D01*
X139915894Y-146599058D01*
X139809772Y-146614855D01*
X139686134Y-146620471D01*
X139545137Y-146614347D01*
X139427588Y-146597362D01*
X139330120Y-146571287D01*
X139237151Y-146532668D01*
X139156235Y-146484845D01*
X139086030Y-146427855D01*
X139026191Y-146360679D01*
X138980159Y-146285562D01*
X138947269Y-146201351D01*
X138926874Y-146091800D01*
X138918510Y-145915495D01*
X138918510Y-145800731D01*
X139170568Y-145800731D01*
X139175167Y-145971094D01*
X139185040Y-146049767D01*
X139212732Y-146128484D01*
X139256297Y-146190085D01*
X139316816Y-146237889D01*
X139402843Y-146276181D01*
X139507149Y-146298057D01*
X139672304Y-146306955D01*
X139838433Y-146298209D01*
X139949459Y-146276181D01*
X140015620Y-146251576D01*
X140062966Y-146224926D01*
X140095546Y-146196771D01*
X140132869Y-146142949D01*
X140158469Y-146074314D01*
X140168576Y-146009162D01*
X140172941Y-145890949D01*
X140172941Y-145664444D01*
X139170568Y-145664444D01*
X139170568Y-145800731D01*
X138918510Y-145800731D01*
X138918510Y-145361186D01*
X140425000Y-145361186D01*
X140425000Y-145931890D01*
G37*
G36*
X140425000Y-147046553D02*
G01*
X140085013Y-147170567D01*
X140085013Y-147770947D01*
X140425000Y-147902105D01*
X140425000Y-148232108D01*
X138918510Y-147630629D01*
X138918510Y-147466681D01*
X139270219Y-147466681D01*
X139832955Y-147673677D01*
X139832955Y-147263807D01*
X139270219Y-147466681D01*
X138918510Y-147466681D01*
X138918510Y-147309877D01*
X140425000Y-146724794D01*
X140425000Y-147046553D01*
G37*
G36*
X132053988Y-144751522D02*
G01*
X131801929Y-144751522D01*
X131801929Y-145405207D01*
X132402858Y-145405207D01*
X132457907Y-145337557D01*
X132511943Y-145247082D01*
X132564516Y-145129060D01*
X132603549Y-145006937D01*
X132626646Y-144885105D01*
X132634309Y-144762696D01*
X132627685Y-144644940D01*
X132608524Y-144538105D01*
X132577568Y-144440799D01*
X132535116Y-144351818D01*
X132479971Y-144269443D01*
X132414770Y-144198640D01*
X132338878Y-144138469D01*
X132251183Y-144088494D01*
X132125507Y-144039849D01*
X131992178Y-144010397D01*
X131849556Y-144000383D01*
X131732044Y-144006869D01*
X131623867Y-144025748D01*
X131523854Y-144056439D01*
X131430985Y-144098752D01*
X131344716Y-144153682D01*
X131269689Y-144219462D01*
X131204984Y-144296755D01*
X131150167Y-144386714D01*
X131109979Y-144485790D01*
X131084263Y-144604393D01*
X131075062Y-144746393D01*
X131083517Y-144888053D01*
X131107040Y-145005608D01*
X131143528Y-145102956D01*
X131191841Y-145183374D01*
X131255394Y-145254644D01*
X131329430Y-145311701D01*
X131415220Y-145355431D01*
X131514699Y-145385790D01*
X131573318Y-145084547D01*
X131503358Y-145056664D01*
X131445314Y-145017041D01*
X131397463Y-144965112D01*
X131362447Y-144903793D01*
X131340665Y-144831742D01*
X131332983Y-144746393D01*
X131341541Y-144648738D01*
X131365929Y-144565136D01*
X131405266Y-144492953D01*
X131460111Y-144430312D01*
X131526342Y-144381799D01*
X131608774Y-144345241D01*
X131710906Y-144321563D01*
X131837100Y-144312984D01*
X131973899Y-144321785D01*
X132083811Y-144345960D01*
X132171708Y-144383027D01*
X132241566Y-144431777D01*
X132300446Y-144495686D01*
X132342070Y-144567687D01*
X132367538Y-144649416D01*
X132376388Y-144743278D01*
X132367109Y-144837839D01*
X132338561Y-144934429D01*
X132295742Y-145025149D01*
X132246787Y-145098835D01*
X132053988Y-145098835D01*
X132053988Y-144751522D01*
G37*
G36*
X132605000Y-145688315D02*
G01*
X131098510Y-145688315D01*
X131098510Y-145983422D01*
X132107019Y-146598181D01*
X131098510Y-146598181D01*
X131098510Y-146880006D01*
X132605000Y-146880006D01*
X132605000Y-146575649D01*
X131611511Y-145970049D01*
X132605000Y-145970049D01*
X132605000Y-145688315D01*
G37*
G36*
X132605000Y-147770180D02*
G01*
X132596014Y-147929571D01*
X132573126Y-148038633D01*
X132538992Y-148125363D01*
X132498759Y-148195599D01*
X132452867Y-148251766D01*
X132380342Y-148314481D01*
X132292424Y-148368213D01*
X132186795Y-148412691D01*
X132095894Y-148437349D01*
X131989772Y-148453145D01*
X131866134Y-148458762D01*
X131725137Y-148452638D01*
X131607588Y-148435652D01*
X131510120Y-148409577D01*
X131417151Y-148370959D01*
X131336235Y-148323135D01*
X131266030Y-148266146D01*
X131206191Y-148198969D01*
X131160159Y-148123852D01*
X131127269Y-148039641D01*
X131106874Y-147930090D01*
X131098510Y-147753785D01*
X131098510Y-147639022D01*
X131350568Y-147639022D01*
X131355167Y-147809385D01*
X131365040Y-147888058D01*
X131392732Y-147966774D01*
X131436297Y-148028375D01*
X131496816Y-148076180D01*
X131582843Y-148114471D01*
X131687149Y-148136348D01*
X131852304Y-148145245D01*
X132018433Y-148136499D01*
X132129459Y-148114471D01*
X132195620Y-148089866D01*
X132242966Y-148063216D01*
X132275546Y-148035061D01*
X132312869Y-147981239D01*
X132338469Y-147912604D01*
X132348576Y-147847452D01*
X132352941Y-147729239D01*
X132352941Y-147502734D01*
X131350568Y-147502734D01*
X131350568Y-147639022D01*
X131098510Y-147639022D01*
X131098510Y-147199476D01*
X132605000Y-147199476D01*
X132605000Y-147770180D01*
G37*
D11*
G36*
X135912658Y-57177681D02*
G01*
X135744619Y-57177681D01*
X135744619Y-57613471D01*
X136145239Y-57613471D01*
X136181938Y-57568371D01*
X136217962Y-57508054D01*
X136253011Y-57429373D01*
X136279033Y-57347958D01*
X136294430Y-57266736D01*
X136299539Y-57185130D01*
X136295123Y-57106627D01*
X136282349Y-57035403D01*
X136261712Y-56970533D01*
X136233410Y-56911212D01*
X136196647Y-56856295D01*
X136153180Y-56809093D01*
X136102585Y-56768979D01*
X136044122Y-56735662D01*
X135960338Y-56703233D01*
X135871452Y-56683598D01*
X135776371Y-56676922D01*
X135698029Y-56681246D01*
X135625911Y-56693832D01*
X135559236Y-56714293D01*
X135497323Y-56742501D01*
X135439811Y-56779121D01*
X135389793Y-56822975D01*
X135346656Y-56874503D01*
X135310111Y-56934476D01*
X135283319Y-57000526D01*
X135266175Y-57079595D01*
X135260041Y-57174262D01*
X135265678Y-57268702D01*
X135281360Y-57347072D01*
X135305685Y-57411971D01*
X135337894Y-57465582D01*
X135380263Y-57513096D01*
X135429620Y-57551134D01*
X135486813Y-57580287D01*
X135553133Y-57600526D01*
X135592212Y-57399698D01*
X135545572Y-57381109D01*
X135506876Y-57354694D01*
X135474975Y-57320075D01*
X135451631Y-57279195D01*
X135437110Y-57231161D01*
X135431988Y-57174262D01*
X135437694Y-57109159D01*
X135453952Y-57053424D01*
X135480177Y-57005302D01*
X135516741Y-56963541D01*
X135560895Y-56931199D01*
X135615849Y-56906827D01*
X135683937Y-56891042D01*
X135768066Y-56885322D01*
X135859266Y-56891190D01*
X135932541Y-56907307D01*
X135991139Y-56932018D01*
X136037711Y-56964518D01*
X136076964Y-57007124D01*
X136104713Y-57055125D01*
X136121692Y-57109610D01*
X136127592Y-57172185D01*
X136121406Y-57235226D01*
X136102374Y-57299619D01*
X136073828Y-57360099D01*
X136041191Y-57409223D01*
X135912658Y-57409223D01*
X135912658Y-57177681D01*
G37*
G36*
X136280000Y-57802210D02*
G01*
X135275673Y-57802210D01*
X135275673Y-57998948D01*
X135948012Y-58408787D01*
X135275673Y-58408787D01*
X135275673Y-58596671D01*
X136280000Y-58596671D01*
X136280000Y-58393766D01*
X135617674Y-57990033D01*
X136280000Y-57990033D01*
X136280000Y-57802210D01*
G37*
G36*
X136280000Y-59190120D02*
G01*
X136274009Y-59296381D01*
X136258750Y-59369089D01*
X136235995Y-59426909D01*
X136209172Y-59473733D01*
X136178578Y-59511177D01*
X136130228Y-59552987D01*
X136071616Y-59588809D01*
X136001196Y-59618461D01*
X135940596Y-59634899D01*
X135869848Y-59645430D01*
X135787423Y-59649174D01*
X135693424Y-59645092D01*
X135615058Y-59633768D01*
X135550080Y-59616385D01*
X135488101Y-59590639D01*
X135434157Y-59558757D01*
X135387353Y-59520764D01*
X135347461Y-59475979D01*
X135316772Y-59425901D01*
X135294846Y-59369760D01*
X135281249Y-59296727D01*
X135275673Y-59179190D01*
X135275673Y-59102681D01*
X135443712Y-59102681D01*
X135446778Y-59216256D01*
X135453360Y-59268705D01*
X135471821Y-59321183D01*
X135500865Y-59362250D01*
X135541211Y-59394120D01*
X135598562Y-59419647D01*
X135668099Y-59434232D01*
X135778203Y-59440163D01*
X135888955Y-59434333D01*
X135962972Y-59419647D01*
X136007080Y-59403244D01*
X136038644Y-59385477D01*
X136060364Y-59366707D01*
X136085246Y-59330826D01*
X136102313Y-59285069D01*
X136109050Y-59241635D01*
X136111960Y-59162826D01*
X136111960Y-59011823D01*
X135443712Y-59011823D01*
X135443712Y-59102681D01*
X135275673Y-59102681D01*
X135275673Y-58809651D01*
X136280000Y-58809651D01*
X136280000Y-59190120D01*
G37*
G36*
X138580416Y-56672573D02*
G01*
X138556908Y-56858381D01*
X138604733Y-56868344D01*
X138641770Y-56884489D01*
X138670176Y-56906191D01*
X138692015Y-56934143D01*
X138704914Y-56965204D01*
X138709316Y-57000469D01*
X138704271Y-57038129D01*
X138689463Y-57071063D01*
X138664192Y-57100547D01*
X138631863Y-57122505D01*
X138591948Y-57136279D01*
X138542376Y-57141214D01*
X138495491Y-57136487D01*
X138457830Y-57123296D01*
X138427398Y-57102257D01*
X138403614Y-57074091D01*
X138389694Y-57042832D01*
X138384961Y-57007308D01*
X138388208Y-56968970D01*
X138399310Y-56919197D01*
X138244277Y-56940385D01*
X138240968Y-56991167D01*
X138229370Y-57029837D01*
X138210694Y-57059209D01*
X138184538Y-57081865D01*
X138153460Y-57095485D01*
X138115928Y-57100242D01*
X138083673Y-57096657D01*
X138057415Y-57086547D01*
X138035816Y-57070139D01*
X138019489Y-57048451D01*
X138009448Y-57022257D01*
X138005896Y-56990272D01*
X138009719Y-56958831D01*
X138020906Y-56931120D01*
X138039785Y-56906191D01*
X138064457Y-56886837D01*
X138096797Y-56872548D01*
X138138764Y-56863876D01*
X138108967Y-56686922D01*
X138048879Y-56702327D01*
X138000840Y-56721079D01*
X137962909Y-56742609D01*
X137929542Y-56770230D01*
X137900963Y-56804537D01*
X137876997Y-56846413D01*
X137859837Y-56891778D01*
X137849300Y-56941298D01*
X137845673Y-56995706D01*
X137851722Y-57065175D01*
X137869001Y-57125031D01*
X137896933Y-57177061D01*
X137935921Y-57222547D01*
X137975083Y-57254024D01*
X138015526Y-57275717D01*
X138057817Y-57288567D01*
X138102739Y-57292889D01*
X138152219Y-57287391D01*
X138197034Y-57271204D01*
X138238414Y-57243899D01*
X138277100Y-57203921D01*
X138313276Y-57148724D01*
X138331048Y-57203050D01*
X138358523Y-57248448D01*
X138396074Y-57286355D01*
X138441299Y-57314735D01*
X138492524Y-57331977D01*
X138551352Y-57337951D01*
X138615403Y-57331840D01*
X138673465Y-57313951D01*
X138726854Y-57284216D01*
X138776482Y-57241598D01*
X138817058Y-57190717D01*
X138845862Y-57134579D01*
X138863459Y-57072118D01*
X138869539Y-57001873D01*
X138864216Y-56934786D01*
X138848912Y-56875705D01*
X138824112Y-56823252D01*
X138789610Y-56776376D01*
X138746859Y-56736588D01*
X138698386Y-56706231D01*
X138643320Y-56684835D01*
X138580416Y-56672573D01*
G37*
G36*
X138850000Y-57498114D02*
G01*
X138658513Y-57498114D01*
X138658513Y-57690027D01*
X138850000Y-57690027D01*
X138850000Y-57498114D01*
G37*
G36*
X138580416Y-57839077D02*
G01*
X138556908Y-58024884D01*
X138604733Y-58034848D01*
X138641770Y-58050993D01*
X138670176Y-58072695D01*
X138692015Y-58100646D01*
X138704914Y-58131708D01*
X138709316Y-58166973D01*
X138704271Y-58204633D01*
X138689463Y-58237567D01*
X138664192Y-58267051D01*
X138631863Y-58289009D01*
X138591948Y-58302783D01*
X138542376Y-58307718D01*
X138495491Y-58302990D01*
X138457830Y-58289800D01*
X138427398Y-58268761D01*
X138403614Y-58240595D01*
X138389694Y-58209336D01*
X138384961Y-58173811D01*
X138388208Y-58135474D01*
X138399310Y-58085701D01*
X138244277Y-58106889D01*
X138240968Y-58157671D01*
X138229370Y-58196341D01*
X138210694Y-58225713D01*
X138184538Y-58248369D01*
X138153460Y-58261989D01*
X138115928Y-58266746D01*
X138083673Y-58263161D01*
X138057415Y-58253051D01*
X138035816Y-58236643D01*
X138019489Y-58214955D01*
X138009448Y-58188761D01*
X138005896Y-58156775D01*
X138009719Y-58125335D01*
X138020906Y-58097624D01*
X138039785Y-58072695D01*
X138064457Y-58053341D01*
X138096797Y-58039052D01*
X138138764Y-58030380D01*
X138108967Y-57853426D01*
X138048879Y-57868831D01*
X138000840Y-57887583D01*
X137962909Y-57909113D01*
X137929542Y-57936734D01*
X137900963Y-57971041D01*
X137876997Y-58012916D01*
X137859837Y-58058282D01*
X137849300Y-58107802D01*
X137845673Y-58162210D01*
X137851722Y-58231679D01*
X137869001Y-58291535D01*
X137896933Y-58343564D01*
X137935921Y-58389050D01*
X137975083Y-58420528D01*
X138015526Y-58442221D01*
X138057817Y-58455071D01*
X138102739Y-58459392D01*
X138152219Y-58453895D01*
X138197034Y-58437708D01*
X138238414Y-58410403D01*
X138277100Y-58370424D01*
X138313276Y-58315228D01*
X138331048Y-58369554D01*
X138358523Y-58414951D01*
X138396074Y-58452859D01*
X138441299Y-58481238D01*
X138492524Y-58498481D01*
X138551352Y-58504455D01*
X138615403Y-58498344D01*
X138673465Y-58480455D01*
X138726854Y-58450720D01*
X138776482Y-58408101D01*
X138817058Y-58357221D01*
X138845862Y-58301083D01*
X138863459Y-58238621D01*
X138869539Y-58168377D01*
X138864216Y-58101289D01*
X138848912Y-58042209D01*
X138824112Y-57989756D01*
X138789610Y-57942880D01*
X138746859Y-57903092D01*
X138698386Y-57872735D01*
X138643320Y-57851339D01*
X138580416Y-57839077D01*
G37*
G36*
X138850000Y-58921439D02*
G01*
X137845673Y-58563501D01*
X137845673Y-58782770D01*
X138588171Y-59036233D01*
X137845673Y-59281453D01*
X137845673Y-59495959D01*
X138850000Y-59137288D01*
X138850000Y-58921439D01*
G37*
M02*
