%TF.GenerationSoftware,KiCad,Pcbnew,9.0.3*%
%TF.CreationDate,2026-03-22T16:46:22+05:30*%
%TF.ProjectId,IR_PCB,49525f50-4342-42e6-9b69-6361645f7063,rev?*%
%TF.SameCoordinates,Original*%
%TF.FileFunction,Soldermask,Top*%
%TF.FilePolarity,Negative*%
%FSLAX46Y46*%
G04 Gerber Fmt 4.6, Leading zero omitted, Abs format (unit mm)*
G04 Created by KiCad (PCBNEW 9.0.3) date 2026-03-22 16:46:22*
%MOMM*%
%LPD*%
G01*
G04 APERTURE LIST*
G04 Aperture macros list*
%AMHorizOval*
0 Thick line with rounded ends*
0 $1 width*
0 $2 $3 position (X,Y) of the first rounded end (center of the circle)*
0 $4 $5 position (X,Y) of the second rounded end (center of the circle)*
0 Add line between two ends*
20,1,$1,$2,$3,$4,$5,0*
0 Add two circle primitives to create the rounded ends*
1,1,$1,$2,$3*
1,1,$1,$4,$5*%
%AMRotRect*
0 Rectangle, with rotation*
0 The origin of the aperture is its center*
0 $1 length*
0 $2 width*
0 $3 Rotation angle, in degrees counterclockwise*
0 Add horizontal line*
21,1,$1,$2,0,0,$3*%
G04 Aperture macros list end*
%ADD10R,1.700000X1.700000*%
%ADD11O,1.700000X1.700000*%
%ADD12C,1.600000*%
%ADD13C,1.400000*%
%ADD14HorizOval,1.400000X0.000000X0.000000X0.000000X0.000000X0*%
%ADD15HorizOval,1.400000X0.000000X0.000000X0.000000X0.000000X0*%
%ADD16HorizOval,1.400000X0.000000X0.000000X0.000000X0.000000X0*%
%ADD17HorizOval,1.400000X0.000000X0.000000X0.000000X0.000000X0*%
%ADD18RotRect,1.700000X1.700000X135.000000*%
%ADD19HorizOval,1.700000X0.000000X0.000000X0.000000X0.000000X0*%
%ADD20RotRect,1.700000X1.700000X45.000000*%
%ADD21HorizOval,1.700000X0.000000X0.000000X0.000000X0.000000X0*%
%ADD22RotRect,1.700000X1.700000X292.500000*%
%ADD23HorizOval,1.700000X0.000000X0.000000X0.000000X0.000000X0*%
%ADD24HorizOval,1.400000X0.000000X0.000000X0.000000X0.000000X0*%
%ADD25RotRect,1.700000X1.700000X22.500000*%
%ADD26HorizOval,1.700000X0.000000X0.000000X0.000000X0.000000X0*%
%ADD27RotRect,1.700000X1.700000X157.500000*%
%ADD28HorizOval,1.700000X0.000000X0.000000X0.000000X0.000000X0*%
%ADD29HorizOval,1.400000X0.000000X0.000000X0.000000X0.000000X0*%
%ADD30RotRect,1.700000X1.700000X202.500000*%
%ADD31HorizOval,1.700000X0.000000X0.000000X0.000000X0.000000X0*%
%ADD32HorizOval,1.400000X0.000000X0.000000X0.000000X0.000000X0*%
%ADD33C,1.869000*%
%ADD34HorizOval,1.400000X0.000000X0.000000X0.000000X0.000000X0*%
%ADD35HorizOval,1.400000X0.000000X0.000000X0.000000X0.000000X0*%
%ADD36O,1.400000X1.400000*%
%ADD37RotRect,1.700000X1.700000X315.000000*%
%ADD38HorizOval,1.700000X0.000000X0.000000X0.000000X0.000000X0*%
%ADD39C,1.700000*%
%ADD40RotRect,1.700000X1.700000X67.500000*%
%ADD41HorizOval,1.700000X0.000000X0.000000X0.000000X0.000000X0*%
%ADD42RotRect,1.700000X1.700000X112.500000*%
%ADD43HorizOval,1.700000X0.000000X0.000000X0.000000X0.000000X0*%
%ADD44RotRect,1.700000X1.700000X337.500000*%
%ADD45HorizOval,1.700000X0.000000X0.000000X0.000000X0.000000X0*%
%ADD46HorizOval,1.400000X0.000000X0.000000X0.000000X0.000000X0*%
%ADD47HorizOval,1.400000X0.000000X0.000000X0.000000X0.000000X0*%
%ADD48HorizOval,1.400000X0.000000X0.000000X0.000000X0.000000X0*%
%ADD49RotRect,1.700000X1.700000X225.000000*%
%ADD50HorizOval,1.700000X0.000000X0.000000X0.000000X0.000000X0*%
%ADD51RotRect,1.700000X1.700000X247.500000*%
%ADD52HorizOval,1.700000X0.000000X0.000000X0.000000X0.000000X0*%
G04 APERTURE END LIST*
D10*
%TO.C,U17*%
X138341699Y-164755716D03*
D11*
X135801699Y-164755716D03*
X133261699Y-164755716D03*
%TD*%
D12*
%TO.C,C4*%
X106581975Y-147143010D03*
X104814208Y-148910777D03*
%TD*%
%TO.C,C9*%
X177076399Y-86380620D03*
X179386098Y-85423911D03*
%TD*%
D13*
%TO.C,R6*%
X100698859Y-78312233D03*
D14*
X97106757Y-74720131D03*
%TD*%
D13*
%TO.C,R9*%
X178258619Y-89365407D03*
D15*
X182951927Y-87421375D03*
%TD*%
D13*
%TO.C,1K*%
X132510000Y-86000000D03*
X137590000Y-86000000D03*
%TD*%
%TO.C,R11*%
X151404090Y-65303441D03*
D16*
X153348122Y-60610133D03*
%TD*%
D12*
%TO.C,C5*%
X90064116Y-97079129D03*
X87754417Y-96122420D03*
%TD*%
D10*
%TO.C,U5*%
X80780983Y-112306415D03*
D11*
X80780983Y-109766415D03*
X80780983Y-107226415D03*
%TD*%
D13*
%TO.C,R4*%
X104347516Y-144837840D03*
D17*
X100755414Y-148429942D03*
%TD*%
D18*
%TO.C,U7*%
X95084418Y-72663452D03*
D19*
X96880469Y-70867401D03*
X98676520Y-69071350D03*
%TD*%
D10*
%TO.C,U13*%
X190791000Y-107195000D03*
D11*
X190791000Y-109735000D03*
X190791000Y-112275000D03*
%TD*%
D10*
%TO.C,J1*%
X139606000Y-142000000D03*
D11*
X137066000Y-142000000D03*
X134526000Y-142000000D03*
X131986000Y-142000000D03*
%TD*%
D20*
%TO.C,U11*%
X172873247Y-69049135D03*
D21*
X174669298Y-70845186D03*
X176465349Y-72641237D03*
%TD*%
D12*
%TO.C,C14*%
X173178292Y-138954725D03*
X174946059Y-140722492D03*
%TD*%
D22*
%TO.C,U16*%
X159196663Y-159590682D03*
D23*
X156850009Y-160562698D03*
X154503355Y-161534714D03*
%TD*%
D12*
%TO.C,C1*%
X94495584Y-133120797D03*
X92185885Y-134077506D03*
%TD*%
D10*
%TO.C,U9*%
X133230283Y-54745699D03*
D11*
X135770283Y-54745699D03*
X138310283Y-54745699D03*
%TD*%
D13*
%TO.C,R7*%
X115400691Y-67278080D03*
D24*
X113456659Y-62584772D03*
%TD*%
D25*
%TO.C,U12*%
X185625965Y-86340036D03*
D26*
X186597981Y-88686690D03*
X187569997Y-91033344D03*
%TD*%
D27*
%TO.C,U6*%
X83989963Y-91062368D03*
D28*
X84961979Y-88715714D03*
X85933995Y-86369060D03*
%TD*%
D12*
%TO.C,C6*%
X98393690Y-80546691D03*
X96625923Y-78778924D03*
%TD*%
%TO.C,C15*%
X159156079Y-151041116D03*
X160112788Y-153350815D03*
%TD*%
%TO.C,C12*%
X164990008Y-72358407D03*
X166757775Y-70590640D03*
%TD*%
%TO.C,C10*%
X182875999Y-101030000D03*
X185375999Y-101030000D03*
%TD*%
D13*
%TO.C,R14*%
X170873124Y-141189183D03*
D29*
X174465226Y-144781285D03*
%TD*%
D30*
%TO.C,U4*%
X86223016Y-132884381D03*
D31*
X85251000Y-130537727D03*
X84278984Y-128191073D03*
%TD*%
D13*
%TO.C,R13*%
X180233259Y-125368807D03*
D32*
X184926567Y-127312839D03*
%TD*%
D33*
%TO.C,IC1*%
X112940000Y-117357074D03*
X115480000Y-117357074D03*
X118020000Y-117357074D03*
X120560000Y-117357074D03*
X123100000Y-117357074D03*
X125640000Y-117357074D03*
X128180000Y-117357074D03*
X130720000Y-117357074D03*
X133260000Y-117357074D03*
X135800000Y-117357074D03*
X138340000Y-117357074D03*
X140880000Y-117357074D03*
X140880000Y-102117074D03*
X138340000Y-102117074D03*
X135800000Y-102117074D03*
X133260000Y-102117074D03*
X130720000Y-102117074D03*
X128180000Y-102117074D03*
X125640000Y-102117074D03*
X123100000Y-102117074D03*
X120560000Y-102117074D03*
X118020000Y-102117074D03*
X115480000Y-102117074D03*
X145960000Y-117357074D03*
X148500000Y-117357074D03*
X151040000Y-117357074D03*
X153580000Y-117357074D03*
X156120000Y-117357074D03*
X158660000Y-117357074D03*
X161200000Y-117357074D03*
X163740000Y-117357074D03*
X166280000Y-117357074D03*
X166280000Y-102117074D03*
X163740000Y-102117074D03*
X161200000Y-102117074D03*
X158660000Y-102117074D03*
X156120000Y-102117074D03*
X153580000Y-102117074D03*
X151040000Y-102117074D03*
X148500000Y-102117074D03*
X145960000Y-102117074D03*
X143420000Y-117357074D03*
X153580000Y-114817074D03*
X153580000Y-112277074D03*
X153580000Y-109737074D03*
X153580000Y-107197074D03*
X153580000Y-104657074D03*
X124370000Y-114307074D03*
X121830000Y-114307074D03*
X119290000Y-114307074D03*
X116750000Y-114307074D03*
X114210000Y-114307074D03*
X112940000Y-102117074D03*
X107860000Y-102117074D03*
X110400000Y-117357074D03*
X110400000Y-104657074D03*
X143420000Y-102117074D03*
X110400000Y-102117074D03*
X107860000Y-117357074D03*
%TD*%
D13*
%TO.C,R1*%
X93800460Y-130047118D03*
D34*
X89107152Y-131991150D03*
%TD*%
D13*
%TO.C,R3*%
X120167892Y-154197975D03*
D35*
X118223860Y-158891283D03*
%TD*%
D12*
%TO.C,C7*%
X112415903Y-68460300D03*
X111459194Y-66150601D03*
%TD*%
D13*
%TO.C,R8*%
X130676000Y-63090000D03*
D36*
X130676000Y-58010000D03*
%TD*%
D37*
%TO.C,U15*%
X176487564Y-146837964D03*
D38*
X174691513Y-148634015D03*
X172895462Y-150430066D03*
%TD*%
D10*
%TO.C,J2*%
X144579999Y-132500000D03*
D39*
X142039999Y-132500000D03*
X139500000Y-132500000D03*
X136959999Y-132500000D03*
X134419999Y-132500000D03*
X131879999Y-132500000D03*
X129339999Y-132500000D03*
X126799998Y-132500000D03*
%TD*%
D40*
%TO.C,U10*%
X154474330Y-57954680D03*
D41*
X156820984Y-58926696D03*
X159167638Y-59898712D03*
%TD*%
D12*
%TO.C,C16*%
X141575984Y-156841416D03*
X141575984Y-159341416D03*
%TD*%
D42*
%TO.C,U8*%
X112361460Y-59916472D03*
D43*
X114708114Y-58944456D03*
X117054768Y-57972440D03*
%TD*%
D44*
%TO.C,U14*%
X187582020Y-128439047D03*
D45*
X186610004Y-130785701D03*
X185637988Y-133132355D03*
%TD*%
D12*
%TO.C,C3*%
X123114413Y-155472584D03*
X122157704Y-157782283D03*
%TD*%
D13*
%TO.C,R10*%
X182826000Y-104240000D03*
D36*
X187906000Y-104240000D03*
%TD*%
D13*
%TO.C,R12*%
X167224466Y-74663575D03*
D46*
X170816568Y-71071473D03*
%TD*%
D13*
%TO.C,R16*%
X138365982Y-156791416D03*
D36*
X138365982Y-161871416D03*
%TD*%
D13*
%TO.C,R15*%
X156171292Y-152223336D03*
D47*
X158115324Y-156916644D03*
%TD*%
D13*
%TO.C,R5*%
X91338724Y-94132609D03*
D48*
X86645416Y-92188577D03*
%TD*%
D12*
%TO.C,C2*%
X88695283Y-118450001D03*
X86195283Y-118450001D03*
%TD*%
%TO.C,C13*%
X181507866Y-122422288D03*
X183817565Y-123378997D03*
%TD*%
%TO.C,C11*%
X148021646Y-65154850D03*
X148978355Y-62845151D03*
%TD*%
D10*
%TO.C,Camera1*%
X137500000Y-79500000D03*
D39*
X134960000Y-79500000D03*
X132420001Y-79500000D03*
%TD*%
D13*
%TO.C,R2*%
X88745283Y-115240000D03*
D36*
X83665283Y-115240000D03*
%TD*%
D12*
%TO.C,C8*%
X127466000Y-63040000D03*
X127466000Y-60540000D03*
%TD*%
D49*
%TO.C,U3*%
X98698735Y-150452280D03*
D50*
X96902684Y-148656229D03*
X95106633Y-146860178D03*
%TD*%
D51*
%TO.C,U2*%
X117111510Y-161552477D03*
D52*
X114764856Y-160580461D03*
X112418202Y-159608445D03*
%TD*%
D12*
%TO.C,C17*%
X134500000Y-124500000D03*
X137000000Y-124500000D03*
%TD*%
M02*
