M48
; DRILL file {KiCad 9.0.3} date 2026-03-22T16:46:24+0530
; FORMAT={-:-/ absolute / metric / decimal}
; #@! TF.CreationDate,2026-03-22T16:46:24+05:30
; #@! TF.GenerationSoftware,Kicad,Pcbnew,9.0.3
; #@! TF.FileFunction,Plated,1,2,PTH
FMAT,2
METRIC
; #@! TA.AperFunction,Plated,PTH,ViaDrill
T1C0.400
; #@! TA.AperFunction,Plated,PTH,ComponentDrill
T2C0.700
; #@! TA.AperFunction,Plated,PTH,ComponentDrill
T3C0.800
; #@! TA.AperFunction,Plated,PTH,ComponentDrill
T4C1.000
; #@! TA.AperFunction,Plated,PTH,ComponentDrill
T5C1.110
%
G90
G05
T1
X78.88Y-105.53
X79.92Y-115.31
X81.94Y-128.22
X83.89Y-84.43
X92.6Y-146.55
X98.73Y-66.19
X110.88Y-161.78
X114.0Y-104.5
X117.09Y-55.44
X120.21Y-162.58
X129.5Y-123.5
X131.48Y-166.85
X136.0Y-139.0
X137.844Y-107.735
X140.04Y-52.84
X142.479Y-113.569
X148.967Y-113.488
X154.64Y-164.87
X156.873Y-108.553
X160.92Y-58.02
X173.24Y-152.94
X178.9Y-72.53
X187.24Y-135.03
X190.18Y-90.91
X192.94Y-114.07
T2
X83.665Y-115.24
X86.645Y-92.189
X88.745Y-115.24
X89.107Y-131.991
X91.339Y-94.133
X93.8Y-130.047
X97.107Y-74.72
X100.699Y-78.312
X100.755Y-148.43
X104.348Y-144.838
X113.457Y-62.585
X115.401Y-67.278
X118.224Y-158.891
X120.168Y-154.198
X130.676Y-58.01
X130.676Y-63.09
X132.51Y-86.0
X137.59Y-86.0
X138.366Y-156.791
X138.366Y-161.871
X151.404Y-65.303
X153.348Y-60.61
X156.171Y-152.223
X158.115Y-156.917
X167.224Y-74.664
X170.817Y-71.071
X170.873Y-141.189
X174.465Y-144.781
X178.259Y-89.365
X180.233Y-125.369
X182.826Y-104.24
X182.952Y-87.421
X184.927Y-127.313
X187.906Y-104.24
T3
X86.195Y-118.45
X87.754Y-96.122
X88.695Y-118.45
X90.064Y-97.079
X92.186Y-134.078
X94.496Y-133.121
X96.626Y-78.779
X98.394Y-80.547
X104.814Y-148.911
X106.582Y-147.143
X111.459Y-66.151
X112.416Y-68.46
X122.158Y-157.782
X123.114Y-155.473
X127.466Y-60.54
X127.466Y-63.04
X134.5Y-124.5
X137.0Y-124.5
X141.576Y-156.841
X141.576Y-159.341
X148.022Y-65.155
X148.978Y-62.845
X159.156Y-151.041
X160.113Y-153.351
X164.99Y-72.358
X166.758Y-70.591
X173.178Y-138.955
X174.946Y-140.722
X177.076Y-86.381
X179.386Y-85.424
X181.508Y-122.422
X182.876Y-101.03
X183.818Y-123.379
X185.376Y-101.03
T4
X80.781Y-107.226
X80.781Y-109.766
X80.781Y-112.306
X83.99Y-91.062
X84.279Y-128.191
X84.962Y-88.716
X85.251Y-130.538
X85.934Y-86.369
X86.223Y-132.884
X95.084Y-72.663
X95.107Y-146.86
X96.88Y-70.867
X96.903Y-148.656
X98.677Y-69.071
X98.699Y-150.452
X112.361Y-59.916
X112.418Y-159.608
X114.708Y-58.944
X114.765Y-160.58
X117.055Y-57.972
X117.112Y-161.552
X126.8Y-132.5
X129.34Y-132.5
X131.88Y-132.5
X131.986Y-142.0
X132.42Y-79.5
X133.23Y-54.746
X133.262Y-164.756
X134.42Y-132.5
X134.526Y-142.0
X134.96Y-79.5
X135.77Y-54.746
X135.802Y-164.756
X136.96Y-132.5
X137.066Y-142.0
X137.5Y-79.5
X138.31Y-54.746
X138.342Y-164.756
X139.5Y-132.5
X139.606Y-142.0
X142.04Y-132.5
X144.58Y-132.5
X154.474Y-57.955
X154.503Y-161.535
X156.821Y-58.927
X156.85Y-160.563
X159.168Y-59.899
X159.197Y-159.591
X172.873Y-69.049
X172.895Y-150.43
X174.669Y-70.845
X174.692Y-148.634
X176.465Y-72.641
X176.488Y-146.838
X185.626Y-86.34
X185.638Y-133.132
X186.598Y-88.687
X186.61Y-130.786
X187.57Y-91.033
X187.582Y-128.439
X190.791Y-107.195
X190.791Y-109.735
X190.791Y-112.275
T5
X107.86Y-102.117
X107.86Y-117.357
X110.4Y-102.117
X110.4Y-104.657
X110.4Y-117.357
X112.94Y-102.117
X112.94Y-117.357
X114.21Y-114.307
X115.48Y-102.117
X115.48Y-117.357
X116.75Y-114.307
X118.02Y-102.117
X118.02Y-117.357
X119.29Y-114.307
X120.56Y-102.117
X120.56Y-117.357
X121.83Y-114.307
X123.1Y-102.117
X123.1Y-117.357
X124.37Y-114.307
X125.64Y-102.117
X125.64Y-117.357
X128.18Y-102.117
X128.18Y-117.357
X130.72Y-102.117
X130.72Y-117.357
X133.26Y-102.117
X133.26Y-117.357
X135.8Y-102.117
X135.8Y-117.357
X138.34Y-102.117
X138.34Y-117.357
X140.88Y-102.117
X140.88Y-117.357
X143.42Y-102.117
X143.42Y-117.357
X145.96Y-102.117
X145.96Y-117.357
X148.5Y-102.117
X148.5Y-117.357
X151.04Y-102.117
X151.04Y-117.357
X153.58Y-102.117
X153.58Y-104.657
X153.58Y-107.197
X153.58Y-109.737
X153.58Y-112.277
X153.58Y-114.817
X153.58Y-117.357
X156.12Y-102.117
X156.12Y-117.357
X158.66Y-102.117
X158.66Y-117.357
X161.2Y-102.117
X161.2Y-117.357
X163.74Y-102.117
X163.74Y-117.357
X166.28Y-102.117
X166.28Y-117.357
M30
