%TF.GenerationSoftware,KiCad,Pcbnew,9.0.3*%
%TF.CreationDate,2026-03-22T16:13:08+05:30*%
%TF.ProjectId,Line_PCB,4c696e65-5f50-4434-922e-6b696361645f,rev?*%
%TF.SameCoordinates,Original*%
%TF.FileFunction,Profile,NP*%
%FSLAX46Y46*%
G04 Gerber Fmt 4.6, Leading zero omitted, Abs format (unit mm)*
G04 Created by KiCad (PCBNEW 9.0.3) date 2026-03-22 16:13:08*
%MOMM*%
%LPD*%
G01*
G04 APERTURE LIST*
%TA.AperFunction,Profile*%
%ADD10C,0.050000*%
%TD*%
G04 APERTURE END LIST*
D10*
X107000000Y-166000000D02*
X107000000Y-136000000D01*
X40000000Y-132000000D02*
G75*
G02*
X36000000Y-132000000I-2000000J0D01*
G01*
X36000000Y-132000000D02*
G75*
G02*
X40000000Y-132000000I2000000J0D01*
G01*
X144000000Y-136000000D02*
X144000000Y-166000000D01*
X40000000Y-103000000D02*
G75*
G02*
X36000000Y-103000000I-2000000J0D01*
G01*
X36000000Y-103000000D02*
G75*
G02*
X40000000Y-103000000I2000000J0D01*
G01*
X142000000Y-30000000D02*
G75*
G02*
X138000000Y-30000000I-2000000J0D01*
G01*
X138000000Y-30000000D02*
G75*
G02*
X142000000Y-30000000I2000000J0D01*
G01*
X107000000Y-99000000D02*
X107000000Y-26000000D01*
X34000000Y-99000000D02*
X107000000Y-99000000D01*
X142000000Y-162000000D02*
G75*
G02*
X138000000Y-162000000I-2000000J0D01*
G01*
X138000000Y-162000000D02*
G75*
G02*
X142000000Y-162000000I2000000J0D01*
G01*
X107000000Y-136000000D02*
X34000000Y-136000000D01*
X107000000Y-26000000D02*
X144000000Y-26000000D01*
X34000000Y-136000000D02*
X34000000Y-99000000D01*
X217000000Y-99000000D02*
X217000000Y-136000000D01*
X113000000Y-30000000D02*
G75*
G02*
X109000000Y-30000000I-2000000J0D01*
G01*
X109000000Y-30000000D02*
G75*
G02*
X113000000Y-30000000I2000000J0D01*
G01*
X144000000Y-99000000D02*
X217000000Y-99000000D01*
X113000000Y-162000000D02*
G75*
G02*
X109000000Y-162000000I-2000000J0D01*
G01*
X109000000Y-162000000D02*
G75*
G02*
X113000000Y-162000000I2000000J0D01*
G01*
X215000000Y-132000000D02*
G75*
G02*
X211000000Y-132000000I-2000000J0D01*
G01*
X211000000Y-132000000D02*
G75*
G02*
X215000000Y-132000000I2000000J0D01*
G01*
X215000000Y-103000000D02*
G75*
G02*
X211000000Y-103000000I-2000000J0D01*
G01*
X211000000Y-103000000D02*
G75*
G02*
X215000000Y-103000000I2000000J0D01*
G01*
X144000000Y-166000000D02*
X107000000Y-166000000D01*
X217000000Y-136000000D02*
X144000000Y-136000000D01*
X144000000Y-26000000D02*
X144000000Y-99000000D01*
M02*
