%TF.GenerationSoftware,KiCad,Pcbnew,9.0.3*%
%TF.CreationDate,2026-03-22T16:13:08+05:30*%
%TF.ProjectId,Line_PCB,4c696e65-5f50-4434-922e-6b696361645f,rev?*%
%TF.SameCoordinates,Original*%
%TF.FileFunction,Soldermask,Top*%
%TF.FilePolarity,Negative*%
%FSLAX46Y46*%
G04 Gerber Fmt 4.6, Leading zero omitted, Abs format (unit mm)*
G04 Created by KiCad (PCBNEW 9.0.3) date 2026-03-22 16:13:08*
%MOMM*%
%LPD*%
G01*
G04 APERTURE LIST*
G04 Aperture macros list*
%AMRoundRect*
0 Rectangle with rounded corners*
0 $1 Rounding radius*
0 $2 $3 $4 $5 $6 $7 $8 $9 X,Y pos of 4 corners*
0 Add a 4 corners polygon primitive as box body*
4,1,4,$2,$3,$4,$5,$6,$7,$8,$9,$2,$3,0*
0 Add four circle primitives for the rounded corners*
1,1,$1+$1,$2,$3*
1,1,$1+$1,$4,$5*
1,1,$1+$1,$6,$7*
1,1,$1+$1,$8,$9*
0 Add four rect primitives between the rounded corners*
20,1,$1+$1,$2,$3,$4,$5,0*
20,1,$1+$1,$4,$5,$6,$7,0*
20,1,$1+$1,$6,$7,$8,$9,0*
20,1,$1+$1,$8,$9,$2,$3,0*%
G04 Aperture macros list end*
%ADD10R,1.700000X1.700000*%
%ADD11C,1.700000*%
%ADD12C,1.869000*%
%ADD13C,1.600000*%
%ADD14RoundRect,0.250000X-0.350000X-0.350000X0.350000X-0.350000X0.350000X0.350000X-0.350000X0.350000X0*%
%ADD15C,1.200000*%
G04 APERTURE END LIST*
D10*
%TO.C,Color Sensor 3*%
X199000000Y-108380000D03*
D11*
X199000000Y-110920000D03*
X199000000Y-113460000D03*
X199000000Y-116000000D03*
X199000000Y-118540000D03*
X199000000Y-121080000D03*
X199000000Y-123620000D03*
X199000000Y-126160000D03*
%TD*%
D10*
%TO.C,Color Sensor 1*%
X52000000Y-126500000D03*
D11*
X52000000Y-123960000D03*
X52000000Y-121420000D03*
X52000000Y-118880000D03*
X52000000Y-116340000D03*
X52000000Y-113800000D03*
X52000000Y-111260000D03*
X52000000Y-108720000D03*
%TD*%
D10*
%TO.C,5V IN*%
X90000000Y-112500000D03*
D11*
X90000000Y-109960000D03*
%TD*%
D10*
%TO.C,J6*%
X161000000Y-116225000D03*
D11*
X161000000Y-118765000D03*
%TD*%
D12*
%TO.C,Teensy 4.1*%
X101360000Y-125160000D03*
X103900000Y-125160000D03*
X106440000Y-125160000D03*
X108980000Y-125160000D03*
X111520000Y-125160000D03*
X114060000Y-125160000D03*
X116600000Y-125160000D03*
X119140000Y-125160000D03*
X121680000Y-125160000D03*
X124220000Y-125160000D03*
X126760000Y-125160000D03*
X129300000Y-125160000D03*
X129300000Y-109920000D03*
X126760000Y-109920000D03*
X124220000Y-109920000D03*
X121680000Y-109920000D03*
X119140000Y-109920000D03*
X116600000Y-109920000D03*
X114060000Y-109920000D03*
X111520000Y-109920000D03*
X108980000Y-109920000D03*
X106440000Y-109920000D03*
X103900000Y-109920000D03*
X134380000Y-125160000D03*
X136920000Y-125160000D03*
X139460000Y-125160000D03*
X142000000Y-125160000D03*
X144540000Y-125160000D03*
X147080000Y-125160000D03*
X149620000Y-125160000D03*
X152160000Y-125160000D03*
X154700000Y-125160000D03*
X154700000Y-109920000D03*
X152160000Y-109920000D03*
X149620000Y-109920000D03*
X147080000Y-109920000D03*
X144540000Y-109920000D03*
X142000000Y-109920000D03*
X139460000Y-109920000D03*
X136920000Y-109920000D03*
X134380000Y-109920000D03*
X131840000Y-125160000D03*
X142000000Y-122620000D03*
X142000000Y-120080000D03*
X142000000Y-117540000D03*
X142000000Y-115000000D03*
X142000000Y-112460000D03*
X112790000Y-122110000D03*
X110250000Y-122110000D03*
X107710000Y-122110000D03*
X105170000Y-122110000D03*
X102630000Y-122110000D03*
X101360000Y-109920000D03*
X96280000Y-109920000D03*
X98820000Y-125160000D03*
X98820000Y-112460000D03*
X131840000Y-109920000D03*
X98820000Y-109920000D03*
X96280000Y-125160000D03*
%TD*%
D10*
%TO.C,J5*%
X90000000Y-125275000D03*
D11*
X90000000Y-122735000D03*
%TD*%
D13*
%TO.C,C3*%
X193500000Y-124000000D03*
X193500000Y-126500000D03*
%TD*%
%TO.C,C1*%
X57500000Y-111000000D03*
X57500000Y-108500000D03*
%TD*%
D14*
%TO.C,C5*%
X124500000Y-132000000D03*
D15*
X126500000Y-132000000D03*
%TD*%
D10*
%TO.C,Color Sensor 2*%
X134410000Y-148000000D03*
D11*
X131870000Y-148000000D03*
X129330000Y-148000000D03*
X126790000Y-148000000D03*
X124250000Y-148000000D03*
X121710000Y-148000000D03*
X119170000Y-148000000D03*
X116630000Y-148000000D03*
%TD*%
D13*
%TO.C,C4*%
X132500000Y-49500000D03*
X135000000Y-49500000D03*
%TD*%
D10*
%TO.C,Color Sensor 4*%
X116920001Y-44000000D03*
D11*
X119460001Y-44000000D03*
X122000001Y-44000000D03*
X124540001Y-44000000D03*
X127080001Y-44000000D03*
X129620001Y-44000000D03*
X132160001Y-44000000D03*
X134700001Y-44000000D03*
%TD*%
D13*
%TO.C,C2*%
X119000000Y-142500000D03*
X116500000Y-142500000D03*
%TD*%
M02*
