M48
; DRILL file {KiCad 9.0.3} date 2026-03-22T16:13:16+0530
; FORMAT={-:-/ absolute / metric / decimal}
; #@! TF.CreationDate,2026-03-22T16:13:16+05:30
; #@! TF.GenerationSoftware,Kicad,Pcbnew,9.0.3
; #@! TF.FileFunction,Plated,1,2,PTH
FMAT,2
METRIC
; #@! TA.AperFunction,Plated,PTH,ViaDrill
T1C0.400
; #@! TA.AperFunction,Plated,PTH,ComponentDrill
T2C0.600
; #@! TA.AperFunction,Plated,PTH,ComponentDrill
T3C0.800
; #@! TA.AperFunction,Plated,PTH,ComponentDrill
T4C1.000
; #@! TA.AperFunction,Plated,PTH,ComponentDrill
T5C1.110
%
G90
G05
T1
X52.5Y-131.0
X196.5Y-107.0
T2
X124.5Y-132.0
X126.5Y-132.0
T3
X57.5Y-108.5
X57.5Y-111.0
X116.5Y-142.5
X119.0Y-142.5
X132.5Y-49.5
X135.0Y-49.5
X193.5Y-124.0
X193.5Y-126.5
T4
X52.0Y-108.72
X52.0Y-111.26
X52.0Y-113.8
X52.0Y-116.34
X52.0Y-118.88
X52.0Y-121.42
X52.0Y-123.96
X52.0Y-126.5
X90.0Y-109.96
X90.0Y-112.5
X90.0Y-122.735
X90.0Y-125.275
X116.63Y-148.0
X116.92Y-44.0
X119.17Y-148.0
X119.46Y-44.0
X121.71Y-148.0
X122.0Y-44.0
X124.25Y-148.0
X124.54Y-44.0
X126.79Y-148.0
X127.08Y-44.0
X129.33Y-148.0
X129.62Y-44.0
X131.87Y-148.0
X132.16Y-44.0
X134.41Y-148.0
X134.7Y-44.0
X161.0Y-116.225
X161.0Y-118.765
X199.0Y-108.38
X199.0Y-110.92
X199.0Y-113.46
X199.0Y-116.0
X199.0Y-118.54
X199.0Y-121.08
X199.0Y-123.62
X199.0Y-126.16
T5
X96.28Y-109.92
X96.28Y-125.16
X98.82Y-109.92
X98.82Y-112.46
X98.82Y-125.16
X101.36Y-109.92
X101.36Y-125.16
X102.63Y-122.11
X103.9Y-109.92
X103.9Y-125.16
X105.17Y-122.11
X106.44Y-109.92
X106.44Y-125.16
X107.71Y-122.11
X108.98Y-109.92
X108.98Y-125.16
X110.25Y-122.11
X111.52Y-109.92
X111.52Y-125.16
X112.79Y-122.11
X114.06Y-109.92
X114.06Y-125.16
X116.6Y-109.92
X116.6Y-125.16
X119.14Y-109.92
X119.14Y-125.16
X121.68Y-109.92
X121.68Y-125.16
X124.22Y-109.92
X124.22Y-125.16
X126.76Y-109.92
X126.76Y-125.16
X129.3Y-109.92
X129.3Y-125.16
X131.84Y-109.92
X131.84Y-125.16
X134.38Y-109.92
X134.38Y-125.16
X136.92Y-109.92
X136.92Y-125.16
X139.46Y-109.92
X139.46Y-125.16
X142.0Y-109.92
X142.0Y-112.46
X142.0Y-115.0
X142.0Y-117.54
X142.0Y-120.08
X142.0Y-122.62
X142.0Y-125.16
X144.54Y-109.92
X144.54Y-125.16
X147.08Y-109.92
X147.08Y-125.16
X149.62Y-109.92
X149.62Y-125.16
X152.16Y-109.92
X152.16Y-125.16
X154.7Y-109.92
X154.7Y-125.16
M30
